/* XPM */
static char * 1_xpm[] = {
"64 64 496 2",
"  	c #AEC440",
". 	c #527F39",
"+ 	c #D7E894",
"@ 	c #ADC340",
"# 	c #A9BF41",
"$ 	c #A9C041",
"% 	c #AAC140",
"& 	c #AAC040",
"* 	c #AAC141",
"= 	c #AAC041",
"- 	c #ABC141",
"; 	c #A3BA42",
"> 	c #446645",
", 	c #1B433C",
"' 	c #163D39",
") 	c #19463A",
"! 	c #1E4C42",
"~ 	c #245445",
"{ 	c #2E654E",
"] 	c #A4BB43",
"^ 	c #9FB642",
"/ 	c #4E654B",
"( 	c #0F2E31",
"_ 	c #06222A",
": 	c #061F28",
"< 	c #0C1D24",
"[ 	c #0A242B",
"} 	c #0A2C2C",
"| 	c #295D4A",
"1 	c #8AA548",
"2 	c #AAC142",
"3 	c #ACC241",
"4 	c #A0B743",
"5 	c #8EA643",
"6 	c #2D4A35",
"7 	c #01121C",
"8 	c #031522",
"9 	c #041B24",
"0 	c #0A161D",
"a 	c #010D1C",
"b 	c #133B34",
"c 	c #265647",
"d 	c #5D814D",
"e 	c #A0B846",
"f 	c #507F3D",
"g 	c #527F3A",
"h 	c #9DB544",
"i 	c #437141",
"j 	c #617E45",
"k 	c #1C332E",
"l 	c #112326",
"m 	c #143533",
"n 	c #25463A",
"o 	c #336447",
"p 	c #76944A",
"q 	c #9EB644",
"r 	c #517E3B",
"s 	c #A8BF41",
"t 	c #88A347",
"u 	c #577242",
"v 	c #1B3A36",
"w 	c #2C4635",
"x 	c #314635",
"y 	c #2E4A34",
"z 	c #243C33",
"A 	c #628148",
"B 	c #8FA947",
"C 	c #4D7D41",
"D 	c #ADC341",
"E 	c #CFE190",
"F 	c #6E8F4C",
"G 	c #1F5241",
"H 	c #0E3633",
"I 	c #1C3532",
"J 	c #33523B",
"K 	c #4A6D47",
"L 	c #59854D",
"M 	c #5B8452",
"N 	c #547C4C",
"O 	c #4B7745",
"P 	c #54784F",
"Q 	c #55824C",
"R 	c #213435",
"S 	c #316951",
"T 	c #7A9C4F",
"U 	c #9BB548",
"V 	c #A0B945",
"W 	c #7E9968",
"X 	c #6B9C5A",
"Y 	c #80B76A",
"Z 	c #87C26C",
"` 	c #7BB365",
" .	c #75AA62",
"..	c #72A560",
"+.	c #79AF64",
"@.	c #83BC6A",
"#.	c #387457",
"$.	c #85A54F",
"%.	c #A4BB44",
"&.	c #88A348",
"*.	c #416445",
"=.	c #162B2C",
"-.	c #3B5B3D",
";.	c #628B57",
">.	c #9BDC7A",
",.	c #A3E87F",
"'.	c #9CE177",
").	c #99D977",
"!.	c #8ECB71",
"~.	c #91CE74",
"{.	c #95D475",
"].	c #2F684F",
"^.	c #98B247",
"/.	c #9EB542",
"(.	c #597644",
"_.	c #224D41",
":.	c #213B2D",
"<.	c #ADF487",
"[.	c #B4FA8B",
"}.	c #A9E985",
"|.	c #A3E57E",
"1.	c #365737",
"2.	c #1C3D3A",
"3.	c #8AA446",
"4.	c #9FB743",
"5.	c #ACC240",
"6.	c #A9BF40",
"7.	c #74893C",
"8.	c #293A3C",
"9.	c #456B43",
"0.	c #5D8A53",
"a.	c #314C3A",
"b.	c #A5BC42",
"c.	c #8DA441",
"d.	c #2B4032",
"e.	c #96D379",
"f.	c #89C56D",
"g.	c #8CC372",
"h.	c #152732",
"i.	c #8BA548",
"j.	c #517E3C",
"k.	c #566B36",
"l.	c #010B14",
"m.	c #6DA25C",
"n.	c #72A55D",
"o.	c #77B45E",
"p.	c #377658",
"q.	c #A3BB45",
"r.	c #A8BF43",
"s.	c #4C793D",
"t.	c #2B462F",
"u.	c #000413",
"v.	c #00000B",
"w.	c #3C653A",
"x.	c #2D572E",
"y.	c #669656",
"z.	c #0D362E",
"A.	c #275B48",
"B.	c #3C7B5B",
"C.	c #91AF4F",
"D.	c #A6BF45",
"E.	c #467D4F",
"F.	c #6DA656",
"G.	c #8BCB6D",
"H.	c #2D5233",
"I.	c #0A241B",
"J.	c #081B0F",
"K.	c #9FD781",
"L.	c #1F402B",
"M.	c #031A1C",
"N.	c #000002",
"O.	c #7DA255",
"P.	c #BED388",
"Q.	c #193729",
"R.	c #0E2324",
"S.	c #152C27",
"T.	c #4C724B",
"U.	c #82A36F",
"V.	c #C2D68A",
"W.	c #A8BF42",
"X.	c #537B4F",
"Y.	c #306750",
"Z.	c #365446",
"`.	c #1C2B31",
" +	c #0C1526",
".+	c #0A0E21",
"++	c #131A28",
"@+	c #5F8758",
"#+	c #72AB5C",
"$+	c #3A6347",
"%+	c #14242B",
"&+	c #4A7650",
"*+	c #86A149",
"=+	c #90A945",
"-+	c #2B5847",
";+	c #3F4E50",
">+	c #53685A",
",+	c #587855",
"'+	c #476C49",
")+	c #4E5259",
"!+	c #595863",
"~+	c #5D7066",
"{+	c #698867",
"]+	c #729A69",
"^+	c #82C463",
"/+	c #8BD665",
"(+	c #86C966",
"_+	c #475956",
":+	c #425B49",
"<+	c #4B6158",
"[+	c #2F6851",
"}+	c #A3BA43",
"|+	c #3A6C49",
"1+	c #748A78",
"2+	c #8BA28B",
"3+	c #6D8372",
"4+	c #364B45",
"5+	c #7B937C",
"6+	c #949D96",
"7+	c #B0A9AA",
"8+	c #A6A8A4",
"9+	c #9EB799",
"0+	c #95BA86",
"a+	c #8AB877",
"b+	c #79BA5D",
"c+	c #75BF52",
"d+	c #A8B5A5",
"e+	c #7E8C84",
"f+	c #8E9D91",
"g+	c #9AB345",
"h+	c #C9DB8D",
"i+	c #265A46",
"j+	c #C4DBB8",
"k+	c #BED5B2",
"l+	c #2C4142",
"m+	c #707B77",
"n+	c #ADC8A3",
"o+	c #D1DDCA",
"p+	c #EEEBE1",
"q+	c #E3F5D4",
"r+	c #CAE3BC",
"s+	c #B7D8A7",
"t+	c #A2CD8E",
"u+	c #6FB450",
"v+	c #8EC078",
"w+	c #9CC988",
"x+	c #A2B599",
"y+	c #5A6A65",
"z+	c #8FAB4A",
"A+	c #93AE48",
"B+	c #082A26",
"C+	c #6E7975",
"D+	c #BBCEB4",
"E+	c #F3FFDD",
"F+	c #EBFDD6",
"G+	c #859B84",
"H+	c #D5E8C8",
"I+	c #FEFFEC",
"J+	c #FFFFFD",
"K+	c #FFFFF3",
"L+	c #D7F9BA",
"M+	c #A9D394",
"N+	c #96CA7D",
"O+	c #A6D88B",
"P+	c #D7E6BD",
"Q+	c #EBFEDB",
"R+	c #C3D5BB",
"S+	c #1A242E",
"T+	c #85A34C",
"U+	c #ADC440",
"V+	c #8BA84B",
"W+	c #032522",
"X+	c #C9E8B6",
"Y+	c #789075",
"Z+	c #23432C",
"`+	c #E4FDD1",
" @	c #E5FDCB",
".@	c #739650",
"+@	c #809F4E",
"@@	c #64776B",
"#@	c #DBF8C5",
"$@	c #F5FFE2",
"%@	c #93AA8D",
"&@	c #CADCC1",
"*@	c #B2D69C",
"=@	c #5F8A54",
"-@	c #A9C042",
";@	c #89A64A",
">@	c #636C6D",
",@	c #CBF3B2",
"'@	c #323C47",
")@	c #F5FBEA",
"!@	c #A7BF43",
"~@	c #9AB446",
"{@	c #49734D",
"]@	c #87988A",
"^@	c #C3EDAA",
"/@	c #BFF3A1",
"(@	c #03061A",
"_@	c #A6BD43",
":@	c #A1B843",
"<@	c #79903D",
"[@	c #3A4D4C",
"}@	c #D6FFAB",
"|@	c #F8FFD6",
"1@	c #A7BE41",
"2@	c #7B9543",
"3@	c #5E753C",
"4@	c #BAF895",
"5@	c #E2FFB6",
"6@	c #FAFFE5",
"7@	c #4E774C",
"8@	c #7C9949",
"9@	c #507E3C",
"0@	c #6C8745",
"a@	c #7EB766",
"b@	c #4F774F",
"c@	c #427348",
"d@	c #4A7941",
"e@	c #A6BD42",
"f@	c #517F3A",
"g@	c #98B144",
"h@	c #758B3D",
"i@	c #37472C",
"j@	c #5F9253",
"k@	c #B7E79C",
"l@	c #EBF4D0",
"m@	c #98A996",
"n@	c #30523A",
"o@	c #668547",
"p@	c #4A7D49",
"q@	c #ACC341",
"r@	c #9DB340",
"s@	c #3C5334",
"t@	c #A9CB99",
"u@	c #3B4E2E",
"v@	c #516636",
"w@	c #7B9441",
"x@	c #C6D98B",
"y@	c #A8BE41",
"z@	c #85A478",
"A@	c #BCE2A6",
"B@	c #80963D",
"C@	c #9EB643",
"D@	c #C8DA8C",
"E@	c #A5BC43",
"F@	c #4E8056",
"G@	c #C6F5A9",
"H@	c #829F49",
"I@	c #ABC241",
"J@	c #5F964F",
"K@	c #CEE2C2",
"L@	c #84A24B",
"M@	c #537555",
"N@	c #2B452D",
"O@	c #819943",
"P@	c #A3B941",
"Q@	c #3E573A",
"R@	c #738635",
"S@	c #8FA43E",
"T@	c #C7D98B",
"U@	c #97AD3F",
"V@	c #142728",
"W@	c #566E3D",
"X@	c #AABF7D",
"Y@	c #9EB747",
"Z@	c #A2BA43",
"`@	c #9AB244",
" #	c #809841",
".#	c #677B37",
"+#	c #355841",
"@#	c #52794F",
"##	c #95AD43",
"$#	c #252C34",
"%#	c #374846",
"&#	c #8BA141",
"*#	c #4C6C41",
"=#	c #809941",
"-#	c #C5D78A",
";#	c #ABC142",
">#	c #9BB447",
",#	c #7EAE6B",
"'#	c #8FA846",
")#	c #A8BE42",
"!#	c #7D9D4D",
"~#	c #396543",
"{#	c #8CA647",
"]#	c #457443",
"^#	c #B0EA8E",
"/#	c #456846",
"(#	c #617D44",
"_#	c #2E4B39",
":#	c #80953E",
"<#	c #87A044",
"[#	c #8DD26A",
"}#	c #8FD070",
"|#	c #3C4F33",
"1#	c #A5BA40",
"2#	c #628046",
"3#	c #37452B",
"4#	c #A1B73F",
"5#	c #386348",
"6#	c #96AB3D",
"7#	c #8DA23C",
"8#	c #859A3D",
"9#	c #466D49",
"0#	c #7C9341",
"a#	c #405B3C",
"b#	c #A1B476",
"c#	c #90AA47",
"d#	c #527453",
"e#	c #265241",
"f#	c #9AB142",
"g#	c #A5BC41",
"h#	c #8EA847",
"i#	c #ABC07D",
"j#	c #779245",
"k#	c #39654A",
"l#	c #A7BE42",
"m#	c #78954B",
"n#	c #325742",
"o#	c #789549",
"p#	c #A7BE43",
"q#	c #78964B",
"r#	c #5B7B46",
"s#	c #163C2F",
"t#	c #687C35",
"u#	c #7B903A",
"v#	c #869A3B",
"w#	c #91A63C",
"x#	c #A0B63F",
"y#	c #A2B942",
"z#	c #427042",
"A#	c #799446",
"B#	c #869D6A",
"C#	c #66874B",
"D#	c #597E4C",
"E#	c #4B754D",
"F#	c #395742",
"G#	c #5F773C",
"H#	c #9CB443",
"I#	c #A7BF44",
"J#	c #91AE4B",
"K#	c #64864C",
"L#	c #7C9848",
"M#	c #9FB948",
"N#	c #65884D",
"O#	c #7C994A",
"P#	c #9FB847",
"Q#	c #64854B",
"R#	c #9FB746",
"S#	c #7B9545",
"T#	c #9FB745",
"U#	c #618045",
"V#	c #092A28",
"W#	c #000404",
"X#	c #000001",
"Y#	c #000101",
"Z#	c #010202",
"`#	c #080A08",
" $	c #1B1F18",
".$	c #393934",
"+$	c #2D2D2C",
"@$	c #343430",
"#$	c #4A5444",
"$$	c #3F473E",
"%$	c #222D25",
"&$	c #0A1112",
"*$	c #000100",
"=$	c #000000",
"-$	c #000102",
";$	c #010504",
">$	c #080C0B",
",$	c #121512",
"'$	c #21261F",
")$	c #2B2C26",
"!$	c #2C2C2B",
"~$	c #2C2C28",
"{$	c #20241F",
"]$	c #141714",
"^$	c #060708",
"/$	c #010102",
"($	c #000306",
"_$	c #7B9444",
":$	c #9BB345",
"<$	c #031914",
"[$	c #010100",
"}$	c #010101",
"|$	c #040505",
"1$	c #0B0F0B",
"2$	c #131611",
"3$	c #1A1A18",
"4$	c #1A1A19",
"5$	c #0A0D0A",
"6$	c #020403",
"7$	c #3C6942",
"  .       +       .         +     .       +       .         +     .       +       .         +     .       +       .         + @ ",
"+           + + +             + +           + + +             + +           + + +             + +           + + + @           + ",
"                                      @ # $ % & & * = = * = = * = = * = & % & & * = = - = @                     @ =             ",
"          .             +             ; > , ' ' ' ' , ) , , ' ) ) ' ) , ! ! ' ' ' ' , ~ { ]               .     - =     +       ",
"        +   .                         ^ / ( _ : < [ [ } [ [ [ } } [ [ [ _ ( _ : : : } , | 1 2           +   .     3             ",
".         +                   . . - 4 5 6 < 7 7 7 8 9 0 9 9 8 9 8 8 9 8 8 8 8 a a 7 < b c d e f g         +                   . ",
"  .                         . @ h i j , k l 0 0 < < l l l l < l l l l l l l < < 0 < l m n ~ o p q r                         .   ",
"    .                     + s t u ) b v v w x y w w w w x w x x x x w x w w w w y w w z v b ' ! A B C D                   +     ",
"  .               +       E F G H : [ I J K L M L N O P N N M N Q N N N P O N M M L K J R < _ H ! S T U           +       +     ",
"+               .   +     V W ) _ 7 < z K X Y Z Y `  ... .+.+.+.+.+.+.+... .+.@.@.Y X K z < 7 _ ) { #.$.%.      .   +       + + ",
"                  .     = &.*.b < < =.-.;.@.>.,.'.).!.!.!.~.!.!.!.~.~.!.!.{.).'.,.>.@.;.-.k < [ b c ].#.^.@       .             ",
"      .               @ /.(._.v R :.-.N +.).<.[.[.}.}.>.).).{.{.~.{.).).'.|.}.[.[.<.).` N 1.z k 2.n ~ | 3.4.5.                  ",
"                      6.7.2.v 8.J 9.0. .!.|.<.<.<.<.|.>.).{.~.!.!.~.{.).>.}.}.<.<.<.|.!. .M 9.a.n v 2., _.| b.                  ",
"              . .   @ c.d.[ =.w K X @.!.{.{.{.{.e.).{.~.!.f.f.Z Z f.g.!.!.{.).).e.{.e.{.~.Y X O w =.[ h.! | i.j..               ",
".           .     . = k.8 l.0 y L Z >.).!.+.m.X m.m. .+.` @.@.g.f.@.@.` ` n.m.X X X o.f.).>.Z 0.y 0 l.8 H | p.q.  .             ",
"  .       +       r.s.t.u.v.l.y X {.<.).` N w.x.1.1.O L X ` g.~.~.g.` X L O w.x.1.w.Q o.>.}.).y.y l.v.u.z.A.B.C.3   .         + ",
"  .       +     D.E.{ } u.v.l.y F.).}.G.;.H.I.J.J.I.:.w.0.+.~.>.K.~.+.0.w.L.M.J.J.I.H.y.G.}.).X y l.N.u.( { B.O.r..         +   ",
"+           + + P.B.A.H a u.9 1.y.!.~. .O Q.v.v.N.u.R.1.Q +.{.,.}.e.+.Q H.S.v.v.N.u.Q.T.` {.G.X 1.0 u.a H | p.U.V.            + ",
"              W.X.Y.c , h.h.z Z.;.n...;.Z.`. +.+ +++8.Z.@+#+G.).).G.+.M 9.R ++ +.+++v Z.0.....0.$+z %+h., c Y.&+*+B 3           ",
"          . ; =+-+_._.Z.;+>+>+,+P T.K '+'+)+)+!+!+!+~+{+]+` ^+/+(+^+` ]+{+~+!+!+)+)+_+:+'+K T.T.>+>+<+_+Z._.~ ~ | [+}+  +       ",
"        + W.|+) Q.m n <+1+2+2+3+<+w :.4+>+5+6+7+7+8+9+0+a+Y b+c+c+c+@.a+0+9+d+7+8+6+e+!+4+:.w <+1+2+f+1+<+n Q.Q.) | g+          ",
".         h+i+b M.0 R ~+9+j+k+2+_+=.< l+m+n+o+p+p+q+r+s+t+f.b+u+u+c+v+w+s+r+q+p+p+o+n+m+l+< =._+2+k+j+x+y+I 0 M.b | z+        . ",
"  .       A+i+B+v.u.`.C+D+E+F+n+>+=.< 4+G+H+I+J+K+F+L+s+M+N+@.Y ` g.w+O+s+P+F+K+K+I+H+2+4+_ =.y+n+F+Q+R+C+S+u.u.B+i+T+D     .   ",
"    .   U+V+i+W+v.v.S+m+j+I+I+X+Y+a.Z+>+9+`+K+I+q+R+n+9+t+t+t+w+w+t+t+t+9+n+R+q+I+I+ @x+>+L.a.1+X+I+I+j+C+S+v.v.W+G .@3   +     ",
"  .     U++@~ W+v.v.S+@@R+K+K+#@0+Q T.]+s+ @$@o+8+e+3+1+%@s+X+j+&@X+s+%@Y+{+e+x+o+$@F+*@]+T.,+0+#@K+K+j+@@S+v.v.B+i+=@-@  +     ",
"+         ;@i+B+l.l.S+>@d+F+E+#@t+`  .w+,@ @H+x+~+'@2.<+G+k+F+)@)@F+k+G+_+8.l+>@d+H+`+,@w+ .` t+#@E+F+d+>@S+l.l.B+i+p.!@    + + ",
"          ~@{@b W+M.`.<+]@D+P+^@O+{.K./@ @F+R+]@'@u.v.R 3+R+I+J+J+I+R+3+R v.(@'@e+j+F+ @/@>.e.}.^@X+D+f+!+`.M.W+H { S _@        ",
"      .   3 :@<@v m 8.[@>@1+%@0+e.>.[.}@F+$@R+m+%+N.N.R.@@R+K+J+J+K+D+@@_ N.N.[ m+R+E+|@}@[.>.N+w+%@e+y+[@R Q.b ) [+i.-         ",
"            @ 1@2@3@_.'@l+;+<+;.+.{.4@5@|@6@R+m+%+N.N.9 @@D+I+J+J+I+k+~+< N.N.%+C+&@p+|@5@[.{.` ;.>+:+'@l+! ~ | 7@8@#           ",
"              . 9@h 0@' h.[ k 1.L a@}.L+|@$@R+]@'@u.u.v C+k+6@J+J+)@k+3+R v.u.'@]@j+E+|@L+<.a@L J `.++h.2.c b@c@d@e@            ",
".           .     f@g@h@i@8 M.Q.x.j@g.k@ @l@j+m@y+8.8.<+2+r+6@K+J+$@r+]@<+8.'@>+m@r+l@#@k@g.0.x.Q.7 a _ n@o@p@q.q@.             ",
"  .       +         . r@s@_ W+W+L.w.@+a+*@X+,@t@2+1+1+2+D+#@I+K+K+I+`+D+2+1+1+2+n+,@X+*@a+;.w.Q.I.W+u@v@w@x@3       .         + ",
"y@.       +       .   b.{@) b } R.Q.J ,+z@O+/@^@A@D+D+&@q+$@I+K+K+I+$@q+&@k+s+s+^@/@O+z@M a.k B+B+b B@C@= +       .         +   ",
"D@@         + + +     E@F@[+i+b _ 0 l x.0.@.}.G@L+#@q+Q+Q+E+E+Q+E+E+$@Q+Q+q+#@L+^@}.f.M 1.S.8 _ b c H@      + + +             + ",
"I@                    E@F@[+A.2.[ < R.Z+w.J@@.O+A@K@H+H+K@K@X+k+j+j+r+H+H+H+K@A@t+@.J@w.:.R.9 =., A.L@                          ",
"          .           b.M@~ _., 2.z Z+N@x.w.N {+z@%@9+m@m@G+e+5+Y+5+]@2+m@9+%@z@X O w.x.Z+Z+z R 2.! O@%   .             +       ",
"        +   .         P@Q@( ( z Z.K T.w.H.Q.Q.x Z._+<+_+_+[@4+4+4+4+[@_+<+<+_+Z.x :.:.H.w.K T.Z.z H R@S@T@@ .                   ",
".         +       @ - U@V@8 R.a.L m...M -.S.7 a 8 [ S+=.%+< < < < < R.l h.h.<  +(@7 =.-.0. .m.N a.[ 8 _ W@X@Y@3               . ",
"  .           3 Z@`@ #.#9 0 k 9...!.{. .'+I .+(@(@ +l l R.< < < < [ < ++<  +8 (@(@(@I '+ .~.!.n.9.:.0 8 m +#@#q             .   ",
"    .       @ ##(.! m [ S+R -.y.f.}.'.@.0.J `.$#8.'@;+:+[@[@[@4+%#%#%#[@_+_+%#8.$#v J 0.Z '.|.g.;.-.R %+} m ! &#s         +     ",
"  .       @ b.*#H _ _ =.w K y.@.>.,.'.f.m.Q T.~+3+G+f+f+]@e+5+Y+5+5+G+]@f+f+G+m+,+T.N m.(+'.}.).Y y.K w =.< _ s@=#-#      +     ",
"+       ;#>#A.) _ 7 < z K X Z e.>.e.f.^+o.#+` 0+n+r+K@H+K@r+j+k+j+k+j+K@H+K@j+t@0+,##+` a@!.e.>.e.f.X K z 9 8 _ ' '#E       + + ",
"      )#!#].c b R.< k -.;.@.{.e.g.Y #+#+` (+>.k@,@#@E+6@$@$@$@$@E+$@6@6@6@E+ @,@k@).f.b+#+ .` f.e.{.@.;.-.=.< R.b ~#{#W.        ",
"    3 ]#| ~ , v `.z 1.N #+(+(+a@X M N ;.o.f.}.^#}@L+`+E+I+I+K+K+K+K+I+I+E+`+L+G@^#}.!.#+j@Q M m.a@G.(+#+N -.z k b , /#/.@       ",
"    C@(#, b I z J 9.0.F.^+(+a@y.K 1.J 9.y.Z >.}.^#k@^@L+F+)@K+J+J+K+6@F+L+^@k@^#}.'.@.y.'+J J 9.J@b+(+^+#+0.9.a.Z+I _#:##       ",
"    <#! m < l n K X @.{.).[#F.T.y =.=.a.M ` ~.).}#{.e.*@,@`+$@K+K+$@`+X+*@K.~.}#).{.` M a.=.S.w O #+G.).[#@.X K n %+_ |#1#      ",
".   2#' _ a < y L Y '.[.[.K.,#T.I 8 7 I T. .G.[#^+b+` w+*@r+#@q+q+#@r+*@w+a@a@^+[#!. .T.v 7 8 I T.Y O+[.[.|.@.L w 0 7 3#4#      ",
"  . 5#m 8 u.0 N@0.}#[.}@}@G@w+@@8.a (@S.9...!.[#^+o.o.@.w+*@s+r+r+s+*@w+a@+.c+^+[#f...9.S.u.a '@@@w+G@}@}@[.G.0.N@0 u.8 6#    + ",
"  . A.b 9 (@7 N@L (+[.5@|@ @^@z@[@ +(@W+9.n.~.{.(+@.b+Y v+w+w+M+M+w+w+v+a@` a@(+{.!. .w.[ a 8 [@G+j+ @|@5@4@G.L N@J.(@8 7#  +   ",
"+ @ | ' [ a 8 N@O o.^#}@|@|@o+f+)+++8 Q.9. .~.).{.Z @.Y @.g.g.v+v+v+g.@.@.@.(+{.).~. .9.Q.a ++)+6+K@|@|@}@}.a@O Z+0 a _ 8#@   + ",
"  @ 9#! m [ R.Z+w.y.a+k@P+H+D+]@)+h.M.Q.O #+~.>.e.f.@.@.@.Z Z ^+^+Z Z @.@.@.g.e.>.{.#+O Q.M.S+)+]@R+H+P+k@a+J@w.Z+S._ m 0#@     ",
"  @ o@~ , b Q.:.x.9.;.z@6+8+6+>@%#l R.Z+O +.~.>.e.!.Z Z f.(+^+(+(+^+(+Z Z Z g.e.>.~.+.N Z+I.h.'@>@f+x+%@z@;.9.1.Q.Q.v a#b#@     ",
"  @ c#{@d#> e#, Z+w a.:+!+>+!+'@$# +R.y Q ,#~.e.N+!.g.Z f.G.[#[#[#[#G.f.Z Z g.e.e.~.,#N y R.9 $#'@)+>+!+:+a.w Q., n c f#g#      ",
".   e@h#{#i#j#n m l ++l S+`.++++a 7 l J M ` ~.).~.f.@.Z f.G.G.G.G.G.f.f.Z Z g.{.).~.` M J l a a  +S+`.S+l ++l m n k#&.b.      . ",
"  .       l#m#_.m 9 7 l.l.7 a u.u.a %+J M +.G.{.~.f.Y ` a@a@` ,#` ` ` a@a@a@f.}#{.f.+.M J =.a u.(@l.7 l.l.a < v n#o#E@      .   ",
"    .     p#q#c 2.[ 9 7 M.M.7 l.u.a %+H.Q #+(+/+[#^+o.F.y.;.@+,+,+0.@+X n.+.^+/+/+^+#+Q J l a (@(@a M.M.7 9 [ ' r#=       +     ",
"  .       * *+9#_., b b b z.B+W+7 7 l w N F.^+/+/+^+#+j@O -.a.x a.a.$+O y.F.^+/+/+(+F.O y l 7 a W+s#t#u#v#w#x#& @ +       +     ",
"+           @ y#z#A#B#C#D#E#F#H 9 8 l w N F.(+).'.(+#+M -.:.++0 0 < :.-.L #+(+'.>.f.F.N y l 8 < H G#H#= 5.@     .   +       + + ",
"                  . U+q@I#J#K#, _ 8 l w N Y K.^#}.K.Y ,+J l u.v.v.u.l a.,+Y >.^#^#>.Y P y l 7 _ , L#3             .             ",
"      .                   M#N#) _ 7 l %#{+0+k@,@G@k@w+{+Z.++v.N.N.v.++Z.Y+0+k@G@,@k@0+{+a.S+7 [ , O#@ .                         ",
"                          P#Q#' W+7 l :+Y+n+L+`+q+L+n+z@_+l v.N.N.v.l _+5+t@L+q+q+L+t@Y+:+%+7 W+) L#@                           ",
"              . .         R#A b M.7 S+_+G+k+F+)@)@F+R+f+>+`.v.N.N.u.`.>+2+j+F+)@)@F+R+G+_+%+7 M.H S#@         . .               ",
".           .     .       T#U#V#W#X#Y#Z#`# $.$+$+$@$#$$$%$&$N.*$=$-$;$>$,$'$)$!$!$~${$]$^$/$-$($V#_$@       .     .             ",
")#.       +         .   @ :$(#<$=$=$=$=$=$[$}$=$=$=$}$*$Y#Y#=$=$=$=$Z#|$1$2$3$4$4$3$2$5$6$Y#=$X#<$7$-     +         .         + "};
