/* XPM */
static char *result[] = {
/* columns rows colors chars-per-pixel */
"64 64 240 2 ",
"   c #000003",
".  c #00010C",
"X  c #081B0F",
"o  c #000213",
"O  c #000B14",
"+  c #010519",
"@  c #010C1B",
"#  c #06171B",
"$  c #03131D",
"%  c #041A1D",
"&  c #0D2D17",
"*  c #0A251B",
"=  c #040D22",
"-  c #130F25",
";  c #031521",
":  c #051A24",
">  c #0A1827",
",  c #0C1D24",
"<  c #121A29",
"1  c #032422",
"2  c #0D2324",
"3  c #092A26",
"4  c #06222A",
"5  c #0C242A",
"6  c #0B2B2D",
"7  c #112426",
"8  c #13252B",
"9  c #14292B",
"0  c #18282B",
"q  c #0A312B",
"w  c #193826",
"e  c #15332D",
"r  c #1B322C",
"t  c #0E2C31",
"y  c #172932",
"u  c #0E3732",
"i  c #143533",
"p  c #1C3333",
"a  c #143B35",
"s  c #1B3B35",
"d  c #153B39",
"f  c #1B3D3A",
"g  c #21372F",
"h  c #223C2C",
"j  c #222932",
"k  c #213535",
"l  c #243C34",
"z  c #283B3A",
"x  c #1E4028",
"c  c #15413A",
"v  c #1B433C",
"b  c #1C4C3D",
"n  c #23432B",
"m  c #28472B",
"M  c #2D572D",
"N  c #234234",
"B  c #2B4635",
"V  c #2D4B35",
"C  c #24413B",
"Z  c #21493D",
"A  c #2F4C38",
"S  c #304A36",
"D  c #324D3A",
"F  c #2C5232",
"G  c #335335",
"H  c #355B32",
"J  c #36573B",
"K  c #32632B",
"L  c #3B643A",
"P  c #3E6A39",
"I  c #416B3F",
"U  c #46773D",
"Y  c #2D3B43",
"T  c #343C48",
"R  c #1F5241",
"E  c #2B4342",
"W  c #234D42",
"Q  c #364B45",
"!  c #364549",
"~  c #3B4D4C",
"^  c #245344",
"/  c #275547",
"(  c #265A46",
")  c #275B48",
"_  c #295D4A",
"`  c #385645",
"'  c #3D5151",
"]  c #2E654E",
"[  c #2F684F",
"{  c #30674F",
"}  c #396448",
"|  c #2F6750",
" . c #2F6851",
".. c #306750",
"X. c #316951",
"o. c #367256",
"O. c #387457",
"+. c #377558",
"@. c #397658",
"#. c #3B7A5B",
"$. c #425C4A",
"%. c #454C54",
"&. c #455B53",
"*. c #495858",
"=. c #56535C",
"-. c #466946",
";. c #486D49",
":. c #4A7544",
">. c #4C744A",
",. c #527C4D",
"<. c #597F4D",
"1. c #486150",
"2. c #4C615A",
"3. c #54695B",
"4. c #567754",
"5. c #545164",
"6. c #5A6966",
"7. c #5D7066",
"8. c #616A6B",
"9. c #65766B",
"0. c #6C7775",
"q. c #707B77",
"w. c #3F815E",
"e. c #568748",
"r. c #55824C",
"t. c #5E964D",
"y. c #41835F",
"u. c #5B8552",
"i. c #5D8A53",
"p. c #5F8759",
"a. c #5F9154",
"s. c #61994F",
"d. c #638C58",
"f. c #659756",
"g. c #6B9C5B",
"h. c #6CA954",
"j. c #6DA25A",
"k. c #71A75D",
"l. c #6FB450",
"z. c #77B85B",
"x. c #428461",
"c. c #6A8768",
"v. c #749A6A",
"b. c #6D8372",
"n. c #758B79",
"m. c #7B957A",
"M. c #72A661",
"N. c #76AA63",
"B. c #79AD63",
"V. c #79A869",
"C. c #7BB364",
"Z. c #7DB865",
"A. c #839F7B",
"S. c #81B86A",
"D. c #83BC6B",
"F. c #88AB79",
"G. c #8BB77A",
"H. c #83C265",
"J. c #87C26C",
"K. c #89C46E",
"L. c #8BCB6C",
"P. c #8CD168",
"I. c #8CC373",
"U. c #8ECB71",
"Y. c #91CD73",
"T. c #96CC7B",
"R. c #95D475",
"E. c #99DB76",
"W. c #97D778",
"Q. c #9CDC7A",
"!. c #A0DE7F",
"~. c #9CE277",
"^. c #9EE17A",
"/. c #A1E47D",
"(. c #A4E87E",
"). c #7E8D84",
"_. c #869989",
"`. c #8F9792",
"'. c #8AA683",
"]. c #8BA28B",
"[. c #92A98D",
"{. c #8FB580",
"}. c #94B788",
"|. c #96A795",
" X c #9EB699",
".X c #A2B89A",
"XX c #9F97A7",
"oX c #A192AD",
"OX c #A6A8A4",
"+X c #B0A9AA",
"@X c #A8B5A5",
"#X c #9CC888",
"$X c #9FDB80",
"%X c #A6D98B",
"&X c #A6C896",
"*X c #A7D392",
"=X c #B4D69E",
"-X c #A8E884",
";X c #ADF384",
":X c #B3F98A",
">X c #B7E89C",
",X c #BCFA96",
"<X c #ADC7A4",
"1X c #B4C7AC",
"2X c #B5D6A6",
"3X c #BACDB3",
"4X c #BED4B2",
"5X c #BCE2A8",
"6X c #BFF2A1",
"7X c #C4FF9A",
"8X c #C3D5BB",
"9X c #C5DCB9",
"0X c #C3EDAA",
"qX c #C7F9A7",
"wX c #D6FFAD",
"eX c #CCEBB7",
"rX c #CAE3BC",
"tX c #D4EABF",
"yX c #CCF2B4",
"uX c #D7FDB7",
"iX c #E3FFB9",
"pX c #CADCC1",
"aX c #D1DDCA",
"sX c #D2E2C7",
"dX c #D5E9C8",
"fX c #DBF9C4",
"gX c #E5FECA",
"hX c #E5EDD2",
"jX c #E5FDD2",
"kX c #E7F9D7",
"lX c #EBFDD5",
"zX c #FAFFD7",
"xX c #F3FFDD",
"cX c #EBE7E2",
"vX c #F5FFE1",
"bX c #FBFFE4",
"nX c #F0F6EA",
"mX c #FEFFEC",
"MX c #FFFFF3",
"NX c #FFFFFD",
/* pixels */
"........X.[ X.......[ ] ) ) ..#.y.x.o.^ 6 + . . . o + o + o . + o o + o + + . .   . + 6 ^ o.x.x.#.X.] ) [ [ [ ........X.[ ..X.[ ",
"....X...[ X.X.[ X...[ [ ] ] X.O.#.+...^ i ; + o + + @ @ @ @ @ @ @ @ @ @ @ @ + + o + ; i W X.@.@.o...] [ X...X.{ ....[ X...X.X...",
"..X...X.X.X.......X.[ X.X...X... .] / Z i 0 2 2 2 2 9 7 9 7 6 9 7 7 9 7 9 7 7 2 2 7 9 p W / ] | X.X.......X.{ [ ..X.....[ X.X.[ ",
"X.....[  .X...[ X.[ ..o.O.o...] W b s v N B D A D A V A A A A A A A A A V A A A A A A N f f v R ] ..o.o.X...] [ ....X...........",
"[ ......X.[ ..[ [ X.X.O.#.+.[ R d 4 6 k G ;.,.u.r.,.,.>.,.,.,.,.,.,.,.,.>.,.,.,.e.<.-.J s 6 4 d R  .O.#.o...] ] [ ..[ X.X.....X.",
"[ X...[ X.....[ [ ..X.O.#.O.] v 4 $ , N ;.g.Z.D.Z.N.M.M.N.N.N.C.N.C.N.M.M.M.N.Z.D.S.g.-.l , : 4 f ] @.#.O.X.[ [ [ [ X.X.X.[ [ X.",
"..X.[ X.X.....[ [ [ ..X.o...^ d , > r J d.K.~.(.-XE.Y.Y.U.Y.Y.U.Y.Y.Y.Y.U.R.Q./.(./.D.d.J r > 2 d / ..O.o.[ [ X.[ ......X...X.[ ",
"X.....X.[ ..X.X...[ [ ] ) / Z s g g J <.C.Q.:X,X:X;X(.^.Q.Q.E.W.W.E.Q.~.^.-X;X:X:X:XQ.S.<.J g p d Z / _ ] ] [ X.X.....[ X.......",
"X.| X.X.X.X. .X.X.X._ ^ W f f l G -.d.k.Y./.;X:X:X;X-X$XQ.W.R.U.U.R.R.E./.-X;X:X:X;X/.Y.k.d.-.G N s f v ^ )  . .X.X.| | | X.[ X.",
"{ X.{ [ |  .X.o.O.o.) W 6 > 0 A ;.g.S.U.R.W.W.W.W.E.R.Y.U.K.K.K.J.K.U.I.Y.W.W.W.R.R.W.T.U.S.g.:.S 9 5 t v ] o.+.O.X.] [ [ X.X.| ",
"X.[ | | ] X.X.#.#.O.) u ; + : S i.J.Q.Q.I.z.g.g.j.j.M.B.C.Z.Z.I.J.J.Z.Z.k.k.k.j.g.j.C.L.Q.Q.D.i.S # @ ; u _ +.#.+.o.[ [ [ X.{ X.",
"..X.X.] ] ] X.#.w.#.] q +   O V f.R.;XE.C.,.H H M L :.u.g.Z.K.U.Y.I.C.j.u.:.L H H H ,.B.^.(.W.g.S O . + q _ #.w.#.X.] ] ] | X.{ ",
"X.X.X.] [ ] ..#.x.w._ 6 o   O V g.Q.(.Y.a.G 2 X X * w P i.B.T.$X$XT.B.i.} x * X X * F d.P.-XE.g.S O   o t _ #.x.#.X.] ] ] X.[ X.",
"] X.X.] [  .X.#.w.+._ t @ o # G f.U.R.B.:.r .   . o 7 G r.B.R.-X$XR.B.r.G 3 . .   o r :.C.R.K.g.G # o @ u _ #.w.#...] { [ { X.[ ",
"] X.[ X.X... . . . .( W y y l $.u.M.M.p.` l - - - < z } u.N.P.~.~.L.N.u.} l < - - - k $.i.M.M.u.$.l y y b / ..X.X.X.X.X.X.| ..X.",
"[ ..X.X.X.X. .) ^ R W ` &.*.3.4.4.>.;.-.$.&.%.=.=.6.6.c.M.C.H.P.P.H.C.M.c.7.5.=.=.%.*.$.-.-.>.4.4.3.2.&.Q W ^ / ) X.X...X.X...] ",
"] X...o.o.o.] b s e C 2.n.].].b.1.B l Q 3.).`.OX+X@X X}.G.Z.z.l.z.z.Z.G.}. X@X+X+X`.).3.Q k B 1.b._.].n.2.z i i b ] X.o.X.X... .",
"] ] ..o.@.X.( u % # k 7. X9X4X].&.9 , B b.<XhXcXcXhXrX2X%XI.z.l.l.z.I.#X2XrXhXcXcXdX<Xb.B , 0 &.].4X9X X7.k # % u ( o.@.O.X.[ [ ",
"] ..X.O.#.o.^ 3 . o j 0.3XxXlX<X6.9 2 Q _.dXmXNXMXlXtX2X*XT.D.C.H.J.#X#X5XdXkXMXNXMXdX'.~ , 8 6.<XlXxX4X0.0 . O 3 ( o.#.@...[ ] ",
"_ X...@.#.+.( 1 .   0 0.9XMXmXrXn.A l 3. XjXmXmXhX4X<X&X&X*X*X#X#X%X*X#X&X<X9XhXmXmXgX X3.l S n.rXmXMX9Xq.0   . 1 ( o.#.+...] ] ",
"]  .X.+.#.O.^ 1 . . 0 0.8XmXMXfX}.4.;.v.2XjXvXaX@Xn.b.n.}.2XrXrX9XrX2X}.m.b.n.OXaXxXkX2Xv.>.<.{.fXMXMX8X0.< . . 1 / O.#.o.X...[ ",
"]  .X.+.#.o.( q O o 0 8.@XlXvXuX*XB.N.#XqXjXdX@X8.E z &.A.4XkXnXnXlX4X_.&.l E 8.OXdXgXyX#Xk.S.*XuXxXlX@X8.j o O q / O.#.@...| ] ",
"] [ X.+.+.o.) a * % p 5.`.3XtX0X-XR.Q.6XfXlX9X).Y + o k q.8XmXNXNXmX4Xb.k o + Y ).9XjXfX0XE.R.%X0XrX3X`.2.p : * a ( O.@.o...[ ] ",
"] [ X.X.o. .] b a i f ~ 6._.[.}.T.Q.:XwXzXvX4Xq.8     5 9.3XMXNXNXMX8X9.,     y q.8XxXzXwX:X^.T.#X[.).6.~ k i s b ] X.@.X...| ] ",
"{ ] X...X.X.{ ) ) ^ Z Y T ' 2.d.C.R.,XiXzXbXpX0.<     , 7.4XmXNXNXmX3X7.,     8 0.pXnXzXiX,XE.z.d.3.' T E Z ^ ( ] ] [ X.X.X... .",
"X.X.....X.X.X.X.O.X./ f y 5 k G e.Z.-XwXzXxXpX).T + o p 0.4XbXNXNXbX4Xb.p o + Y _.9XzXzXuX-XS.e.D p < t d / X.o.[ [ [ [ ..X.....",
"X.X...X.[ ] X.@.#.@.] c 4 ; % w H i.I.0XtXgXrX].6.Y z 2.].rXbXMXNXbXrX_.*.z z 6.[.rXhXfX0XG.e.K w $ ; 4 v ] +.#.+.o.] ] [ ....X.",
"{ | X.[ | X.X.O.#.+. .R u 1 * * w J d.G.=XyXeX=X'.n.n.].1XjXMXMXMXmXjX3X[.n.n.'.<XyXyX=XG.d.J h 1 * 3 u b [ #.#.+.[ ] ] [ ..[ X.",
"| X.X.[ ] [ X...o.X. .] ( b a q 3 r G 4.F.%X0X0X2X4X4XpXjXvXMXMXMXmXxXkXpX3X3X5X0X6X%XF.<.D 9 3 3 a b ( ] [ o.X.X...[ [ [ ......",
"X.{ | { X.X.X.X.....[ o.+.X./ d 4 : 9 G d.K.-XqXuXfXkXkXxXxXvXvXkXxXxXxXkXkXfXuXqX-XD.u.G 9 : 4 d ( [ o.o.X.[ [ X...{ [ ....X.X.",
"X.[ X.X.{ X...X.....X.O.+. .) f 5 : 2 w P t.S.%X5XdXdXdXsXpX4X5X4XrXpXsXdXdXsX5X*XD.t.P h 2 : t v ( o.+.o...[ [ ..X.X.X.....[ X.",
"[ X.X.] ] X.X...o.X.X. .] ^ W v l l N m M L ,.d.A.[. X|.]._.).m.m.)._.|. X X}.m.d.:.L M m N l z v W ^ ) [ X.X.o.o.X. .[ [ ....[ ",
"{ [ X.[ | ..X.o.+.+. .R f t y N ` ;.>.L F h g S Q &.2.*.&.~ Q Q Q Q ' &.*.2.&.Q l g h F I :.;.$.N y t a R  .+.#.o. .| { [ X.X.] ",
"X.X.X.X.[  .X.+.#.+.] v 4 ; 8 D u.g.k.i.J 0 # + - 2 0 8 5 , , 2 2 4 , 7 9 8 < # + $ 7 H d.M.M.u.D 7 ; 4 d ] +.#.+.X.| | [ X.X.X.",
"{ ......X.[  .X.o. .^ i : ; r I k.U.Y.B.;.g @ + @ ; , 7 2 , 2 , , , , , 7 , > @ + - s >.k.U.L.g.I g ; : p / X.X.o.| | ..[ X.{ X.",
"[ X.......X.[ ] ) / v e 2 w G e.D././.J.u.D k j z ! ~ %.~ ~ Q Q Q Q ~ ~ ~ %.! T z S ` i.D.W.R.S.u.J l e i b / ( ] | ..X.X.| X.] ",
"[ [ X...o.X.[ / v d e w n K e.k.Y.(./.J.g.,.;.3.0.)._.`._.).).m.m.m._._.`._._.n.c.p.d.M.D.R.R.L.S.u.-.G l p i v W ] X.o.......X.",
"] ] ..o.O.X.) v t 4 7 B -.d.C.L.R.R.P.D.z.k.V.{.&X8XsXsXsX9XrX4X4X4X9XsXsXsX9X=X#XD.Z.z.D.D.Y.Y.Y.S.g.:.B 7 , 6 c ) o.O.o...[ ] ",
"[ [ ..O.@.o.( i ; + , J d.T.-X^.R.S.k.k.z.U.!.>XuXjXzXvXvXvXvXxXxXvXvXbXbXxXgX0X*XU.C.z.z.C.H.R.Q.W.S.u.D 7 O : a ( o.O.X.X.[ ] ",
"]  .X.O.#.O.( 6 O . < &.{.6XqX>XG.d.,.e.z.Q.:X7XuXgXzXbXmXMXMXMXMXMXmXmXbXjXuX=XG.V.f.t.s.j.H.E./.^.K.d.D , + ; i ( O.@.@.X.] ] ",
"] ] X.@.#.O./ 3 . . 8 7.&XiXgX5Xm.-.V P s.R.:X7XqXwXuXfXlXbXMXMXNXMXmXxXgXyX%XF.i.;.} I ,.s.H.R./.W.S.d.D , ; : d ( o.O.o.X.[ [ ",
"] ] ..@.#.O.^ q O o y 9.1XjXjX1X9.k 2 n r.J.^.;X^.$X%X>XeXjXxXmXbXvXjXuXqX%XD.u.A e r V :.g.P.~./.Y.k.<.S 2 ; : d ) o.O.o.[ [ ] ",
"] ] ..@.+.o.( u % # k 9..XpX8X|.*.< @ * J f.C.z.l.h.k.G.*XeXfXkXkXfXeX6X-XY.f.L * @ @ l 4.S.%X;X(.Q.B.>.B , ; : d ) o.O.X.X.[ ] ",
"] [ ..X.o. .] b i 9 C 2.A.`.`.0.T ; + O w L U P K K P f.{.5XuXfXdX5X=X*XQ.J.t.M X o = Y c.*XqXwX7X/.z.>.m , $ > d ( o.@.o.X.] ] ",
" ....... ...[ ( ^ Z ^ &.*.6.=.! y = @ O 3 w w & * X x } V.%X>X6X>X*X#XT.W.J.s.K * o > ' `.9XgXgXwX;XS.:.m # @ : i ) o.#.o.X. .[ ",
"......X. .|  . . .[ _ W Y p 8 7 - ; $ ; % % O O o + * H i.K.$X-XT.I.I.U.W.U.j.P & $ < *.].sXzXzXwX-Xz.U n % ; > d ) o.@.O...[ ] ",
"....[ ] [ [ X.O.+.o.[ b q % O O O : , t y < 7 < - < k / ,.j.z.H.H.H.J.R.Q.W.C.>.x % y *.`.3XdXdX>XI.f.I n 7 : t f _ o.@.X.X.[ ] ",
"....[ [ ] [ X.O.#.+. .R u 1 O O O # < Y ! ' 5.5.5.5.*.1.1.>.e.s.h.H.P.(.-X^.D.r.V 3 < T 8.`.OX|.F.d.:.S v p i f W ] X.O.X.X.] ] ",
"....X.[ ] ..X.X.O.o.X.] ^ c 3 % O % 9 ! 6._.XXoXoXXX).8.$.A M P t.Z.~.;X;X-XD.i.G 9 > j T =.6.3.&.J m n N b W ( _ X.X.X.X.X.X.] ",
"X.....[ ] X.X.X.X.X.X.X.X.| b q % $ 0 *._.1XaXcXcXhX1X).%.y 7 n :.B.Q.;X;XQ.Z.u.G 9 @ @ > y 0 0 < < 7 p Z ) | X.X.X.] X.X.X.X.X.",
"[ X...X.X.{ [ ] ] ..X.#.y.#.] a % @ 0 *._.dXbXNXNXmXsX_.%., $ 7 L f.I.Q.R.J.j.,.A 5 @ o + + $ O @ @ , i ^ | O.+.o.X.X.] ] ] | X.",
"X.X.X. .| X.{ ] ] _ X.#.x.x.[ c # O < &.'.yXzXMXMXzXyX'.' , o O N >.g.N.M.d.,.J g , + O O $ % % $ : 6 f (  .+.+.o.X.X.] ..X...X.",
"[ X.{ X.[ X.X.] ] | ..#.x.#.| a ; @ , $.v.>XiXgXgXiX>Xv.$.> + + 7 B } ;.-.` A g , # @ $ 4 q u u a a v W _ X.O.O.X.X.] ] | X...X.",
"[ X.X. .X.{ X.[ [ | X.+.#.+._ a : @ , D i.G.;X,X,X-XI.d.D 8 + + $ 2 r r r 9 7 , # @ > 9 d ^ ] ] _ ( ) ] | X.X.....X.X...X.X.X.] ",
"{  .X.{ [ [ X.] [ ] X.o.+.X._ W 6 , 0 m I f.z.P.L.z.s.:.A 7 @ + + + @ @ @ @ @ @ @ : 7 f )  .#.#.#.@.X... .....[ ....| X.] X.X.X.",
"X.{ { X.X.X.[ [ X.|  . .o. .) W d i r h G I U e.e.U I F g , @ + o + o o . o + @ # 6 s ^  .+.4.#.#.#.@.o.....| [ ....X.X.X.X.X.] ",
"........X.X.X.......X.{ ..X.] ) / W W f h n n m m m w w 7 # @ + o o o . . . + $ 9 v ^ [ ..O.@.@.#.@.o...X...[ [ ....[ ....[ X.X.",
"......{ [ X. .[ X.X.X.{ X.{ ....X.| ( W e 2 , # # , , , > $ @ $ @ @ @ + + + $ 6 v / X.X.o.X.......X...X.X...........X.X.X.X.X.[ ",
"..X.X.[ X.[ ..X.{ { X.] [ [ X.O.+.o.| W i , ; = $ ; : , , , 2 7 7 7 2 2 # 7 9 f / | o.o.o...[ ] [ [ [ [ X.X.........X.......[ X.",
"X...{ [ X.X.X...| X.X.] ]  .X.O.@.+.X.( b t 4 > > 5 t 9 i i i s f v s i s i v ^ ] X.o.+.X...[ ] ] [ [ [ X.[ ....X.....X...{ [ X.",
"[ X.[ ........[ X.X...[ [ ] ..X.o.o...] ^ W c d f v v W b Z ^ ^ ^ ^ ^ W Z Z / _ ] ..o.o...{ { ] ] [ { { [ X.X.[ ............X...",
"..X.X.........X.[ X.X...| X...X.........] _ ) ) _ _ ) _ ] ] ] _ ] ) ] ] ] ] ] { X.....X...X.X.] { { { X.X.X.[ X.X.[ X.[ ....[ X.",
"..[ [ ......{ X.X.[ X...........[ [ ..X. .X.o.O.O.o.o.X.o.X.X.o.X.X.o.X.X.o.X.X.X.{ ] ] X.X.X.X.| X.X.X.....[ X.X.[ X.X...X.....",
"..X.X...{ [ X.[ X.X...X.X...{ X.] [ ..X.#.#.w.w.w.w.w.#.@.#.@.O.O.@.+.#.#.O.O.o.X.] ] ] ] X.[ X.X.{ X.[ ..[ X.X.......[ X...[ X."
};
