/* XPM */
static char *result[] = {
/* columns rows colors chars-per-pixel */
"64 64 234 2 ",
"   c #000002",
".  c #060901",
"X  c #00000B",
"o  c #081B0F",
"O  c #000413",
"+  c #010B14",
"@  c #03061A",
"#  c #010D1C",
"$  c #01121C",
"%  c #0A161D",
"&  c #031A1C",
"*  c #0A241B",
"=  c #0A0E21",
"-  c #031522",
";  c #0C1526",
":  c #041B24",
">  c #0C1D24",
",  c #061F28",
"<  c #131A28",
"1  c #032522",
"2  c #0E2324",
"3  c #082A26",
"4  c #06222A",
"5  c #0A242B",
"6  c #0A2C2C",
"7  c #112326",
"8  c #152C27",
"9  c #14242B",
"0  c #1A242E",
"q  c #162B2C",
"w  c #0D362E",
"e  c #193729",
"r  c #1C332E",
"t  c #0F2E31",
"y  c #152732",
"u  c #1C2B31",
"i  c #0E3633",
"p  c #143533",
"a  c #1C3532",
"s  c #133B34",
"d  c #1B3A36",
"f  c #163D39",
"g  c #1C3D3A",
"h  c #213B2D",
"j  c #252C34",
"k  c #213435",
"l  c #243C33",
"z  c #293A3C",
"x  c #1F402B",
"c  c #19463A",
"v  c #1B433C",
"b  c #23432C",
"n  c #2B452D",
"m  c #2D572E",
"M  c #2C4635",
"N  c #2E4A34",
"B  c #25463A",
"V  c #314635",
"C  c #314C3A",
"Z  c #2D5233",
"A  c #365737",
"S  c #33523B",
"D  c #3B5B3D",
"F  c #3C653A",
"G  c #323C47",
"H  c #1E4C42",
"J  c #1F5241",
"K  c #2C4142",
"L  c #224D41",
"P  c #364B45",
"I  c #374846",
"U  c #3A4D4C",
"Y  c #245445",
"T  c #265647",
"R  c #265A46",
"E  c #275B48",
"W  c #295D4A",
"Q  c #365446",
"!  c #3F4E50",
"~  c #2E654E",
"^  c #2F684F",
"/  c #3A6347",
"(  c #30674F",
")  c #2F6651",
"_  c #2F6851",
"`  c #306750",
"'  c #316951",
"]  c #367255",
"[  c #387457",
"{  c #377658",
"}  c #397659",
"|  c #3C7B5B",
" . c #425B49",
".. c #475956",
"X. c #4E5259",
"o. c #456B43",
"O. c #4A6D47",
"+. c #476C49",
"@. c #4B7745",
"#. c #4C724B",
"$. c #54784F",
"%. c #547C4C",
"&. c #4B6158",
"*. c #53685A",
"=. c #587855",
"-. c #595863",
";. c #5A6A65",
":. c #5D7066",
">. c #636C6D",
",. c #64776B",
"<. c #6E7975",
"1. c #707B77",
"2. c #3F815E",
"3. c #55824C",
"4. c #59854D",
"5. c #5F964F",
"6. c #40835F",
"7. c #5B8452",
"8. c #5D8A53",
"9. c #5F8758",
"0. c #5F9253",
"q. c #628B57",
"w. c #669656",
"e. c #6B9C5A",
"r. c #6DA656",
"t. c #6DA25C",
"y. c #72A55D",
"u. c #72AB5C",
"i. c #6FB450",
"p. c #75BF52",
"a. c #77B45E",
"s. c #79BA5D",
"d. c #418361",
"f. c #468864",
"g. c #698867",
"h. c #729A69",
"j. c #6D8372",
"k. c #748A78",
"l. c #789075",
"z. c #7B937C",
"x. c #72A560",
"c. c #75AA62",
"v. c #79AF64",
"b. c #7EAE6B",
"n. c #7BB365",
"m. c #7EB766",
"M. c #80B76A",
"N. c #83BC6A",
"B. c #85A478",
"V. c #8AB877",
"C. c #82C463",
"Z. c #86C966",
"A. c #87C26C",
"S. c #89C56D",
"D. c #8BCB6D",
"F. c #8BD665",
"G. c #8DD26A",
"H. c #8CC372",
"J. c #8ECB71",
"K. c #8EC078",
"L. c #91CE74",
"P. c #96CA7D",
"I. c #8FD070",
"U. c #95D475",
"Y. c #99D977",
"T. c #96D379",
"R. c #9BDC7A",
"E. c #9CE177",
"W. c #A3E57E",
"Q. c #A3E87F",
"!. c #7E8C84",
"~. c #859B84",
"^. c #87988A",
"/. c #8E9D91",
"(. c #949D96",
"). c #8BA28B",
"_. c #93AA8D",
"`. c #95BA86",
"'. c #98A996",
"]. c #9EB799",
"[. c #A2B599",
"{. c #A6A8A4",
"}. c #B0A9AA",
"|. c #A8B5A5",
" X c #9CC988",
".X c #9FD781",
"XX c #A2CD8E",
"oX c #A6D88B",
"OX c #A9CB99",
"+X c #A9D394",
"@X c #B2D69C",
"#X c #A9E985",
"$X c #B0EA8E",
"%X c #ADF487",
"&X c #B4FA8B",
"*X c #B7E79C",
"=X c #BAF895",
"-X c #ADC8A3",
";X c #B7D8A7",
":X c #BBCEB4",
">X c #BED5B2",
",X c #BCE2A6",
"<X c #BFF3A1",
"1X c #C3D5BB",
"2X c #C4DBB8",
"3X c #C3EDAA",
"4X c #C6F5A9",
"5X c #D6FFAB",
"6X c #C9E8B6",
"7X c #CAE3BC",
"8X c #D7E6BD",
"9X c #CBF3B2",
"0X c #D7F9BA",
"qX c #E2FFB6",
"wX c #CADCC1",
"eX c #D1DDCA",
"rX c #CEE2C2",
"tX c #D5E8C8",
"yX c #DBF8C5",
"uX c #E5FDCB",
"iX c #E3F5D4",
"pX c #EBF4D0",
"aX c #E4FDD1",
"sX c #EBFDD6",
"dX c #EBFEDB",
"fX c #F8FFD6",
"gX c #F3FFDD",
"hX c #EEEBE1",
"jX c #F5FFE2",
"kX c #FAFFE5",
"lX c #F5FBEA",
"zX c #FEFFEC",
"xX c #FFFFF3",
"cX c #FFFFFD",
/* pixels */
"` ` ` ` ^ ` ` ` ' ` ` ' ' ' ^ ~ ~ ~ ( ' { | | 6.6.| | 2.| 6.| | | | #.d.2.| 2.2.| 6.| [ ' ^ ~ ~ ~ ( ` ` ' ^ ` ^ ` ' ` ` ' ' ^ ` ",
"` ` ' ` ^ ^ ` ` ' ` ` ` ' ' ^ ^ ^ ` ( ` ' [ ] [ ] ] ] ] [ ' [ ] [ [ [ ' { ] ] { [ ] ' ] ' ^ ` ` ~ ^ ` ` ' ` ` ' ` ^ ' ` ^ ` ^ ' ",
"' ' ` ' ~ ^ ' ' ^ ^ ` ` ( ( ^ ` ` ' ( ( ~ ~ E E E W W W W W W W W W W W E E E E W W W ~ ` ' ' ' ' ` ` ` ` ` ` ` ' ' ^ ^ ` ^ ` ' ",
"' ' ' ' ' ' ~ ' ` ' ' ^ ( ( ^ ] ] [ ' ~ Y v f f f f v c v v f c c f c v H H f f f f v Y ~ ' [ [ ] ^ ( ^ ^ ^ ' ^ ` ` ` ' ' ' ` ` ",
"~ ' ~ ' ' ~ ' ~ ' ' ' ~ ~ ~ ( ' | | ' W v t 4 , > 5 5 6 5 5 5 6 6 5 5 5 4 t 4 , , , 6 v W ' | } ] ^ ~ ~ ~ ~ ` ' ^ ' ` ^ ^ ` ' ^ ",
"~ ' ' ' ^ ^ ' ' ' ' ~ ' ~ ~ ` [ } [ ` T s > $ $ $ - : % : : - : - - : - - - - # # $ > s T ` } | [ ` ~ ~ ~ ` ` ` ` ` ' ' ` ' ` ` ",
"' ~ ' ' ` ` ` ' ~ ' ' ' ' ` ' ' ' W T v r 7 % % > > 7 7 7 7 > 7 7 7 7 7 7 7 > > % > 7 p B Y W ` ' ' ' ' ` ' ^ ^ ` ' ^ ` ^ ' ' ^ ",
"' ' ' ~ ` ` ' ' ~ ~ ` ] { ] ` ~ H c s d d M V N M M M M V M V V V V M V M M M M N M M l d s f H W ' { [ ] ` ' ~ ^ ^ ' ` ` ` ' ` ",
"~ ' ' ' ` ` ' ' ~ ~ ' { | { ' J i , 5 a S O.4.7.4.%.@.$.%.%.7.%.3.%.%.%.$.@.%.7.7.4.O.S k > 4 i H ' { | [ ' ~ ) ^ ` ` ' ^ ^ ` ` ",
"' ' ~ ' ` ~ ' _ ~ ~ ' { | { ~ c 4 $ > l O.e.M.A.M.n.c.x.c.v.v.v.v.v.v.v.x.c.v.N.N.M.e.O.l > $ 4 c ~ [ | { ` ' ` ^ ` ' ` ` ' ^ ' ",
"' ' ' ' ` ` ' _ ` ` ' ' ] ' Y s > > q D q.N.R.Q.E.Y.J.J.J.L.J.J.J.L.L.J.J.U.Y.E.Q.R.N.q.D r > 5 s T ^ [ ] ' ` ` ` ` ` ` ' ` ` ' ",
"' ~ ' ' ` ` ' ' ` ` ' ~ W Y L d k h D %.v.Y.%X&X&X#X#XR.Y.Y.U.U.L.U.Y.Y.E.W.#X&X&X%XY.n.%.A l r g B Y W ~ ~ ` ` ' ' ` ' ^ ^ ' ` ",
"' ' ' ~ ` ` ` ' ] ' W L B g d z S o.8.c.J.W.%X%X%X%XW.R.Y.U.L.J.J.L.U.Y.R.#X#X%X%X%XW.J.c.7.o.C B d g v L W ' ] ' ` ^ ^ ` ` ' ` ",
"' ~ ' ' ` ~ ' ] } ' W H t 5 q M O.e.N.J.U.U.U.U.T.Y.U.L.J.S.S.A.A.S.H.J.J.U.Y.Y.T.U.T.U.L.M.e.@.M q 5 y H W ' } { ` ( ^ ^ ` ^ ' ",
"' ~ ~ ' ) ~ ` } | } W i - + % N 4.A.R.Y.J.v.t.e.t.t.c.v.n.N.N.H.S.N.N.n.n.y.t.e.e.e.a.S.Y.R.A.8.N % + - i W { | } ' ~ ~ ^ ' ` ' ",
"' ' ' ~ ) _ ' | 2.| W w O X + N e.U.%XY.n.%.F m A A @.4.e.n.H.L.L.H.n.e.4.@.F m A F 3.a.R.#XY.w.N + X O w E | d.| ' ~ ~ ' ` ` ^ ",
"~ ' ~ ~ ~ ~ ' | f.| ~ 6 O X + N r.Y.#XD.q.Z * o o * h F 8.v.L.R..XL.v.8.F x & o o * Z w.D.#XY.e.N +   O t ~ | d.| _ ~ ~ ~ ` ` ` ",
"' ' ' ~ ~ ~ ' | | | E i # O : A w.J.L.c.@.e X X   O 2 A 3.v.U.Q.#XT.v.3.Z 8 X X   O e #.n.U.D.e.A % O # i W { | { ] ) _ _ ` ' ` ",
"~ ' ' ' ' ~ ` ' ' ` T v y y l Q q.y.x.q.Q u ; = ; < z Q 9.u.D.Y.Y.D.v.7.o.k < ; = < d Q 8.x.x.8./ l 9 y v T ` ' ' _ _ ' ' ` _ ^ ",
"' ~ ' ' ' ' ~ ~ T L L Q ! *.*.=.$.#.O.+.+.X.X.-.-.-.:.g.h.n.C.F.Z.C.n.h.g.:.-.-.X.X... .+.O.#.#.*.*.&...Q L Y Y W _ ` ' ' ` ` ^ ",
"~ _ _ ] ] ' ~ c e p B &.k.).).j.&.M h P *.z.(.}.}.{.].`.V.M.s.p.p.p.N.V.`.].|.}.{.(.!.-.P h M &.k.)./.k.&.B e e c W ' ] ] ' ' ' ",
"~ _ ' ] } ] R s & % k :.].2X>X)...q > K 1.-XeXhXhXiX7X;XXXS.s.i.i.p.K. X;X7XiXhXhXeX-X1.K > q ..).>X2X[.;.a % & s W [ [ ] _ ~ ~ ",
"~ ~ _ { | ] R 3 X O u <.:XgXsX-X*.q > P ~.tXzXcXxXsX0X;X+XP.N.M.n.H. XoX;X8XsXxXxXzXtX).P 4 q ;.-XsXdX1X<.0 O O 3 R [ | { ' ~ ~ ",
"~ ' _ ] | { R 1 X X 0 1.2XzXzX6Xl.C b *.].aXxXzXiX1X-X].XXXXXX X XXXXXXX].-X1XiXzXzXuX[.*.x C k.6XzXzX2X<.0 X X 1 J [ | { ' ~ ~ ",
"~ ( ` } | [ Y 1 X X 0 ,.1XxXxXyX`.3.#.h.;XuXjXeX{.!.j.k._.;X6X2XwX6X;X_.l.g.!.[.eXjXsX@Xh.#.=.`.yXxXxX2X,.0 X X 3 R { | ] ' _ ~ ",
"~ ~ ` ] | ] R 3 + + 0 >.|.sXgXyXXXn.c. X9XuXtX[.:.G g &.~.>XsXlXlXsX>X~...z K >.|.tXaX9X Xc.n.XXyXgXsX|.>.0 + + 3 R { | ] _ ' ~ ",
"~ ) ' ] { ] ~ s 1 & u &.^.:X8X3XoXU..X<XuXsX1X^.G O X k j.1XzXcXcXzX1Xj.k X @ G !.2XsXuX<XR.T.#X3X6X:X/.-.u & 1 i ~ ' { ] ' ~ ~ ",
"~ _ ` ] ' ^ ~ c d p z U >.k._.`.T.R.&X5XsXjX1X1.9     2 ,.1XxXcXcXxX:X,.4     5 1.1XgXfX5X&XR.P. X_.!.;.U k e s c _ ' { ] ` ' ~ ",
"' ( ' _ ' ' ~ ~ R S L G K ! &.q.v.U.=XqXfXkX1X1.9     : ,.:XzXcXcXzX>X:.>     9 <.wXhXfXqX&XU.n.q.*. .G K H Y W ~ ^ ' ' _ ' ~ ' ",
"` ` ' ' ` ` _ ] ] _ T f y 5 r A 4.m.#X0XfXjX1X^.G O O d <.>XkXcXcXlX>Xj.k X O G ^.2XgXfX0X%Xm.4.S u < y g T ) ' ' ' ` ` ' ' ~ ' ",
"` ` ` ~ ' ~ ' } | { ~ c 4 - & e m 0.H.*XuXpX2X'.;.z z &.).7XkXxXcXjX7X^.&.z G *.'.7XpXyX*XH.8.m e $ # 4 c W | | [ ' ~ ~ ~ ' ' ' ",
"` ` ' ' ~ ~ ' } { { _ J i 4 1 1 x F 9.V.@X6X9XOX).k.k.).:XyXzXxXxXzXaX:X).k.k.).-X9X6X@XV.q.F e * 1 6 i J ) { | } ' ~ ~ ~ ' ' ~ ",
"` ' ` ^ ' _ ` ] ] _ ^ ~ ~ c s 6 2 e S =.B.oX<X3X,X:X:XwXiXjXzXxXxXzXjXiXwX>X;X;X3X<XoXB.7.C r 3 3 s c ~ ~ ' ] ] ' ' ' ~ ~ ' ~ ' ",
"' ` ` ` ' ' ` ` _ ^ ' ] { _ R s 4 % 7 m 8.N.#X4X0XyXiXdXdXgXgXdXgXgXjXdXdXiXyX0X3X#XS.7.A 8 - 4 s T _ ] ] ' ~ ' ' ' ~ ' ' ' ' ' ",
"` ' ` ` ' ~ ` ` ' ' ] ] { _ E g 5 > 2 b F 5.N.oX,XrXtXtXrXrX6X>X2X2X7XtXtXtXrX,XXXN.5.F h 2 : q v E ] { ] ' ) ) ' ' ' ' ' ' ~ ' ",
"' ^ ` ^ ~ ~ ` ' ] ' ' _ W Y L v g l b n m F %.g.B._.].'.'.~.!.z.l.z.^.).'.]._.B.e.@.F m b b l k g H Y E _ ' ] ] ' ' ~ ~ ~ ~ ' ' ",
"' ' ^ ~ ~ ~ ) ] | | ' R f t t l Q O.#.F Z e e V Q ..&.....U P P P P U ..&.&...Q V h h Z F O.#.Q l i 6 f T ' | | [ ` ~ ~ ~ ' ' ' ",
"' ^ ' ' ) ) _ { | | ~ v , - 2 C 4.t.x.7.D 8 $ # - 5 0 q 9 > > > > > 2 7 y y > ; @ $ q D 8.c.t.%.C 5 - 4 v ) | | [ ` ~ ~ ~ ' ~ ' ",
"~ ' ' ' ' ' _ ] ' ~ J i : % r o.x.J.U.c.+.a = @ @ ; 7 7 2 > > > > 5 > < > ; - @ @ @ a +.c.L.J.y.o.h % - p L ) ' ] ' ^ ` ^ ^ ' ~ ",
"~ ' ' ' ] ] _ W Y H p 5 0 k D w.S.#XE.N.8.S u j z G !  .U U U P I I I U ....I z j d S 8.A.E.W.H.q.D k 9 6 p H H ~ _ ] ] ] ^ ~ ~ ",
"~ ~ ' [ | { ' J i 4 4 q M O.w.N.R.Q.E.S.t.3.#.:.j.~././.^.!.z.l.z.z.~.^././.~.1.=.#.%.t.Z.E.#XY.M.w.O.M q > 4 i J _ { | [ ' ^ ~ ",
"~ ~ ' [ | { E c 4 $ > l O.e.A.T.R.T.S.C.a.u.n.`.-X7XrXtXrX7X2X>X2X>X2XrXtXrX2XOX`.b.u.n.m.J.T.R.T.S.e.O.l : - 4 f ~ [ | ] ' ( ~ ",
"~ ^ ` ' ] ^ T s 2 > r D q.N.U.T.H.M.u.u.n.Z.R.*X9XyXgXkXjXjXjXjXgXjXkXkXkXgXuX9X*XY.S.s.u.c.n.S.T.U.N.q.D q > 2 s T ` ' ' ^ ( ~ ",
"` ` ^ ~ W Y v d u l A %.u.Z.Z.m.e.7.%.q.a.S.#X$X5X0XaXgXzXzXxXxXxXxXzXzXgXaX0X4X$X#XJ.u.0.3.7.t.m.D.Z.u.%.D l r s v T W ( ( ^ ' ",
"{ ] ~ Y v s a l S o.8.r.C.Z.m.w.O.A S o.w.A.R.#X$X*X3X0XsXlXxXcXcXxXkXsX0X3X*X$X#XE.N.w.+.S S o.5.s.Z.C.u.8.o.C b a f v T ~ ` { ",
"| ' E H p > 7 B O.e.N.U.Y.G.r.#.N q q C 7.n.L.Y.I.U.T.@X9XaXjXxXxXjXaX6X@X.XL.I.Y.U.n.7.C q 8 M @.u.D.Y.G.N.e.O.B 9 4 t v ~ ' | ",
"2.] E f 4 # > N 4.M.E.&X&X.Xb.#.a - $ a #.c.D.G.C.s.n. X@X7XyXiXiXyX7X@X Xm.m.C.G.J.c.#.d $ - a #.M.oX&X&XW.N.4.M % $ , f W [ 2.",
"6.] E p - O % n 8.I.&X5X5X4X X,.z # @ 8 o.x.J.G.C.a.a.N. X@X;X7X7X;X@X Xm.v.p.C.G.S.x.o.8 O # G ,. X4X5X5X&XD.8.n % O - p W [ 6.",
"6.[ E s : @ $ n 4.Z.&XqXfXuX3XB.U ; @ 1 o.y.L.U.Z.N.s.M.K. X X+X+X X XK.m.n.m.Z.U.J.c.F 5 # - U ~.2XuXfXqX=XD.4.n o @ - s E ] d.",
"2.] W f 5 # - n @.a.$X5XfXfXeX/.X.< - e o.c.L.Y.U.A.N.M.N.H.H.K.K.K.H.N.N.N.Z.U.Y.L.c.o.e # < X.(.rXfXfX5X#Xm.@.b % # 4 f E ] 2.",
"| [ W H p 5 2 b F w.V.*X8XtX:X^.X.y & e @.u.L.R.T.S.N.N.N.A.A.C.C.A.A.N.N.N.H.T.R.U.u.@.e & 0 X.^.1XtX8X*XV.5.F b 8 4 p H W ] | ",
"[ ' W Y v s e h m o.q.B.(.{.(.>.I 7 2 b @.v.L.R.T.J.A.A.S.Z.C.Z.Z.C.Z.A.A.A.H.T.R.L.v.%.b * y G >./.[._.B.q.o.A e e d v Y ~ ' { ",
"' ` _ ~ E Y H v b M C  .-.*.-.G j ; 2 N 3.b.L.T.P.J.H.A.S.D.G.G.G.G.D.S.A.A.H.T.T.L.b.%.N 2 : j G X.*.-. .C M e v B T E W ) ' ' ",
"` ` ' ` ` ~ E B p 7 < 7 0 u < < # $ 7 S 7.n.L.Y.L.S.N.A.S.D.D.D.D.D.S.S.A.A.H.U.Y.L.n.7.S 7 # # ; 0 u 0 7 < 7 p B W ) ' ' ' ' ` ",
"~ ~ ` ] { ] ) L p : $ + + $ # O O # 9 S 7.v.D.U.L.S.M.n.m.m.n.b.n.n.n.m.m.m.S.I.U.S.v.7.S q # O @ + $ + + # > d H ~ ] ] ] ' ) ~ ",
"~ ( ` ] { { ' T g 5 : $ & & $ + O # 9 Z 3.u.Z.F.G.C.a.r.w.q.9.=.=.8.9.e.y.v.C.F.F.C.u.3.S 7 # @ @ # & & $ : 5 f E ` { { ] ' ' W ",
"~ ^ ` ] ] { ' W L v s s s w 3 1 $ $ 7 M %.r.C.F.F.C.u.0.@.D C V C C / @.w.r.C.F.F.Z.r.@.N 7 $ # 1 w w s p s v L W ' { ] ' ' ` ~ ",
"^ ` ` ` ' ' ^ ~ W W W ~ ~ ~ c i : - 7 M %.r.Z.Y.E.Z.u.7.D h < % % > h D 4.u.Z.E.R.S.r.%.N 7 - > i c ~ ' ~ W W ~ ) ' ' ' ' ' ` ` ",
"` ` ^ ^ ' ~ ' ' ' ' } | d.| ` v 4 - 7 M %.M..X$X#X.XM.=.S 7 O X X O 7 C =.M.R.$X$XR.M.$.N 7 $ 4 v ~ | d.| ] ' ' ` ` ^ ( ' ` ` ' ",
"` ' ^ ~ ~ ~ ~ ' ' } | d.f.d.' c 4 $ 7 I g.`.*X9X4X*X Xg.Q < X     X < Q l.`.*X4X9X*X`.g.C 0 $ 5 v ) 2.f.2.| ] ] ' ` ~ ~ ' ^ ' ' ",
"' ' ` ^ ' ~ ' ' ' ' } | d.| ~ f 1 $ 7  .l.-X0XaXiX0X-XB...7 X     X 7 ..z.OX0XiXiX0XOXl. .9 $ 1 c ~ | 2.| } ' ' ` ` ^ ^ ~ ' ~ ' ",
"^ ` ' ` ' ` ' ' ` _ ] } | } W s & $ 0 ..~.>XsXlXlXsX1X/.*.u X     O u *.).2XsXlXlXsX1X~...9 $ & i E } | | ' ` ` ^ ` ` ` ' ' ' ' ",
"' ` ^ ` ` ' ` ~ ` ) ` ] } ] R i & $ u ../.7XzXcXcXzX7X'.*.z O .   + d ;.'.rXkXcXcXzXwX/.X.0 $ $ i T ] } ] ^ ~ ~ ^ ` ` ` ' ' ~ ' ",
"` ` ^ ' ` ` ` ~ ~ ~ ) ] } ' Y w $ # u X.'.tXxXcXcXxXtX'.,.z + . . + z >.].tXxXcXcXxXtX'.&.q $ $ w T ] } ] ~ ~ ~ ' ` ^ ^ ~ ~ ' ' "
};
