/* XPM */
static char *result[] = {
/* columns rows colors chars-per-pixel */
"64 64 239 2 ",
"   c #000003",
".  c #00010C",
"X  c #081B0F",
"o  c #000213",
"O  c #000B14",
"+  c #010519",
"@  c #010C1B",
"#  c #06171B",
"$  c #03131D",
"%  c #041A1D",
"&  c #0D2D17",
"*  c #0A251B",
"=  c #040D22",
"-  c #130F25",
";  c #031521",
":  c #051A24",
">  c #0A1827",
",  c #0C1D24",
"<  c #121A29",
"1  c #032422",
"2  c #0D2324",
"3  c #092A26",
"4  c #06222A",
"5  c #0C242A",
"6  c #0B2B2D",
"7  c #112426",
"8  c #13252B",
"9  c #14292B",
"0  c #18282B",
"q  c #0A312B",
"w  c #193826",
"e  c #15332D",
"r  c #1B322C",
"t  c #0E2C31",
"y  c #172932",
"u  c #0E3732",
"i  c #143533",
"p  c #1C3333",
"a  c #143B35",
"s  c #1B3B35",
"d  c #153B39",
"f  c #1B3D3A",
"g  c #21372F",
"h  c #223C2C",
"j  c #222932",
"k  c #213535",
"l  c #243C34",
"z  c #283B3A",
"x  c #1E4028",
"c  c #15413A",
"v  c #1B433C",
"b  c #1C4C3D",
"n  c #23432B",
"m  c #28472B",
"M  c #2D572D",
"N  c #234234",
"B  c #2B4635",
"V  c #2D4B35",
"C  c #24413B",
"Z  c #21493D",
"A  c #2F4C38",
"S  c #304A36",
"D  c #324D3A",
"F  c #2C5232",
"G  c #335335",
"H  c #355B32",
"J  c #36573B",
"K  c #32632B",
"L  c #3B643A",
"P  c #3E6A39",
"I  c #416B3F",
"U  c #46773D",
"Y  c #2D3B43",
"T  c #343C48",
"R  c #1F5241",
"E  c #2B4342",
"W  c #234D42",
"Q  c #364B45",
"!  c #364549",
"~  c #3B4D4C",
"^  c #245344",
"/  c #275547",
"(  c #265A46",
")  c #275B48",
"_  c #295D4A",
"`  c #385645",
"'  c #3D5151",
"]  c #2E654E",
"[  c #2F684F",
"{  c #30674F",
"}  c #396448",
"|  c #2F6750",
" . c #2F6851",
".. c #306750",
"X. c #316951",
"o. c #367256",
"O. c #387457",
"+. c #377558",
"@. c #397658",
"#. c #3B7A5B",
"$. c #425C4A",
"%. c #454C54",
"&. c #455B53",
"*. c #495858",
"=. c #56535C",
"-. c #466946",
";. c #486D49",
":. c #4A7544",
">. c #4C744A",
",. c #527C4D",
"<. c #597F4D",
"1. c #486150",
"2. c #4C615A",
"3. c #54695B",
"4. c #567754",
"5. c #545164",
"6. c #5A6966",
"7. c #5D7066",
"8. c #616A6B",
"9. c #65766B",
"0. c #6C7775",
"q. c #707B77",
"w. c #3F815E",
"e. c #568748",
"r. c #55824C",
"t. c #5E964D",
"y. c #41835F",
"u. c #5B8552",
"i. c #5D8A53",
"p. c #5F8759",
"a. c #5F9154",
"s. c #61994F",
"d. c #638C58",
"f. c #659756",
"g. c #6B9C5B",
"h. c #6CA954",
"j. c #6DA25A",
"k. c #71A75D",
"l. c #6FB450",
"z. c #77B85B",
"x. c #428461",
"c. c #6A8768",
"v. c #749A6A",
"b. c #6D8372",
"n. c #758B79",
"m. c #7B957A",
"M. c #72A661",
"N. c #76AA63",
"B. c #79AD63",
"V. c #79A869",
"C. c #7BB364",
"Z. c #7DB865",
"A. c #839F7B",
"S. c #81B86A",
"D. c #83BC6B",
"F. c #88AB79",
"G. c #8BB77A",
"H. c #83C265",
"J. c #87C26C",
"K. c #89C46E",
"L. c #8BCB6C",
"P. c #8CD168",
"I. c #8CC373",
"U. c #8ECB71",
"Y. c #91CD73",
"T. c #96CC7B",
"R. c #95D475",
"E. c #99DB76",
"W. c #97D778",
"Q. c #9CDC7A",
"!. c #A0DE7F",
"~. c #9CE277",
"^. c #9EE17A",
"/. c #A1E47D",
"(. c #A4E87E",
"). c #7E8D84",
"_. c #869989",
"`. c #8F9792",
"'. c #8AA683",
"]. c #8BA28B",
"[. c #92A98D",
"{. c #8FB580",
"}. c #94B788",
"|. c #96A795",
" X c #9EB699",
".X c #9F97A7",
"XX c #A192AD",
"oX c #A6A8A4",
"OX c #B0A9AA",
"+X c #A8B5A5",
"@X c #9CC888",
"#X c #9FDB80",
"$X c #A6D98B",
"%X c #A6C896",
"&X c #A7D392",
"*X c #B4D69E",
"=X c #A8E884",
"-X c #ADF384",
";X c #B3F98A",
":X c #B7E89C",
">X c #BCFA96",
",X c #ADC7A4",
"<X c #B4C7AC",
"1X c #B5D6A6",
"2X c #BACDB3",
"3X c #BED4B2",
"4X c #BCE2A8",
"5X c #BFF2A1",
"6X c #C4FF9A",
"7X c #C3D5BB",
"8X c #C5DCB9",
"9X c #C3EDAA",
"0X c #C7F9A7",
"qX c #D6FFAD",
"wX c #CCEBB7",
"eX c #CAE3BC",
"rX c #D4EABF",
"tX c #CCF2B4",
"yX c #D7FDB7",
"uX c #E3FFB9",
"iX c #CADCC1",
"pX c #D1DDCA",
"aX c #D2E2C7",
"sX c #D5E9C8",
"dX c #DBF9C4",
"fX c #E5FECA",
"gX c #E5EDD2",
"hX c #E5FDD2",
"jX c #E7F9D7",
"kX c #EBFDD5",
"lX c #FAFFD7",
"zX c #F3FFDD",
"xX c #EBE7E2",
"cX c #F5FFE1",
"vX c #FBFFE4",
"bX c #F0F6EA",
"nX c #FEFFEC",
"mX c #FFFFF3",
"MX c #FFFFFD",
/* pixels */
"........X.[ X.......[ ] ) ) ..#.w.x.O.^ 6 + . . . o o o o o o o o o o o o + o .   . + 6 ^ o.x.x.#...] ) ] [ ........[ X.X.X.[ { ",
"....X...[ X.X.[ X...[ [ ] ] X.O.#.O. .^ t ; + o o @ @ @ $ @ @ @ @ @ @ @ @ @ + + o o ; i W X.+.#.o...] [ { ........X.X.X.[ X.[ X.",
"..X...X.X.X.......X.[ X.X...X... .] ( Z s 9 7 7 2 2 9 9 7 7 6 9 8 8 7 9 9 7 8 2 7 7 0 s W / ] | X...X.......X.X.X...X. .X.| X.{ ",
"X.....[  .X...[ X.[ ..o.O.o...] ^ v f f N B A A D A A B A A D A A A A A A B A A A A B N f f v R ] ..o.o.X.X.] [ [ ....X.{ X.[ X.",
"[ ......X.[ ..[ [ X.X.O.#.+.[ R d 5 6 s J ;.r.u.r.,.,.>.,.,.,.,.,.r.,.,.>.>.r.r.r.<.-.J s 6 5 i R  .@.#.o...] ] ] ] X.X.X.X.[ X.",
"[ X...[ X.....[ [ ..X.O.#.O.] v 5 ; , l -.g.C.D.Z.B.k.M.N.N.B.B.B.N.N.N.k.M.B.Z.H.S.g.-.l 4 ; 5 d ] O.#.O.X.[ [ X.X...] X.[ [ X.",
"..X.[ X.X.....[ [ [ ..X.o...^ d 2 : j J d.J./.(.=XW.Y.Y.U.U.Y.U.U.Y.Y.Y.U.R.Q.#X(./.D.d.J r , 4 d ^ ..O.o.[ [ { [ X.X.X.X.{ X.{ ",
"X.....X.[ ..X.X...[ [ ] ) / Z s r h J r.C.Q.;X;X;X-X(.^.^.Q.E.W.W.E.Q.~.^.=X-X;X6X(.Q.S.<.J l r s W / _ ] [ [ ..X.X...X.] X.X.| ",
"X.| X.X.X.X. .X.X.X._ ^ W f f l G -.d.k.Y./.-X;X;X-X=X#XQ.W.R.U.U.Y.E.E.!.(.-X;X;X-X/.Y.k.d.-.G N f v v R ] [ o...X.X...X.X...X.",
"{ X.{ [ |  .X.o.O.o.) W 6 > 0 A ;.g.S.U.R.W.W.W.W.E.R.Y.U.K.K.K.J.K.U.I.Y.R.W.W.T.W.W.W.Y.S.g.;.B 0 2 t v ]  .+.o...] [ ] X.X...",
"X.[ | | ] X.X.#.#.O.) u ; + : S i.J.Q.Q.U.C.g.g.j.j.M.B.C.Z.Z.I.K.D.Z.Z.B.k.k.g.g.k.B.U.^.E.D.d.S # + $ u _ +.#.@.X.| [ ] X.] X.",
"..X.X.] ] ] X.#.w.#.] q +   O V f.R.-XE.B.,.H H M L :.u.g.Z.K.U.Y.I.Z.g.u.U L H H H r.k.^.(.R.f.S O . + t _ #.w.#.X.| | ] ] X.X.",
"X.X.X.] [ ] ..#.x.w._ 6 o   O V g.Q.(.Y.d.G * X X * w P i.B.T.#X#XY.B.i.} x * X X * V t.U.(.Q.g.F O   o t ] #.x.#.X.] [ [ X.{ X.",
"] X.X.] [  .X.#.w.+._ t @ o # G f.U.R.B.:.r o   . o 3 G r.B.R.=X=XT.B.r.G 3 O .   . r :.C.R.U.f.G # o @ u ) +.w.#...] X.] X.X.| ",
"] X.[ X.X... . . . .( W y y l $.u.M.k.p.` l - - - < z $.u.N.P.~.~.L.N.i.} l < - - - k $.p.k.M.u.$.z 0 y v _ ..X.X.X.....X.| { X.",
"[ ..X.X.X.X. .) ^ R W ` &.*.3.4.4.>.;.-.$.&.%.=.=.6.6.c.M.C.H.P.P.H.C.g.c.7.5.=.=.%.*.&.-.;.>.4.4.3.2.&.Q W ^ ^ _ X.....X.X.X.] ",
"] X...o.o.o.] b s e C 2.n.].].b.1.B l D 3.n.`.OXOX+X X}.G.Z.z.l.z.z.Z.G.}. X+XOXoX`.n.3.D l B 1.b._.].n.2.l e e b ] X.o.X.X. . .",
"] ] ..o.@.X.( u % # k 7. X8X3X].&.9 , E b.<XgXxXxXgXeX1X$XI.z.l.l.z.I.@X1XeXgXxXxXgX,Xb.Y , 9 &.].3X8X X7.k # : u ( o.+.O.X.[ [ ",
"] ..X.O.#.o.^ 3 . o j 0.2XzXkX,X6.9 2 Q _.sXnXMXmXkXrX1X&XT.D.C.z.K.T.%X4XsXkXmXMXmXsX'.~ , 0 6.,XkXzX3X0.j . O 3 ( +.#.@...[ ] ",
"_ X...@.#.+.( 1 .   0 0.8XmXnXeXn.A h 3. XhXmXnXgX3X,X%X%X&X&X@X@X$X&X%X@X,X7XgXmXnXfX X3.l S n.eXnXmX8X0.0 .   1 ( o.#.o...] ] ",
"]  .X.+.#.O.^ 1 . . 0 0.7XnXmXdX}.4.>.v.*XhXzXpX+Xn.b.n.}.1XeXeXiXwX1X[.n.c.).oXpXzXhX1Xv.;.4.{.dXmXnX7X0.0 . . 1 / O.#.@.X...| ",
"]  .X.+.#.o.( q O o 0 8.+XkXcXyX&XC.B.@XtXhXsX X8.E z &.A.3XjXbXbXkX1X_.2.l E 7.oXsXhXtX@XV.S.&XdXzXkX+X8.0 O O 3 ( O.#.o.X.| | ",
"] [ X.+.+.o.) a * % p 5.`.2XrX9X=XT.Q.:XdXjXiX).Y + o k q.7XnXMXMXnX8Xb.k o + Y ).8XhXfX6XW.W.$X9XwX2X`.=.p : 1 a ) O.@.o...[ ] ",
"] [ X.X.o. .] b a i f ~ 6._.[.}.T.~.;XqXlXzX7Xq.8     5 9.2XmXMXMXmX7X9.,     8 q.7XlXkXqX;X^.W.@X].).6.~ k i s b ] X.@.X...{ ] ",
"{ ] X...X.X.] ] ( ^ W E T ' 2.d.C.R.;XuXlXvX7Xq.<     : 7.2XnXMXMXnX2X7.,     8 q.iXbXlXuX>XE.k.d.2.' ! E W Z ( ] ] ....X.X.....",
"X.X.......X...X.X.X./ f y 5 k G e.Z.-XyXlXzXiX).T + . k b.2XvXMXMXvX3Xb.p o o Y _.8XzXlXyX=XD.e.J p < t f ( X.o. .[ [ [ ......X.",
"X.X...X.[ [ X.@.#.+.] f 4 ; % w H i.G.9XsXfXeX|.6.Y z 2.].eXvXmXMXvXeX_.2.z Y 6.|.eXfXdX9XG.t.H 0 # ; 4 c ] O.#.+.X.[ [ [ X.X...",
"{ | X.[ [ ..X.o.#.+.| R u 1 * * w H d.G.*XtXtX,X'.n.n.].2XjXnXmXmXnXhX2X|.b.n.'.%XwXwX*XF.d.H w * * 1 u R | O.#.+. .[ [ [ ..X...",
"| X.X.[ ] [ ..o.o.X. .] ( b a q 3 r D <.F.$X5X9X3X1X3XiXjXcXmXmXmXnXcXjXiX2X1X3X9X5X&XF.4.D r 3 q c b ( ] [ o.o.o.X.[ [ [ ......",
"X.{ | { X.X.........X.o.+. ./ d 4 : 7 G u.I.=X6XyXdXjXjXzXzXcXcXjXzXzXzXkXjXdXyX0X=XJ.u.G 7 : : a ^ [ o.o.X.[ [ [ ..........X...",
"X.[ X.X.{ X.X.......X.o.+.X.) f 5 , 2 h P t.S.$X4XsXsXsXaXiX3X4X3XeXiXsXsXsXsX4X$XD.t.P n 2 > t W ) o.+.o.X.X.X.[ [ ........ ...",
"[ X.X.] ] | X...o.X.X. .] R W v l N N m M L :.c.A.[. X|.]._.).m.m.)._.]. X X}.m.d.,.L M m h k f d W ^ _  .X.X.o.X.....[ [ [ X.X.",
"..X.....| ..X.+.+.+. .R d 6 0 B ` >.>.P F w g z Q &.2.*.&.~ Q Q Q Q ~ &.*.2.&.~ S g h G I :.-.` C i t d ^  .+.+.o. .| | { X.| X.",
"X.......|  .X.@.#.+.] f : ; 8 S u.M.N.i.H 0 O + # , 9 8 8 5 , , 2 4 , 8 0 0 , # + @ 0 J u.k.M.<.D 8 ; 4 c ] +.#.+.X.X...[ X.X.{ ",
"X.[ ..X.X.[  .X.o. ./ a : : g I j.K.U.k.;.l > + + < , 7 , , 5 2 , , , , , , > + + @ r ;.N.Y.Y.k.I r ; : i / ..o.X.X. ...[ [ [ X.",
"[ X...X.....| _ _ ^ v p e l J i.S.W.E.S.d.$.B z T ! ~ %.~ ~ Q ` Q Q ~ ~ %.%.T z y p J u.D././.H.e.F w 2 e v ( _ |  ...X.X.X.X.] ",
"[ [ X...o.X.[ ^ f i i f G ;.d.B.U.R.T.D.k.a.p.c.n._._.`._.).).).m.m.m._._._.).0.3.;.,.j.K.^./.Y.k.<.H m r p d v ^ ] X.X.......{ ",
"] [ ..o.@.X.) v 5 , 7 B ;.g.D.Y.Y.Y.J.S.Z.Z.D.@X*X8XaXaXiXiX4X3X7X8X8XaXsXaX8X%X{.V.k.C.H.U.R.W.L.z.s.-.B 7 , 6 v ] o.O.o...[ [ ",
"[ [ ..O.@.o.( d : $ 7 S u.S.E.E.E.J.z.k.k.Z.I.&X9XfXzXcXcXcXcXcXzXzXcXnXvXlXhXyX>XQ.L.Z.k.k.Z.T.!.=XI.d.G , O # u ( o.@.O...[ ] ",
"] [  .O.#.X.( i ; O , S d.J.^./.E.H.k.s.t.f.N.T.*XyXkXvXnXmXmXmXmXmXnXnXcXlXfXyX0X;XE.z.e.,.f.G.:XqX9XG.1.< o + 6 / o.#.@...X._ ",
"] ] ..O.#.o.( a : $ , D u.S.Q.^.P.H.s.e.P } ;.d.F.&XqXhXzXnXmXmXmXmXvXkXdXyX0X0X6X;XE.j.L B -.m.4XfXfX%X3.0 . . 1 ( o.#.+.X...| ",
"] ] ..o.O.o.( a : ; 2 A ,.B.Y./.~.L.j.:.B 9 r A r.D.=X5XyXhXzXnXnXzXhXwX4X#X=X/.(.(.D.r.n * k 9.,XfXfX<X9.0 o O q ( o.#.o.X.| | ",
"] ] ..o.@.X.) f , $ , B >.k.Q.-X;X$XS.4.k ; + & L s.U.=X5XwXdXjXjXhXwX&XG.k.h.l.z.C.s.J * + < *.|.7X8X+X9.k # % u ( o.+.o...| ] ",
"] ] ..o.#.o.( d , @ , B ,.k.(.6XqX0X%Xc.Y = o X M t.J.Q.&X*X3XrXdXtX4X{.i.P K K U U L w $ + = T 9.`.`._.3.C e s c ]  .O.X.X.[ [ ",
"| | X.o.+.o.( i : = : m U S.(.qXfXfXeX_.' > + % H s.J.T.T.@X&X:X5X:X$XV.} x * X & & w * O @ = y ! 5.6.2.' ^ Z Z ) [ ....X.X.....",
"| ..X.o.@.o._ d : = # n U S.=XqXlXkXaX`.*.< # 3 P j.U.W.Y.G.I.W.=X#XI.d.J * + o O % : ; $ $ $ > < 8 p f ^ ) { X.X.....[ ........",
"] | X.o.+.X._ v 6 , 7 m I t.Y.9XrXsX7X`.%.8 % n >.C.W.^.R.L.Z.H.Z.Z.h.,.` p < - < > y y 8 , > $ O O $ 6 b ] +.+.O.X.] ]  ...X...",
"] | X.X.o.X.] W s p g h G I d.F.|.oX`.8.T 8 3 m r.D.^.-X^.P.H.l.t.e.:.-.&.*.5.5.5.5.%.T k 8 % O O O 1 u (  .+.#.O.X.[ [ [ X...X.",
"X.X.| X.....| ] ( W W v n B D $.3.6.=.T j > 7 G i.D.=X-X-XE.z.t.P M A $.8._..XXXXX.X_.6.! 0 % O * 3 c b _ X.O.@.o.X.] ] { [ X...",
"X.{ X.[ X.[ ..X.X.] ( W p 7 < 8 0 y < > = = 9 D i.Z.E.-X-XQ.C.:.m 3 y %.).+XgXxXxXgX+X_.*.0 $ % q b ] o.o.X.X.X.X...X.X.X.X.] X.",
"{ X.{ [ | { ..o.@.o.| W i : O @ O % O + o @ 7 S ,.g.J.R.Q.I.g.J 3 @ < ' _.eXnXMXMXvXrX[.*.8 @ % a | #.w.@.X.{ _ | X.| | X.X.X.X.",
"X.X.X.] [ ..X.O.#.o.X.) f 6 : % % % % @ o @ , g ` ,.f.M.V.g.>.l # + > ' '.tXlXnXmXlXtX'.&.8 @ % c  .x.x.#...] { ] X.X.X.X.] X.{ ",
"] X.X.] [ ] X.X.O.O.[ ] W v d u u u q 1 # @ @ 7 p A ` ;.;.} A 7 + + , ` v.:XuXfXkXuX*Xv.$.> o % a ] #.x.#.X.] _ ] { ] X.] X.] X.",
"X.X.] X...X.X.X.X.....X.] ) _ _ ] ] R c 5 ; # # : 7 0 r r r 2 @ + + 8 J d.G.=X6X6X=XK.d.D 7 @ : a _ +.#.+.X.] X.] X.X...X.X...X.",
"] X.] ..X.{ X.X.[ [ ..X.X.X.o.#.#.+.X./ f 9 : @ @ @ @ @ @ @ @ + + @ 8 B U f.z.H.L.z.f.I N 7 : t c _ X.o.o.X. .| [ X.X.X.X.] X.] ",
"X.X.X.X.X.X.] ] ] [ ..X.o.@.#.#.w.4.@.{ ^ s 9 : @ o o . . o o o o @ 2 w M I U e.e.U I G N p i d R _ X.+.X.X. .X.[ X.] X.X.X.X.X.",
"X.X.X...] X.X.] [ ] X...X.o.@.@.@.@.O.X.X./ v 9 ; o o . . o o o + + # 7 0 h n m m n n n C b W ( _ ] X.X.X.X.] { X.] ] X.X.X.X...",
"] X.] X.X...X.X.| | | { ..X.X.X...X.X.X.X.X./ v 6 $ + o + @ @ $ @ $ # ; % 7 2 X # : * r Z _ | X...X.{ ..{ X.X.X.X.X.X.X.X.] ] X.",
"X.X.X.[ X.{ ] X.X.[ X.X.{ [ ..[ ] ] X.X.@.o.| ^ f 9 , , , 2 7 7 8 5 , , , : ; @ ; ; , i W X.o.@.o...] ..] X.X.X.X.X.{ X.X.X.X.X.",
"X...{ X.| X.X.X.{ X.X.[ [ { ] [ ] X...X.O.o.X.] Z v s i s s f s s s i i t t t > > 5 t c / ..o.@.O...] ] ] X.] X.] X.X.] { X.] X.",
"] { X.| ] X.X.X.X.X.X.[ { { [ ] ] ] X.X.o.o...[ ] Z ^ Z ^ W ^ W ^ ^ W b W v v d d f v ^ ] X.o.o.X.X.....] X.{ [ X...] X.| X.X.] ",
"X.X.{ X.X.{ X.] { X.] X.X.{ X.X.X.{ X.X...X...{ ] ] ] { ) ] ] ] ] ) ] ] _ ) _ _ ) _ ] ] | ......X.X.....X.| X.X.] X.X.X.X.{ X.X.",
"X.] X.[ X.X.X.] | X.{ X.[ X.{ | [ X.[ [ [ [ [ [ X.o.X.o.X.o.o.X.X.X.o.X.o.O.o.o.o.o.o.o... .[ ] [ ..X.X.{ X...X.X.X.] X.] X.X.] ",
"X.X...X.] X.X.X.X.{ X.| X.{ X.X.X.{ { [ ] ] [ X.o.+.@.@.+.#.+.O.O.#.+.#.#.#.#.x.y.w.#.O.X.[ ] ] [ [ X.X.X.{ X.X.] X.X.X.X.{ X.X."
};
