/* XPM */
static char *xpm_[] = {
/* columns rows colors chars-per-pixel */
"64 64 191 2 ",
"   c #020101",
".  c #0B0101",
"X  c #0A0A0C",
"o  c #190908",
"O  c #181617",
"+  c #0B1114",
"@  c #221212",
"#  c #241A1B",
"$  c #200F0E",
"%  c #3A221F",
"&  c #251E20",
"*  c #1E2223",
"=  c #2A2425",
"-  c #292627",
";  c #3B3B3C",
":  c #353537",
">  c #372827",
",  c #401E19",
"<  c #411D17",
"1  c #41221E",
"2  c #55271E",
"3  c #4A2623",
"4  c #4B2925",
"5  c #472825",
"6  c #522720",
"7  c #542A24",
"8  c #5A2B25",
"9  c #552D29",
"0  c #592E29",
"q  c #4D312E",
"w  c #5D322E",
"e  c #4C363A",
"r  c #523332",
"t  c #5D3C3D",
"y  c #5B3431",
"u  c #63332E",
"i  c #6B342E",
"p  c #643631",
"a  c #6A3732",
"s  c #653833",
"d  c #6C3A35",
"f  c #643C3B",
"g  c #6F3D38",
"h  c #603738",
"j  c #713A34",
"k  c #723E38",
"l  c #763A33",
"z  c #70332B",
"x  c #47403F",
"c  c #76413B",
"v  c #79423C",
"b  c #6E433F",
"n  c #3F3F40",
"m  c #5B3E41",
"M  c #663E40",
"N  c #3A465D",
"B  c #3D495F",
"V  c #3D4345",
"C  c #3F4B60",
"Z  c #474748",
"A  c #5E4044",
"S  c #56484B",
"D  c #4C4C5E",
"F  c #535455",
"G  c #694443",
"H  c #6D4A4A",
"J  c #684546",
"K  c #744B45",
"L  c #744D4B",
"P  c #784E4A",
"I  c #754944",
"U  c #7B524D",
"Y  c #6B5254",
"T  c #7C5552",
"R  c #745254",
"E  c #414D64",
"W  c #435066",
"Q  c #45526A",
"!  c #4A566E",
"~  c #4D556A",
"^  c #5A5A68",
"/  c #4A5770",
"(  c #4C5971",
")  c #475771",
"_  c #515D74",
"`  c #556176",
"'  c #546379",
"]  c #5E647B",
"[  c #5E6365",
"{  c #676869",
"}  c #64667E",
"|  c #686274",
" . c #6E7171",
".. c #757677",
"X. c #934A3F",
"o. c #854842",
"O. c #8F4E47",
"+. c #844640",
"@. c #924E46",
"#. c #935049",
"$. c #9F574E",
"%. c #945F5F",
"&. c #8A5959",
"*. c #A25850",
"=. c #A15348",
"-. c #827875",
";. c #8F817E",
":. c #5C6B87",
">. c #6A6E87",
",. c #6B6F88",
"<. c #666D86",
"1. c #62718F",
"2. c #6E718A",
"3. c #72738C",
"4. c #7A788B",
"5. c #647492",
"6. c #667999",
"7. c #6D7E9E",
"8. c #6D7A95",
"9. c #707E9A",
"0. c #767B93",
"q. c #6E7EA0",
"w. c #77849E",
"e. c #78869F",
"r. c #6E82A3",
"t. c #7182A3",
"y. c #7C8AA5",
"u. c #7286A9",
"i. c #7389AC",
"p. c #7D8CAA",
"a. c #7D91B1",
"s. c #848484",
"d. c #8A8283",
"f. c #8C8D8D",
"g. c #978684",
"h. c #8C8B97",
"j. c #8C9193",
"k. c #929393",
"l. c #95999A",
"z. c #9B9C9C",
"x. c #9C9594",
"c. c #A49D9C",
"v. c #A6A09F",
"b. c #838DA1",
"n. c #808FAC",
"m. c #8693AE",
"M. c #8795AE",
"N. c #8390A9",
"B. c #8995AA",
"V. c #8E99AE",
"C. c #9596A6",
"Z. c #8996B1",
"A. c #8B98B3",
"S. c #8C9AB3",
"D. c #8D9AB5",
"F. c #8F9CB4",
"G. c #8E9CB7",
"H. c #949FB3",
"J. c #929FBB",
"K. c #909EB9",
"L. c #9EA2A2",
"P. c #96A0B5",
"I. c #95A2BB",
"U. c #9AA4B9",
"Y. c #9DA8BE",
"T. c #9EA8BA",
"R. c #A2A2A2",
"E. c #ABABAB",
"W. c #A8A6A6",
"Q. c #B4B4B4",
"!. c #BCBCBC",
"~. c #B4BABB",
"^. c #BDC0BF",
"/. c #96A4C0",
"(. c #9FAAC0",
"). c #9CAAC8",
"_. c #A4AEC2",
"`. c #A3AEC4",
"'. c #A2AEC4",
"]. c #A6B0C4",
"[. c #A3B0C6",
"{. c #AAB5C9",
"}. c #A5B5CD",
"|. c #B8C0C1",
" X c #C3C3C3",
".X c #CBCCCC",
"XX c #DADBDC",
"oX c #CED0D1",
"OX c #F7F7F7",
"+X c #E3E5E5",
"@X c None",
/* pixels */
"@X@X@X@X@X@X@X@X@X@X@X@X@X@X@X@X@X@X@X@X@X@X@X@X@X@X@X@X@X@X@X@X@X@X@X@X@X@X@X@X@X@X@X@X@X@X@X@X@X@X@X@X@X@X@X@X@X@X@X@X@X@X@X@X",
"@X@X@X@X@X@X@X@X@X@X@X@X@X@X@X@X@X@X@X@X@X@X@X@X@X@X@X@X@X@X@X@X@X@X@X@X@X@X@X@X@X@X@X@X@X@X@X@X@X@X@X@X@X@X@X@X@X@X@X@X@X@X@X@X",
"@X@X@X@X@X@X@X@X@X@X@X@X@X@X@X@X@X@X@X@X@X@X@X@X@X@X@X@X@X@X@X@X@X@X@X@X@X@X@X@X@X@X@X@X@X@X@X@X@X@X@X@X@X@X@X@X@X@X@X@X@X@X@X@X",
"@X@X@X@X@X@X@X@X@X@X@X@X@X@X@X@X@X@X@X@X@X@X@X@X@X@X@X@X@X@X@X@X@X@X@X@X@X@X@X@X@X@X@X@X@X@X@X@X@X@X@X@X@X@X@X@X@X@X@X@X@X@X@X@X",
"@X@X@X@X@X@X@X@X@X@X@X@X@X@X@X@X@X@X@X@X@X@X@X@X@X@X@X@X@X@X@X@X@X@X@X@X@X@X@X@X@X@X@X@X@X@X@X@X@X@X@X@X@X@X@X@X@X@X@X@X@X@X@X@X",
"@X@X@X@X@X@X@X@X@X@X@X@X@X@X@X@X@X@X@X@X@X@X@X@X@X@X@X@X@X@X@X@X@X@X@X@X@X@X@X@X@X@X@X@X@X@X@X@X@X@X@X@X@X@X@X@X@X@X@X@X@X@X@X@X",
"@X@X@X@X@X@X@X@X@X@X@X@X@X@X@X@X@X@X@X@X@X@X@X@X@X@X@X@X@X@X@X@X@X@X@X@X@X@X@X@X@X@X@X@X@X@X@X@X@X@X@X@X@X@X@X@X@X@X@X@X@X@X@X@X",
"@X@X@X@X@X@X@X@X@X@X@X@X@X@X@X@X@X@X@X@X@X@X@X@X@X@X@X@X@X@X@X@X@X@X@X@X@X@X@X@X@X@X@X@X@X@X@X@X@X@X@X@X@X@X@X@X@X@X@X@X@X@X@X@X",
"@X@X@X@X@X@X@X@X@X@X@X@X@X@X@X@X@X@X@X@X@X@X@X@X@X@XM.I.D.M.M.m.M.M.M.A.J.M.@X@X@X@X@X@X@X@X@X@X@X@X@X@X@X@X@X@X@X@X@X@X@X@X@X@X",
"@X@X@X@X@X@X@X@X@X@X@X@X@X@X@X@X@X@X@X@X@X@X@X@X@X@XM.)./.J.J.J.J.J.J./.).M.@X@X@X@X@X@X@X@X@X@X@X@X@X@X@X@X@X@X@X@X@X@X@X@X@X@X",
"@X@X@X@X@X@X@X@X@X@X@X@X@X@X@X@X@X@X@X@X@X@X@X@X@X@XZ.I.G.Z.Z.A.A.A.A.G./.Z.@X@X@X@X@X@X@X@X@X@X@X@X@X@X@X@X@X@X@X@X@X@X@X@X@X@X",
"@X@X@X@X@X@X@X@X@X@X@X@X@X@X@X@X@X@X@X@X@X@X@X@X@X@Xn.J.Z.m.m.m.m.M.m.A.G.B.@X@X@X@X@X@X@X@X@X@X@X@X@X@X@X@X@X@X@X@X@X@X@X@X@X@X",
"@X@X@X@X@X@X@X@X@X@X@X@X@X@XM.J.A.m.M.M.M.Z.A.w./ ( y.G.M.m.m.B.m.m.m.m.A.e.( ( e.F.Z.Z.M.M.M.A.J.M.@X@X@X@X@X@X@X@X@X@X@X@X@X@X",
"@X@X@X@X@X@X@X@X@X@X@X@X@X@XM.)./.J.J.J.I.I./.b._ _ b.J.H.K.K.F.G.G.H.K.I.y._ ` p./.I.J.J.J.J./.).M.@X@X@X@X@X@X@X@X@X@X@X@X@X@X",
"@X@X@X@X@X@X@X@X@X@X@X@X@X@XZ.I.G.A.A.A.A.G.K.y.( _ V.{._._.'.'._._._._.{.V._ ! y.G.F.Z.A.A.A.G./.Z.@X@X@X@X@X@X@X@X@X@X@X@X@X@X",
"@X@X@X@X@X@X@X@X@X@X@X@X@X@XN.J.A.M.m.M.M.M.F.e.! ( B._.Y.Y.Y.Y.Y.Y.Y.'._.B._ ! e.F.M.m.M.M.M.Z.J.N.@X@X@X@X@X@X@X@X@X@X@X@X@X@X",
"B _ y.A.M.M.M.M.M.V.A.w.! _ w.D.Z.m.n.m.m.m.Z.w.! ! 9.n.p.u.y.p.y.y.y.n.n.9.~ ( w.A.M.B.m.m.M.M.A.e.! ! e.F.Z.M.M.M.M.Z.A.y.( B ",
"E ' n.I.I.J.J.I.J.J./.n._ _ b.I.K.G.H.K.K.H.J.b.( Q 1.9.7.9.7.7.q.6.7.9.q.1.Q ( b.J.K.K.H.A.H.K.I.y.` ` n.I.I.J.J.J.J.I./.N.' E ",
"C _ y.J.G.A.Z.A.A.K.K.y./ _ V.{._._._.`._._.{.V._ ~ 5.t.q.9.q.q.q.7.q.t.q.1.Q _ V.{._._.'.'.'._.{.V._ ( y.G.G.Z.Z.A.A.G.K.y._ C ",
"C ( y.Z.Z.M.M.M.M.M.A.w.! _ B._.Y.T.T.(.Y.'.`.B._ ~ 5.t.q.q.q.9.9.q.q.q.q.5.~ _ B._.Y.Y.Y.Y.Y.'._.B._ ! w.F.Z.M.M.M.M.Z.F.t._ C ",
"B _ e.Z.M.m.m.m.n.Z.A.w.( / 9.n.p.p.y.y.y.p.n.9./ ! 5.t.t.q.q.q.q.q.q.t.u.5.~ / 9.n.y.u.p.p.y.p.n.9.! ! e.F.M.m.m.m.m.M.Z.w.( B ",
"N _ y.J.J.F.F.F.H.K.J.b._ Q 1.q.7.7.6.7.7.6.q.1.Q ! 5.u.t.t.t.q.q.q.t.t.q.5./ ) 1.7.7.9.6.7.6.7.7.1.! ( y.I.H.K.F.G.H.K.I.b._ B ",
"N ` V.{._._._._._.].{.V._ Q 5.q.7.7.q.q.9.q.q.5.! / 6.u.u.u.u.u.u.t.u.u.p.6./ / 5.q.q.9.7.7.9.q.t.5.Q ` V.{.]._.'.Y._._.{.V.` N ",
"N ` B._.'.Y.Y.Y.T.'.].B._ Q 5.t.t.q.t.t.q.t.u.5.~ E ] ,.,.,.,.,.,.,.,.,.2._ ~ ~ 5.u.t.q.r.t.t.t.t.5.Q _ B._.Y.Y.Y.Y.Y.'.`.B.` N ",
"D ( 8.a.y.y.y.p.p.p.p.7.~ Q 6.i.u.u.u.u.u.u.i.8.S q e e m m m m A A A m e e 9 S 8.i.u.u.u.u.u.u.u.6.) / 7.n.p.y.y.y.y.p.p.8.( C ",
"B ) 5.q.7.7.6.6.7.7.7.1.~ ~ } ,.,.,.<.<.<.2.5.| f 2 < < 7 8 8 8 8 7 8 6 % < 6 f | 2.,.,.<.<.,.,.,.} D ~ 1.q.6.7.7.7.7.7.q.5./ C ",
"C ( 1.t.7.7.7.7.q.q.t.,.S r t m m m e e t A A t y 7 1 1 7 9 9 9 9 0 0 7 % 5 7 y t m m m e e m m J t y S ,.t.r.7.7.7.7.q.t.5./ C ",
"C ( 5.t.t.t.t.9.t.t.u.,.t 2 8 8 8 6 , , 8 8 0 0 w 0 5 3 9 u u y w w w 0 3 3 y 0 u 8 0 6 % < 6 8 7 6 2 m ,.u.t.t.q.t.9.t.t.5./ C ",
"C ( 8.u.t.t.y.t.t.u.i.2.m 8 8 0 0 7 1 5 0 d a a d s 9 y p a d s s s s h 0 9 s a a s d u 1 5 7 0 8 9 6 m 2.i.u.t.t.t.t.t.u.5.( E ",
"E ! :.1.5.1.1.1.5.5.5.} m 8 0 0 w 9 3 4 a k g g g d p w d k g k k k k d w p s g g g k s 4 5 9 p w w 0 M } 6.5.5.5.5.1.5.5.<.! E ",
"E Q Q Q Q Q Q Q Q Q Q ~ h i i u u u 9 0 s j g d g a w w s g k k k k j d w w s k d j k s w 9 a s d s a f D Q Q Q Q Q Q Q Q Q E W ",
"E Q _ ` ` ` ` ` _ ` ' ^ Y I I P T P s w s k d d g s p w g d 9 7 9 0 d g y w d j d d g s w p s g j d j J ^ ` ` ` ` ` ` ` ` _ Q E ",
"C _ b.U.J.H.H.H.P.P.I.C.d.-.-.d.z.;.G 8 u g d d c d p p c u $     $ u k u w s k g d g d u w s k g d i L h.I.P.H.H.H.H.H.U.b._ N ",
"N _ V.{.].'._.'.Y.[.[.T.l.j.l.L.~.c.L 8 d k d d d s 4 4 8 q ; : : : q 8 w u s g d d d s w w s g d d i T C.}.[.'._._.'.`.{.V._ N ",
"C / 9.n.n.y.p.p.y.p.p.y.j.l.W.Q.^.c.H 8 i g d k c w & o . : Q.XXXXW.= . 1 d k g d d d s w w s k d d i L 0.a.p.p.p.p.p.n.n.9._ E ",
"E / 1.7.7.7.6.7.8.r.8.8.4.;.x.c.c.;.G 8 s d d k c q o   O Z ~.XX+X.X^ - % 6 s k k d d d u w s k j d a J ,.r.7.7.6.7.7.6.q.1.Q E ",
"N / 5.q.q.q.7.7.r.7.r.2.R I P T T K y w p g d d j 7 . O  .;.F V { k.oXE.- . 0 v k d d d w w s g d d z H 2.q.7.7.q.9.9.q.q.5._ E ",
"E ! 5.t.9.t.r.9.7.r.r.2.G z i u p i w y d d d g c 0 O ; W.l.+   : f.OX+X{ - 4 0 s g d d w w d g d a a H 2.u.t.q.q.q.q.t.t.5.Q E ",
"E / 5.t.9.q.r.7.r.r.r.2.H i a a d p w w d d d d d f Z { E.f.+ X  .E. XoXXXW.> o 7 c k s w w d d i i i H 2.u.q.q.q.t.9.q.t.5./ E ",
"D / 8.t.t.9.r.7.w.r.u.3.H i j d d d u w d g j d j c F  .W.k.; e l.!.E.|.OXXXF O w k k d w w s c P P j J 3.u.t.q.t.9.t.q.t.5.) D ",
"C ) 5.t.t.t.t.t.t.t.i.3.H d d j d d w w d c d d c b F  .v.E.k.k.Q.!.~.!. X^.l.-.P d j d w w i U g.g.I J 2.u.t.t.t.t.t.t.t.5.( C ",
"E Q :.5.8.5.5.5.5.5.6.} H i d d d d p w s d g p w r S  .L.Q.^.E.f.d.d.k.v.E.^.c.J 2 p d w 0 u U W.W.U G } 6.5.5.5.5.5.5.8.<./ E ",
"E Q Q Q Q Q Q Q Q Q W ~ G j d d g s w w s g c 8 $ O Z ..v.Q.^.k.; O = V k.!.^.f.= o 9 d u w i T v.c.U h D Q Q Q Q Q Q Q Q Q W E ",
"E Q _ ` ` ` ` _ _ _ ' ^ G a j d d d w w s g c 0 @ O ; [ z.~.^.f.; +   O d.!.!.k.n = y d u w u T c.c.U h ^ ' ` ` _ ` _ ` ` _ Q E ",
"E _ b.U.P.H.H.H.P.P.U.h.L i d d g s w w g g d d w 5 O : k.^.Q.W.z.{ X o s.!.Q.E.L.;.P u w 0 u U c.c.o.K h.I.J.H.H.H.H.H.U.b._ B ",
"N _ A.{.]._._._.).[.}.C.T i i d g d w w d g d g c w . O ..E.E.Q.{.x.; : k.!.Q.E.L.;.P u 0 u i T v.c.I L C.}._._._.`.`.`.{.V._ N ",
"N _ 9.n.p.p.y.p.p.p.n.0.L i d d g s w w d d d g c 9 . + F ;.v.Q.Q.E.k.x.E.^. Xl.V - y d u 0 i T c.c.P J 4.a.p.p.p.p.p.p.n.7._ C ",
"E Q 1.7.7.7.6.7.7.q.q.>.H a d d d d w w d k d d c w @ O V  .L.Q.Q.Q.!.Q.l.f.k. .O o w k u w u U v.c.P G >.q.7.6.7.7.6.7.7.5./ C ",
"E / 5.r.q.7.9.7.7.r.r.2.H a j d d d w w d d g d k u 7 q S  .L.!.!.^..XC.Z O = - 4 0 d g u 0 u T W.W.O.G >.r.r.7.7.7.q.q.t.5.( D ",
"D Q 5.t.t.q.q.t.7.t.r.3.H a j d g s w w s g d d d d p y x [ j.L.f.f.k. .= .   @ p v k s w u u T g.g.I J 2.u.r.7.t.9.9.q.t.5.) C ",
"E ( 5.t.q.9.q.q.7.r.r.2.H a d d d d w w d d d d g d s 4 @ * [ [ : * * - % 4 9 0 a k k s w w s k P K k H 3.r.r.q.7.q.r.t.t.5.) C ",
"E ( 5.t.q.w.t.9.w.q.u.2.H z d d g d w w s g d g g d s 3 $ # x S @ . . o 7 d k k g d k s w w a g a i i H 2.t.t.t.t.9.9.t.t.5.( C ",
"B / 5.u.u.t.y.t.t.t.u.3.L z d j g d w w d d d d d d u 0 0 r f f w 7 9 9 w p s k g g g s w p s g d a i L 3.u.t.t.t.t.t.t.u.8.( C ",
"E ! <.5.5.1.1.1.5.5.5.} J a d d d d w w s g g d d d w u g c j d k k c g h w s j d d g a w w s j d d i H <.6.5.5.5.5.5.1.5.:.! E ",
"E E Q Q Q Q Q Q Q Q ) ~ f i i a u u w w d d d g g s w w d g d j d k g s w w s g g d g s w w s g j j j M D Q Q Q Q Q Q Q Q Q W E ",
"E Q _ ` ` ` ` ` ' _ _ ^ Y I I I U K p w a g d d d d w w s g d d d g k s w w a g a g g a w p s j d d a G ^ _ _ ' ` ` ` ` ` _ Q E ",
"C _ b.U.J.H.H.H.H.H.H.C.d.-...;.z.;.G 8 s c d g k s w w d g d g d g d s u y d g d d g a w w s k j a a L h.U.P.H.P.H.H.J.U.h._ C ",
"N _ V.{._._._._.'.]._.U.C.k.l.R.~.c.L 8 p d d d k s w w s g d j d d k d w w s d g d g a w w s g g a i R C.}.[.'.].Y.'.`.{.V._ N ",
"C / 9.n.n.y.p.p.p.p.p.n.j.l.E.Q.|.c.H 8 p g d d g d w w d d s d d j g s w w d k d d k s y w s g d d i L 0.a.p.p.b.p.p.p.p.7.( C ",
"E / 1.7.7.7.6.7.7.6.q.8...;.x.z.c.;.G 8 i g d d d s w w d d d d d d d s w w d d d d g s p w s j d d a H ,.r.7.7.7.6.7.7.q.5./ C ",
"C / 5.q.7.7.7.7.7.r.r.2.R c L U U K y w d s d d s d w w s s d d d s s s w w s d s s g a p 0 d l a j i H ,.t.q.7.7.7.q.9.t.5./ E ",
"C / 5.t.t.q.t.7.r.r.r.3.L l j g l d w w k c c c v k w w k v v v v v v k w u k v c c v k w p k M k k l L 5.u.r.q.q.w.q.q.t.5.! E ",
"E / 5.t.7.9.9.7.7.r.r.3.&.X.@.@.@.+.p u +.#.@.#.#.o.s u o.#.#.#.@.#.#.o.u p o.#.#.#.#.+.p p o.#.#.@.@.&.4.q.r.q.q.7.q.t.t.5.! E ",
"D ( 5.t.t.q.t.9.r.7.q.4.%.=.$.$.*.O.s s O.*.$.*.*.O.s s O.$.$.$.$.$.*.O.s s O.*.$.$.*.O.p p O.*.*.=.=.%.4.r.q.t.9.q.9.t.t.5.! B "
};
