/* XPM */
static char *xpm_[] = {
/* columns rows colors chars-per-pixel */
"64 64 93 2 ",
"   c #3E1D17",
".  c #3C1C19",
"X  c #3F201D",
"o  c #421F19",
"O  c #41211E",
"+  c #422320",
"@  c #482B28",
"#  c #4B363A",
"$  c #563E3B",
"%  c #4E3C41",
"&  c #3A465D",
"*  c #3D495F",
"=  c #3F4B60",
"-  c #414D64",
";  c #435066",
":  c #45526A",
">  c #4A566E",
",  c #4D596F",
"<  c #4A5770",
"1  c #4C5971",
"2  c #525D74",
"3  c #556075",
"4  c #56627B",
"5  c #586378",
"6  c #5C687D",
"7  c #5C6B87",
"8  c #656B84",
"9  c #61718F",
"0  c #657492",
"q  c #6E7D97",
"w  c #6D7E9E",
"e  c #727991",
"r  c #707E9A",
"t  c #6E7EA0",
"y  c #77849E",
"u  c #78869F",
"i  c #6F80A1",
"p  c #7282A3",
"a  c #7C8AA5",
"s  c #7486A8",
"d  c #7788AA",
"f  c #7C8BAA",
"g  c #7E90B5",
"h  c #968F8F",
"j  c #838DA1",
"k  c #808FAC",
"l  c #8794AE",
"z  c #8995AA",
"x  c #8E99AE",
"c  c #8494B4",
"v  c #8996B1",
"b  c #8D9AB4",
"n  c #949FB3",
"m  c #909EB8",
"M  c #919FBB",
"N  c #929FBB",
"B  c #909DB9",
"V  c #95A1B4",
"C  c #96A0B4",
"Z  c #98A2B6",
"A  c #99A2B6",
"S  c #95A1B9",
"D  c #95A1BA",
"F  c #94A2BD",
"G  c #9BA4B8",
"H  c #9CA5BB",
"J  c #9DA8BE",
"K  c gray68",
"L  c #A0AABF",
"P  c #B0B2B2",
"I  c #B1B2B2",
"U  c #B6BABA",
"Y  c #B8BBBB",
"T  c gray74",
"R  c #95A3C0",
"E  c #96A3C0",
"W  c #97A5C1",
"Q  c #9FAAC0",
"!  c #9CAAC8",
"~  c #A2ACC2",
"^  c #A2ADC3",
"/  c #A4AEC2",
"(  c #A3AEC4",
")  c #A4AFC5",
"_  c #A6B0C4",
"`  c #A5B1C8",
"'  c #A6B1C8",
"]  c #ABB5C9",
"[  c #A8B4CA",
"{  c #ACB8D1",
"}  c #ADB9D1",
"|  c #C0C1C1",
" . c None",
/* pixels */
" . . . . . . . . . . . . . . . . . . . . . . . . . . . . . . . . . . . . . . . . . . . . . . . . . . . . . . . . . . . . . . . .",
" . . . . . . . . . . . . . . . . . . . . . . . . . . . . . . . . . . . . . . . . . . . . . . . . . . . . . . . . . . . . . . . .",
" . . . . . . . . . . . . . . . . . . . . . . . . . . . . . . . . . . . . . . . . . . . . . . . . . . . . . . . . . . . . . . . .",
" . . . . . . . . . . . . . . . . . . . . . . . . . . . . . . . . . . . . . . . . . . . . . . . . . . . . . . . . . . . . . . . .",
" . . . . . . . . . . . . . . . . . . . . . . . . . . . . . . . . . . . . . . . . . . . . . . . . . . . . . . . . . . . . . . . .",
" . . . . . . . . . . . . . . . . . . . . . . . . . . . . . . . . . . . . . . . . . . . . . . . . . . . . . . . . . . . . . . . .",
" . . . . . . . . . . . . . . . . . . . . . . . . . . . . . . . . . . . . . . . . . . . . . . . . . . . . . . . . . . . . . . . .",
" . . . . . . . . . . . . . . . . . . . . . . . . . . . . . . . . . . . . . . . . . . . . . . . . . . . . . . . . . . . . . . . .",
" . . . . . . . . . . . . . . . . . . . . . . . . . .l N b l l l l l l b N l  . . . . . . . . . . . . . . . . . . . . . . . . . .",
" . . . . . . . . . . . . . . . . . . . . . . . . . .l ! R N N N D N N R ! l  . . . . . . . . . . . . . . . . . . . . . . . . . .",
" . . . . . . . . . . . . . . . . . . . . . . . . . .l W b b v b b v v B R b  . . . . . . . . . . . . . . . . . . . . . . . . . .",
" . . . . . . . . . . . . . . . . . . . . . . . . . .k B v v l l v l v v b l  . . . . . . . . . . . . . . . . . . . . . . . . . .",
" . . . . . . . . . . . . . .l D v v l l l b x u , 1 a b l l l l l l l l b y 1 1 u b v l l l v v N l  . . . . . . . . . . . . . .",
" . . . . . . . . . . . . . .l ! R N F N N F F k 2 2 a D m m n b b b n m D a 2 2 k R F N N F N R ! v  . . . . . . . . . . . . . .",
" . . . . . . . . . . . . . .v R B v v b b b m a , 2 x ] _ / ^ ^ ^ ^ / _ ] x 2 , a b b v b v b b F l  . . . . . . . . . . . . . .",
" . . . . . . . . . . . . . .l B v l v l l v b u : 2 z / J J J J J J J L / z 2 > u x b v l l v v N l  . . . . . . . . . . . . . .",
"* 2 y b l l l l l v b u , 1 u v v l l l l l v u 1 > q f a a a a a d a a k q > , y b l l l l l l b u , , u b z l l l l v b u 2 * ",
"- 4 l R F N D D N F W k 2 2 j D N b n b b m D a 2 : 9 t w w w w w w w w t 9 : 2 a D V b n b m m D a 2 2 k F F N N D N N W k 4 - ",
"= 2 a m b v b v b b m a 1 2 x ] / / / / / / ] x 2 : 0 p t w w w w w t t t 0 : 2 x ] _ / ^ ^ ^ _ ] x 2 1 a m m v b v b b b a 2 = ",
"* 1 a v v l l v l v v y , 2 z ^ ~ J J J J ~ / z 2 : 0 p t t p w t w r t t 0 : 2 z / L J J H J J ^ z 2 , y b v l l v v v b a 1 = ",
"* 2 y b v l l l l l v y , > w f d a a a a d k r < > 0 p y p w t y t w t p 0 > < r k a d a a a d f r , , y v l l l l l l v y 1 = ",
"& 2 a D B b b b n m N j 2 : 0 t w w w w w w w 9 > 1 0 s i p p p p p p p s 0 < < 9 t w w w w w w w 9 : 2 j D m b b n m m D j 2 * ",
"& 3 x ] _ / _ / / ) ] n 2 : 0 p w w t t r t t 0 < 1 t f d d d d d s f d f w 2 1 0 t w w w w w p p 0 : 2 x ] ) ^ ~ / / _ ] x 4 & ",
"& 3 z ( Q J J J J Q ~ z 2 : 0 s p p p p p p d 0 > > 0 p t t t t t t t i p 0 > 1 0 d p p p p p p s 0 > 2 z ( ~ J J J J Q ) z 2 & ",
"* 1 q k s a a s a a f w 1 1 t f f d d d d f g w  . . . . . . . . . . . . . . . .t g f d d d d d f w 1 1 r f d a a a a d f q 1 * ",
"- > 0 t w w w w w w t 0 < < 0 p i t t w w p d t  . . . . . . . . . . . . . . . .t d p t t t t i p 0 < > 0 t w w q w w w p 9 > - ",
"= , 0 i w w w w t t s q  . . . . . . . . . . . . . . . . . . . . . . . . . . . . . . . . . . . . . . . .w s p w t w w w p 0 > - ",
"= 1 0 p y p t y t s d t  . . . . . . . . . . . . . . . . . . . . . . . . . . . . . . . . . . . . . . . .i d p p t t t p p 0 1 * ",
"= 1 0 d s p p p p s d p  . . . . . . . . . . . . . . . . . . . . . . . . . . . . . . . . . . . . . . . .p f s p p p p p s 0 2 - ",
"= > 7 0 0 9 0 0 0 0 q 0  . . . . . . . . . . . . . . . . . . . . . . . . . . . . . . . . . . . . . . . .0 w 0 0 0 0 9 0 0 7 > = ",
"- ; : : : ; : : : > < :  . . . . . . . . . . . . . . . . . . . . . . . . . . . . . . . . . . . . . . . .; 1 : : : : : : : : ; - ",
"- : 2 3 5 3 3 3 3 5 6 3  . . . . . . . . . . . . . . . . . . . . . . . . . . . . . . . . . . . . . . . .3 6 5 3 3 3 3 3 5 2 ; - ",
"= 2 j A C n n C n A L m  . . . . . . . . . . . . . . . . . . . . . . . . . . . . . . . . . . . . . . . .n L A n n n n n H j 2 = ",
"& 2 x ] / ^ ^ / ^ ' } (  . . . . . . . . . . . . . . . . . . . . . . . . . . . . . . . . . . . . . . . .) } ' ^ ^ / ( ) ] z 2 & ",
"= 1 w k f a d f a k c a  . . . . . . . . . . . . . . . . . . . . . . . . . . . . . . . . . . . . . . . .d c k d a d a a k r 2 = ",
"- < 0 w w w w w w t p w  . . . . . . . . . . . . . . . . . . . . . . . . . . . . . . . . . . . . . . . .w p t w w w w w t 9 < = ",
"* < 0 p t w w w w p s w  . . . . . . . . . . . . . . . . . . . . . . . . . . . . . . . . . . . . . . . .w s p w w t w w t 0 1 - ",
"= , 0 p p r i w t p d t  . . . . . . . . . . . . . . . . . . . . . . . . . . . . . . . . . . . . . . . .t d i y p r t p p 0 < = ",
"= 1 0 p w w w w t p d w  . . . . . . . . . . . . . . . . . . . . . . . . . . . . . . . . . . . . . . . .w d p w w r r p p 0 < - ",
"= 1 0 p p p t y p p d p  . . . . . . . . . . . . . . . . . . . . . . . . . . . . . . . . . . . . . . . .p d p p p p t p p 0 < = ",
"= 1 0 a p p p p p s f p  . . . . . . . . . . . . . . . . . . . . . . . . . . . . . . . . . . . . . . . .p f p p p p p s s 0 1 - ",
"- > 7 0 0 0 0 0 0 0 w 0  . . . . . . . . . . . . . . . . . . . . . . . . . . . . . . . . . . . . . . . .0 w 0 0 0 0 0 0 0 7 : = ",
"- ; ; : : : : : : > 1 :  . . . . . . . . . . . . . . . . . . . . . . . . . . . . . . . . . . . . . . . .: < > : : : : : : : ; ; ",
"- : 2 5 3 3 3 2 2 5 6 2  . . . . . . . . . . . . . . . . . . . . . . . . . . . . . . . . . . . . . . . .2 6 5 2 2 3 2 3 3 2 : ; ",
"* 2 j A C n n n n A Q n  . . . . . . . . . . . . . . . . . . . . . . . . . . . . . . . . . . . . . . . .n L A n n n n n G j 2 * ",
"& 4 z ] ) ( ^ / ( ' } ~  . . . . . . . . . . . . . . . . . . . . . . . . . . . . . . . . . . . . . . . .~ } ' / / / ) ) ] x 3 & ",
"* 1 w k f d a f a k c d  . . . . . . . . . . . . . . . . . . . . . . . . . . . . . . . . . . . . . . . .d c f d a a a f k r 2 * ",
"- 1 0 t w q w w w w s w  . . . . . . . . . . . . . . . . . . . . . . . . . . . . . . . . . . . . . . . .w s t w w t w w t 9 > * ",
"* > 0 p t w w w w p s w  . . . . . . . . . . . . . . . . . . . . . . . . . . . . . . . . . . . . . . . .w s p r t t w i p 0 > = ",
"= , 0 p y i w t w p d w  . . . . . . . . . . . . . . . . . . . . . . . . . . . . . . . . . . . . . . . .w d p t i r w t p 0 < = ",
"- 1 0 p i w i w i p d w  . . . . . . . . . . . . . . . . . . . . . . . . . . . . . . . . . . . . . . . .t d p w t w w t p 0 < - ",
"* 1 0 p i w y i p p d p  . . . . . . . . . . . . . . . . . . . . . . . . . . . . . . . . . . . . . . . .t f p p p p p y s 0 , * ",
"= 1 0 d s p p p p s f p  . . . . . . . . . . . . . . . . . . . . . . . . . . . . . . . . . . . . . . . .p g s p p p p a s 0 1 - ",
"- > 8 0 0 0 0 9 0 0 w 0  . . . . . . . . . . . . . . . . . . . . . . . . . . . . . . . . . . . . . . . .0 q 0 0 0 0 9 9 0 7 > = ",
"- ; ; ; : : : : : : < :  . . . . . . . .K T T K  . . . . . . . . . . . . . . . . . .K T T K  . . . . . .; > : : : : : : : ; ; ; ",
"- : 2 5 3 3 3 3 3 4 6 3  . . . . . . . .I | | I  . . . . . . . . . . . . . . . . . .I | | I  . . . . . .2 7 5 3 3 3 3 3 3 2 : - ",
"= 2 j G C n n C n A J C  . . . . . . . . . . . .Y Y  . . . . . . . . . . . . . .U U  . . . . . . . . . .C J C V n n n C G j 2 & ",
"& 2 x ] _ ^ ^ ( ( _ { J  . . . . . . . . . . . .h h  . . . . . . . . . . . . . .h h  . . . . . . . . . .H { ' ^ ^ / ( ) ] x 4 & ",
"= 1 w f f a d d d f c e # o O + + + + + X o . @ $ $ @ + + + + + + + + O + + + @ $ $ @ . . o + O + X   % e c f f a a d a k r 1 * ",
"- < 0 w w w q w w w i 8 $ O O + @ + + + + + @ + . . + + + @ + + + + @ + @ + + + . . X + @ + @ + + O O # 8 i t w w w w w t 9 > - ",
"* 1 0 p w w w w i i i 8 # . O + + + + + + + + + . . + + + + + + + + + + O + + + X X + + + + + + + O o # 8 i i i w w w w p 0 < = ",
"= < 0 p i i y t i i s 8 #   O + + + + + + + + + + + + + + X + + + + + + + + O + + X + + + + + + + O o # 8 s i i y w p i p 0 < = ",
"= < 0 p t w i w t i s 8 #   X + X + + + X + + + + + + + + + X + + + + O + O + + + + X + + + + X O O   # 8 s p w w t w t p 0 < - ",
"= , 0 p t y w i i i s 8 #   X + + + + + X + X + + + + + + + + + + + + + + + + + + + + + + + + + + X   # 8 s i i t w t y p 0 , * "
};
