/* XPM */
static char *xpm_[] = {
/* columns rows colors chars-per-pixel */
"64 64 242 2 ",
"   c #3D1C16",
".  c #3E1D17",
"X  c #3F1E18",
"o  c #3C1D1B",
"O  c #3F201C",
"+  c #421F19",
"@  c #40201C",
"#  c #40211D",
"$  c #41221E",
"%  c #40221F",
"&  c #44231F",
"*  c #412320",
"=  c #422421",
"-  c #452522",
";  c #4A363A",
":  c #4B373B",
">  c #4B393F",
",  c #4E383C",
"<  c #3A465D",
"1  c #3B475E",
"2  c #3C485E",
"3  c #3D485E",
"4  c #3D495E",
"5  c #3C485F",
"6  c #3E4A5F",
"7  c #3E4B60",
"8  c #3F4B60",
"9  c #404C61",
"0  c #414D64",
"q  c #414E65",
"w  c #434F65",
"e  c #435066",
"r  c #445169",
"t  c #455169",
"y  c #475268",
"u  c #45526A",
"i  c #46526A",
"p  c #46536B",
"a  c #47546C",
"s  c #47546D",
"d  c #48546C",
"f  c #48556D",
"g  c #49566D",
"h  c #4B576D",
"j  c #49556E",
"k  c #49566E",
"l  c #4A566E",
"z  c #4A576F",
"x  c #4B576F",
"c  c #4C576F",
"v  c #4D596F",
"b  c #4A5770",
"n  c #4B5770",
"m  c #4B5870",
"M  c #4A5871",
"N  c #4C5870",
"B  c #4C5971",
"V  c #4E5A71",
"C  c #4C5972",
"Z  c #4D5A72",
"A  c #4E5A72",
"S  c #4D5A74",
"D  c #4F5B74",
"F  c #4E5B75",
"G  c #505B73",
"H  c #505C71",
"J  c #505C72",
"K  c #515D72",
"L  c #505C73",
"P  c #525D73",
"I  c #515D74",
"U  c #515E75",
"Y  c #535E74",
"T  c #535F74",
"R  c #535F75",
"E  c #515E76",
"W  c #525E76",
"Q  c #545F74",
"!  c #556074",
"~  c #556075",
"^  c #566175",
"/  c #546076",
"(  c #556077",
")  c #566177",
"_  c #576276",
"`  c #56627B",
"'  c #586378",
"]  c #5C687D",
"[  c #5C6B87",
"{  c #666C85",
"}  c #676C85",
"|  c #666E88",
" . c #61718F",
".. c #627190",
"X. c #627290",
"o. c #637290",
"O. c #637291",
"+. c #637292",
"@. c #647391",
"#. c #657491",
"$. c #647492",
"%. c #657492",
"&. c #657493",
"*. c #667593",
"=. c #667594",
"-. c #667695",
";. c #677695",
":. c #677795",
">. c #687796",
",. c #6E7D97",
"<. c #6B7A9A",
"1. c #6B7B9B",
"2. c #6E7C98",
"3. c #6F7C98",
"4. c #6F7D9A",
"5. c #6A7B9D",
"6. c #6B7C9C",
"7. c #6C7C9C",
"8. c #6C7C9D",
"9. c #6C7D9E",
"0. c #6D7D9E",
"q. c #6E7E9E",
"w. c #6E7E9F",
"e. c #6F7F9F",
"r. c #707E9A",
"t. c #6E7EA0",
"y. c #6F7FA1",
"u. c #6F7FA2",
"i. c #77849E",
"p. c #77859E",
"a. c #78859E",
"s. c #78869F",
"d. c #79869F",
"f. c #6F80A0",
"g. c #6F80A1",
"h. c #7080A0",
"j. c #7181A1",
"k. c #7080A2",
"l. c #7081A2",
"z. c #7181A2",
"x. c #7182A3",
"c. c #7282A3",
"v. c #7182A4",
"b. c #7383A4",
"n. c #7383A5",
"m. c #7284A7",
"M. c #7384A7",
"N. c #7585A7",
"B. c #7586A7",
"V. c #7B88A2",
"C. c #7C89A3",
"Z. c #7F8BA3",
"A. c #7B8AA7",
"S. c #7285A8",
"D. c #7586A8",
"F. c #7686A8",
"G. c #7687A9",
"H. c #7788AA",
"J. c #7889AB",
"K. c #7C8BA8",
"L. c #7C8BA9",
"P. c #7D8CAB",
"I. c #7E8CAA",
"U. c #7E8DAB",
"Y. c #788AAC",
"T. c #7A8BAE",
"R. c #7A8CAE",
"E. c #7A8CAF",
"W. c #7F8DAC",
"Q. c #7E90B5",
"!. c #838DA1",
"~. c #808EA9",
"^. c #828FAA",
"/. c #808EAD",
"(. c #808FAD",
"). c #808FAE",
"_. c #8390A9",
"`. c #8693AE",
"'. c #8795AE",
"]. c #8794AF",
"[. c #8995AA",
"{. c #8A95AA",
"}. c #8A95AB",
"|. c #8D98AE",
" X c #8E99AE",
".X c #8F9AAE",
"XX c #8595B5",
"oX c #8695B5",
"OX c #8895B0",
"+X c #8997B0",
"@X c #8996B1",
"#X c #8A96B1",
"$X c #8A97B2",
"%X c #8B97B3",
"&X c #8B98B2",
"*X c #8B98B3",
"=X c #8C99B3",
"-X c #8C9AB3",
";X c #8C99B4",
":X c #8D9BB5",
">X c #8F9CB4",
",X c #8E9CB7",
"<X c #949EB2",
"1X c #959FB2",
"2X c #919EB6",
"3X c #909DB9",
"4X c #909EB8",
"5X c #919FBB",
"6X c #929FBB",
"7X c #96A0B4",
"8X c #98A2B6",
"9X c #95A1B9",
"0X c #95A1BA",
"qX c #94A2BD",
"wX c #9BA4B8",
"eX c #9DA8BE",
"rX c #ACACAC",
"tX c gray68",
"yX c #AEAEAE",
"uX c #A0AABF",
"iX c #B0B2B2",
"pX c #B1B2B2",
"aX c gray74",
"sX c #95A3C0",
"dX c #96A3C0",
"fX c #97A5C1",
"gX c #9FAAC0",
"hX c #9CAAC8",
"jX c #A1ACC3",
"kX c #A2ACC2",
"lX c #A2ADC3",
"zX c #A4AEC2",
"xX c #A3AEC4",
"cX c #A4AFC5",
"vX c #A6B0C4",
"bX c #A6B1C8",
"nX c #ABB5C9",
"mX c #A8B4CA",
"MX c #ADB9D1",
"NX c #AEB9D1",
"BX c #C0C1C1",
"VX c None",
/* pixels */
"VXVXVXVXVXVXVXVXVXVXVXVXVXVXVXVXVXVXVXVXVXVXVXVXVXVXVXVXVXVXVXVXVXVXVXVXVXVXVXVXVXVXVXVXVXVXVXVXVXVXVXVXVXVXVXVXVXVXVXVXVXVXVXVX",
"VXVXVXVXVXVXVXVXVXVXVXVXVXVXVXVXVXVXVXVXVXVXVXVXVXVXVXVXVXVXVXVXVXVXVXVXVXVXVXVXVXVXVXVXVXVXVXVXVXVXVXVXVXVXVXVXVXVXVXVXVXVXVXVX",
"VXVXVXVXVXVXVXVXVXVXVXVXVXVXVXVXVXVXVXVXVXVXVXVXVXVXVXVXVXVXVXVXVXVXVXVXVXVXVXVXVXVXVXVXVXVXVXVXVXVXVXVXVXVXVXVXVXVXVXVXVXVXVXVX",
"VXVXVXVXVXVXVXVXVXVXVXVXVXVXVXVXVXVXVXVXVXVXVXVXVXVXVXVXVXVXVXVXVXVXVXVXVXVXVXVXVXVXVXVXVXVXVXVXVXVXVXVXVXVXVXVXVXVXVXVXVXVXVXVX",
"VXVXVXVXVXVXVXVXVXVXVXVXVXVXVXVXVXVXVXVXVXVXVXVXVXVXVXVXVXVXVXVXVXVXVXVXVXVXVXVXVXVXVXVXVXVXVXVXVXVXVXVXVXVXVXVXVXVXVXVXVXVXVXVX",
"VXVXVXVXVXVXVXVXVXVXVXVXVXVXVXVXVXVXVXVXVXVXVXVXVXVXVXVXVXVXVXVXVXVXVXVXVXVXVXVXVXVXVXVXVXVXVXVXVXVXVXVXVXVXVXVXVXVXVXVXVXVXVXVX",
"VXVXVXVXVXVXVXVXVXVXVXVXVXVXVXVXVXVXVXVXVXVXVXVXVXVXVXVXVXVXVXVXVXVXVXVXVXVXVXVXVXVXVXVXVXVXVXVXVXVXVXVXVXVXVXVXVXVXVXVXVXVXVXVX",
"VXVXVXVXVXVXVXVXVXVXVXVXVXVXVXVXVXVXVXVXVXVXVXVXVXVXVXVXVXVXVXVXVXVXVXVXVXVXVXVXVXVXVXVXVXVXVXVXVXVXVXVXVXVXVXVXVXVXVXVXVXVXVXVX",
"VXVXVXVXVXVXVXVXVXVXVXVXVXVXVXVXVXVXVXVXVXVXVXVXVXVX'.6X%X'.].].].].].-X5X].VXVXVXVXVXVXVXVXVXVXVXVXVXVXVXVXVXVXVXVXVXVXVXVXVXVX",
"VXVXVXVXVXVXVXVXVXVXVXVXVXVXVXVXVXVXVXVXVXVXVXVXVXVX'.hXdX6X0X6X0X5X6XqXhX].VXVXVXVXVXVXVXVXVXVXVXVXVXVXVXVXVXVXVXVXVXVXVXVXVXVX",
"VXVXVXVXVXVXVXVXVXVXVXVXVXVXVXVXVXVXVXVXVXVXVXVXVXVX+XdX,X%X-X+X%X%X,X,XqX+XVXVXVXVXVXVXVXVXVXVXVXVXVXVXVXVXVXVXVXVXVXVXVXVXVXVX",
"VXVXVXVXVXVXVXVXVXVXVXVXVXVXVXVXVXVXVXVXVXVXVXVXVXVX^.3X+XOX].`.+X`.`.+X5X_.VXVXVXVXVXVXVXVXVXVXVXVXVXVXVXVXVXVXVXVXVXVXVXVXVXVX",
"VXVXVXVXVXVXVXVXVXVXVXVXVXVX'.5X%X`.].].].-X-Xs.n C s.-X'.'.`.`.`.`.`.].,Xs.C h s.-X+X].].].`.%X6X'.VXVXVXVXVXVXVXVXVXVXVXVXVXVX",
"VXVXVXVXVXVXVXVXVXVXVXVXVXVX'.hXdX6X5X5X5XqXqXU.W W !.0X9X-X-X2X-X,X2X2X6X!.W W ^.fXqX6X5X0X6XdXhX'.VXVXVXVXVXVXVXVXVXVXVXVXVXVX",
"VXVXVXVXVXVXVXVXVXVXVXVXVXVX+XdX3X&X%X&X-X-X2XV.x ! |.nXvXvXzXkXzXzXzXzXnX|.Q v V.2X,X&X+X%X%X,XdX+XVXVXVXVXVXVXVXVXVXVXVXVXVXVX",
"VXVXVXVXVXVXVXVXVXVXVXVXVXVX^.5X+X].OX].].+X-Xp.x D {.xXeXeXeXeXeXeXeXuXzX[.G h s.-X].`.+XOXOX+X5X_.VXVXVXVXVXVXVXVXVXVXVXVXVXVX",
"3 G V.&X+X'.'.'.'.+X-Xi.g C s.,X'.`.`.`.`.`.&Xi.v h ,./.A.A.A.A.A.A.A.A.W.4.h v i.+X+X`.`.`.'.].*Xs.G h i.-X+X].].].].].-Xs.G 3 ",
"q ` _.qXqX6X6X6X5XqXfX^.W W Z.0X2X-X2X-X2X2X5X!.L t  .t.5.q.1.q.6.6.6.9.t.| j L !.0X2X>X>X>X>X2X0XC.W W ^.fXqX5X6X6X5XqXfX^.' w ",
"7 W C.5X,X+X*X*X%X,X2XV.v Q |.nXvXzXzXzXzXcXnX.XQ t @.z.r.q.q.q.q.q.q.g.g...t R -XnXvXzXzXzXvXvXnX|.Q v V.2X,X-X-X&X&X,X2XV.W 7 ",
"3 L s.-X+XOX`.OXOX+X*Xs.h G {.zXkXeXeXeXeXgXzX{.W t @.z.z.t.f.q.f.q.q.g.b.$.y L {.kXgXeXeXeXeXeXzX{.L g s.-X].].].].].+X%XV.I 1 ",
"3 L s.&X+X`.`.`.'.'.&Xp.M j 2.^.K.K.A.A.A.L.W.4.n g @.z.t.i.t.q.q.i.t.t.z.@.j n r./.A.A.A.A.A.A./.,.g v s.-X].].`.`.'.].+Xi.F 3 ",
"3 L C.0X2X,X2X-X-X9X0XC.D s | u.5.5.3.5.4.5.q. .g b >.B.b.b.z.b.z.b.z.b.D.>.n g  .t.8.8.1.5.9.5.t. .t L !.0X2X-X>X>X>X2XqX!.W 3 ",
"1 _ |.nXzXzXzXzXkXvXnX|.! t @.u.t.q.q.q.q.q.z.&.C F 9.Y.H.D.H.H.H.H.H.H.Y.8.F C @.z.q.q.q.q.t.r.z...t R |.nXcXkXzXzXvXvXnX|._ < ",
"< _ {.kXkXeXeXeXeXgXvX{./ s >.D.B.z.b.z.b.b.D.:.M g ..b.g.t.t.t.t.q.t.g.b.@.g g >.D.n.z.b.b.b.n.B.:.g W {.xXkXeXeXeXeXeXcX{.W < ",
"7 C 3.W.A.A.A.A.A.A.U.4.F F 8.Y.H.K.D.H.D.E.Q.5.VXVXVXVXVXVXVXVXVXVXVXVXVXVXVXVXq.Q.Y.D.Y.H.D.Y.Y.8.F F 4.W.A.A.A.A.A.A.W.4.C 3 ",
"7 b ..t.q.6.6.6.6.9.z...g g @.z.q.t.t.t.t.b.K.t.VXVXVXVXVXVXVXVXVXVXVXVXVXVXVXVXt.H.b.q.q.t.q.z.b.@.g g ..t.q.1.1.9.5.q.t...x 8 ",
"3 C @.z.q.q.9.9.q.b.D.1.VXVXVXVXVXVXVXVXVXVXVXVXVXVXVXVXVXVXVXVXVXVXVXVXVXVXVXVXVXVXVXVXVXVXVXVXVXVXVXVX1.D.z.q.q.9.9.q.z.$.M 8 ",
"9 b *.b.z.g.g.i.t.b.Y.g.VXVXVXVXVXVXVXVXVXVXVXVXVXVXVXVXVXVXVXVXVXVXVXVXVXVXVXVXVXVXVXVXVXVXVXVXVXVXVXVXb.H.M.g.f.i.t.z.b.*.v 8 ",
"8 C :.B.b.z.z.z.b.B.Y.b.VXVXVXVXVXVXVXVXVXVXVXVXVXVXVXVXVXVXVXVXVXVXVXVXVXVXVXVXVXVXVXVXVXVXVXVXVXVXVXVXb.E.M.b.z.z.z.b.B.:.M 9 ",
"9 g [ :.*.*.*.....:.5.@.VXVXVXVXVXVXVXVXVXVXVXVXVXVXVXVXVXVXVXVXVXVXVXVXVXVXVXVXVXVXVXVXVXVXVXVXVXVXVXVX..1.:...*.$.$.$.*.[ g 9 ",
"e e t t t p t r t g b t VXVXVXVXVXVXVXVXVXVXVXVXVXVXVXVXVXVXVXVXVXVXVXVXVXVXVXVXVXVXVXVXVXVXVXVXVXVXVXVXr M t r t t r t t t e e ",
"9 y L _ _ L _ _ R ' ] R VXVXVXVXVXVXVXVXVXVXVXVXVXVXVXVXVXVXVXVXVXVXVXVXVXVXVXVXVXVXVXVXVXVXVXVXVXVXVXVX_ ] ' _ / _ _ _ ' L y 9 ",
"3 L !.wX7X7X1X7X1X7XuX1XVXVXVXVXVXVXVXVXVXVXVXVXVXVXVXVXVXVXVXVXVXVXVXVXVXVXVXVXVXVXVXVXVXVXVXVXVXVXVXVX2XuX8X7X1X1X7X7XwX!.L 3 ",
"< _ -XmXvXkXkXkXxXbXNXkXVXVXVXVXVXVXVXVXVXVXVXVXVXVXVXVXVXVXVXVXVXVXVXVXVXVXVXVXVXVXVXVXVXVXVXVXVXVXVXVXkXMXvXkXkXkXkXkXmX|._ 1 ",
"7 C 4.W.U.K.L.L.L./.XXL.VXVXVXVXVXVXVXVXVXVXVXVXVXVXVXVXVXVXVXVXVXVXVXVXVXVXVXVXVXVXVXVXVXVXVXVXVXVXVXVXK.XXW.K.L.L.L.U./.r.C 7 ",
"9 b ..q.9.1.6.6.5.t.S.5.VXVXVXVXVXVXVXVXVXVXVXVXVXVXVXVXVXVXVXVXVXVXVXVXVXVXVXVXVXVXVXVXVXVXVXVXVXVXVXVX9.M.t.9.9.6.6.9.t. .M 8 ",
"3 x *.z.f.q.q.q.q.b.D.t.VXVXVXVXVXVXVXVXVXVXVXVXVXVXVXVXVXVXVXVXVXVXVXVXVXVXVXVXVXVXVXVXVXVXVXVXVXVXVXVXq.D.z.q.q.q.q.f.z...C 3 ",
"9 C *.z.t.t.q.f.r.b.D.t.VXVXVXVXVXVXVXVXVXVXVXVXVXVXVXVXVXVXVXVXVXVXVXVXVXVXVXVXVXVXVXVXVXVXVXVXVXVXVXVXt.H.z.g.q.f.q.g.b.*.v 9 ",
"8 M @.z.i.9.g.q.i.z.H.t.VXVXVXVXVXVXVXVXVXVXVXVXVXVXVXVXVXVXVXVXVXVXVXVXVXVXVXVXVXVXVXVXVXVXVXVXVXVXVXVXq.H.b.t.i.9.q.g.z.*.M 6 ",
"8 x *.b.z.f.f.t.t.M.H.g.VXVXVXVXVXVXVXVXVXVXVXVXVXVXVXVXVXVXVXVXVXVXVXVXVXVXVXVXVXVXVXVXVXVXVXVXVXVXVXVXg.K.b.t.g.t.t.i.M.*.x 9 ",
"8 C :.B.b.z.z.b.b.B.Y.z.VXVXVXVXVXVXVXVXVXVXVXVXVXVXVXVXVXVXVXVXVXVXVXVXVXVXVXVXVXVXVXVXVXVXVXVXVXVXVXVXb.Y.B.b.z.b.z.b.B.:.M 9 ",
"9 g [ *.*.$. .*...:.q...VXVXVXVXVXVXVXVXVXVXVXVXVXVXVXVXVXVXVXVXVXVXVXVXVXVXVXVXVXVXVXVXVXVXVXVXVXVXVXVX..1.:.*.*...$.$.*.[ g 9 ",
"e e t t r r t p t s v e VXVXVXVXVXVXVXVXVXVXVXVXVXVXVXVXVXVXVXVXVXVXVXVXVXVXVXVXVXVXVXVXVXVXVXVXVXVXVXVXt M t t t t t r t t e e ",
"9 y L ' _ _ ! _ _ _ ] ! VXVXVXVXVXVXVXVXVXVXVXVXVXVXVXVXVXVXVXVXVXVXVXVXVXVXVXVXVXVXVXVXVXVXVXVXVXVXVXVX_ ] _ _ _ W _ _ ' L y 9 ",
"3 L !.wX1X1X1X1X7X7XkX2XVXVXVXVXVXVXVXVXVXVXVXVXVXVXVXVXVXVXVXVXVXVXVXVXVXVXVXVXVXVXVXVXVXVXVXVXVXVXVXVX2XuX7X7X7X7X2X7XwX!.W 1 ",
"< ` &XmXxXxXxXkXkXbXNXkXVXVXVXVXVXVXVXVXVXVXVXVXVXVXVXVXVXVXVXVXVXVXVXVXVXVXVXVXVXVXVXVXVXVXVXVXVXVXVXVXkXMXvXxXkXkXkXxXnX|._ < ",
"3 C 4._.U.K.K.K.K.W.XXL.VXVXVXVXVXVXVXVXVXVXVXVXVXVXVXVXVXVXVXVXVXVXVXVXVXVXVXVXVXVXVXVXVXVXVXVXVXVXVXVXK.XXW.L.K.L.K.U._.r.C 3 ",
"8 C ..q.5.6.5.9.9.t.M.5.VXVXVXVXVXVXVXVXVXVXVXVXVXVXVXVXVXVXVXVXVXVXVXVXVXVXVXVXVXVXVXVXVXVXVXVXVXVXVXVX9.M.f.6.6.6.5.t.t...M 8 ",
"8 M @.z.t.9.q.q.q.z.H.q.VXVXVXVXVXVXVXVXVXVXVXVXVXVXVXVXVXVXVXVXVXVXVXVXVXVXVXVXVXVXVXVXVXVXVXVXVXVXVXVXq.D.z.q.q.q.q.i.t.$.M 7 ",
"8 v *.z.i.q.q.t.g.z.H.t.VXVXVXVXVXVXVXVXVXVXVXVXVXVXVXVXVXVXVXVXVXVXVXVXVXVXVXVXVXVXVXVXVXVXVXVXVXVXVXVXq.H.b.t.z.q.q.f.b...C 7 ",
"7 b *.z.f.f.q.t.f.b.D.t.VXVXVXVXVXVXVXVXVXVXVXVXVXVXVXVXVXVXVXVXVXVXVXVXVXVXVXVXVXVXVXVXVXVXVXVXVXVXVXVXq.H.z.q.q.t.q.f.z.*.b 9 ",
"9 v :.z.g.g.g.i.i.g.H.g.VXVXVXVXVXVXVXVXVXVXVXVXVXVXVXVXVXVXVXVXVXVXVXVXVXVXVXVXVXVXVXVXVXVXVXVXVXVXVXVXf.H.B.z.i.t.g.z.b.*.C 3 ",
"3 C :.B.b.z.z.z.z.M.Y.b.VXVXVXVXVXVXVXVXVXVXVXVXVXVXVXVXVXVXVXVXVXVXVXVXVXVXVXVXVXVXVXVXVXVXVXVXVXVXVXVXz.E.D.z.z.z.z.b.B.:.C 8 ",
"9 g [ :.*.*.*...@.:.9...VXVXVXVXVXVXVXVXVXVXVXVXVXVXVXVXVXVXVXVXVXVXVXVXVXVXVXVXVXVXVXVXVXVXVXVXVXVXVXVX..6.:...*.$.$.$.*.[ g 9 ",
"e e t t t p t r t s b t VXVXVXVXVXVXtXtXVXVXVXVXVXVXVXVXVXVXVXVXVXVXVXVXVXVXVXVXVXVXVXVXtXtXVXVXVXVXVXVXt b p t t t t t t t e e ",
"9 y L ' _ L _ _ _ ' ] _ VXVXVXVXVXVXrXtXVXVXVXVXVXVXVXVXVXVXVXVXVXVXVXVXVXVXVXVXVXVXVXVXtXtXVXVXVXVXVXVX_ ] ' _ / _ _ _ ' L y 9 ",
"1 W !.wX7X7X1X2X1X7XgX2XVXVXVXVXVXVXVXVXtXaXaXtXVXVXVXVXVXVXVXVXVXVXVXVXVXVXVXVXtXaXaXtXVXVXVXVXVXVXVXVX2XkX7X1X1X1X7X7XwX!.L 3 ",
"< ( |.nXvXkXkXxXxXbXNXkXVXVXVXVXVXVXVXVXpXBXBXpXVXVXVXVXVXVXVXVXVXVXVXVXVXVXVXVXpXBXBXpXVXVXVXVXVXVXVXVXkXNXbXxXkXkXkXkXmX|._ 1 ",
"7 C 4./.U.A.K.K.K.W.XXW.VXVXVXVXVXVXVXVXVXVXVXVXVXVXVXVXVXVXVXVXVXVXVXVXVXVXVXVXVXVXVXVXVXVXVXVXVXVXVXVXU.OXW.L.L.L.L.U.W.i.C 3 ",
"8 M  .q.9.6.1.9.9.q.S.>.VXVXVXVXVXVXVXVXVXVXVXVXVXVXVXVXVXVXVXVXVXVXVXVXVXVXVXVXVXVXVXVXVXVXVXVXVXVXVXVX:.m.q.9.9.6.6.9.9...M 8 ",
"8 b @.z.t.9.q.q.q.g.M.| >   + = = = = % O o o X % = % = = = = = O = = = = % = O o o o % % % = % = +   > | S.g.q.q.q.q.9.g...M 9 ",
"8 v *.z.i.g.q.t.f.z.S.{ > + & - - = = - - - - - - - - - - = = - - - - = - - - - - - - - - - - - - = + , { S.g.g.t.q.q.i.b.$.C 6 ",
"7 v *.z.g.q.q.f.f.g.M.{ ;   % = = = = = = = = = = = = = = = = = = = = = = = = = = = = = = = = = = = X : { S.t.t.f.q.f.f.z.*.x 6 ",
"7 M *.z.t.9.i.q.f.z.M.{ ; + % % = % = % = = = % = % = % = % = % = = = = O = = = % = % = % = = % = o X : { S.g.i.q.f.f.z.z.*.x 9 "
};
