/* XPM */
static char *xpm_[] = {
/* columns rows colors chars-per-pixel */
"64 64 233 2 ",
"   c #3D1C16",
".  c #3E1D17",
"X  c #3F1E18",
"o  c #421F19",
"O  c #40201C",
"+  c #40211D",
"@  c #41221E",
"#  c #44231F",
"$  c #412320",
"%  c #422421",
"&  c #452522",
"*  c #4A363A",
"=  c #4B373B",
"-  c #4B393F",
";  c #4E383C",
":  c #3A465D",
">  c #3B475E",
",  c #3C485E",
"<  c #3D485E",
"1  c #3D495E",
"2  c #3C485F",
"3  c #3E4A5F",
"4  c #3E4B60",
"5  c #3F4B60",
"6  c #404C61",
"7  c #414D64",
"8  c #414E65",
"9  c #434F65",
"0  c #435066",
"q  c #445169",
"w  c #455169",
"e  c #475268",
"r  c #45526A",
"t  c #46526A",
"y  c #46536B",
"u  c #47546C",
"i  c #47546D",
"p  c #48546C",
"a  c #48556D",
"s  c #49566D",
"d  c #4B576D",
"f  c #49556E",
"g  c #49566E",
"h  c #4A566E",
"j  c #4A576F",
"k  c #4B576F",
"l  c #4C576F",
"z  c #4D596F",
"x  c #4A5770",
"c  c #4B5770",
"v  c #4B5870",
"b  c #4A5871",
"n  c #4C5870",
"m  c #4C5971",
"M  c #4E5A71",
"N  c #4C5972",
"B  c #4D5A72",
"V  c #4E5A72",
"C  c #4D5A74",
"Z  c #4F5B74",
"A  c #4E5B75",
"S  c #505B73",
"D  c #505C71",
"F  c #505C72",
"G  c #515D72",
"H  c #505C73",
"J  c #525D73",
"K  c #515D74",
"L  c #515E75",
"P  c #535E74",
"I  c #535F74",
"U  c #535F75",
"Y  c #515E76",
"T  c #525E76",
"R  c #545F74",
"E  c #556074",
"W  c #556075",
"Q  c #566175",
"!  c #546076",
"~  c #556077",
"^  c #566177",
"/  c #576276",
"(  c #56627B",
")  c #586378",
"_  c #5C687D",
"`  c #5C6B87",
"'  c #666C85",
"]  c #676C85",
"[  c #666E88",
"{  c #61718F",
"}  c #627190",
"|  c #627290",
" . c #637290",
".. c #637291",
"X. c #637292",
"o. c #647391",
"O. c #657491",
"+. c #647492",
"@. c #657492",
"#. c #657493",
"$. c #667593",
"%. c #667594",
"&. c #667695",
"*. c #677695",
"=. c #677795",
"-. c #687796",
";. c #6E7D97",
":. c #6B7A9A",
">. c #6B7B9B",
",. c #6E7C98",
"<. c #6F7C98",
"1. c #6F7D9A",
"2. c #6A7B9D",
"3. c #6B7C9C",
"4. c #6C7C9C",
"5. c #6C7C9D",
"6. c #6C7D9E",
"7. c #6D7D9E",
"8. c #6E7E9E",
"9. c #6E7E9F",
"0. c #6F7F9F",
"q. c #707E9A",
"w. c #6E7EA0",
"e. c #6F7FA1",
"r. c #6F7FA2",
"t. c #77849E",
"y. c #77859E",
"u. c #78859E",
"i. c #78869F",
"p. c #79869F",
"a. c #6F80A0",
"s. c #6F80A1",
"d. c #7080A0",
"f. c #7181A1",
"g. c #7080A2",
"h. c #7081A2",
"j. c #7181A2",
"k. c #7182A3",
"l. c #7282A3",
"z. c #7182A4",
"x. c #7383A4",
"c. c #7383A5",
"v. c #7284A7",
"b. c #7384A7",
"n. c #7585A7",
"m. c #7586A7",
"M. c #7B88A2",
"N. c #7C89A3",
"B. c #7F8BA3",
"V. c #7B8AA7",
"C. c #7285A8",
"Z. c #7586A8",
"A. c #7686A8",
"S. c #7687A9",
"D. c #7788AA",
"F. c #7889AB",
"G. c #7C8BA8",
"H. c #7C8BA9",
"J. c #7D8CAB",
"K. c #7E8CAA",
"L. c #7E8DAB",
"P. c #788AAC",
"I. c #7A8BAE",
"U. c #7A8CAE",
"Y. c #7A8CAF",
"T. c #7F8DAC",
"R. c #7E90B5",
"E. c #838DA1",
"W. c #808EA9",
"Q. c #828FAA",
"!. c #808EAD",
"~. c #808FAD",
"^. c #808FAE",
"/. c #8390A9",
"(. c #8693AE",
"). c #8795AE",
"_. c #8794AF",
"`. c #8995AA",
"'. c #8A95AA",
"]. c #8A95AB",
"[. c #8D98AE",
"{. c #8E99AE",
"}. c #8F9AAE",
"|. c #8595B5",
" X c #8695B5",
".X c #8895B0",
"XX c #8997B0",
"oX c #8996B1",
"OX c #8A96B1",
"+X c #8A97B2",
"@X c #8B97B3",
"#X c #8B98B2",
"$X c #8B98B3",
"%X c #8C99B3",
"&X c #8C9AB3",
"*X c #8C99B4",
"=X c #8D9BB5",
"-X c #8F9CB4",
";X c #8E9CB7",
":X c #949EB2",
">X c #959FB2",
",X c #919EB6",
"<X c #909DB9",
"1X c #909EB8",
"2X c #919FBB",
"3X c #929FBB",
"4X c #96A0B4",
"5X c #98A2B6",
"6X c #95A1B9",
"7X c #95A1BA",
"8X c #94A2BD",
"9X c #9BA4B8",
"0X c #9DA8BE",
"qX c #ACACAC",
"wX c #A0AABF",
"eX c #95A3C0",
"rX c #96A3C0",
"tX c #97A5C1",
"yX c #9FAAC0",
"uX c #9CAAC8",
"iX c #A1ACC3",
"pX c #A2ACC2",
"aX c #A2ADC3",
"sX c #A4AEC2",
"dX c #A3AEC4",
"fX c #A4AFC5",
"gX c #A6B0C4",
"hX c #A6B1C8",
"jX c #ABB5C9",
"kX c #A8B4CA",
"lX c #ADB9D1",
"zX c #AEB9D1",
"xX c None",
/* pixels */
"xXxXxXxXxXxXxXxXxXxXxXxXxXxXxXxXxXxXxXxXxXxXxXxXxXxXxXxXxXxXxXxXxXxXxXxXxXxXxXxXxXxXxXxXxXxXxXxXxXxXxXxXxXxXxXxXxXxXxXxXxXxXxXxX",
"xXxXxXxXxXxXxXxXxXxXxXxXxXxXxXxXxXxXxXxXxXxXxXxXxXxXxXxXxXxXxXxXxXxXxXxXxXxXxXxXxXxXxXxXxXxXxXxXxXxXxXxXxXxXxXxXxXxXxXxXxXxXxXxX",
"xXxXxXxXxXxXxXxXxXxXxXxXxXxXxXxXxXxXxXxXxXxXxXxXxXxXxXxXxXxXxXxXxXxXxXxXxXxXxXxXxXxXxXxXxXxXxXxXxXxXxXxXxXxXxXxXxXxXxXxXxXxXxXxX",
"xXxXxXxXxXxXxXxXxXxXxXxXxXxXxXxXxXxXxXxXxXxXxXxXxXxXxXxXxXxXxXxXxXxXxXxXxXxXxXxXxXxXxXxXxXxXxXxXxXxXxXxXxXxXxXxXxXxXxXxXxXxXxXxX",
"xXxXxXxXxXxXxXxXxXxXxXxXxXxXxXxXxXxXxXxXxXxXxXxXxXxXxXxXxXxXxXxXxXxXxXxXxXxXxXxXxXxXxXxXxXxXxXxXxXxXxXxXxXxXxXxXxXxXxXxXxXxXxXxX",
"xXxXxXxXxXxXxXxXxXxXxXxXxXxXxXxXxXxXxXxXxXxXxXxXxXxXxXxXxXxXxXxXxXxXxXxXxXxXxXxXxXxXxXxXxXxXxXxXxXxXxXxXxXxXxXxXxXxXxXxXxXxXxXxX",
"xXxXxXxXxXxXxXxXxXxXxXxXxXxXxXxXxXxXxXxXxXxXxXxXxXxXxXxXxXxXxXxXxXxXxXxXxXxXxXxXxXxXxXxXxXxXxXxXxXxXxXxXxXxXxXxXxXxXxXxXxXxXxXxX",
"xXxXxXxXxXxXxXxXxXxXxXxXxXxXxXxXxXxXxXxXxXxXxXxXxXxXxXxXxXxXxXxXxXxXxXxXxXxXxXxXxXxXxXxXxXxXxXxXxXxXxXxXxXxXxXxXxXxXxXxXxXxXxXxX",
"xXxXxXxXxXxXxXxXxXxXxXxXxXxXxXxXxXxXxXxXxXxXxXxXxXxX).3X@X)._._._._._.&X2X_.xXxXxXxXxXxXxXxXxXxXxXxXxXxXxXxXxXxXxXxXxXxXxXxXxXxX",
"xXxXxXxXxXxXxXxXxXxXxXxXxXxXxXxXxXxXxXxXxXxXxXxXxXxX).uXrX3X7X3X7X2X3X8XuX_.xXxXxXxXxXxXxXxXxXxXxXxXxXxXxXxXxXxXxXxXxXxXxXxXxXxX",
"xXxXxXxXxXxXxXxXxXxXxXxXxXxXxXxXxXxXxXxXxXxXxXxXxXxXXXrX;X@X&XXX@X@X;X;X8XXXxXxXxXxXxXxXxXxXxXxXxXxXxXxXxXxXxXxXxXxXxXxXxXxXxXxX",
"xXxXxXxXxXxXxXxXxXxXxXxXxXxXxXxXxXxXxXxXxXxXxXxXxXxXQ.<XXX.X_.(.XX(.(.XX2X/.xXxXxXxXxXxXxXxXxXxXxXxXxXxXxXxXxXxXxXxXxXxXxXxXxXxX",
"xXxXxXxXxXxXxXxXxXxXxXxXxXxX).2X@X(._._._.&X&Xi.c N i.&X).).(.(.(.(.(._.;Xi.N d i.&XXX_._._.(.@X3X).xXxXxXxXxXxXxXxXxXxXxXxXxXxX",
"xXxXxXxXxXxXxXxXxXxXxXxXxXxX).uXrX3X2X2X2X8X8XL.T T E.7X6X&X&X,X&X;X,X,X3XE.T T Q.tX8X3X2X7X3XrXuX).xXxXxXxXxXxXxXxXxXxXxXxXxXxX",
"xXxXxXxXxXxXxXxXxXxXxXxXxXxXXXrX<X#X@X#X&X&X,XM.k E [.jXgXgXsXpXsXsXsXsXjX[.R z M.,X;X#XXX@X@X;XrXXXxXxXxXxXxXxXxXxXxXxXxXxXxXxX",
"xXxXxXxXxXxXxXxXxXxXxXxXxXxXQ.2XXX_..X_._.XX&Xy.k Z '.dX0X0X0X0X0X0X0XwXsX`.S d i.&X_.(.XX.X.XXX2X/.xXxXxXxXxXxXxXxXxXxXxXxXxXxX",
"< S M.#XXX).).).).XX&Xt.s N i.;X).(.(.(.(.(.#Xt.z d ;.!.V.V.V.V.V.V.V.V.T.1.d z t.XXXX(.(.(.)._.$Xi.S d t.&XXX_._._._._.&Xi.S < ",
"8 ( /.8X8X3X3X3X2X8XtXQ.T T B.7X,X&X,X&X,X,X2XE.H w { w.2.8.>.8.3.3.3.6.w.[ f H E.7X,X-X-X-X-X,X7XN.T T Q.tX8X2X3X3X2X8XtXQ.) 9 ",
"4 T N.2X;XXX$X$X@X;X,XM.z R [.jXgXsXsXsXsXfXjX}.R w o.j.q.8.8.8.8.8.8.s.s.} w U &XjXgXsXsXsXgXgXjX[.R z M.,X;X&X&X#X#X;X,XM.T 4 ",
"< H i.&XXX.X(..X.XXX$Xi.d S '.sXpX0X0X0X0XyXsX'.T w o.j.j.w.a.8.a.8.8.s.x.+.e H '.pXyX0X0X0X0X0XsX'.H s i.&X_._._._._.XX@XM.K > ",
"< H i.#XXX(.(.(.).).#Xy.b f ,.Q.G.G.V.V.V.H.T.1.c s o.j.w.t.w.8.8.t.w.w.j.o.f c q.!.V.V.V.V.V.V.!.;.s z i.&X_._.(.(.)._.XXt.A < ",
"< H N.7X,X;X,X&X&X6X7XN.Z i [ r.2.2.<.2.1.2.8.{ s x -.m.x.x.j.x.j.x.j.x.Z.-.c s { w.5.5.>.2.6.2.w.{ w H E.7X,X&X-X-X-X,X8XE.T < ",
"> / [.jXsXsXsXsXpXgXjX[.E w o.r.w.8.8.8.8.8.j.#.N A 6.P.D.Z.D.D.D.D.D.D.P.5.A N o.j.8.8.8.8.w.q.j.} w U [.jXfXpXsXsXgXgXjX[./ : ",
": / '.pXpX0X0X0X0XyXgX'.! i -.Z.m.j.x.j.x.x.Z.=.b s } x.s.w.w.w.w.8.w.s.x.o.s s -.Z.c.j.x.x.x.c.m.=.s T '.dXpX0X0X0X0X0XfX'.T : ",
"4 N <.T.V.V.V.V.V.V.L.1.A A 5.P.D.G.Z.D.Z.Y.R.2.xXxXxXxXxXxXxXxXxXxXxXxXxXxXxXxX8.R.P.Z.P.D.Z.P.P.5.A A 1.T.V.V.V.V.V.V.T.1.N < ",
"4 x } w.8.3.3.3.3.6.j.} s s o.j.8.w.w.w.w.x.G.w.xXxXxXxXxXxXxXxXxXxXxXxXxXxXxXxXw.D.x.8.8.w.8.j.x.o.s s } w.8.>.>.6.2.8.w.} k 5 ",
"< N o.j.8.8.6.6.8.x.Z.>.xXxXxXxXxXxXxXxXxXxXxXxXxXxXxXxXxXxXxXxXxXxXxXxXxXxXxXxXxXxXxXxXxXxXxXxXxXxXxXxX>.Z.j.8.8.6.6.8.j.+.b 5 ",
"6 x $.x.j.s.s.t.w.x.P.s.xXxXxXxXxXxXxXxXxXxXxXxXxXxXxXxXxXxXxXxXxXxXxXxXxXxXxXxXxXxXxXxXxXxXxXxXxXxXxXxXx.D.b.s.a.t.w.j.x.$.z 5 ",
"5 N =.m.x.j.j.j.x.m.P.x.xXxXxXxXxXxXxXxXxXxXxXxXxXxXxXxXxXxXxXxXxXxXxXxXxXxXxXxXxXxXxXxXxXxXxXxXxXxXxXxXx.Y.b.x.j.j.j.x.m.=.b 6 ",
"6 s ` =.$.$.$.} } =.2.o.xXxXxXxXxXxXxXxXxXxXxXxXxXxXxXxXxXxXxXxXxXxXxXxXxXxXxXxXxXxXxXxXxXxXxXxXxXxXxXxX} >.=.} $.+.+.+.$.` s 6 ",
"0 0 w w w y w q w s x w xXxXxXxXxXxXxXxXxXxXxXxXxXxXxXxXxXxXxXxXxXxXxXxXxXxXxXxXxXxXxXxXxXxXxXxXxXxXxXxXq b w q w w q w w w 0 0 ",
"6 e H / / H / / U ) _ U xXxXxXxXxXxXxXxXxXxXxXxXxXxXxXxXxXxXxXxXxXxXxXxXxXxXxXxXxXxXxXxXxXxXxXxXxXxXxXxX/ _ ) / ! / / / ) H e 6 ",
"> T E.9X4X4X>X,X>X4XwX>XxXxXxXxXxXxXxXxXxXxXxXxXxXxXxXxXxXxXxXxXxXxXxXxXxXxXxXxXxXxXxXxXxXxXxXxXxXxXxXxX,XwX5X4X>X>X4X4X9XE.H < ",
": ~ [.jXpXpXpXdXdXhXzXpXxXxXxXxXxXxXxXxXxXxXxXxXxXxXxXxXxXxXxXxXxXxXxXxXxXxXxXxXxXxXxXxXxXxXxXxXxXxXxXxXpXlXgXpXpXpXpXpXkX[./ > ",
"4 N q.!.L.L.G.G.H.!. XH.xXxXxXxXxXxXxXxXxXxXxXxXxXxXxXxXxXxXxXxXxXxXxXxXxXxXxXxXxXxXxXxXxXxXxXxXxXxXxXxXG.|.T.G.H.H.H.L.!.q.N 4 ",
"5 b { 8.3.3.6.1.2.w.C.2.xXxXxXxXxXxXxXxXxXxXxXxXxXxXxXxXxXxXxXxXxXxXxXxXxXxXxXxXxXxXxXxXxXxXxXxXxXxXxXxX6.b.w.6.6.3.3.6.w.{ b 5 ",
"5 x o.j.8.8.8.8.8.j.Z.8.xXxXxXxXxXxXxXxXxXxXxXxXxXxXxXxXxXxXxXxXxXxXxXxXxXxXxXxXxXxXxXxXxXxXxXxXxXxXxXxX8.Z.j.8.8.8.8.a.j.} N < ",
"5 z $.j.j.8.a.8.8.x.D.w.xXxXxXxXxXxXxXxXxXxXxXxXxXxXxXxXxXxXxXxXxXxXxXxXxXxXxXxXxXxXxXxXxXxXxXxXxXxXxXxXw.D.j.s.8.a.8.s.x.$.z 6 ",
"4 z $.j.w.s.s.8.w.x.D.8.xXxXxXxXxXxXxXxXxXxXxXxXxXxXxXxXxXxXxXxXxXxXxXxXxXxXxXxXxXxXxXxXxXxXxXxXxXxXxXxX8.D.x.w.t.6.8.s.j.$.b 3 ",
"4 b $.x.s.w.t.s.w.x.G.s.xXxXxXxXxXxXxXxXxXxXxXxXxXxXxXxXxXxXxXxXxXxXxXxXxXxXxXxXxXxXxXxXxXxXxXxXxXxXxXxXs.G.x.w.s.w.w.t.b.$.k 6 ",
"6 N -.m.j.j.j.j.j.Z.P.j.xXxXxXxXxXxXxXxXxXxXxXxXxXxXxXxXxXxXxXxXxXxXxXxXxXxXxXxXxXxXxXxXxXxXxXxXxXxXxXxXx.P.m.x.j.x.j.x.m.=.b 6 ",
"6 s ` -.$.$.o.$.o.=.5.o.xXxXxXxXxXxXxXxXxXxXxXxXxXxXxXxXxXxXxXxXxXxXxXxXxXxXxXxXxXxXxXxXxXxXxXxXxXxXxXxX} >.=.$.$.} +.+.$.` s 6 ",
"8 0 w w q q w w w s c 0 xXxXxXxXxXxXxXxXxXxXxXxXxXxXxXxXxXxXxXxXxXxXxXxXxXxXxXxXxXxXxXxXxXxXxXxXxXxXxXxXw b w w w w w q w w 0 0 ",
"6 e H / / / ! / / / _ R xXxXxXxXxXxXxXxXxXxXxXxXxXxXxXxXxXxXxXxXxXxXxXxXxXxXxXxXxXxXxXxXxXxXxXxXxXxXxXxX/ _ / / / T / / ) H e 6 ",
": T E.9X>X>X>X>X>X5XpX,XxXxXxXxXxXxXxXxXxXxXxXxXxXxXxXxXxXxXxXxXxXxXxXxXxXxXxXxXxXxXxXxXxXxXxXxXxXxXxXxX,XwX4X4X4X4X,X4X9XE.T > ",
": / #XjXdXdXdXpXdXgXlXpXxXxXxXxXxXxXxXxXxXxXxXxXxXxXxXxXxXxXxXxXxXxXxXxXxXxXxXxXxXxXxXxXxXxXxXxXxXxXxXxXpXlXgXdXpXpXpXdXjX[./ : ",
"< N q.!.L.G.G.G.H.!. XH.xXxXxXxXxXxXxXxXxXxXxXxXxXxXxXxXxXxXxXxXxXxXxXxXxXxXxXxXxXxXxXxXxXxXxXxXxXxXxXxXG.|.T.H.G.H.G.L./.q.N < ",
"6 b } 8.2.3.2.6.5.r.c.5.xXxXxXxXxXxXxXxXxXxXxXxXxXxXxXxXxXxXxXxXxXxXxXxXxXxXxXxXxXxXxXxXxXxXxXxXxXxXxXxX6.b.a.3.3.3.2.w.w.} b 5 ",
"5 b o.j.6.6.8.8.8.j.D.8.xXxXxXxXxXxXxXxXxXxXxXxXxXxXxXxXxXxXxXxXxXxXxXxXxXxXxXxXxXxXxXxXxXxXxXxXxXxXxXxX8.Z.j.8.8.8.8.t.w.+.b 4 ",
"5 z $.j.t.a.8.w.s.j.D.w.xXxXxXxXxXxXxXxXxXxXxXxXxXxXxXxXxXxXxXxXxXxXxXxXxXxXxXxXxXxXxXxXxXxXxXxXxXxXxXxX8.D.x.w.j.8.8.a.x.} N 4 ",
"4 x $.j.j.8.8.w.a.x.Z.w.xXxXxXxXxXxXxXxXxXxXxXxXxXxXxXxXxXxXxXxXxXxXxXxXxXxXxXxXxXxXxXxXxXxXxXxXxXxXxXxX8.D.j.8.8.w.8.a.j.$.x 6 ",
"6 z =.j.s.s.s.t.t.s.D.s.xXxXxXxXxXxXxXxXxXxXxXxXxXxXxXxXxXxXxXxXxXxXxXxXxXxXxXxXxXxXxXxXxXxXxXxXxXxXxXxXa.D.m.j.t.w.s.j.x.$.N < ",
"< N =.m.x.j.j.j.j.b.P.x.xXxXxXxXxXxXxXxXqXqXxXxXxXxXxXxXxXxXxXxXxXxXxXxXxXxXxXxXxXxXqXqXxXxXxXxXxXxXxXxXj.Y.Z.j.j.j.j.x.m.=.N 5 ",
"6 s ` =.$.$.$.} o.=.6.} xXxXxXxXxXxXxXxXqXqXxXxXxXxXxXxXxXxXxXxXxXxXxXxXxXxXxXxXxXxXqXqXxXxXxXxXxXxXxXxX} 3.=.} $.+.+.+.$.` s 6 ",
"0 0 w w w y w q w i x w xXxXxXxXxXxXxXxXxXxXxXxXxXxXxXxXxXxXxXxXxXxXxXxXxXxXxXxXxXxXxXxXxXxXxXxXxXxXxXxXw x y w w w w w w w 0 0 ",
"6 e H ) / H / / / ) _ / xXxXxXxXxXxXxXxXxXxXxXxXxXxXxXxXxXxXxXxXxXxXxXxXxXxXxXxXxXxXxXxXxXxXxXxXxXxXxXxX/ _ ) / ! / / / ) H e 6 ",
": T E.9X4X4X>X,X>X4XyX>XxXxXxXxXxXxXxXxXxXxXxXxXxXxXxXxXxXxXxXxXxXxXxXxXxXxXxXxXxXxXxXxXxXxXxXxXxXxXxXxX,XpX4X>X>X>X4X4X9XE.H < ",
": / #XjXgXpXpXdXdXhXzXyXxXxXxXxXxXxXxXxXxXxXxXxXxXxXxXxXxXxXxXxXxXxXxXxXxXxXxXxXxXxXxXxXxXxXxXxXxXxXxXxXpXzXhXdXpXpXpXpXkX[./ > ",
"< Z 1.T.L.V.G.G.G.T. XT.xXxXxXxXxXxXxXxXxXxXxXxXxXxXxXxXxXxXxXxXxXxXxXxXxXxXxXxXxXxXxXxXxXxXxXxXxXxXxXxXL..XT.H.H.H.H.L.T.t.N < ",
"5 k } 8.6.3.>.2.6.w.b.=.xXxXxXxXxXxXxXxXxXxXxXxXxXxXxXxXxXxXxXxXxXxXxXxXxXxXxXxXxXxXxXxXxXxXxXxXxXxXxXxX=.v.8.6.6.3.3.6.6.} b 5 ",
"5 k $.j.8.8.8.6.8.s.b.[ -   @ @ % % % % % % % % % # % @ % % % % % % % % % % % $ $ $ $ $ $ $ $ $ % o   - [ C.s.8.8.8.8.6.s.} b 6 ",
"5 b $.j.a.s.t.w.8.j.C.] ; O # & % % % & % % % % & & & & % % % & % % % % & & & % & & & & & & & & & % o ; ' C.s.s.w.8.8.t.x.+.N 3 ",
"5 k $.j.s.8.t.8.j.s.C.' =   @ % % % % % % % % % % % % % % % % % % % % % % % % % % % % % % % % % % % X = ' C.w.w.a.8.a.a.j.$.k 3 ",
"5 k $.j.w.8.w.a.8.j.C.' *   @ % @ % % @ % % @ % % @ % % % @ % % @ % $ $ % @ % % $ $ $ $ $ $ $ $ $ X X = ' C.s.t.8.a.a.j.j.$.k 6 "
};
