/* XPM */
static char *xpm_[] = {
/* columns rows colors chars-per-pixel */
"64 64 194 2 ",
"   c #050304",
".  c #170707",
"X  c #191818",
"o  c #130F10",
"O  c #2A1715",
"+  c #282526",
"@  c #362E2F",
"#  c #2E2F31",
"$  c #363638",
"%  c #2B3234",
"&  c #411E19",
"*  c #411D17",
"=  c #42221E",
"-  c #55271E",
";  c #492723",
":  c #4A2925",
">  c #452420",
",  c #512620",
"<  c #542A24",
"1  c #5A2B25",
"2  c #562D2A",
"3  c #592E29",
"4  c #582621",
"5  c #5E332E",
"6  c #56302C",
"7  c #4B3639",
"8  c #5D3C3D",
"9  c #583432",
"0  c #652F29",
"q  c #63332D",
"w  c #6B342E",
"e  c #653731",
"r  c #6A3731",
"t  c #653834",
"y  c #6C3A35",
"u  c #6F3D38",
"i  c #623B3B",
"p  c #713B35",
"a  c #723E38",
"s  c #763A33",
"d  c #75362D",
"f  c #59403E",
"g  c #6B423E",
"h  c #76413B",
"j  c #79423C",
"k  c #5B3E41",
"l  c #663E40",
"z  c #3A465D",
"x  c #3D495F",
"c  c #3C4244",
"v  c #3F4B60",
"b  c #464141",
"n  c #5E4044",
"m  c #59454B",
"M  c #4C4C5E",
"N  c #5C5C5D",
"B  c #4A5053",
"V  c #6A4443",
"C  c #6B4749",
"Z  c #6D4A4A",
"A  c #684443",
"S  c #744B45",
"D  c #744D4B",
"F  c #794E4A",
"G  c #754944",
"H  c #7B524D",
"J  c #77504C",
"K  c #6E5153",
"L  c #7C5552",
"P  c #765556",
"I  c #64514E",
"U  c #414D64",
"Y  c #435066",
"T  c #45526A",
"R  c #4A566E",
"E  c #4D596F",
"W  c #4D5165",
"Q  c #5B5A6A",
"!  c #595666",
"~  c #475771",
"^  c #4A5770",
"/  c #4C5971",
"(  c #515D74",
")  c #556176",
"_  c #546379",
"`  c #5E647B",
"'  c #5A6263",
"]  c #64667E",
"[  c #686274",
"{  c #797879",
"}  c #6E6766",
"|  c #934A3F",
" . c #854842",
".. c #8F4E47",
"X. c #844640",
"o. c #924D45",
"O. c #914F48",
"+. c #935049",
"@. c #9F574E",
"#. c #895A59",
"$. c #945F5F",
"%. c #A25850",
"&. c #A15348",
"*. c #837977",
"=. c #806764",
"-. c #8E827E",
";. c #91817F",
":. c #5C6B87",
">. c #6A6E87",
",. c #6B6F88",
"<. c #666D86",
"1. c #62718F",
"2. c #6E718A",
"3. c #72738C",
"4. c #7A788B",
"5. c #647492",
"6. c #6E7D97",
"7. c #667999",
"8. c #6D7E9E",
"9. c #6B7491",
"0. c #707E9A",
"q. c #767B93",
"w. c #6E7EA0",
"e. c #77849E",
"r. c #78869F",
"t. c #7C8182",
"y. c #6E82A3",
"u. c #7182A3",
"i. c #7C8AA5",
"p. c #7286A9",
"a. c #7389AC",
"s. c #7D8CAA",
"d. c #7D91B1",
"f. c #8C8C8D",
"g. c #898384",
"h. c #978785",
"j. c #8D8B96",
"k. c #8C9193",
"l. c #939595",
"z. c #9D9594",
"x. c #94999B",
"c. c #9E9D9C",
"v. c #A49D9C",
"b. c #A6A09F",
"n. c #838DA1",
"m. c #808FAC",
"M. c #8693AE",
"N. c #8795AE",
"B. c #8390A9",
"V. c #8995AA",
"C. c #8F9AAE",
"Z. c #8D98AE",
"A. c #9795A5",
"S. c #959AA5",
"D. c #8996B1",
"F. c #8B98B3",
"G. c #8C9AB3",
"H. c #8D9AB5",
"J. c #8F9CB4",
"K. c #8E9CB7",
"L. c #949FB3",
"P. c #929FBB",
"I. c #909EB9",
"U. c #9DA4A4",
"Y. c #96A0B5",
"T. c #95A2BB",
"R. c #9AA4B9",
"E. c #9DA8BE",
"W. c #9EA8BA",
"Q. c #AAA5A4",
"!. c #A7A9A9",
"~. c #B2B4B4",
"^. c #BDBDBD",
"/. c #B6B8B8",
"(. c #B1AEAD",
"). c #96A3C0",
"_. c #97A5C1",
"`. c #9FAAC0",
"'. c #9CAAC8",
"]. c #A4AEC2",
"[. c #A3AEC4",
"{. c #A2AEC4",
"}. c #A6B0C4",
"|. c #A3B0C6",
" X c #ABB5C9",
".X c #A8B4CA",
"XX c #A5B5CD",
"oX c #B9C0C1",
"OX c #C4C5C5",
"+X c #CFD2D2",
"@X c #D2D2D2",
"#X c #E2DADA",
"$X c #FFFFFF",
"%X c None",
/* pixels */
"%X%X%X%X%X%X%X%X%X%X%X%X%X%X%X%X%X%X%X%X%X%X%X%X%X%X%X%X%X%X%X%X%X%X%X%X%X%X%X%X%X%X%X%X%X%X%X%X%X%X%X%X%X%X%X%X%X%X%X%X%X%X%X%X",
"%X%X%X%X%X%X%X%X%X%X%X%X%X%X%X%X%X%X%X%X%X%X%X%X%X%X%X%X%X%X%X%X%X%X%X%X%X%X%X%X%X%X%X%X%X%X%X%X%X%X%X%X%X%X%X%X%X%X%X%X%X%X%X%X",
"%X%X%X%X%X%X%X%X%X%X%X%X%X%X%X%X%X%X%X%X%X%X%X%X%X%X%X%X%X%X%X%X%X%X%X%X%X%X%X%X%X%X%X%X%X%X%X%X%X%X%X%X%X%X%X%X%X%X%X%X%X%X%X%X",
"%X%X%X%X%X%X%X%X%X%X%X%X%X%X%X%X%X%X%X%X%X%X%X%X%X%X%X%X%X%X%X%X%X%X%X%X%X%X%X%X%X%X%X%X%X%X%X%X%X%X%X%X%X%X%X%X%X%X%X%X%X%X%X%X",
"%X%X%X%X%X%X%X%X%X%X%X%X%X%X%X%X%X%X%X%X%X%X%X%X%X%X%X%X%X%X%X%X%X%X%X%X%X%X%X%X%X%X%X%X%X%X%X%X%X%X%X%X%X%X%X%X%X%X%X%X%X%X%X%X",
"%X%X%X%X%X%X%X%X%X%X%X%X%X%X%X%X%X%X%X%X%X%X%X%X%X%X%X%X%X%X%X%X%X%X%X%X%X%X%X%X%X%X%X%X%X%X%X%X%X%X%X%X%X%X%X%X%X%X%X%X%X%X%X%X",
"%X%X%X%X%X%X%X%X%X%X%X%X%X%X%X%X%X%X%X%X%X%X%X%X%X%X%X%X%X%X%X%X%X%X%X%X%X%X%X%X%X%X%X%X%X%X%X%X%X%X%X%X%X%X%X%X%X%X%X%X%X%X%X%X",
"%X%X%X%X%X%X%X%X%X%X%X%X%X%X%X%X%X%X%X%X%X%X%X%X%X%X%X%X%X%X%X%X%X%X%X%X%X%X%X%X%X%X%X%X%X%X%X%X%X%X%X%X%X%X%X%X%X%X%X%X%X%X%X%X",
"%X%X%X%X%X%X%X%X%X%X%X%X%X%X%X%X%X%X%X%X%X%X%X%X%X%XN.P.F.N.N.M.N.N.N.F.P.N.%X%X%X%X%X%X%X%X%X%X%X%X%X%X%X%X%X%X%X%X%X%X%X%X%X%X",
"%X%X%X%X%X%X%X%X%X%X%X%X%X%X%X%X%X%X%X%X%X%X%X%X%X%XN.'.).P.P.P.P.P.P.).'.M.%X%X%X%X%X%X%X%X%X%X%X%X%X%X%X%X%X%X%X%X%X%X%X%X%X%X",
"%X%X%X%X%X%X%X%X%X%X%X%X%X%X%X%X%X%X%X%X%X%X%X%X%X%XN.).K.F.F.F.F.F.F.K.).D.%X%X%X%X%X%X%X%X%X%X%X%X%X%X%X%X%X%X%X%X%X%X%X%X%X%X",
"%X%X%X%X%X%X%X%X%X%X%X%X%X%X%X%X%X%X%X%X%X%X%X%X%X%Xm.P.D.N.M.M.N.N.N.D.K.V.%X%X%X%X%X%X%X%X%X%X%X%X%X%X%X%X%X%X%X%X%X%X%X%X%X%X",
"%X%X%X%X%X%X%X%X%X%X%X%X%X%XN.P.F.N.M.N.N.D.J.r.R ( i.D.N.N.N.M.N.N.N.N.F.i.( ^ r.J.D.N.N.N.M.F.P.N.%X%X%X%X%X%X%X%X%X%X%X%X%X%X",
"%X%X%X%X%X%X%X%X%X%X%X%X%X%XN.'.).P.P.P.P.T.T.s.( ( i.T.L.L.K.K.K.K.L.L.I.i.( ( s.).T.P.P.T.P.).'.N.%X%X%X%X%X%X%X%X%X%X%X%X%X%X",
"%X%X%X%X%X%X%X%X%X%X%X%X%X%XD.T.K.F.F.F.F.K.J.i.E ( C. X[.].].].].].].[. XC.( R i.J.K.F.F.F.F.K.).D.%X%X%X%X%X%X%X%X%X%X%X%X%X%X",
"%X%X%X%X%X%X%X%X%X%X%X%X%X%XB.P.F.N.N.N.M.D.J.r.R ( V.].`.E.E.E.E.E.E.E.].V.( R r.J.N.M.N.N.N.F.P.B.%X%X%X%X%X%X%X%X%X%X%X%X%X%X",
"x ( i.F.N.N.N.N.N.D.K.r.R / r.K.M.M.M.M.M.N.D.r.E R 6.m.s.i.s.s.i.i.i.m.m.6.R E e.F.N.M.M.M.N.N.F.r.E E r.J.D.M.N.N.N.D.K.r.( z ",
"U _ m.T.T.P.P.T.P.T.T.m.( ( n.T.L.K.L.K.J.J.T.i.( T 1.0.w.7.7.8.7.8.8.0.w.1.T ( i.T.L.L.K.K.K.L.T.i.( ( m.).T.P.P.P.P.T.).m._ U ",
"v ( i.P.K.F.D.F.F.K.J.i./ ( C. X[.].].].].]. XC.( T 1.u.w.w.8.0.w.w.0.w.w.5.T ( C. X}.].].].].}. XC.) / i.L.F.F.D.F.F.K.P.i.( U ",
"v / i.D.D.N.N.N.M.M.J.r./ ( V.[.`.E.E.E.E.{.].V.( T 5.u.u.0.w.w.w.w.w.w.w.5.T ( V.{.E.E.E.E._.`.].V.( R u.F.F.N.N.N.N.D.D.e.( x ",
"x ( r.D.N.M.M.M.M.N.F.r.E R 6.s.i.i.i.i.i.s.m.0.^ R 5.u.u.8.w.w.w.w.0.u.u.5.R R 6.s.s.i.i.i.i.i.s.6.R / r.J.N.M.M.M.N.N.D.e./ x ",
"x ( i.P.P.J.J.J.J.L.T.i.( T 5.8.w.w.7.8.7.8.w.1.R ^ 5.p.u.u.u.w.w.u.u.u.p.5.~ R 5.w.w.7.8.8.7.w.w.5.T ( n.I.L.J.J.K.K.L.T.n.( x ",
"z ) Z. X].].].].].]. XC.( T 5.u.w.w.8.8.8.w.w.5.~ ^ 7.a.p.p.p.p.p.p.p.p.a.7.~ ~ 5.u.w.0.8.8.6.y.u.5.T ( C. X[.].].].].]. XC._ z ",
"z ) V.].{.E.E.E.E.{.[.V.( T 5.p.y.w.u.w.u.u.p.9.W M ` >.>.>.,.,.>.>.>.>.>.` W W 9.p.u.w.u.y.u.y.u.5.T ( V.{.{.E.E.E.E.{.[.V.) z ",
"x ^ 6.s.i.i.i.s.s.s.m.6.~ ~ 7.a.p.p.p.p.p.p.a.9.m 6 7 7 k n k k n n n k 7 7 6 m 9.a.a.p.p.p.y.a.p.7.~ ~ 8.s.i.i.i.i.s.s.m.6.^ U ",
"M ~ 5.y.8.8.7.7.7.w.w.1.W M ` 2.2.>.<.<.<.2.9.[ k - = O , 1 1 2 < 1 < , & & , k [ 2.2.1.<.<.<.2.2.] M W 1.w.w.6.8.7.7.8.w.1.~ M ",
"U ^ 5.w.8.8.8.e.w.w.u.,.m 9 8 n n k 7 7 8 k k 8 9 < = = < 2 2 2 2 1 2 < @ > < 9 8 n n n 7 7 n n n 8 9 m >.y.8.8.8.0.w.8.u.5.~ v ",
"x ^ 5.u.y.w.e.u.w.u.a.,.n 4 4 1 1 , & & < 0 3 3 q 5 : < 2 e 3 5 5 5 e 2 = ; 2 q 6 1 1 4 * * - 1 1 4 < n >.a.u.y.w.w.u.u.u.5.~ v ",
"U E 9.p.u.u.u.u.u.p.a.,.n < 1 3 2 < = > 5 r y e r e 2 2 t y y y r y y t 0 2 e r y r y q > = : 3 2 < 4 n 2.a.y.p.u.u.u.u.p.5./ U ",
"v R :.5.5.5.1.1.5.5.7.] k 1 3 3 5 2 ; : e a u a u y e 5 y u y a u u y t q q y u u a y e : ; 6 5 5 5 1 n ] 7.5.5.5.5.9.1.9.:.R U ",
"Y Y T T T T T T T T ~ M i 0 w q q 3 3 5 y y y y y t e 5 y y y y y y u y 5 5 y y y y y t 5 6 e y e y r g M R T T T T T T T T U Y ",
"U T ( ) ) ) ) ) ) ) _ Q K G G F L F t 5 y y y y y y 5 5 t y y u y y y y 5 5 y y y y u y q q y a y y y A ! _ ) ) ) ) ) ) ) ( T U ",
"U ( n.R.L.L.L.L.L.L.T.S.g.*.*.g.z.;.A 1 e a y a u t 5 5 y y y y y y u y 5 5 t u y y h e 5 q y y y y w J j.T.T.L.Y.L.L.Y.R.n.( z ",
"z ( G..X[.{.{.{.].[.{.W.x.k.l.U.oXb.Z 1 r y y y u y 5 5 y a a a y u y r 5 5 y y y y y y 5 5 y y y y w P A.XX}.{.].].{.|..XJ.( z ",
"M ~ 0.m.m.s.s.i.s.s.s.i.j.x.!.~.oXc.Z 1 r y y y y y 5 5 y h h a u y y y 5 5 y y y y y y 5 5 y u y y w D q.d.s.s.i.i.s.s.d.6.( U ",
"v ~ 1.w.8.7.8.7.8.7.8.6.{ -.z.v.b.;.A 1 y u y y y y q 6 5 2 : 1 e y a r 5 5 y y y y y y 5 5 t u y y w C >.y.8.8.7.8.8.7.w.1.~ M ",
"v ^ 5.w.8.8.8.8.8.8.y.2.P G F L H S 9 q e y y a u y y 2 O o   . , w a p e 5 y u y y y e 5 5 y y y p d Z ,.p.8.8.8.w.8.y.w.5.^ U ",
"v ~ 9.u.u.w.w.e.w.u.p.2.V 0 w w w q 5 5 y y y y u e 2 O o   + c P #.t : 2 5 y y a y a y 5 5 e y y r w C ,.y.u.w.w.w.0.0.u.5.^ z ",
"U ^ 5.u.8.0.w.0.0.y.y.2.C w w r y r 5 5 y y y a h 6 O     # !.@X#X/.@ . > e y y y y y t 5 5 y y w w w Z 3.y.y.w.e.w.w.u.u.5./ U ",
"v / 9.u.u.u.u.w.u.y.p.3.D w y y g r 5 5 y y y y a 5 # X   $ OX$X$X@XB X ; q y y y p g y 5 q w g F F y C 3.p.u.w.w.w.8.u.u.5.~ M ",
"v / 7.p.u.u.u.u.u.p.a.2.Z y y p y r 5 5 y y y p r J h.{ o X z.+X@XOXx.{ 8 4 w u y y a y 5 5 q F h.h.G V 2.a.p.u.u.u.u.i.p.9./ v ",
"U R :.9.5.1.5.9.5.5.5.] C r y y g y 5 5 e y u y w L b.l.$ $ f.!.f.f.~.Q.=.V y y y y y y 5 3 0 #.Q.v.#.l ] 5.5.5.5.5.1.5.5.:.R U ",
"U T T T T T T T T T T W g p y y u y 5 5 y y u r r g } t.t.x.~.f.# # f.^.(.h.F w y y y y 5 5 0 #.b.b.H i M T T T T T T T T T Y U ",
"U T E ) ) ) ) ) ( _ _ Q A y p y u r 5 5 r u y u h 9 7 N !.oX^.f.# @ f.~.U.*.D r y y u e q 6 q L v.v.H i ! _ ) ) ( ) ) ) ) ( T U ",
"v ( n.R.Y.L.L.L.Y.Y.R.j.D w y p g t 5 5 y y y a h 2 o # l.OX/.b.f.f.(.k.c + 5 a p y y y 5 5 q H b.v.S G j.I.L.L.L.L.L.Y.R.n.( x ",
"z ( J..X}.].}.E.'.|.XXA.L 0 y y a y q 5 e y y y h 3 . + { !.(.~.^.OX^.f.+ . < a a y u e 5 5 q H v.v.F S A.XX[.[.].[.[.[. XZ.( z ",
"x / 8.s.i.i.s.s.i.s.m.q.D w r y u y 5 5 y a a y u q - 7 N t.Q.^.^.^.oXz.8 = q a y y u y 5 3 q H v.v.F V q.d.i.i.s.s.s.s.m.0.( x ",
"U ^ 1.w.w.8.8.6.8.w.y.,.Z w y y u e 5 5 e y y y g r 5 9 f } k.U.f.f.v.h.g 3 r a y y y y 5 5 q #.b.v.H l <.w.w.8.8.8.7.8.w.1.R U ",
"M ~ 5.y.w.8.8.8.8.y.y.2.Z r p y y y 5 5 y y y y a y 5 5 e Z } ' % @ V F t 5 y y a y y t 3 q q L Q.Q.#.i ,.y.y.8.8.8.8.w.u.5./ M ",
"v ~ 5.u.w.e.w.8.0.y.p.2.Z w y y y y 5 5 y y u y y y 5 5 w g I b o . < r e 5 y u y y y y e 3 e L h.h.G V 2.y.u.8.w.e.8.u.u.5.~ v ",
"v ^ 5.u.w.8.8.y.y.y.p.2.Z r r p y y 5 5 e u y y y y 5 5 y y g i 5 2 e r 5 5 t y y y u y 5 5 t a F F a V 2.y.w.8.8.w.w.0.u.5.~ v ",
"v ^ 9.u.8.e.y.e.0.u.y.3.Z d y y y y 5 5 y y y y y y 5 5 y p r p a a a t 5 5 y u y y y r 5 5 y y r w w D 2.p.y.e.y.0.u.u.p.5.^ v ",
"v / 9.p.u.u.u.u.u.u.p.3.Z r p y y y 5 5 y a y a u y 5 5 t y y a y a a r 5 5 y y y y y y 5 5 y y r r r Z 3.a.p.u.u.u.u.e.p.5./ U ",
"U R :.1.5.9.5.1.5.5.7.] C w r y y e 5 5 e y y y u e 5 5 y u y y y y u t 5 5 y y a y y y 5 5 y y y y r C <.7.5.5.5.5.1.1.9.:.R U ",
"U T T T T T T T T T ~ M i w w w y q 5 5 y y y y y y 5 5 y y y u y y y y 5 5 y u y y y y 5 5 y u y y p l M T T T T T T T T T Y Y ",
"U T ( ) ) ) ) ) ( _ _ Q K G S S J S t 5 y y y y u y 5 5 e u y y y y y y 5 5 t u y y y y 5 5 t y y p d A ! _ ) ( ) ) ) ) ) ( T U ",
"v ( n.R.L.L.L.L.L.L.Y.S.g.*.*.*.z.h.A 2 e g a y u t 5 5 y a y y y u y y 5 5 y y y u u y 5 5 y y y r w D j.R.Y.Y.Y.L.L.Y.R.n.( z ",
"z ( G..X[.{.{.{.[.[.[.W.S.k.l.!./.v.Z 1 w p y y y y 5 5 r y y y y y y y 5 5 y u y y y y 5 5 y u y y w P A.XX|.{.}.E.[.[. XZ.) z ",
"U ^ 0.m.s.s.i.i.s.s.i.i.k.x.!.~.oXv.Z 1 e y y y u y 5 5 t u y y y y a t 5 5 t y y y y r 5 5 y y p y r D q.d.s.s.s.s.i.s.m.0.( v ",
"U R 1.8.8.8.8.8.8.8.7.0.{ -.z.v.v.;.V 3 r y y y y t 5 5 y y y y y y y y 5 5 y y y y y r 5 5 t y y y r C ,.y.w.7.6.8.7.w.w.1.~ v ",
"M ~ 5.w.w.8.8.8.w.w.w.9.K C F H H S 9 3 e y y t y e 5 5 t y y y y y y t 5 5 y y y r y r 5 5 r a r p w C ,.y.y.w.w.w.w.0.w.5.^ U ",
"v ~ 5.u.0.u.u.8.w.u.y.3.D d d p s r 5 e a j h j j a 5 e a j a j a a j a 5 5 u j j a G a 5 5 a a a a s D 3.y.y.w.0.0.w.u.u.9.~ v ",
"U / 5.u.w.w.u.0.y.w.y.3.#.| o...O. .e e X.+.+.+.+.X.e e  .+.O.O.O.+.O. .e e  .+.O.O.+. .t e  .+.+.o.o.#.q.w.y.8.y.w.y.w.y.5.^ U ",
"M ^ 5.u.u.0.w.w.8.y.w.4.$.&.@.@.@...e e O.%.@.@.%...e e O.%.@.@.@.%.%...e t O.%.%.@.%...e e ..%.%.%.&.$.4.y.w.u.w.0.0.w.u.5.~ M "
};
