/* XPM */
static char *xpm_[] = {
/* columns rows colors chars-per-pixel */
"64 64 172 2 ",
"   c #401E19",
".  c #411D17",
"X  c #41221E",
"o  c #55271E",
"O  c #4A2925",
"+  c #472522",
"@  c #522720",
"#  c #552A24",
"$  c #5A2B25",
"%  c #572E2A",
"&  c #5A2E29",
"*  c #5E332E",
"=  c #4D373B",
"-  c #4C3639",
";  c #523232",
":  c #5D3C3D",
">  c #5B3330",
",  c #64322D",
"<  c #6B342E",
"1  c #643731",
"2  c #693731",
"3  c #643833",
"4  c #6C3B35",
"5  c #633C3C",
"6  c #6F3D38",
"7  c #603738",
"8  c #713A33",
"9  c #723D38",
"0  c #763A33",
"q  c #70332B",
"w  c #75413B",
"e  c #79423C",
"r  c #5B3E41",
"t  c #663E40",
"y  c #3A465D",
"u  c #3D495F",
"i  c #3F4B60",
"p  c #5E4044",
"a  c #5A454D",
"s  c #4C4C5E",
"d  c #694443",
"f  c #6B4749",
"g  c #6D4A4A",
"h  c #684644",
"j  c #744B46",
"k  c #744D4B",
"l  c #784E4A",
"z  c #754944",
"x  c #7B524E",
"c  c #6E5153",
"v  c #7C5552",
"b  c #745254",
"n  c #414D64",
"m  c #435066",
"M  c #4D5165",
"N  c #45526A",
"B  c #4A566E",
"V  c #4D596F",
"C  c #5B5A6A",
"Z  c #595666",
"A  c #475771",
"S  c #4A5770",
"D  c #4C5971",
"F  c #515D74",
"G  c #556176",
"H  c #546379",
"J  c #5E647B",
"K  c #64667E",
"L  c #686274",
"P  c #7E797F",
"I  c #934A3F",
"U  c #854842",
"Y  c #8F4E47",
"T  c #844640",
"R  c #924D45",
"E  c #914F48",
"W  c #935049",
"Q  c #9F574E",
"!  c #8A5959",
"~  c #945F5F",
"^  c #A15348",
"/  c #A25850",
"(  c #837875",
")  c #8E827E",
"_  c #91817F",
"`  c #5C6B87",
"'  c #666D86",
"]  c #6A6E87",
"[  c #6B6F88",
"{  c #62718F",
"}  c #6E718A",
"|  c #72738C",
" . c #7A788B",
".. c #647492",
"X. c #6E7D97",
"o. c #667999",
"O. c #6D7E9E",
"+. c #6B7491",
"@. c #7A7B92",
"#. c #707E9A",
"$. c #707B95",
"%. c #6E7EA0",
"&. c #77849E",
"*. c #78869F",
"=. c #6E82A3",
"-. c #7182A3",
";. c #7C8AA5",
":. c #7286A9",
">. c #7389AC",
",. c #7D8CAA",
"<. c #7D91B1",
"1. c #8A8383",
"2. c #948381",
"3. c #9A8987",
"4. c #8C8A99",
"5. c #8B8896",
"6. c #8C9294",
"7. c #9E9594",
"8. c #94999B",
"9. c #929797",
"0. c #A29897",
"q. c #A49D9C",
"w. c #A6A09F",
"e. c #838DA1",
"r. c #808FAC",
"t. c #8693AE",
"y. c #8795AE",
"u. c #8794AF",
"i. c #8390A9",
"p. c #8995AA",
"a. c #8F9AAE",
"s. c #8D98AE",
"d. c #9795A5",
"f. c #9298A7",
"g. c #8996B1",
"h. c #8996B1",
"j. c #8B98B3",
"k. c #8C9AB3",
"l. c #8D9AB5",
"z. c #8F9CB4",
"x. c #8E9CB7",
"c. c #919EB6",
"v. c #959FB2",
"b. c #929FBB",
"n. c #909EB9",
"m. c #9FA5A5",
"M. c #96A0B5",
"N. c #95A1BA",
"B. c #94A2BD",
"V. c #97A5BB",
"C. c #9AA4B9",
"Z. c #9DA8BE",
"A. c #9EA8BA",
"S. c #A9A4A3",
"D. c #A6AAAA",
"F. c #B1B4B4",
"G. c #B5BABA",
"H. c #B8BFBF",
"J. c #96A3C0",
"K. c #97A5C1",
"L. c #9FAAC0",
"P. c #9CAAC8",
"I. c #A4AEC2",
"U. c #A3AEC4",
"Y. c #A2AEC4",
"T. c #A6B0C4",
"R. c #A3B0C6",
"E. c #A5B5CD",
"W. c #ABB5C9",
"Q. c #A8B4CA",
"!. c #B8C0C1",
"~. c None",
/* pixels */
"~.~.~.~.~.~.~.~.~.~.~.~.~.~.~.~.~.~.~.~.~.~.~.~.~.~.~.~.~.~.~.~.~.~.~.~.~.~.~.~.~.~.~.~.~.~.~.~.~.~.~.~.~.~.~.~.~.~.~.~.~.~.~.~.",
"~.~.~.~.~.~.~.~.~.~.~.~.~.~.~.~.~.~.~.~.~.~.~.~.~.~.~.~.~.~.~.~.~.~.~.~.~.~.~.~.~.~.~.~.~.~.~.~.~.~.~.~.~.~.~.~.~.~.~.~.~.~.~.~.",
"~.~.~.~.~.~.~.~.~.~.~.~.~.~.~.~.~.~.~.~.~.~.~.~.~.~.~.~.~.~.~.~.~.~.~.~.~.~.~.~.~.~.~.~.~.~.~.~.~.~.~.~.~.~.~.~.~.~.~.~.~.~.~.~.",
"~.~.~.~.~.~.~.~.~.~.~.~.~.~.~.~.~.~.~.~.~.~.~.~.~.~.~.~.~.~.~.~.~.~.~.~.~.~.~.~.~.~.~.~.~.~.~.~.~.~.~.~.~.~.~.~.~.~.~.~.~.~.~.~.",
"~.~.~.~.~.~.~.~.~.~.~.~.~.~.~.~.~.~.~.~.~.~.~.~.~.~.~.~.~.~.~.~.~.~.~.~.~.~.~.~.~.~.~.~.~.~.~.~.~.~.~.~.~.~.~.~.~.~.~.~.~.~.~.~.",
"~.~.~.~.~.~.~.~.~.~.~.~.~.~.~.~.~.~.~.~.~.~.~.~.~.~.~.~.~.~.~.~.~.~.~.~.~.~.~.~.~.~.~.~.~.~.~.~.~.~.~.~.~.~.~.~.~.~.~.~.~.~.~.~.",
"~.~.~.~.~.~.~.~.~.~.~.~.~.~.~.~.~.~.~.~.~.~.~.~.~.~.~.~.~.~.~.~.~.~.~.~.~.~.~.~.~.~.~.~.~.~.~.~.~.~.~.~.~.~.~.~.~.~.~.~.~.~.~.~.",
"~.~.~.~.~.~.~.~.~.~.~.~.~.~.~.~.~.~.~.~.~.~.~.~.~.~.~.~.~.~.~.~.~.~.~.~.~.~.~.~.~.~.~.~.~.~.~.~.~.~.~.~.~.~.~.~.~.~.~.~.~.~.~.~.",
"~.~.~.~.~.~.~.~.~.~.~.~.~.~.~.~.~.~.~.~.~.~.~.~.~.~.u.b.j.y.y.y.y.y.y.j.b.y.~.~.~.~.~.~.~.~.~.~.~.~.~.~.~.~.~.~.~.~.~.~.~.~.~.~.",
"~.~.~.~.~.~.~.~.~.~.~.~.~.~.~.~.~.~.~.~.~.~.~.~.~.~.y.P.J.b.b.b.b.b.b.J.P.y.~.~.~.~.~.~.~.~.~.~.~.~.~.~.~.~.~.~.~.~.~.~.~.~.~.~.",
"~.~.~.~.~.~.~.~.~.~.~.~.~.~.~.~.~.~.~.~.~.~.~.~.~.~.g.V.x.j.j.j.j.j.j.x.J.g.~.~.~.~.~.~.~.~.~.~.~.~.~.~.~.~.~.~.~.~.~.~.~.~.~.~.",
"~.~.~.~.~.~.~.~.~.~.~.~.~.~.~.~.~.~.~.~.~.~.~.~.~.~.r.b.g.u.u.t.u.u.u.g.b.i.~.~.~.~.~.~.~.~.~.~.~.~.~.~.~.~.~.~.~.~.~.~.~.~.~.~.",
"~.~.~.~.~.~.~.~.~.~.~.~.~.~.y.b.j.u.u.t.u.g.k.*.D D ;.j.g.t.t.t.u.u.t.y.k.;.D D *.k.g.t.y.y.u.j.b.y.~.~.~.~.~.~.~.~.~.~.~.~.~.~.",
"~.~.~.~.~.~.~.~.~.~.~.~.~.~.y.P.J.b.b.b.b.V.V.,.F F ;.N.c.z.k.c.c.k.z.b.v.;.F F r.K.V.b.b.b.b.J.P.u.~.~.~.~.~.~.~.~.~.~.~.~.~.~.",
"~.~.~.~.~.~.~.~.~.~.~.~.~.~.g.J.x.j.j.j.j.k.c.;.V F a.W.T.I.I.I.I.I.I.I.W.a.F D ;.c.k.j.j.j.j.x.J.j.~.~.~.~.~.~.~.~.~.~.~.~.~.~.",
"~.~.~.~.~.~.~.~.~.~.~.~.~.~.r.b.j.u.u.u.u.j.k.*.B F p.I.L.Z.Z.K.Z.Z.Z.L.I.p.F B &.k.g.t.u.u.u.g.n.i.~.~.~.~.~.~.~.~.~.~.~.~.~.~.",
"u F *.k.h.u.y.y.u.g.j.&.D D ;.g.h.t.t.t.t.y.h.*.V B X.r.;.;.;.;.;.;.;.r.r.$.B V *.h.u.t.t.u.t.g.j.*.D V &.k.g.t.u.u.u.g.k.;.D u ",
"n H r.K.V.b.b.b.b.V.K.r.F F e.b.c.k.c.k.k.c.b.e.F N { O.O.O.O.O.O.O.O.#.%.{ N F e.N.c.c.c.k.c.b.N.;.F F ,.V.V.b.b.b.b.V.J.r.H n ",
"i F ;.c.k.h.h.k.j.k.k.;.D F a.W.I.I.I.I.I.I.W.a.F N ..-.O.O.O.#.O.O.%.%.%...N F a.W.I.I.I.I.I.I.W.a.G D ;.c.k.h.h.h.j.k.n.;.F n ",
"u F -.k.g.u.u.h.h.g.k.&.V F p.Y.Y.Z.Z.Z.Z.Y.I.p.F N ..-.%.%.O.%.O.%.%.%.%...N F p.Y.Z.Z.Z.Z.V.L.Y.p.F V ;.k.h.u.g.u.h.g.h.&.F u ",
"u F *.h.g.t.t.t.t.u.g.&.V B X.,.,.;.;.;.,.;.,.X.B B ..-.-.O.O.O.%.%.%.-.%...N S #.,.,.,.;.;.>.;.,.X.V V &.h.g.t.t.t.y.u.h.-.F s ",
"u F e.b.c.c.c.k.c.c.N.e.F N ..O.%.o.O.O.O.O.%.{ B S ..:.-.=.=.=.%.%.-.-.:.o.D S { %.O.O.O.X.O.O.%.{ N F e.N.c.k.z.z.z.c.N.e.D y ",
"y F s.W.I.I.I.I.Y.I.W.a.F N ..-.%.O.O.O.%.%.%...A S o.>.:.:.:.:.:.:.-.:.,.o.D S ..-.O.O.O.O.O.O.-.{ N F a.W.I.Y.Y.I.Y.T.W.a.H y ",
"u G p.Y.Y.Z.Z.Z.Z.Y.I.p.F N ..:.=.%.-.-.-.%.:.+.M s J [ ] ] } ' ] [ [ [ [ F M M ..-.-.%.=.-.-.=.-.o.N F p.Y.Y.Z.Z.Z.Z.L.Y.p.G y ",
"i D X.,.;.;.;.;.;.>.,.X.S A o.>.:.:.:.:.:.:.>.+.a ; - = r p p r p p p r = - ; a +.>.>.:.:.:.:.:.:.o.S S X.,.;.;.;.;.;.;.,.X.D i ",
"i S ..%.O.O.O.o.%.%.%.{ M s K } [ [ ' ' ' } +.L : o .   @ $ $ $ $ # $ @     o : L } } ' ' ' [ [ [ K s M { %.%.O.O.O.O.X.%...D i ",
"n D ..%.#.O.O.O.%.%.-.[ a ; : h r r = = : p p : > O X X # % % % % % & # X X O * : p r r = = r p h r ; a [ :.=.%.O.O.O.O.%...D i ",
"n D ..-.-.-.%.-.%.-.>.[ : # @ # $ @     $ $ & & , * + + % * * * * * * & + O & * & $ & # X   @ $ # @ # r [ :.-.#.%.%.=.-.:...S i ",
"u D o.:.-.-.-.-.-.:.:.[ p # $ & & # X + * 2 2 2 4 3 * % 3 4 4 4 3 4 4 1 * % 3 4 1 2 4 , + X # & & & # r [ >.:.-.-.-.-.-.:.o.D i ",
"n B ' ........} { o.o.K : $ $ * * % O O 1 9 9 6 6 4 > * 4 6 4 6 6 4 6 4 > 1 4 6 6 6 9 1 O + % > & * $ r K O...........+.+.` N n ",
"n n N N N N N N N N B M 7 < < , , * & & 4 6 4 4 4 4 * * 3 4 4 6 4 4 4 4 * * 4 4 4 6 4 4 * % 1 4 2 4 2 t s N N N N N N N N N n n ",
"n m F G G F G G F G H C c j z k v k 3 * 2 6 4 4 6 4 * * 4 4 4 4 4 4 4 4 * * 4 4 4 4 4 4 1 > 4 6 6 8 8 d C H G G G F G G G F N n ",
"n F e.N.v.v.v.v.v.v.M.f.1.( ( 1.0._ h $ 1 6 4 4 4 4 * * 4 6 4 4 4 4 4 4 * * 4 4 4 9 4 4 , , 4 4 4 4 < x 4.B.M.v.v.v.v.N.C.e.F i ",
"u F s.W.Y.Y.Y.P.Y.Y.T.Z.8.6.9.m.G.w.g $ 2 6 4 4 4 4 * * 2 9 4 4 4 6 6 3 * * 2 6 4 4 4 3 * * 3 4 4 4 , v d.E.R.Y.L.Y.Y.R.W.y.F y ",
"u D X.<.,.,.;.;.,.,.;.;.6.8.D.F.!.w.g $ 2 6 4 6 6 4 * * 4 4 9 4 4 4 6 3 * * 4 4 4 4 w 3 * * 4 4 4 4 < k @.<.,.;.,.;.;.,.r.X.F i ",
"n D { %.O.O.O.O.O.O.O.$.P 1.7.0.w.) d & 2 4 4 4 4 3 * * 4 6 4 4 6 4 6 4 * * 4 6 9 4 4 3 * * 3 w 8 4 2 g [ =.%.O.O.O.O.o.%...S i ",
"u B ..%.O.O.O.O.O.%.=.} c z l v v j > * 1 4 4 4 6 3 * * 4 4 4 4 4 4 4 4 * * 4 4 4 9 4 2 * * 1 w 4 4 q g } :.=.O.%.#.#.%.%...D n ",
"s A ..-.-.O.&.%.%.%.:.} d q < < < , * * 4 6 4 6 6 4 * * 2 4 4 2 4 2 4 2 * * 4 4 4 4 w 1 * * 2 4 4 2 < g [ -.-.#.%.-.%.#.-...S i ",
"i B ..-.%.%.O.O.=.=.=.} f < < 4 4 3 * * 4 4 4 4 4 4 * * 4 4 < < < < , , * * 4 4 4 4 w 4 * * 3 4 < < < g | :.%.%.%.%.%.-.-...D i ",
"i V o.-.%.&.-.-.#.=.:.} k < 4 4 4 4 * * 4 4 6 4 4 4 * * 1 w l x x x v k > * 4 4 9 4 3 3 * * 1 w l l 8 f } :.=.%.#.-.%.-.-...S i ",
"i D o.:.-.-.-.-.=.:.>.} g 4 4 8 9 2 , * 4 4 4 4 4 4 * * , l _ q.7.0.q.2.w % 3 w 3 4 w 3 * * , l 3.3.z d } >.:.-.-.-.-.-.;.o.D n ",
"n B ` +...{ ..+.......K g < 4 4 9 3 * * 4 4 4 w 4 4 * * , v q.H.G.G.!.7.g $ 1 4 4 4 4 2 * & , ! S.D.U d K ........+.......` N n ",
"n n N N N N N N N N N M d 8 4 4 4 4 * * 3 w 4 4 4 2 * * , x 0.G.F.F.G.7.g $ 1 6 4 9 4 4 * * , v S.q.v 7 s N N N N N N N N N n n ",
"n N F G G G G F G G H C d 2 8 4 9 3 * * 3 4 4 4 4 3 * * , x 0.G.F.F.G.7.g $ 2 4 4 3 w 3 , * , v q.q.x 7 Z H H F F G G G G F N n ",
"n F e.N.M.v.v.v.c.M.C.4.k < 4 4 4 4 * * 2 6 4 4 4 4 * * < v q.H.G.G.H.0.g $ 2 6 4 4 4 2 * * , x w.q.l z 5.N.v.v.v.c.v.v.A.4.D i ",
"u F a.Q.T.I.Y.Y.Y.Y.E.d.v < 4 4 4 4 * * 4 4 4 4 4 4 * * , l 2.q.0.0.q.2.h & 2 6 9 4 w 2 * * , x q.q.z k d.E.R.Y.Y.Y.Y.R.W.s.F i ",
"u D O.,.;.;.;.,.;.,.<.@.g 2 2 4 6 4 * * 4 6 4 6 4 4 * * 2 w k x x x v z 3 * 1 4 4 4 9 4 * & , ! q.q.l d @.<.,.;.,.,.;.,.,.O.D i ",
"n D { %.O.O.O.O.O.O.=.] f 8 4 4 4 4 * * 3 6 4 4 4 4 * * 2 4 2 < < , < , * * 2 4 4 4 4 3 * * , v w.q.l d ' %.%.o.O.O.O.%.%...D i ",
"u B ..%.#.O.O.#.%.=.=.} g 8 2 4 6 4 * * 4 4 4 4 6 3 * * 4 4 3 2 4 2 2 1 * * 4 6 4 4 4 3 > , , v S.S.U h ] =.=.X.O.O.O.%.-...D s ",
"n B +.-.-.%.%.%.O.-.=.| g 2 4 8 4 3 * * 4 4 6 4 6 4 * * 4 4 4 4 4 4 6 4 * % 4 4 4 4 6 4 * & 1 l 3.3.j f } :.=.=.-.#.O.-.-...A i ",
"n S ..-.#.%.O.O.#.=.-.} g q 4 4 6 4 , * 4 6 4 4 4 4 * * 4 4 6 4 4 4 6 4 * > 4 4 4 4 4 4 * * 1 w l l 8 g } =.-.O.O.%.%.#.-...S i ",
"u V o.-.-.-.%.&.-.=.:.} g 2 8 4 4 4 * * 3 4 4 4 6 4 * * 4 6 4 4 4 4 4 4 * * 4 4 4 6 6 4 , * 4 4 2 < < g | =.-.O.-.#.-.-.:...S i ",
"s A ..:.-.-.-.-.-.-.:.| k < 4 4 4 4 * * 4 4 4 4 4 4 * * 4 4 4 4 4 4 6 4 * * 4 6 4 6 6 4 > * 4 4 4 2 2 k | >.:.-.-.-.-.-.:.o.V u ",
"i B ` o...+.........o.K f 2 2 4 4 3 * * 3 9 4 9 4 4 * * 4 4 6 4 4 9 4 4 , > 4 4 4 4 4 3 * * 4 4 8 4 q f ' o.............+.` B n ",
"i N N N N N N m N N A M 5 q q 2 < , * * 3 w 4 4 4 4 * * 4 6 4 4 4 4 4 4 * * 4 6 4 4 9 4 * * 2 6 4 4 8 t s N N N N N B m N m m n ",
"i N F G G G G G F G F C c z z k x j 3 * 2 4 4 4 6 4 * * 3 4 4 4 4 4 4 4 * * 1 9 4 4 6 1 * * 4 6 4 8 4 t Z H H F G G G G G F m n ",
"n F e.C.v.v.v.v.v.v.M.f.1.( ( 1.7.2.h & 1 w 4 8 4 4 * * 4 4 4 4 4 4 4 4 * * 4 4 4 4 6 2 > , 3 4 4 2 < b 4.C.M.c.v.v.v.v.C.e.F i ",
"u F h.Q.I.Y.Y.Y.Y.Y.T.C.8.6.9.m.G.w.k $ 2 3 4 4 4 4 * * 4 9 4 4 4 4 4 4 * * 4 6 4 6 6 3 * > 4 6 4 2 < v d.E.R.Y.I.I.P.Y.W.s.F y ",
"i D X.r.,.,.:.,.,.;.,.;.6.9.D.F.H.8.g $ 2 9 4 4 w 3 * * 3 4 4 4 6 4 4 4 * * 4 4 4 4 6 2 * * 4 4 8 4 < g @.<.,.;.,.;.;.;.r.#.D n ",
"n S { O.O.O.O.O.O.O.%.o.P ) 7.q.m.) w $ 1 4 4 4 4 3 * * 4 4 4 4 4 4 4 4 * * 3 4 4 4 6 4 * * 4 4 4 4 2 g [ =.O.O.O.O.O.O.%.{ S i ",
"u D ..%.%.O.O.O.O.%.=.} c z z k b j > * 3 4 3 2 4 3 * * 3 2 2 4 2 2 4 3 * , 4 4 4 2 4 3 * * 2 4 2 8 < g [ :.%.O.O.O.%.#.%...D s ",
"n N +.-.-.#.%.&.%.%.:.[ k 0 8 0 8 , * 1 9 e e w e 9 > , w e e w e w e 9 > > 6 w e w w 9 1 * 9 z 9 9 0 k } =.=.%.#.-.%.%.-.o.A i ",
"n D ..-.%.%.#.O.%.=.=.@.! I R R W I 1 , U W W W W U 3 1 U W W Y W W W U 3 , U W E W E T 1 , U W R R R ! | :.%.-.%.-.%.-.-...A i ",
"s D ..-.-.#.=.=.O.%.=. .~ ^ Q Q / Y 1 1 W / Q / / Y 1 1 Y / Q Q Q Q / Y 3 3 Y / Q / / Y 1 1 E / / / ^ ~  .=.=.%.#.O.#.%.-...S i "
};
