/* XPM */
static char *xpm_[] = {
/* columns rows colors chars-per-pixel */
"64 64 175 2 ",
"   c #401E19",
".  c #411D17",
"X  c #41221E",
"o  c #55261E",
"O  c #4A2925",
"+  c #472522",
"@  c #522720",
"#  c #552A24",
"$  c #5A2B25",
"%  c #572E2A",
"&  c #5A2E29",
"*  c #5E322D",
"=  c #4D373B",
"-  c #4C3639",
";  c #523232",
":  c #5D3C3D",
">  c #5B3330",
",  c #662D28",
"<  c #662D27",
"1  c #64322D",
"2  c #6B342E",
"3  c #643731",
"4  c #693732",
"5  c #653833",
"6  c #6C3A35",
"7  c #6E3D39",
"8  c #623B3B",
"9  c #713A33",
"0  c #713E39",
"q  c #763A33",
"w  c #75362D",
"e  c #66423E",
"r  c #6E403B",
"t  c #74413C",
"y  c #79423C",
"u  c #5B3E41",
"i  c #663E40",
"p  c #3A465D",
"a  c #3D495F",
"s  c #3F4B60",
"d  c #5E4044",
"f  c #5A454D",
"g  c #4C4C5E",
"h  c #6A4443",
"j  c #6D4B47",
"k  c #6B4749",
"l  c #6D4A4A",
"z  c #644041",
"x  c #754A46",
"c  c #744D4B",
"v  c #784E4A",
"b  c #754944",
"n  c #7A524E",
"m  c #76504C",
"M  c #6E5153",
"N  c #7C5552",
"B  c #745254",
"V  c #7B625F",
"C  c #414D64",
"Z  c #435066",
"A  c #4D5165",
"S  c #45526A",
"D  c #4A566E",
"F  c #4D596F",
"G  c #5B5A6A",
"H  c #595666",
"J  c #475771",
"K  c #4A5770",
"L  c #4C5971",
"P  c #515D74",
"I  c #556176",
"U  c #546379",
"Y  c #5E647B",
"T  c #64667E",
"R  c #686274",
"E  c #7E797F",
"W  c #934A3F",
"Q  c #854842",
"!  c #8F4E47",
"~  c #844640",
"^  c #924D45",
"/  c #914F48",
"(  c #935049",
")  c #9F574E",
"_  c #8A5959",
"`  c #945F5F",
"'  c #A15348",
"]  c #A25850",
"[  c #876865",
"{  c #886866",
"}  c #837875",
"|  c #8E827E",
" . c #91817F",
".. c #5C6B87",
"X. c #666D86",
"o. c #6A6E87",
"O. c #6B6F88",
"+. c #62718F",
"@. c #6E718A",
"#. c #72738C",
"$. c #7A788B",
"%. c #647492",
"&. c #6E7D97",
"*. c #667999",
"=. c #6D7E9E",
"-. c #6B7491",
";. c #707E9A",
":. c #767B93",
">. c #6E7EA0",
",. c #77849E",
"<. c #78869F",
"1. c #6E82A3",
"2. c #7182A3",
"3. c #7C8AA5",
"4. c #7286A9",
"5. c #7389AC",
"6. c #7D8CAA",
"7. c #7D91B1",
"8. c #8A8383",
"9. c #9B8E8C",
"0. c #958583",
"q. c #9C908F",
"w. c #8C8A98",
"e. c #8C9294",
"r. c #9E9492",
"t. c #94999B",
"y. c #929797",
"u. c #A19795",
"i. c #A49D9C",
"p. c #A6A09F",
"a. c #838DA1",
"s. c #808FAC",
"d. c #8693AE",
"f. c #8795AE",
"g. c #8794AF",
"h. c #8390A9",
"j. c #8995AA",
"k. c #8F9AAE",
"l. c #8D98AE",
"z. c #9795A5",
"x. c #9298A7",
"c. c #8996B1",
"v. c #8B98B3",
"b. c #8C9AB3",
"n. c #8D9AB5",
"m. c #8F9CB4",
"M. c #8E9CB7",
"N. c #919EB6",
"B. c #959FB2",
"V. c #929FBB",
"C. c #909EB9",
"Z. c #9FA5A5",
"A. c #96A0B5",
"S. c #95A1BA",
"D. c #94A2BD",
"F. c #9AA4B9",
"G. c #9DA8BE",
"H. c #9EA8BA",
"J. c #A9A4A3",
"K. c #A6AAAA",
"L. c #B2B9BA",
"P. c #96A3C0",
"I. c #97A5C1",
"U. c #9FAAC0",
"Y. c #9CAAC8",
"T. c #A4AEC2",
"R. c #A3AEC4",
"E. c #A2AEC4",
"W. c #A6B0C4",
"Q. c #A3B0C6",
"!. c #A5B5CD",
"~. c #ABB5C9",
"^. c #A8B4CA",
"/. c #B8C0C1",
"(. c None",
/* pixels */
"(.(.(.(.(.(.(.(.(.(.(.(.(.(.(.(.(.(.(.(.(.(.(.(.(.(.(.(.(.(.(.(.(.(.(.(.(.(.(.(.(.(.(.(.(.(.(.(.(.(.(.(.(.(.(.(.(.(.(.(.(.(.(.(.",
"(.(.(.(.(.(.(.(.(.(.(.(.(.(.(.(.(.(.(.(.(.(.(.(.(.(.(.(.(.(.(.(.(.(.(.(.(.(.(.(.(.(.(.(.(.(.(.(.(.(.(.(.(.(.(.(.(.(.(.(.(.(.(.(.",
"(.(.(.(.(.(.(.(.(.(.(.(.(.(.(.(.(.(.(.(.(.(.(.(.(.(.(.(.(.(.(.(.(.(.(.(.(.(.(.(.(.(.(.(.(.(.(.(.(.(.(.(.(.(.(.(.(.(.(.(.(.(.(.(.",
"(.(.(.(.(.(.(.(.(.(.(.(.(.(.(.(.(.(.(.(.(.(.(.(.(.(.(.(.(.(.(.(.(.(.(.(.(.(.(.(.(.(.(.(.(.(.(.(.(.(.(.(.(.(.(.(.(.(.(.(.(.(.(.(.",
"(.(.(.(.(.(.(.(.(.(.(.(.(.(.(.(.(.(.(.(.(.(.(.(.(.(.(.(.(.(.(.(.(.(.(.(.(.(.(.(.(.(.(.(.(.(.(.(.(.(.(.(.(.(.(.(.(.(.(.(.(.(.(.(.",
"(.(.(.(.(.(.(.(.(.(.(.(.(.(.(.(.(.(.(.(.(.(.(.(.(.(.(.(.(.(.(.(.(.(.(.(.(.(.(.(.(.(.(.(.(.(.(.(.(.(.(.(.(.(.(.(.(.(.(.(.(.(.(.(.",
"(.(.(.(.(.(.(.(.(.(.(.(.(.(.(.(.(.(.(.(.(.(.(.(.(.(.(.(.(.(.(.(.(.(.(.(.(.(.(.(.(.(.(.(.(.(.(.(.(.(.(.(.(.(.(.(.(.(.(.(.(.(.(.(.",
"(.(.(.(.(.(.(.(.(.(.(.(.(.(.(.(.(.(.(.(.(.(.(.(.(.(.(.(.(.(.(.(.(.(.(.(.(.(.(.(.(.(.(.(.(.(.(.(.(.(.(.(.(.(.(.(.(.(.(.(.(.(.(.(.",
"(.(.(.(.(.(.(.(.(.(.(.(.(.(.(.(.(.(.(.(.(.(.(.(.(.(.f.V.v.f.f.f.f.f.f.v.V.f.(.(.(.(.(.(.(.(.(.(.(.(.(.(.(.(.(.(.(.(.(.(.(.(.(.(.",
"(.(.(.(.(.(.(.(.(.(.(.(.(.(.(.(.(.(.(.(.(.(.(.(.(.(.f.Y.P.V.V.V.V.V.V.P.Y.f.(.(.(.(.(.(.(.(.(.(.(.(.(.(.(.(.(.(.(.(.(.(.(.(.(.(.",
"(.(.(.(.(.(.(.(.(.(.(.(.(.(.(.(.(.(.(.(.(.(.(.(.(.(.f.I.M.v.v.v.v.v.v.M.P.c.(.(.(.(.(.(.(.(.(.(.(.(.(.(.(.(.(.(.(.(.(.(.(.(.(.(.",
"(.(.(.(.(.(.(.(.(.(.(.(.(.(.(.(.(.(.(.(.(.(.(.(.(.(.s.V.c.g.d.f.g.g.g.c.V.h.(.(.(.(.(.(.(.(.(.(.(.(.(.(.(.(.(.(.(.(.(.(.(.(.(.(.",
"(.(.(.(.(.(.(.(.(.(.(.(.(.(.f.V.v.g.d.f.f.c.b.<.D L 3.m.c.d.d.d.g.g.d.c.v.<.L L <.b.c.f.f.f.f.v.V.f.(.(.(.(.(.(.(.(.(.(.(.(.(.(.",
"(.(.(.(.(.(.(.(.(.(.(.(.(.(.f.Y.P.V.V.V.V.D.D.6.P P a.V.N.m.m.m.m.m.N.N.S.3.P P s.I.D.V.V.V.V.P.Y.f.(.(.(.(.(.(.(.(.(.(.(.(.(.(.",
"(.(.(.(.(.(.(.(.(.(.(.(.(.(.c.P.M.v.v.v.m.m.N.3.F P l.~.T.E.E.E.E.T.T.T.~.k.P F 3.N.b.v.b.c.m.M.P.c.(.(.(.(.(.(.(.(.(.(.(.(.(.(.",
"(.(.(.(.(.(.(.(.(.(.(.(.(.(.s.V.v.g.g.g.g.g.b.<.D P j.E.U.G.G.G.G.G.G.U.T.j.P D ,.b.c.d.d.g.g.c.V.h.(.(.(.(.(.(.(.(.(.(.(.(.(.(.",
"a P <.b.c.f.f.f.g.c.b.<.D P <.v.c.d.d.d.d.c.c.,.F D :.6.6.3.3.3.3.3.3.3.s.&.D F ,.v.f.d.d.d.d.c.v.<.L F ,.b.c.d.f.f.g.c.v.<.P a ",
"C U s.I.D.V.V.V.V.D.I.s.P P a.S.N.m.m.m.m.N.S.3.P D +.=.=.=.=.=.>.=.>.;.>.+.S P 3.S.N.N.m.m.m.N.S.3.P P s.P.D.V.V.V.V.D.I.s.U C ",
"s P 3.N.N.c.b.c.c.N.N.3.L P k.~.T.T.T.T.T.T.~.k.P S +.2.=.=.=.=.=.>.;.2.>.%.S P k.~.W.T.E.T.W.W.~.l.I L 3.N.m.c.c.c.m.m.m.3.P s ",
"a P 2.b.c.g.c.f.f.c.c.<.D P j.E.U.G.G.G.G.E.T.j.P S +.2.>.>.1.;.=.>.>.>.>.%.S P j.T.G.G.G.G.I.U.T.j.P D ,.m.c.g.c.g.d.c.v.3.L s ",
"s L <.c.c.d.d.d.d.f.c.2.F D ;.6.3.4.3.3.3.3.6.&.F S %.2.1.=.1.=.>.>.>.2.2.%.S L ;.s.3.3.3.3.3.3.s.&.L F ,.c.f.g.d.g.g.c.c.,.L s ",
"a P a.V.N.m.m.m.N.N.S.a.P S +.=.=.=.=.=.=.=.>.+.D J *.4.2.>.,.2.>.>.1.2.4.%.L S +.>.=.=.=.=.*.=.=.%.S P a.S.N.b.N.b.N.N.D.a.P a ",
"p P l.~.T.T.T.T.T.T.~.k.P S %.2.>.=.>.>.>.>.>.%.J J *.4.4.1.4.4.4.1.2.4.5.=.J L %.2.>.=.=.=.&.1.2.%.S P b.~.T.T.T.T.T.T.~.l.P s ",
"a U j.E.E.G.G.G.G.E.T.j.P S %.4.2.2.2.>.2.1.4.-.A g Y @.O.O.O.O.@.@.O.O.X.Y g A %.4.2.>.2.1.2.1.2.%.S P j.E.E.G.G.G.G.G.E.g.P s ",
"a L &.s.3.3.3.4.3.3.6.=.L J *.5.4.4.4.4.4.4.5.-.f ; - = u d d d d u d u = - ; f @.5.5.4.4.4.4.4.4.*.J L =.6.3.3.3.3.3.3.6.=.L s ",
"C D +.>.=.=.=.=.=.=.>.+.A g T @.O.o.X.X.o.+.@.R u o .   o $ # # $ # $ @ X   o : R @.+.o.X.X.o.o.@.T g A +.>.>.=.*.=.=.=.>.+.L s ",
"s L %.>.;.=.>.;.>.>.2.O.f ; : z d u - - : d d : > # X X O & & % % % & # X X @ > : d d : = = : z d u > f O.1.>.;.=.;.>.;.>.%.L s ",
"s L -.2.2.2.>.>.2.2.4.O.u o # # $ @     # < $ & * % O O * * * * * * * % O O % * & & & # X . O $ # # # u O.4.2.2.>.>.2.2.2.%.L s ",
"s L *.2.2.2.2.2.2.4.5.@.u # # & & # X + 1 4 4 4 5 5 > % 3 6 4 4 4 4 6 5 % * 3 5 2 4 4 1 + X # % & $ # u @.5.4.2.2.2.2.2.4.*.L C ",
"s L ..*.%.-.%.-.%.%.*.T u $ & * * % + O 5 7 7 0 7 6 3 > 6 r 7 7 r 7 7 4 3 * 4 7 6 0 t 5 O O % 3 * & $ u T *.%.%.%.%.%.-.-...S C ",
"C Z Z S S S S S S S J g 8 , 2 1 1 & & * 4 7 7 6 7 4 * 1 5 7 7 6 7 6 7 4 * 3 4 7 6 7 7 5 % % 3 4 4 4 6 8 g S S S S S S S S S C C ",
"C S P I P I I I P I U G M b x v N c 5 * 4 7 6 6 7 4 * * 4 7 6 6 6 7 0 4 > > 4 7 6 7 7 6 3 > 6 7 0 0 9 h G U I I I P I I I P S C ",
"s P a.F.N.B.N.N.A.A.A.x.8.} } | r.0.h $ 4 7 6 6 7 4 * * 4 6 6 6 6 6 7 4 > * 6 7 6 6 7 4 1 * 4 7 7 6 2 n w.D.A.A.B.B.N.A.F.a.P a ",
"s P l.^.T.E.T.E.E.E.Q.H.t.e.y.Z.L.p.j $ 3 9 6 6 7 5 * * 4 0 6 7 7 6 7 4 > 1 4 4 6 7 7 4 * * 4 7 7 4 1 N z.!.W.E.E.E.E.E.~.l.P p ",
"s L ;.s.s.3.3.3.3.3.6.3.e.t.K.L./.p.j $ 4 7 7 6 4 , * 3 7 7 6 6 6 7 9 4 * * 1 4 4 7 7 6 * * 6 7 6 6 2 c :.7.6.3.3.5.3.3.s.&.P s ",
"C J +.>.=.=.=.=.=.=.*.:.$.| r.i.i.8.h & 4 6 6 0 N c > $ 4 7 6 7 6 6 7 4 * > m N t 4 7 4 * * 5 r 6 6 2 k O.1.>.=.=.=.=.=.>.+.L s ",
"a L %.>.=.=.;.>.=.=.1.@.B x n n N v 3 * 4 7 4 N q.9.8 @ 4 7 6 6 6 6 7 3 o e 9.u.n 2 6 4 * * 6 6 9 6 2 c O.2.=.=.;.>.;.;.>.%.L C ",
"C S -.2.2.=.1.;.=.1.4.@.h < 2 2 2 1 * * 4 6 2 v q.u.V h 7 9 6 6 6 6 6 7 e V r.9.n 2 6 4 * * 6 6 6 4 2 l #.1.1.>.>.>.>.2.2.%.L C ",
"C D %.2.>.>.=.=.1.1.1.@.k 2 2 4 4 4 * * 4 7 6 0 x { u.9.v 4 6 9 9 6 2 v 9.u.[ x r 9 6 5 * * 6 6 2 2 2 l O.1.1.>.>.2.>.2.>.%.D s ",
"g L *.2.>.,.2.2.;.1.4.@.c 2 6 9 7 5 * * 4 7 9 4 < x 9.9.v 2 4 6 6 6 2 n 9.9.x < 4 6 r 6 * * 3 r v v 9 k #.4.2.2.2.>.>.2.2.%.L s ",
"s J -.4.2.2.2.2.2.4.4.@.l 4 6 6 7 4 > * 4 7 7 4 6 7 j j 7 4 2 4 6 6 6 7 j j 7 4 6 6 7 4 * * 1 v 9.0.v h @.5.4.2.2.2.2.2.4.-.L C ",
"C S ..*.%.%.+.%.%.%.*.T h 9 6 7 7 4 * * 6 7 6 7 7 4 $ $ 1 b n v 0 4 7 4 & # 4 7 7 6 7 4 * & 1 _ J.K.Q 8 T %.%.%.%.@.%.%.*...S g ",
"C C S S S S S S S S S A z 9 7 6 7 4 > * 4 6 6 7 7 4 & & 1 n q.q.x , 6 4 * * 4 6 6 7 7 4 * * 1 n p.p.N 8 g s S S S S S S S S s S ",
"C S P I I I I I I I U G h 9 6 6 7 4 3 * 4 0 6 6 7 4 * * 1 n q.u.{ x 0 4 1 > 4 7 6 7 7 4 * * 1 n i.i.n 8 G U I I I P I I I I S s ",
"C P a.F.A.B.B.B.N.A.D.w.c 2 6 7 7 5 * 1 6 7 7 6 7 4 * * 4 0 x [ u.9.v 4 & * 4 7 6 6 7 4 > * 1 _ i.i.v b w.S.N.B.B.B.B.N.F.a.P a ",
"p P c.^.W.T.E.T.E.Q.!.z.N 2 2 6 7 6 * > 4 7 6 7 7 4 * * 4 6 , x 9.r.N , & * 4 6 6 7 7 4 * * 1 N p.i.x b z.!.E.E.E.E.T.Q.^.l.I p ",
"g L =.6.6.3.3.3.3.6.7.:.c 2 6 6 7 4 * * 4 7 6 6 6 4 $ & 4 7 4 0 v v b 4 3 & 2 4 6 6 0 4 1 * 1 N i.i.v h :.7.6.3.3.6.3.6.s.&.L s ",
"s J +.>.=.=.=.=.=.>.>.O.j 2 6 7 7 4 * * 4 7 6 6 6 7 j j 7 6 6 6 4 4 6 4 & 8 c n 0 4 6 4 * * 1 n J.i.v h X.>.>.=.=.=.=.=.>.%.J s ",
"s L %.>.;.>.=.;.>.1.1.@.l 2 9 6 7 5 * * 4 7 7 2 < x 9.q.n 2 4 6 6 6 7 4 & k 9.9.x , 6 4 * * 1 N J.J.v i o.1.1.=.=.=.=.=.2.%.L C ",
"s L %.2.2.>.>.>.=.2.1.#.l 4 6 7 7 6 * * 4 7 6 7 x [ r.9.n 4 6 6 6 6 6 4 $ j 9.i.[ x t 2 * * 1 n 9.0.x k @.1.2.=.=.,.=.2.2.%.D a ",
"C L %.2.;.>.2.;.;.1.1.@.c 2 6 9 7 4 * * 4 6 2 n q.r.V h 7 4 6 6 6 6 6 4 * 1 h [ u.9.n 1 * * 5 t v v q l #.1.2.>.>.=.=.;.2.%.L C ",
"s L %.2.2.2.;.2.2.2.4.@.l 2 6 6 7 6 * * 6 6 2 n r.9.e o 2 0 6 6 7 9 7 5 * * , x 9.u.n 1 * * 6 4 4 , 2 c @.4.2.;.>.2.2.2.2.%.F a ",
"s L %.4.2.2.2.2.2.4.5.#.l 4 9 6 7 4 * * 4 7 6 r n m 3 * 5 6 7 6 6 7 6 4 > * 4 t v n t 5 * * 4 7 6 4 4 c #.4.4.2.2.2.2.2.3.%.L C ",
"C S X.*.%.-.+.%.%.%.*.T k 2 4 6 6 4 * * 4 9 6 6 2 1 * * 4 7 6 6 6 6 0 4 * * 4 6 2 2 7 4 * * 6 7 6 9 4 k X.*.%.%.-.%.%.%.%...D C ",
"C C S S S S S S S S J g 8 2 2 2 4 1 * * 6 7 7 6 6 4 * * 4 7 7 6 6 7 7 4 * * 4 6 6 4 6 4 3 * 4 7 6 7 9 i g S S S S S S S S S C C ",
"C S P I I I P I I P P G M b b v n v > * 4 7 6 7 7 4 * * 4 7 6 7 6 7 7 4 3 > 4 7 7 7 7 4 > > 4 7 6 9 2 h H U P I I I I I I P S C ",
"s P a.F.A.B.B.B.B.B.A.x.8.} } | r.0.h & 5 7 6 9 6 6 * * 4 6 7 6 7 6 7 4 > > 6 7 6 7 6 4 > 3 4 7 6 6 2 c w.F.A.N.B.B.N.A.F.a.P a ",
"p P l.~.T.E.E.Y.E.T.W.F.x.e.y.Z.L.i.l & 4 6 6 6 r 6 * * 4 0 6 6 6 6 7 6 1 * 4 7 6 6 7 4 * * 4 7 9 4 2 B z.!.Q.E.E.E.E.E.~.l.P p ",
"s L &.7.6.3.3.6.3.3.6.3.e.t.K.L./.i.j # 4 0 6 6 7 5 * * 6 7 7 6 7 6 6 4 * * 4 7 6 7 7 4 * * 4 7 7 6 2 c :.7.6.3.3.3.3.6.s.&.P s ",
"C J %.>.=.=.=.&.=.=.>.*.E | q.u.i.| h * 3 6 6 6 7 4 * * 4 6 6 7 6 6 6 4 * * 5 7 7 4 7 4 * * 4 7 6 6 4 l O.1.=.=.=.*.>.=.>.+.L s ",
"C L +.>.>.=.=.=.=.>.1.@.B t m m n b > * 3 6 6 6 6 5 * * 5 6 4 4 6 4 6 4 * * 5 7 4 4 7 5 * * 4 6 4 2 2 c @.1.1.=.;.=.;.>.>.%.L C ",
"a D -.2.>.=.2.=.=.1.4.#.c 9 q 9 9 6 * 1 0 y t t y 0 1 * t y y t t y y r 3 * 0 y y t y 0 * * 0 y 0 0 q c @.4.1.>.>.2.>.>.4.%.J g ",
"C L %.2.,.=.=.1.1.>.1.#._ W ^ ^ / Q 3 3 W ! ( ( ( Q 3 3 ~ ( / ! / / ( ~ 3 1 ~ ( / ( ( Q 3 3 Q ( ( ^ ^ _ #.1.2.>.>.>.;.2.>.%.J s ",
"C L %.2.2.>.;.=.=.1.1.$.` ' ) ) ) ! 3 3 ! ) ) ) ] ! 3 3 ! ] ) ) ) ] ] ! 5 5 ! ] ) ] ] / 3 3 ! ] ] ] ' ` $.1.>.>.;.2.>.>.2.%.L s "
};
