/* XPM */
static char *xpm_[] = {
/* columns rows colors chars-per-pixel */
"64 64 172 2 ",
"   c #401E19",
".  c #411D17",
"X  c #41221E",
"o  c #55271E",
"O  c #4A2925",
"+  c #472522",
"@  c #522720",
"#  c #552A24",
"$  c #5A2B25",
"%  c #572E2A",
"&  c #5A2E29",
"*  c #5E332E",
"=  c #4D373B",
"-  c #4C3639",
";  c #523232",
":  c #5D3C3D",
">  c #5B3330",
",  c #64322D",
"<  c #6B342E",
"1  c #643731",
"2  c #693732",
"3  c #643833",
"4  c #6C3A35",
"5  c #633C3C",
"6  c #6F3D38",
"7  c #603738",
"8  c #713A33",
"9  c #723D38",
"0  c #763A33",
"q  c #70332B",
"w  c #73413C",
"e  c #79423C",
"r  c #5B3E41",
"t  c #663E40",
"y  c #3A465D",
"u  c #3D495F",
"i  c #3F4B60",
"p  c #5E4044",
"a  c #5A454D",
"s  c #4C4C5E",
"d  c #694443",
"f  c #6B4749",
"g  c #6D4A4A",
"h  c #684543",
"j  c #744B45",
"k  c #744D4B",
"l  c #784E4A",
"z  c #754944",
"x  c #7B524D",
"c  c #6E5153",
"v  c #7C5552",
"b  c #745254",
"n  c #414D64",
"m  c #435066",
"M  c #4D5165",
"N  c #45526A",
"B  c #4A566E",
"V  c #4D596F",
"C  c #5B5A6A",
"Z  c #595666",
"A  c #475771",
"S  c #4A5770",
"D  c #4C5971",
"F  c #515D74",
"G  c #556176",
"H  c #546379",
"J  c #5E647B",
"K  c #64667E",
"L  c #686274",
"P  c #7E797F",
"I  c #934A3F",
"U  c #854842",
"Y  c #8F4E47",
"T  c #844640",
"R  c #924D45",
"E  c #914F48",
"W  c #935049",
"Q  c #9F574E",
"!  c #8A5959",
"~  c #945F5F",
"^  c #A15348",
"/  c #A25850",
"(  c #837875",
")  c #8E827E",
"_  c #91817F",
"`  c #5C6B87",
"'  c #666D86",
"]  c #6A6E87",
"[  c #6B6F88",
"{  c #62718F",
"}  c #6E718A",
"|  c #72738C",
" . c #7A788B",
".. c #647492",
"X. c #6E7D97",
"o. c #667999",
"O. c #6D7E9E",
"+. c #6B7491",
"@. c #7A7B92",
"#. c #707E9A",
"$. c #707B95",
"%. c #6E7EA0",
"&. c #77849E",
"*. c #78869F",
"=. c #6E82A3",
"-. c #7182A3",
";. c #7C8AA5",
":. c #7286A9",
">. c #7389AC",
",. c #7D8CAA",
"<. c #7D91B1",
"1. c #8A8383",
"2. c #938381",
"3. c #9A8D8B",
"4. c #998886",
"5. c #9E918F",
"6. c #8C8A99",
"7. c #8B8896",
"8. c #8C9294",
"9. c #9E9492",
"0. c #94999B",
"q. c #929797",
"w. c #A49D9C",
"e. c #A6A09F",
"r. c #838DA1",
"t. c #808FAC",
"y. c #8693AE",
"u. c #8795AE",
"i. c #8794AF",
"p. c #8390A9",
"a. c #8995AA",
"s. c #8F9AAE",
"d. c #8D98AE",
"f. c #9795A5",
"g. c #9298A7",
"h. c #8996B1",
"j. c #8996B1",
"k. c #8B98B3",
"l. c #8C9AB3",
"z. c #8D9AB5",
"x. c #8F9CB4",
"c. c #8E9CB7",
"v. c #919EB6",
"b. c #959FB2",
"n. c #929FBB",
"m. c #909EB9",
"M. c #9FA5A5",
"N. c #96A0B5",
"B. c #95A1BA",
"V. c #94A2BD",
"C. c #97A5BB",
"Z. c #9AA4B9",
"A. c #9DA8BE",
"S. c #9EA8BA",
"D. c #A9A4A3",
"F. c #A6AAAA",
"G. c #B1B7B7",
"H. c #B3BBBC",
"J. c #96A3C0",
"K. c #97A5C1",
"L. c #9FAAC0",
"P. c #9CAAC8",
"I. c #A4AEC2",
"U. c #A3AEC4",
"Y. c #A2AEC4",
"T. c #A6B0C4",
"R. c #A3B0C6",
"E. c #A5B5CD",
"W. c #ABB5C9",
"Q. c #A8B4CA",
"!. c #B8C0C1",
"~. c None",
/* pixels */
"~.~.~.~.~.~.~.~.~.~.~.~.~.~.~.~.~.~.~.~.~.~.~.~.~.~.~.~.~.~.~.~.~.~.~.~.~.~.~.~.~.~.~.~.~.~.~.~.~.~.~.~.~.~.~.~.~.~.~.~.~.~.~.~.",
"~.~.~.~.~.~.~.~.~.~.~.~.~.~.~.~.~.~.~.~.~.~.~.~.~.~.~.~.~.~.~.~.~.~.~.~.~.~.~.~.~.~.~.~.~.~.~.~.~.~.~.~.~.~.~.~.~.~.~.~.~.~.~.~.",
"~.~.~.~.~.~.~.~.~.~.~.~.~.~.~.~.~.~.~.~.~.~.~.~.~.~.~.~.~.~.~.~.~.~.~.~.~.~.~.~.~.~.~.~.~.~.~.~.~.~.~.~.~.~.~.~.~.~.~.~.~.~.~.~.",
"~.~.~.~.~.~.~.~.~.~.~.~.~.~.~.~.~.~.~.~.~.~.~.~.~.~.~.~.~.~.~.~.~.~.~.~.~.~.~.~.~.~.~.~.~.~.~.~.~.~.~.~.~.~.~.~.~.~.~.~.~.~.~.~.",
"~.~.~.~.~.~.~.~.~.~.~.~.~.~.~.~.~.~.~.~.~.~.~.~.~.~.~.~.~.~.~.~.~.~.~.~.~.~.~.~.~.~.~.~.~.~.~.~.~.~.~.~.~.~.~.~.~.~.~.~.~.~.~.~.",
"~.~.~.~.~.~.~.~.~.~.~.~.~.~.~.~.~.~.~.~.~.~.~.~.~.~.~.~.~.~.~.~.~.~.~.~.~.~.~.~.~.~.~.~.~.~.~.~.~.~.~.~.~.~.~.~.~.~.~.~.~.~.~.~.",
"~.~.~.~.~.~.~.~.~.~.~.~.~.~.~.~.~.~.~.~.~.~.~.~.~.~.~.~.~.~.~.~.~.~.~.~.~.~.~.~.~.~.~.~.~.~.~.~.~.~.~.~.~.~.~.~.~.~.~.~.~.~.~.~.",
"~.~.~.~.~.~.~.~.~.~.~.~.~.~.~.~.~.~.~.~.~.~.~.~.~.~.~.~.~.~.~.~.~.~.~.~.~.~.~.~.~.~.~.~.~.~.~.~.~.~.~.~.~.~.~.~.~.~.~.~.~.~.~.~.",
"~.~.~.~.~.~.~.~.~.~.~.~.~.~.~.~.~.~.~.~.~.~.~.~.~.~.u.n.k.u.u.u.u.u.u.k.n.u.~.~.~.~.~.~.~.~.~.~.~.~.~.~.~.~.~.~.~.~.~.~.~.~.~.~.",
"~.~.~.~.~.~.~.~.~.~.~.~.~.~.~.~.~.~.~.~.~.~.~.~.~.~.u.P.J.n.n.n.n.n.n.J.P.u.~.~.~.~.~.~.~.~.~.~.~.~.~.~.~.~.~.~.~.~.~.~.~.~.~.~.",
"~.~.~.~.~.~.~.~.~.~.~.~.~.~.~.~.~.~.~.~.~.~.~.~.~.~.h.V.c.k.j.l.k.k.k.c.J.h.~.~.~.~.~.~.~.~.~.~.~.~.~.~.~.~.~.~.~.~.~.~.~.~.~.~.",
"~.~.~.~.~.~.~.~.~.~.~.~.~.~.~.~.~.~.~.~.~.~.~.~.~.~.t.m.h.j.i.y.i.i.i.k.n.p.~.~.~.~.~.~.~.~.~.~.~.~.~.~.~.~.~.~.~.~.~.~.~.~.~.~.",
"~.~.~.~.~.~.~.~.~.~.~.~.~.~.u.n.k.i.i.u.u.h.l.&.D F ;.h.h.y.y.y.i.y.y.h.h.;.D D *.l.j.y.y.u.i.k.n.u.~.~.~.~.~.~.~.~.~.~.~.~.~.~.",
"~.~.~.~.~.~.~.~.~.~.~.~.~.~.u.P.J.n.n.n.n.V.K.r.F F r.n.v.v.l.v.x.l.v.v.b.;.F F t.K.C.n.n.n.n.J.P.u.~.~.~.~.~.~.~.~.~.~.~.~.~.~.",
"~.~.~.~.~.~.~.~.~.~.~.~.~.~.h.J.c.k.k.l.k.l.n.;.V F d.W.I.I.I.I.I.Y.I.I.W.s.F D ;.v.l.l.l.k.k.c.J.h.~.~.~.~.~.~.~.~.~.~.~.~.~.~.",
"~.~.~.~.~.~.~.~.~.~.~.~.~.~.t.n.k.i.i.i.i.h.j.*.B F a.Y.L.A.A.K.L.A.A.L.I.a.F B &.l.h.y.i.i.i.h.n.p.~.~.~.~.~.~.~.~.~.~.~.~.~.~.",
"u F *.l.j.i.u.u.i.h.k.&.D D ;.h.j.y.y.y.y.y.j.&.V B $.t.,.;.;.;.;.;.,.,.t.$.B V *.j.h.i.y.y.i.h.l.*.D V &.l.d.i.y.y.u.h.l.;.D u ",
"n H t.K.C.n.n.n.n.C.K.t.F F r.n.v.l.v.l.v.v.n.r.F N { O.O.O.O.O.O.O.O.#.%.{ N F r.n.v.l.l.v.l.b.B.;.F F t.J.C.m.n.n.n.J.K.t.H n ",
"i F ;.v.l.j.j.l.k.l.l.;.D F s.W.I.I.I.I.I.I.W.s.F N ..-.O.O.O.#.O.O.#.%.%...N F s.W.I.I.I.I.I.T.W.s.F D ;.v.v.j.l.k.k.l.v.;.F n ",
"u F -.l.h.i.i.j.j.h.l.&.V F a.Y.Y.A.A.A.A.Y.I.a.F N ..-.%.O.%.%.O.%.%.%.-...N F a.Y.Y.A.A.L.A.A.Y.a.F V *.j.j.i.i.i.i.h.j.&.F u ",
"u F *.j.h.y.y.y.y.i.h.&.V B X.,.,.:.;.;.;.;.,.X.B N ..-.-.#.%.%.%.%.%.-.%...N D #.t.,.;.;.;.>.,.t.X.V V &.j.i.i.y.y.y.j.j.-.F u ",
"u F r.n.v.v.v.l.v.v.B.r.F N ..%.O.O.%.O.O.O.%.{ B S o.-.-.=.-.-.%.%.=.-.:.o.D B { %.O.O.O.O.o.O.%.{ N F r.n.v.l.l.v.l.v.B.r.F u ",
"y F d.W.I.I.I.I.Y.I.W.s.F N ..%.O.O.%.#.%.%.%...A A o.>.:.-.:.:.=.:.-.:.>.o.S S ..-.O.O.X.O.O.=.%.{ N F s.W.T.I.I.I.I.I.W.s.F u ",
"u G a.Y.Y.A.A.A.A.Y.I.a.F N o.-.-.%.-.-.-.%.:...M M J } ] ] [ [ } ] } ] ] J s M ..:.%.%.=.-.-.=.:.o.N F a.I.Y.A.A.A.A.Y.I.a.F u ",
"i D X.,.;.;.;.;.;.>.,.X.D A o.>.:.:.:.:.:.:.>.+.a ; - = r r p r p p p r = - ; a +.>.>.:.:.:.=.:.:.o.S D O.,.;.;.;.,.;.,.,.#.D u ",
"i S ..%.O.O.O.o.%.%.%.{ M s K } [ ] ' ' ' } +.L : o .   @ % $ # # # % @   . o : L } } { ' ' } } } K s M { %.%.O.o.O.O.O.%.{ B n ",
"n D ..%.#.O.O.O.%.%.-.[ a ; : h p r = = : p p : > # X X # & & & & % & # X X # > : p p : = = r p p r ; a ] -.%.%.#.O.O.%.%...D i ",
"n D ..-.-.-.%.-.%.-.>.[ r o @ # $ @ . . $ & $ & * % + O & * * * * * * & + O % * & $ & # . . o # $ # # r ] >.%.&.%.-.%.-.-...S i ",
"u D o.:.-.-.-.-.-.:.:.[ p # $ $ & # X + * 2 2 2 4 3 * % 3 3 3 4 4 3 3 2 * > 3 3 2 2 2 , + X O * $ # # r } >.:.-.-.-.-.-.;.o.D n ",
"n B ' ........} { o.o.K : $ * & * % + O 3 9 9 4 6 4 * 1 3 9 4 6 9 6 9 4 * * 3 9 6 9 w 1 O O & * * * $ r K o...........+...` N n ",
"n n N N N N N N N N B M 7 < < , , & & * 3 9 4 9 4 3 1 * 3 6 4 4 6 4 6 3 * * 4 9 4 4 9 3 * % 2 4 3 2 2 5 s N N N N N N N N N n n ",
"n m F G G F G G F G H C c j z k v k 3 , 3 9 4 4 6 3 * * 4 9 4 6 4 4 9 3 * * 2 6 4 6 9 3 * * 3 9 9 9 0 d C H G G G F G G G F N n ",
"n F r.Z.N.b.b.b.b.N.N.g.1.( ( 1.w._ h $ 2 9 4 9 6 4 * * 2 6 4 6 4 6 6 2 * * 4 6 9 6 6 2 * * 2 6 6 4 < x 6.V.N.N.b.b.v.N.Z.r.F i ",
"u F j.E.I.Y.Y.P.Y.R.R.S.0.8.q.M.H.e.g $ , 4 4 3 4 4 * * 2 6 4 4 4 4 9 3 * * 2 6 3 4 4 2 * * 3 6 4 2 < b f.E.R.Y.Y.Y.Y.Y.W.d.F y ",
"s S X.t.,.,.;.;.,.;.;.;.8.0.F.G.!.w.g $ 2 4 < < 4 4 * * 3 9 4 4 4 4 6 2 * * 3 6 , < 6 4 * 1 3 6 4 4 < k @.<.,.,.;.,.,.;.t.X.D i ",
"i A { O.O.O.O.O.O.O.X.$. .) 5.w.w.) d $ 1 w x x w 3 * * 2 6 4 6 6 4 6 2 * , 2 d x l w 2 * * 4 6 9 4 < f ] =.%.X.O.o.O.O.%...S i ",
"i S ..%.O.O.#.O.O.O.=.} b z x x x j 3 * , x 5.5.x , * * 3 6 6 4 4 4 9 3 * * , x 5.5.x , * * 3 6 4 2 8 f } -.O.O.%.%.#.%.-...S n ",
"i S ..-.-.%.%.-.O.=.=.} d q < , < , * * , v 5.5.x , * * 2 6 6 4 4 4 9 4 * * , x 5.5.x , * * 2 6 9 2 < f } -.=.-.%.#.-.%.-...S i ",
"n D ..-.%.#.=.%.O.=.:.} g < 2 < 4 2 * * 2 w x x w 2 * * 2 6 4 6 4 4 6 3 * * 2 w x x w 3 * * 4 4 < < < f } =.=.O.#.%.#.-.-...S n ",
"n D ..-.-.-.#.#.-.-.:.} g < 8 4 6 3 * * 3 6 , < 4 2 * * 2 9 4 4 4 9 9 3 * , 3 4 < < 4 2 * * , w l l 8 f | :.-.%.-.-.%.-.-...D u ",
"s A ..:.-.-.-.-.=.:.:.} g 4 8 4 4 2 * * 4 6 2 2 6 3 * * 4 6 4 4 4 9 4 3 * * 3 9 4 4 4 3 * * , j 4.4.z d } >.:.=.-.-.-.-.;.o.D s ",
"i B ` o.+...{ ......o.K d 8 4 4 w 2 * * 4 6 6 6 6 2 * * 3 6 4 6 4 4 9 4 * * 3 9 4 4 9 4 * * , ! D.D.x d K ............+...` N i ",
"n m N N N N N N N N N s d 4 4 4 4 2 * * 3 6 4 6 4 3 * * 2 6 4 6 4 4 4 3 * * 3 4 4 4 4 3 * & , x e.e.v 7 s N N N N N N N B N i N ",
"i N F G G G G G G G H C d 8 4 4 6 3 * * 2 6 4 4 w 4 * * 4 6 6 3 4 4 9 4 * , 4 9 9 4 9 4 * * , ! w.w.x 7 Z H G G F F G G G D B i ",
"i F r.Z.N.b.b.b.N.N.C.6.k < 4 4 6 3 * * 2 6 4 4 6 2 * * 3 6 2 6 4 9 9 3 , * 3 9 4 4 6 2 * * , x w.w.l z 7.C.v.b.b.b.b.b.Z.r.F u ",
"y F d.Q.I.I.Y.I.P.R.E.f.x < 4 4 6 4 * * 4 6 6 4 6 2 * * 2 4 w 4 4 4 9 3 * * 3 6 4 4 9 4 * & & ! e.w.j z f.E.Y.Y.Y.Y.Y.R.Q.d.G y ",
"i D #.t.,.,.,.,.;.,.<.@.k < 4 4 6 2 * * 3 6 4 4 6 3 * * 2 w 6 4 4 9 4 3 * * 3 6 4 4 9 3 * * , v w.w.l d @.<.,.,.,.;.;.,.,.X.D i ",
"n D { O.O.O.O.o.O.%.%.] g < 4 6 9 3 * * 2 6 4 6 w 2 * * 3 4 4 4 4 4 9 2 * * 4 9 9 4 4 2 * * , v e.D.U d ' %.%.o.O.%.O.%.%...S i ",
"i S ..%.#.#.%.#.%.-.=.} g 8 2 9 w 1 * * 3 6 w 2 6 2 * * 2 w 2 6 4 4 9 3 , * 3 6 4 4 9 4 * & & ! D.D.x t ] =.=.O.O.O.O.#.-...B s ",
"i S ..-.-.%.%.%.O.=.=.} g 2 2 4 w 2 * * 2 6 4 4 2 3 * * 2 6 4 4 4 4 9 4 * * 4 4 4 4 4 3 * * < l 3.4.j d } =.&.O.%.O.O.-.-.o.A i ",
"n D ..-.#.%.-.#.#.=.=.| f 8 9 4 2 2 * * 2 4 4 4 1 , * * 3 6 w 2 6 4 6 3 * * 3 6 < < 6 3 * * 4 w l j 9 f } -.=.O.=.O.%.#.-...A i ",
"u F ..-.-.-.%.%.-.-.:.} g q 2 4 w 2 * * 2 w 2 w x x 3 * 1 w 2 2 4 4 6 3 * * 2 w x x w 2 * * 3 4 2 < < g } :.-.-.#.-.-.-.-...S i ",
"s A ..;.-.-.-.-.-.:.:.| k 2 4 4 w 2 * * 2 4 < x 5.5.f & 1 w 2 w 6 4 9 2 * * , x 3.3.x < * * 2 4 4 2 q k | >.-.-.-.-.-.-.:.o.D i ",
"i N ` ................K f < 8 2 4 1 * * 2 4 < l 5.5.f $ 2 2 w 2 4 4 9 3 * * , x w.3.x , * * 3 6 4 8 2 f K o.o.....+.{ ....' B i ",
"n N N N N N N N N N N M 5 q < < 1 , * * 2 w 4 w x l 3 * 2 2 w 2 4 9 9 3 * * 2 9 x l w 2 * * 3 4 8 9 8 t M N N N N N N N N N m n ",
"n N F G G G F G G G H C c z z k v j 3 * 2 2 4 4 , , * * 2 w 2 w 4 4 9 3 * * 4 4 2 < 9 3 * , 4 9 4 4 2 d Z H F F G G G G G F N n ",
"i F r.Z.N.b.b.v.b.v.N.g.1.( ( 1.w._ w & 2 w 4 4 6 2 * * 2 4 9 4 4 4 9 2 * * 3 9 4 2 9 2 * * 3 9 4 2 < k 6.V.N.N.N.b.b.b.Z.r.F i ",
"y F d.W.I.Y.Y.Y.Y.Y.R.Z.0.8.q.D.G.e.g # , w 2 w 6 2 * * 3 6 4 4 4 9 9 3 * * 2 9 4 4 9 2 * * 3 6 4 4 < b f.E.R.Y.Y.Y.Y.I.W.d.F y ",
"i D X.<.,.,.;.;.,.,.,.;.8.q.F.G.W.e.f $ , w 1 4 6 2 * * 4 9 6 4 4 4 9 3 * * 3 9 9 4 4 4 * * 3 6 4 9 < k @.<.,.;.;.,.,.t.t.#.D n ",
"n S { %.O.O.O.O.O.o.O.X. .) 5.w.w._ h & , w 2 4 4 2 * 1 3 4 4 4 4 4 4 2 * * 2 6 4 4 4 3 * * 4 6 4 2 2 g ] =.O.O.O.o.O.o.%.{ B n ",
"i D { %.%.O.O.O.O.=.=.} c w k x x j > * 1 4 4 3 4 2 * * 2 4 3 3 4 4 3 3 * 1 3 4 3 4 4 1 * * 2 4 4 8 < f [ =.=.O.%.#.#.%.%...D n ",
"i S +.-.%.&.%.O.=.=.=.| j 0 8 8 0 2 * 1 9 e e w w 9 > * 9 e e e e e e 9 * > 9 e e w e 9 * 1 9 e 9 9 0 k | =.-.%.#.-.%.%.-...S i ",
"n D ..-.%.%.-.%.X.=.=.| ! I R Y R U 1 1 U E E W W U 3 1 U W E E E E W U 1 1 U W W W W U 1 1 U E E R R ! | =.-.%.%.%.%.-.-...D i ",
"i D ..-.-.#.O.#.O.=.=. .~ ^ Q Q / Y 1 2 E / Q / / E 3 1 Y / Q Q Q Q Q Y 1 2 Y / Q Q / Y 1 1 E / / / ^ ~ @.=.%.#.-.%.#.%.-...S i "
};
