/* XPM */
static char *xpm_[] = {
/* columns rows colors chars-per-pixel */
"64 64 167 2 ",
"   c #3E1C16",
".  c #3F1E19",
"X  c #3F221F",
"o  c #40211D",
"O  c #432421",
"+  c #4B2925",
"@  c #40292A",
"#  c #482724",
"$  c #502520",
"%  c #522A25",
"&  c #5B2B25",
"*  c #542D29",
"=  c #592E2A",
"-  c #5D332E",
";  c #473336",
":  c #493234",
">  c #4B363A",
",  c #63322D",
"<  c #6B352E",
"1  c #643631",
"2  c #6A3731",
"3  c #653833",
"4  c #6C3B36",
"5  c #643D3E",
"6  c #6F3D38",
"7  c #733B34",
"8  c #723E38",
"9  c #763A33",
"0  c #6E322A",
"q  c #76413B",
"w  c #79423C",
"e  c #4A3D45",
"r  c #3A465D",
"t  c #3D495F",
"y  c #3F4B60",
"u  c #5F4144",
"i  c #46495B",
"p  c #4D4D5F",
"a  c #654243",
"s  c #694343",
"d  c #6A4749",
"f  c #6C4A4B",
"g  c #744A45",
"h  c #744C4B",
"j  c #784F4A",
"k  c #764B45",
"l  c #7A514C",
"z  c #6E5254",
"x  c #7C5552",
"c  c #745455",
"v  c #414D64",
"b  c #494F63",
"n  c #435066",
"m  c #45526A",
"M  c #4A566E",
"N  c #4D596F",
"B  c #4F5162",
"V  c #585767",
"C  c #4A5770",
"Z  c #4C5971",
"A  c #515D74",
"S  c #5F5D70",
"D  c #556176",
"F  c #55637A",
"G  c #5D637A",
"H  c #65677E",
"J  c #7E797F",
"K  c #934A3F",
"L  c #854842",
"P  c #8F4E47",
"I  c #844640",
"U  c #924D45",
"Y  c #914F48",
"T  c #935049",
"R  c #9F574E",
"E  c #8A5959",
"W  c #945F5F",
"Q  c #A15348",
"!  c #A25850",
"~  c #847976",
"^  c #817775",
"/  c #8E827E",
"(  c #91817F",
")  c #5C6B87",
"_  c #666C85",
"`  c #6B6D86",
"'  c #696E88",
"]  c #666E88",
"[  c #61718E",
"{  c #6C718B",
"}  c #72738C",
"|  c #79778E",
" . c #647492",
".. c #6E7D97",
"X. c #67799A",
"o. c #6D7E9E",
"O. c #737A91",
"+. c #717E9A",
"@. c #7A7B92",
"#. c #6E7EA0",
"$. c #817C82",
"%. c #77849E",
"&. c #78869F",
"*. c #6E82A3",
"=. c #7182A3",
"-. c #7C8AA5",
";. c #7286A9",
":. c #7489AB",
">. c #7D8CAA",
",. c #758BB1",
"<. c #7E91B1",
"1. c #8A8283",
"2. c #938381",
"3. c #998987",
"4. c #878A96",
"5. c #8B8B97",
"6. c #8C9294",
"7. c #9E9593",
"8. c #949999",
"9. c #929796",
"0. c #A49D9C",
"q. c #A6A09F",
"w. c #838DA1",
"e. c #808FAC",
"r. c #8794AE",
"t. c #8995AA",
"y. c #8F9AAE",
"u. c #8D98AE",
"i. c #9594A5",
"p. c #9298A7",
"a. c #8996B1",
"s. c #8996B1",
"d. c #8B98B3",
"f. c #8C9AB3",
"g. c #8D9AB5",
"h. c #8F9CB4",
"j. c #8E9CB7",
"k. c #959FB2",
"l. c #919EB6",
"z. c #959FB2",
"x. c #929FBB",
"c. c #909EB9",
"v. c #9FA5A5",
"b. c #96A1B5",
"n. c #95A1BA",
"m. c #94A2BD",
"M. c #9AA5BA",
"N. c #9DA8BE",
"B. c #9EA8BA",
"V. c #A9A4A3",
"C. c #A6A8A7",
"Z. c #B1B7B7",
"A. c #B3BBBC",
"S. c #96A3C0",
"D. c #97A5C1",
"F. c #9FAAC0",
"G. c #9CAAC8",
"H. c #A4AEC2",
"J. c #A3AEC4",
"K. c #A2ADC4",
"L. c #A6B0C4",
"P. c #A3B0C6",
"I. c #A6B5CD",
"U. c #ABB5C9",
"Y. c #A8B4CA",
"T. c #B8C0C1",
"R. c None",
/* pixels */
"R.R.R.R.R.R.R.R.R.R.R.R.R.R.R.R.R.R.R.R.R.R.R.R.R.R.R.R.R.R.R.R.R.R.R.R.R.R.R.R.R.R.R.R.R.R.R.R.R.R.R.R.R.R.R.R.R.R.R.R.R.R.R.R.",
"R.R.R.R.R.R.R.R.R.R.R.R.R.R.R.R.R.R.R.R.R.R.R.R.R.R.R.R.R.R.R.R.R.R.R.R.R.R.R.R.R.R.R.R.R.R.R.R.R.R.R.R.R.R.R.R.R.R.R.R.R.R.R.R.",
"R.R.R.R.R.R.R.R.R.R.R.R.R.R.R.R.R.R.R.R.R.R.R.R.R.R.R.R.R.R.R.R.R.R.R.R.R.R.R.R.R.R.R.R.R.R.R.R.R.R.R.R.R.R.R.R.R.R.R.R.R.R.R.R.",
"R.R.R.R.R.R.R.R.R.R.R.R.R.R.R.R.R.R.R.R.R.R.R.R.R.R.R.R.R.R.R.R.R.R.R.R.R.R.R.R.R.R.R.R.R.R.R.R.R.R.R.R.R.R.R.R.R.R.R.R.R.R.R.R.",
"R.R.R.R.R.R.R.R.R.R.R.R.R.R.R.R.R.R.R.R.R.R.R.R.R.R.R.R.R.R.R.R.R.R.R.R.R.R.R.R.R.R.R.R.R.R.R.R.R.R.R.R.R.R.R.R.R.R.R.R.R.R.R.R.",
"R.R.R.R.R.R.R.R.R.R.R.R.R.R.R.R.R.R.R.R.R.R.R.R.R.R.R.R.R.R.R.R.R.R.R.R.R.R.R.R.R.R.R.R.R.R.R.R.R.R.R.R.R.R.R.R.R.R.R.R.R.R.R.R.",
"R.R.R.R.R.R.R.R.R.R.R.R.R.R.R.R.R.R.R.R.R.R.R.R.R.R.R.R.R.R.R.R.R.R.R.R.R.R.R.R.R.R.R.R.R.R.R.R.R.R.R.R.R.R.R.R.R.R.R.R.R.R.R.R.",
"R.R.R.R.R.R.R.R.R.R.R.R.R.R.R.R.R.R.R.R.R.R.R.R.R.R.R.R.R.R.R.R.R.R.R.R.R.R.R.R.R.R.R.R.R.R.R.R.R.R.R.R.R.R.R.R.R.R.R.R.R.R.R.R.",
"R.R.R.R.R.R.R.R.R.R.R.R.R.R.R.R.R.R.R.R.R.R.R.R.R.R.r.c.d.r.r.r.r.r.r.j.c.r.R.R.R.R.R.R.R.R.R.R.R.R.R.R.R.R.R.R.R.R.R.R.R.R.R.R.",
"R.R.R.R.R.R.R.R.R.R.R.R.R.R.R.R.R.R.R.R.R.R.R.R.R.R.r.G.S.x.x.x.m.c.c.m.G.r.R.R.R.R.R.R.R.R.R.R.R.R.R.R.R.R.R.R.R.R.R.R.R.R.R.R.",
"R.R.R.R.R.R.R.R.R.R.R.R.R.R.R.R.R.R.R.R.R.R.R.R.R.R.r.D.l.s.d.d.d.s.d.c.m.s.R.R.R.R.R.R.R.R.R.R.R.R.R.R.R.R.R.R.R.R.R.R.R.R.R.R.",
"R.R.R.R.R.R.R.R.R.R.R.R.R.R.R.R.R.R.R.R.R.R.R.R.R.R.e.c.s.s.r.r.s.r.s.s.l.r.R.R.R.R.R.R.R.R.R.R.R.R.R.R.R.R.R.R.R.R.R.R.R.R.R.R.",
"R.R.R.R.R.R.R.R.R.R.R.R.R.R.r.m.d.r.r.r.r.d.g.%.Z A -.d.r.r.r.r.r.r.r.r.d.&.Z Z &.j.s.r.r.r.r.j.c.r.R.R.R.R.R.R.R.R.R.R.R.R.R.R.",
"R.R.R.R.R.R.R.R.R.R.R.R.R.R.r.G.S.x.x.x.x.m.m.e.A A w.l.l.j.l.g.g.j.l.l.x.w.A A e.S.m.c.m.m.x.S.G.r.R.R.R.R.R.R.R.R.R.R.R.R.R.R.",
"R.R.R.R.R.R.R.R.R.R.R.R.R.R.r.S.l.d.d.g.d.g.l.-.Z A y.U.H.H.H.H.H.H.H.L.U.y.A N -.j.j.s.s.j.s.j.m.r.R.R.R.R.R.R.R.R.R.R.R.R.R.R.",
"R.R.R.R.R.R.R.R.R.R.R.R.R.R.r.c.d.r.r.r.r.r.d.&.M A t.K.K.N.N.N.N.N.N.N.J.t.A N %.y.s.r.r.r.r.s.c.r.R.R.R.R.R.R.R.R.R.R.R.R.R.R.",
"t A &.g.s.r.r.r.r.d.g.&.N A &.d.s.r.r.r.e.r.d.%.N N ..e.>.-.>.-.-.-.-.e.e.+.M N %.d.r.r.r.e.r.r.j.&.N N %.g.u.r.r.r.r.s.j.&.A t ",
"v F e.S.m.n.c.m.x.x.m.e.A A w.x.l.g.l.g.l.l.x.w.A m [ o.o.X.X.o.#.X.o.+.#.[ m A w.x.l.l.l.l.l.l.n.-.A A e.S.x.x.x.x.c.n.S.e.F v ",
"y A -.l.j.s.g.s.d.j.l.-.C A u.U.H.H.H.H.H.L.U.y.A m [ *.#.#.+.#.#.o.+.#.#. .m A y.U.L.H.H.H.K.H.U.y.D Z -.l.j.d.g.d.d.j.l.-.A v ",
"t Z -.s.s.r.s.r.r.s.d.%.N A t.H.K.N.N.N.N.N.H.t.A m  .=.#.+.#.#.#.#.#.#.#. .m A t.K.N.N.N.N.N.K.H.t.A M %.d.r.r.r.r.s.s.s.%.A t ",
"t Z &.g.s.r.r.r.r.r.d.%.Z M ..e.-.-.-.-.-.>.>.+.C M  .=.=.o.o.#.+.#.#.=.=. .M Z +.e.-.-.-.>.-.>.>...N Z %.d.r.r.r.r.r.r.d.%.A t ",
"t A w.n.l.j.l.g.l.l.x.w.A m [ o.#.#.X.o.o.o.#.[ M Z  .;.=.=.=.#.#.#.;.=.=.X.Z m [ #.#.X.X.o.X.o.o. .m A w.x.l.l.g.l.l.l.x.w.A r ",
"r D y.U.L.H.N.H.H.H.U.y.A m  .=.#.#.+.#.#.+.#. .M Z X.:.;.;.;.;.;.=.;.;.:.X.Z Z  .#.#.+.o.o.o.o.=. .n A y.U.J.H.H.H.H.H.U.y.D r ",
"y A t.L.N.N.N.N.N.K.J.t.A m  .;.;.#.#.;.#.=.;. .b i G { _ _ _ _ _ _ _ _ ' G i b  .;.;.#.=.=.#.;.;. .m A t.J.K.N.N.N.N.K.J.r.A r ",
"y Z ..>.>.-.-.-.-.>.>.o.C C X.:.;.;.;.;.;.;.,. .e O ; > > > > > > > > > > ; @ e  .,.:.;.;.;.;.;.:.X.C C o.>.-.-.-.-.-.>.>...Z y ",
"y C  .#.o.o.X.#.X.#.#.[ b i G ' _ _ _ _ _ ] { S :         .       .           : S { ] _ _ _ _ _ ' G v b [ #.#...o.X.o.o.#.[ C v ",
"v Z  .#.#.+.+.#.o.o.;._ e @ : > > > : > > > > : @ . X . . X X . o X o X o o . O : > > > ; > > > > : O e ] ;.;.o.o.+.o.#.#. .C y ",
"v Z  .=.=.#.=.+.#.;.;._ :           .   .     . o X O O O X O O O o O o O o O o .         .           : _ ;.=.=.#.=.#.=.=. .C y ",
"t Z  .:.=.=.=.=.=.=.:.' >   . o X o X o o o o X o O O o O X o X X . O o O O X . . o o X X . X . o .   > ' :.=.=.=.=.=.=.-.X.Z v ",
"v M )  . . . . . . .X.G ; . o o O o X O O o o O O O O o O # @ # @ # # O o O O # O O O X O O O O O . . ; F X. . . . . . . .) m v ",
"v b m m m m m m m m C i @ o o X X X O X X X X O * * O # % * * * * * * * O O * * @ . X . X O O X o o . @ i C m m m m m m m m b v ",
"v n A D D D D D D F F B : o # # # O O O O # O # = * @ o * - - = - = - * O @ * * # O # O O O O # # # o ; B G D D D D A D D A m v ",
"v A w.M.l.k.k.l.b.b.M.4.d o % * * + O O * * * * = * O O * - = = * - = * O O * * * * * + O O + * * * $ a 4.D.n.l.k.k.k.b.M.w.A y ",
"r A d.Y.J.K.H.K.H.P.I.p.f % = - - & @ O * - 1 - - - @ + = - - - - - 1 * # # - - 1 , - = O O * - - = * d i.I.L.K.H.H.J.J.U.u.A r ",
"i Z +.e.e.>.-.>.>.>.<.O.u % = = - * O # 1 4 4 2 4 1 - = 3 3 2 2 3 3 4 1 * - 3 4 3 4 4 1 # O * - = & * e O.e.>.-.>.>.>.>.e.+.A y ",
"y C  .#.X...o.X.X.*.*.) q & & - = * # + 1 6 6 6 q 3 - - 3 q 6 4 6 6 8 4 1 - 3 6 4 8 8 2 + + * - 1 - & s ] *.#.o.X.o.X.o.#.[ C y ",
"y C  .#.o.o.o.o.*.*.*.` d , 0 , < , & = 4 6 4 4 4 4 - - 3 6 6 6 8 4 8 4 - - 4 6 4 8 4 3 = * 2 3 3 2 < d ` #.#.o.+.#.+.#.#.[ Z v ",
"y C  .=.=.o.#.%.o.*.*.} c w g k x h 3 - 2 6 4 4 4 3 - - 2 6 4 4 4 4 4 3 - - 3 6 4 4 6 3 1 1 4 8 8 4 9 f ' ;.=.#.=.#.#.#.;. .m v ",
"v Z  .=.=.o.o.o.o.o.*.+.| ~ ~ 1.7.2.s - 1 6 4 4 6 4 - - 2 6 4 4 4 4 6 3 - - 4 6 6 4 6 3 - - 4 4 4 4 < f } #.#.#.#.+.+.=.;. .Z v ",
"y A  .=.=.+.=.=.*.o.%.%.6.9.8.v.A.0.f & 1 6 6 4 6 4 - - 3 6 6 4 4 4 8 3 - - 3 6 4 4 6 4 - - 3 8 4 4 < f } ;.;.#.#.=.#.=.#. .C i ",
"y Z  .-.;.;.#.=.*.*.=.%.4.8.C.Z.T.0.f & 3 4 4 4 6 3 - - 4 6 6 4 8 4 8 3 - 1 3 6 4 4 8 3 - - 3 4 4 4 < f { :.=.;.;.=.=.=.-. .A v ",
"v m )  . . . . . . . .{ J / 7.0.q.1.s & 3 q 4 4 4 4 - - 3 6 4 4 4 4 8 3 - = 3 8 4 4 8 3 1 - 3 8 4 7 < d H X. . .[  . . . .) m v ",
"b v m m m m m n m m m B f k l l l h 1 - 1 4 4 4 4 3 - - 2 6 4 6 4 4 8 3 - 1 3 8 4 4 8 3 - - 4 4 < < < a p m m m m m m m m m b v ",
"v m A D D D D A D F F V a < , < < , - - 4 q 4 4 q 4 - - 4 6 4 4 4 4 8 3 - , 3 4 4 4 8 3 - - 3 q j j q a V F D A A D D D D A m v ",
"v A w.M.z.z.z.z.b.b.M.5.h 0 < 4 4 1 - - 2 6 4 4 6 3 - - 2 4 6 4 7 6 8 3 - - 3 8 4 8 8 4 = - 1 j 3.3.g g 5.n.b.k.k.k.z.l.M.w.A t ",
"r A d.Y.L.J.K.J.K.P.I.i.c < 4 4 4 4 - - 4 4 4 4 6 2 - - 2 6 4 4 4 4 8 3 - - 3 6 4 4 4 3 - - 1 x V.V.h g i.I.P.H.K.H.J.J.U.u.A r ",
"i Z +.e.>.>.>.>.:.>.<.@.h < < 6 4 4 - - 4 4 4 4 4 3 - - 4 6 4 4 4 4 6 4 - - 3 6 4 4 8 4 - , , x 0.0.j s | <.>.>.>.>.>.e.>.+.Z v ",
"y C [ o.o.o.X.o...o.*.` f < 4 4 4 4 - - 4 6 6 4 q 4 - - 3 4 6 4 6 4 4 3 , - 4 8 4 4 8 3 - - , L 0.0.j s _ #.o.o.X.o.X.#.#.[ M v ",
"y C  .#.+.#.#.#.#.*.*.{ f < 7 4 6 3 - - 4 6 4 4 6 2 - - 2 6 4 4 6 4 6 3 - - 4 4 6 4 6 3 , = , x 0.0.L d ` ;.*...o.o.o.+.;. .M y ",
"y C  .=.#.#.#.+.+.*.;.` f < 4 4 4 4 - - 3 6 4 4 6 3 - - 3 6 6 4 4 4 4 4 - - 3 6 4 4 4 4 - & , x 0.0.j s ` *.*.%.o.o.o.=.=. .C y ",
"v Z  .=.%.o.#.+.#.*.*.} h 2 4 4 6 2 - - 2 6 4 6 q 3 - , 4 6 4 4 4 4 6 3 , - 4 4 4 4 6 2 - - , E 0.0.l s ` ;.=.o.*.o.+.#.=. .Z y ",
"v A  .=.=.#.=.#.=.=.;.{ f < 2 7 6 4 - - 4 6 4 4 4 4 - - 2 8 4 4 4 4 6 4 - - 3 6 6 4 6 2 - - , x q.0.j s { *.=.*.o.=.=.=.=. .M v ",
"t N  .-.;.#.;.=.;.*.;.} f < 4 7 8 2 - - 2 6 4 4 4 3 - - 4 q 4 6 6 4 8 2 - - 4 4 4 7 6 4 - - , x V.V.l s } ;.;.=.=.=.=.=.=. .Z y ",
"v m )  . . . . .[  .X.H d < 2 4 4 1 - - 2 6 4 4 6 4 - - 3 4 4 4 4 4 6 4 - - 4 6 4 4 6 3 - - < j 3.3.k 5 H X. . . . . . .X._ M v ",
"b n n m m m m m m m m b 5 < < < 2 , - - 4 4 4 6 6 4 - - 3 6 4 4 4 4 4 4 - - 4 6 4 4 4 4 - - 3 8 j j 8 5 p m m m m m m m m n n n ",
"y m A F A F A S D D D S f k k h l h 1 - 3 6 4 6 4 3 - - 4 6 4 4 4 4 6 3 - - 3 6 4 4 6 2 - - 4 4 2 < 9 s V F D A D D D D D A m v ",
"v A w.M.b.k.l.l.b.k.b.p.1.~ ~ 1.8.2.s & 3 q 4 7 6 3 - - 2 4 4 4 4 4 6 3 - - 4 6 4 4 8 4 = 1 3 7 4 2 2 l 5.m.b.b.k.k.k.l.M.4.A y ",
"r A u.Y.J.H.H.K.H.H.P.B.8.6.9.v.A.0.f & 1 4 4 4 6 4 - 1 4 6 6 4 4 8 4 4 - - 2 6 4 4 6 3 - - 3 6 4 2 < c i.I.P.K.H.H.H.J.U.u.A y ",
"y Z +.e.>.>.-.-.-.>.>.-.6.9.C.Z.T.0.f & 1 6 4 4 6 3 - - 2 6 4 4 4 4 7 4 - - 3 6 4 4 8 3 - , 3 6 4 4 < h @.<.>.-.>.>.>.e.e.o.Z y ",
"v C  .#.X.o.o.o.o.X.#.X.| / 7.0.0./ q = 1 6 4 4 6 2 - - 3 4 4 4 4 4 4 3 - - 4 4 4 4 6 3 - - 4 4 4 2 2 d ' *.#...X.o.X.o.#.[ C y ",
"t N  .#.#.o.o.+.=.*.*.{ z q h l l f 1 - 3 6 3 4 4 3 - - 3 4 2 4 4 2 4 3 - - 4 4 4 3 4 3 - = 3 6 4 9 < d { *.*.o.#.+.+.#.#. .Z v ",
"v M  .=.=.+.#.#...*.*.} g 9 < 7 7 , - - 8 w q q q 8 , - 8 w q q q q w 8 - - 6 w w w w 8 1 1 8 w 8 8 9 h { ;.=.o.#.#.#.#.;. .Z t ",
"v Z  .=.*.#.+.o.*.*.*.} E K U Y Y K 1 1 L T T T T L 1 1 L T T Y Y T T L 1 1 L T Y Y Y I 1 1 I Y Y U U E } *.=.#.=.o.#.=.;. .Z i ",
"i Z  .=.+.=.#.*.+.o.*.| W Q R ! ! P 3 , P ! R R ! P 1 1 P ! R R R R ! P 1 3 P ! R ! ! P 1 1 Y ! ! ! Q W | *.#.#.*.+.+.#.#. .C y "
};
