/* XPM */
static char *xpm_[] = {
/* columns rows colors chars-per-pixel */
"64 64 155 2 ",
"   c #3D1C16",
".  c #3F1E18",
"X  c #3F221E",
"o  c #421F19",
"O  c #41221E",
"+  c #432421",
"@  c #492724",
"#  c #4B2925",
"$  c #522721",
"%  c #512B27",
"&  c #5A2C26",
"*  c #542D29",
"=  c #592F2A",
"-  c #5D322E",
";  c #4B363A",
":  c #4E383C",
">  c #553639",
",  c #5C3B3C",
"<  c #672E27",
"1  c #63322D",
"2  c #6B342E",
"3  c #643632",
"4  c #693731",
"5  c #623934",
"6  c #6C3B36",
"7  c #6F3D38",
"8  c #623939",
"9  c #703B34",
"0  c #713E39",
"q  c #71423D",
"w  c #4E3C41",
"e  c #5B3F42",
"r  c #663E40",
"t  c #3A465D",
"y  c #3D495F",
"u  c #3F4B60",
"i  c #4B4B5E",
"p  c #6A4344",
"a  c #6C4749",
"s  c #6D494A",
"d  c #644041",
"f  c #754B45",
"g  c #784B44",
"h  c #734C4B",
"j  c #794E4A",
"k  c #714746",
"l  c #7C524D",
"z  c #7C5552",
"x  c #725659",
"c  c #414D64",
"v  c #435066",
"b  c #45526A",
"n  c #4A566E",
"m  c #4D596F",
"M  c #565766",
"N  c #5A5867",
"B  c #4A5770",
"V  c #4C5971",
"C  c #525D74",
"Z  c #556176",
"A  c #55637A",
"S  c #586378",
"D  c #5C687D",
"F  c #7E6061",
"G  c #64667D",
"H  c #837977",
"J  c #8D817E",
"K  c #5C6B87",
"L  c #656B84",
"P  c #6A6E86",
"I  c #6C6E88",
"U  c #61718F",
"Y  c #6F718A",
"T  c #70738C",
"R  c #7C7A88",
"E  c #647492",
"W  c #6E7D97",
"Q  c #657898",
"!  c #6D7E9E",
"~  c #727B93",
"^  c #707E9A",
"/  c #7A7B92",
"(  c #6E7EA0",
")  c #847F84",
"_  c #76849D",
"`  c #78869F",
"'  c #7F889F",
"]  c #6E82A3",
"[  c #7282A3",
"{  c #7C8AA5",
"}  c #7386A8",
"|  c #7688AA",
" . c #7C8BAA",
".. c #7D91B2",
"X. c #8B8281",
"o. c #998886",
"O. c #968583",
"+. c #878E95",
"@. c #8B8997",
"#. c #8C8A99",
"$. c #9E9593",
"%. c #959A99",
"&. c #929694",
"*. c #A49D9C",
"=. c #A6A09F",
"-. c #838DA1",
";. c #808FAC",
":. c #8794AE",
">. c #8995AA",
",. c #8E99AE",
"<. c #9795A5",
"1. c #9899AA",
"2. c #8B97B3",
"3. c #8996B0",
"4. c #8B98B3",
"5. c #8B98B2",
"6. c #8C9AB3",
"7. c #8D9AB5",
"8. c #8F9CB4",
"9. c #8E9CB7",
"0. c #8193B3",
"q. c #959FB2",
"w. c #919EB6",
"e. c #959FB2",
"r. c #929FBB",
"t. c #909EB9",
"y. c #9FA5A5",
"u. c #96A1B4",
"i. c #96A1B5",
"p. c #99A2B6",
"a. c #95A1BA",
"s. c #94A2BD",
"d. c #9AA5B9",
"f. c #9DA8BE",
"g. c #A9A4A3",
"h. c #A6ABAA",
"j. c #A0AABF",
"k. c #B2B9BA",
"l. c #96A3C0",
"z. c #97A5C1",
"x. c #9FAAC0",
"c. c #9CAAC8",
"v. c #A2ADC3",
"b. c #A4AEC2",
"n. c #A3AEC4",
"m. c #A3AEC4",
"M. c #A6B0C4",
"N. c #A3B0C6",
"B. c #A5B3CB",
"V. c #ABB5C9",
"C. c #A8B4CA",
"Z. c #A8B4CA",
"A. c #ACB8D1",
"S. c #B8C0C1",
"D. c None",
/* pixels */
"D.D.D.D.D.D.D.D.D.D.D.D.D.D.D.D.D.D.D.D.D.D.D.D.D.D.D.D.D.D.D.D.D.D.D.D.D.D.D.D.D.D.D.D.D.D.D.D.D.D.D.D.D.D.D.D.D.D.D.D.D.D.D.D.",
"D.D.D.D.D.D.D.D.D.D.D.D.D.D.D.D.D.D.D.D.D.D.D.D.D.D.D.D.D.D.D.D.D.D.D.D.D.D.D.D.D.D.D.D.D.D.D.D.D.D.D.D.D.D.D.D.D.D.D.D.D.D.D.D.",
"D.D.D.D.D.D.D.D.D.D.D.D.D.D.D.D.D.D.D.D.D.D.D.D.D.D.D.D.D.D.D.D.D.D.D.D.D.D.D.D.D.D.D.D.D.D.D.D.D.D.D.D.D.D.D.D.D.D.D.D.D.D.D.D.",
"D.D.D.D.D.D.D.D.D.D.D.D.D.D.D.D.D.D.D.D.D.D.D.D.D.D.D.D.D.D.D.D.D.D.D.D.D.D.D.D.D.D.D.D.D.D.D.D.D.D.D.D.D.D.D.D.D.D.D.D.D.D.D.D.",
"D.D.D.D.D.D.D.D.D.D.D.D.D.D.D.D.D.D.D.D.D.D.D.D.D.D.D.D.D.D.D.D.D.D.D.D.D.D.D.D.D.D.D.D.D.D.D.D.D.D.D.D.D.D.D.D.D.D.D.D.D.D.D.D.",
"D.D.D.D.D.D.D.D.D.D.D.D.D.D.D.D.D.D.D.D.D.D.D.D.D.D.D.D.D.D.D.D.D.D.D.D.D.D.D.D.D.D.D.D.D.D.D.D.D.D.D.D.D.D.D.D.D.D.D.D.D.D.D.D.",
"D.D.D.D.D.D.D.D.D.D.D.D.D.D.D.D.D.D.D.D.D.D.D.D.D.D.D.D.D.D.D.D.D.D.D.D.D.D.D.D.D.D.D.D.D.D.D.D.D.D.D.D.D.D.D.D.D.D.D.D.D.D.D.D.",
"D.D.D.D.D.D.D.D.D.D.D.D.D.D.D.D.D.D.D.D.D.D.D.D.D.D.D.D.D.D.D.D.D.D.D.D.D.D.D.D.D.D.D.D.D.D.D.D.D.D.D.D.D.D.D.D.D.D.D.D.D.D.D.D.",
"D.D.D.D.D.D.D.D.D.D.D.D.D.D.D.D.D.D.D.D.D.D.D.D.D.D.:.t.2.:.:.:.:.:.:.7.t.:.D.D.D.D.D.D.D.D.D.D.D.D.D.D.D.D.D.D.D.D.D.D.D.D.D.D.",
"D.D.D.D.D.D.D.D.D.D.D.D.D.D.D.D.D.D.D.D.D.D.D.D.D.D.:.c.z.t.s.r.s.t.t.z.c.:.D.D.D.D.D.D.D.D.D.D.D.D.D.D.D.D.D.D.D.D.D.D.D.D.D.D.",
"D.D.D.D.D.D.D.D.D.D.D.D.D.D.D.D.D.D.D.D.D.D.D.D.D.D.2.s.7.7.2.2.4.4.2.9.z.:.D.D.D.D.D.D.D.D.D.D.D.D.D.D.D.D.D.D.D.D.D.D.D.D.D.D.",
"D.D.D.D.D.D.D.D.D.D.D.D.D.D.D.D.D.D.D.D.D.D.D.D.D.D.;.w.2.3.:.:.:.:.:.2.7.:.D.D.D.D.D.D.D.D.D.D.D.D.D.D.D.D.D.D.D.D.D.D.D.D.D.D.",
"D.D.D.D.D.D.D.D.D.D.D.D.D.D.:.s.4.:.:.:.:.2.6._ V V { 6.:.:.:.:.:.:.:.:.4.{ C V ` 7.2.:.:.:.:.4.r.:.D.D.D.D.D.D.D.D.D.D.D.D.D.D.",
"D.D.D.D.D.D.D.D.D.D.D.D.D.D.:.c.z.r.r.r.t.t.f.;.C C { a.w.w.7.w.w.7.w.w.e.{ C C ;.z.s.t.t.a.t.z.c.:.D.D.D.D.D.D.D.D.D.D.D.D.D.D.",
"D.D.D.D.D.D.D.D.D.D.D.D.D.D.:.l.7.4.4.4.6.7.w.{ m C ,.V.M.b.v.v.b.b.b.n.V.,.C n { w.6.6.6.2.2.9.l.:.D.D.D.D.D.D.D.D.D.D.D.D.D.D.",
"D.D.D.D.D.D.D.D.D.D.D.D.D.D.:.t.2.:.3.:.:.2.6.` n C >.b.f.f.f.f.f.f.f.x.n.>.C n ` 6.2.:.:.3.:.2.t.:.D.D.D.D.D.D.D.D.D.D.D.D.D.D.",
"y C ` 6.2.:.:.:.:.2.6._ n C ` 7.3.:.;.:.:.:.2._ m n ~  . .{ { { { |  . .;.~ n m ` 2.:.:.:.:.:.:.7.` m m ` 6.2.:.:.:.:.2.6.` C y ",
"c A ;.l.s.t.s.a.r.s.z.;.C C -.r.w.w.w.6.w.w.r.-.C b E ! ! ! ! ! W ! ! ^ ( U b C -.a.w.w.w.6.w.w.a.{ C C ;.s.a.t.r.a.r.s.l.;.A c ",
"u C { w.7.2.2.4.4.7.w.{ V C ,.V.b.b.b.b.b.b.V.,.C b E [ ! ( ( ! ! ! ^ ( ( E b C ,.V.b.b.b.b.b.M.V.,.C V { w.7.2.7.4.4.7.t.{ C c ",
"y V { 2.2.2.:.:.:.2.4._ n C >.b.v.f.f.f.f.v.b.>.C b E [ ( ^ ! ( ^ ( ( ( ( E b C >.m.f.f.f.f.f.f.v.>.C m ` 2.2.:.:.:.:.2.2._ C y ",
"y V _ 2.:.:.:.:.:.:.2._ V B W ;.{ | { { { {  .^ V b E [ [ ^ ( ( ( ( ( ( ( E n B W  . .{ { {  .} ;.W n C _ 2.:.:.:.:.:.2.2._ V u ",
"y C -.a.w.8.7.6.w.w.r.-.C b U ( ! ! ( ! ! ! ( U B V E | [ [ [ [ [ [ [ [ } Q V n E ( ! ! ! ! ! ! ( U b C -.a.w.w.6.w.6.w.a.-.C y ",
"t Z ,.V.M.b.b.b.b.b.V.,.C b E ( ! ! ( ^ ( ( ( E V V ! | | |  .} | | |  . .( C V E ( ! ! ( ! ! ! [ E b C ,.V.n.b.b.b.b.b.V.,.A t ",
"t Z >.v.v.f.f.f.f.v.M.>.C b Q } [ ( [ [ [ [ | E B n E [ [ ( ( ( ( ! ( [ ( E B V E | [ ( [ [ [ [ } E b C >.n.v.f.f.f.f.v.n.>.C t ",
"u V W  . .| { | | {  .^ V V (  . .| | |  .| 0.! D.D.D.D.D.D.D.D.D.D.D.D.D.D.D.D.! 0. .| | | |  .| ! V V !  .{ { { {  .{  .W B u ",
"u B E ( ! ! ! ! W ! ( E n B E [ ( ( ( ( ( [ | ( D.D.D.D.D.D.D.D.D.D.D.D.D.D.D.D.( | } ( ( ( ! ] [ E B B E ( ! ! ! ! ! ! ( E B u ",
"u V E [ ^ ^ ( ^ ( ( } W D.D.D.D.D.D.D.D.D.D.D.D.D.D.D.D.D.D.D.D.D.D.D.D.D.D.D.D.D.D.D.D.D.D.D.D.D.D.D.D.! [ [ ! ! ! ! ^ [ E B u ",
"u V E [ [ [ ( _ ( } | ( D.D.D.D.D.D.D.D.D.D.D.D.D.D.D.D.D.D.D.D.D.D.D.D.D.D.D.D.D.D.D.D.D.D.D.D.D.D.D.D.[ | [ ] ! ( ( [ [ E B u ",
"u V Q | [ [ [ [ [ |  .} D.D.D.D.D.D.D.D.D.D.D.D.D.D.D.D.D.D.D.D.D.D.D.D.D.D.D.D.D.D.D.D.D.D.D.D.D.D.D.D.[  .} } [ [ [ [ } E C c ",
"c n K E E U E U E E W E D.D.D.D.D.D.D.D.D.D.D.D.D.D.D.D.D.D.D.D.D.D.D.D.D.D.D.D.D.D.D.D.D.D.D.D.D.D.D.D.U ! E E E E U E E K n c ",
"c c b b b b b b b n V b D.D.D.D.D.D.D.D.D.D.D.D.D.D.D.D.D.D.D.D.D.D.D.D.D.D.D.D.D.D.D.D.D.D.D.D.D.D.D.D.b n b b b b b b b b c c ",
"c b C Z Z Z Z Z C S D C D.D.D.D.D.D.D.D.D.D.D.D.D.D.D.D.D.D.D.D.D.D.D.D.D.D.D.D.D.D.D.D.D.D.D.D.D.D.D.D.Z G S Z Z Z Z Z Z C b c ",
"c C -.d.e.e.e.e.u.p.j.u.D.D.D.D.D.D.D.D.D.D.D.D.+ + + + X + X + + O X + + + @ X D.D.D.D.D.D.D.D.D.D.D.D.e.v.p.e.e.e.e.e.d.-.C u ",
"t Z 2.B.m.m.m.x.v.M.A.d.D.D.D.D.D.D.D.D.D.D.D.D.X @ @ + + @ + + @ @ + @ + @ @ X D.D.D.D.D.D.D.D.D.D.D.D.d.A.N.v.v.v.v.m.V.>.C t ",
"y V W ;. . . .{ {  .0.~ w o O O + + X + + + X + X + + + + + + + + + + + + + + O X X X + + + X + + . . w ~ .. . . .| {  .;.^ C u ",
"c n U ( ! ! ! ! ! ( } G ; O O + + @ + @ + @ @ + X + X + + + + + X X X + X + X + @ + + + @ + @ @ @ + o : L ] ! ! ! ! ! ! ( U B u ",
"i n E ] ! ! ! ! ! ] } L ;   O O + + + + + + + + X X + + X + X X X X X X + X X X + + + + + + + + + X   ; L [ ] ! ^ ( ( ^ ( E V u ",
"u n E ] ] ( ^ [ ! ] } L ;   X X + + + X + X X + @ + + X + + @ + @ + @ + + + + @ + + X + X + X + X X   ; L } ( _ ( ^ [ ( } E B u ",
"c V E [ ( ! ( ! ( ] } L ;   X X X + + X X X X + * * + @ # = * * * * * * + + % % + X X X + X + + X X   ; L } ] ! ( ( ( [ ( E V u ",
"u V E [ _ ] ( _ [ [ } L > O O @ + + X + + @ + # * * + + % - - - > - - * + + = = # + + + + + + + @ O O : P } [ ] _ [ ( [ [ E B u ",
"u B Q | [ [ [ [ [ } | Y d @ % * = % + + # * * * = % + + * - = = = = - % + + * - * * * % + + % * * % @ d Y | } [ [ [ [ [ | E V u ",
"c n K E U E U E E E Q G d & * - - * + @ - - - - - - + # = - - - - - - = # @ * - - - , = + + = - - = & e D Q E E E E E E E L n c ",
"c c b b b b n b b b b c : & - = > % O @ 3 6 6 6 8 3 = - 5 6 6 6 6 8 6 5 - = 4 6 8 6 6 1 + + % - = * & > i b b b b b b b b b v v ",
"c b C Z S Z C Z Z A A M > & = - - % @ # 3 0 7 6 q 6 - - 6 6 6 6 6 6 7 6 - - 6 9 6 7 7 4 # @ = - - - - , M A Z Z C C Z Z Z C b c ",
"c C -.d.e.e.e.e.u.u.d.#.k < 1 1 1 1 & - 6 7 6 6 q 4 - - 6 6 6 7 6 6 6 6 - - 8 6 6 9 9 6 - = 5 6 6 4 1 h #.s.u.u.e.e.e.e.p.-.C y ",
"t C ,.B.M.b.b.b.x.m.B.1.F q f h l h 5 - 4 6 6 6 6 4 - - 6 7 6 6 6 6 7 4 - - 6 6 6 6 9 8 - - 6 6 6 6 2 z <.B.N.v.v.v.v.m.V.,.C t ",
"i B ^ ;.{ |  .{  .{  .' X.H H X.$.O.p - 4 6 6 6 7 6 - - 4 7 6 6 9 6 7 6 - - 6 7 6 6 0 4 - - 6 6 6 6 2 h / .. .|  . . . .;.W V c ",
"u B U ! ! ! ! ! ! ! Q ] +.&.%.y.k.*.s & 4 7 6 7 6 6 - - 6 6 6 6 7 6 6 6 - - 6 6 6 9 7 6 - - 6 q 6 6 4 a P ( ! ! ! ! ! ! ( E B u ",
"u B E ( ( ! ! ! ! ! ! _ +.=.h.k.S.*.s & 3 6 6 6 6 6 - - 4 6 6 7 6 6 6 4 - - 6 9 6 6 6 4 - - 6 9 6 9 2 s Y ] ] ! ! ! ! ^ [ E B c ",
"u B E [ [ ( _ ( ! ( ! _ G J $.=.=.X.q * 6 6 q 6 6 6 - - 6 6 6 6 6 6 7 6 - - 6 6 6 6 0 6 - - 4 6 6 2 2 h T ] ] ! [ ^ ! [ [ E V y ",
"c V E [ ( ^ [ ( ( ] ] Y x g j l l f 5 - 6 6 6 6 6 6 - - 6 6 6 6 6 6 6 6 - - 6 6 6 9 7 8 - - 6 9 4 2 2 s T [ [ ( ! ^ ] ! [ E B c ",
"u V E [ [ [ ^ ^ [ ] } Y a < < 2 2 1 - 1 4 6 6 6 6 6 - - 6 9 6 6 6 7 6 6 - - 8 7 6 6 6 4 - 3 6 r j j 9 a T } [ ( [ ! [ [ } E n y ",
"u V E  .[ [ [ [ [ } | T s 2 2 6 6 4 - - 6 6 6 6 6 6 - - 6 q q 6 6 6 0 6 - - 6 6 6 6 7 8 - = 4 l o.o.9 6 I [ } ( [ [ [ [ } Q m y ",
"c n K E E E E E E E Q G a 2 6 6 6 6 - - 6 q 9 6 6 6 - - 4 6 9 6 6 6 9 8 - - 6 7 9 7 9 6 1 = < z g.g.H r G Q E E E E U U E L n c ",
"c c b b b b b b b b b v q 9 9 6 7 8 - - 4 6 6 6 6 6 - - 5 6 6 6 6 6 6 6 1 - 8 6 6 6 6 8 < & < 9 =.=.z 8 i b b B b b b b b b v v ",
"c b C Z Z C Z Z Z Z A M d 9 9 6 6 6 - - 6 6 0 6 6 6 - - 6 6 9 6 6 6 6 6 - 1 6 0 6 9 9 6 < < < H *.*.j 8 N C C C Z Z Z Z Z C b c ",
"c C -.d.e.e.e.e.u.u.d.+.x 2 4 6 q 4 - - 6 6 6 6 6 6 - 1 6 7 6 6 6 6 7 6 - - 6 6 6 6 7 4 - - < g *.*.j k @.s.u.u.u.u.e.e.d.-.C y ",
"y C ,.B.m.v.v.v.v.N.B.<.z 1 4 6 6 4 - - 6 6 6 6 q 6 - - 4 7 6 7 6 9 6 4 - - 6 6 6 7 7 6 - - $ H *.*.g h <.B.N.v.b.j.v.v.V.:.C y ",
"y V W  . . .{  . . .../ h 2 9 9 q 4 - - 6 6 6 7 6 4 - - 8 9 6 6 6 6 0 6 - - 8 6 6 6 6 6 - = 1 q *.*.l p R .. . .;.{  . .;.^ C y ",
"c V E ! ! ! ! ! ! ! ] L s 2 6 6 6 6 - - 5 6 6 6 6 5 - - 6 6 6 6 7 6 6 6 - - 6 9 6 6 6 4 - - 1 H *.*.l d L ] ! ! W ! ! ! ( U n c ",
"y n E ( ! ! ! ! ! ( } Y s 2 9 9 7 6 - - 6 q 6 6 q 6 - - 4 6 6 6 6 6 6 5 - - 6 q 6 6 0 6 - 1 1 z g.g.l d P ] ] ! ! ( ( ^ ( E V c ",
"i n E ] [ ( [ ! ( ( } I s 4 6 6 6 4 - - 6 9 6 6 6 6 - - 6 6 6 7 6 6 q 4 - - 6 6 6 6 6 6 - = 3 j o.o.g p Y } ] ! [ ( ^ [ [ E V y ",
"u V E [ ^ ( _ ( ! ] } I h 2 9 6 6 6 - - 4 6 6 6 6 6 - - 6 6 9 6 6 9 q 4 - - 4 6 6 0 6 4 - 1 4 q j g 9 a Y ] [ ( ! ^ [ ( [ E B c ",
"u V E [ ] ! ( ! ! ] [ Y s 4 6 6 6 6 - - 6 6 6 6 6 6 - - 6 0 6 6 6 6 6 6 - - 6 6 9 8 7 6 - - 4 6 2 2 2 s Y ] ] ^ ] ( ^ ( [ E n y "
};
