/* XPM */
static char *xpm_[] = {
/* columns rows colors chars-per-pixel */
"64 64 158 2 ",
"   c #3D1C16",
".  c #3E1F1B",
"X  c #3F221F",
"o  c #41221E",
"O  c #432421",
"+  c #492724",
"@  c #4B2925",
"#  c #522721",
"$  c #522B26",
"%  c #5A2B25",
"&  c #542D29",
"*  c #592F2A",
"=  c #5D322E",
"-  c #493539",
";  c #4E393C",
":  c #5F393A",
">  c #62332E",
",  c #6A332D",
"<  c #643632",
"1  c #693732",
"2  c #623934",
"3  c #6C3B36",
"4  c #613E3F",
"5  c #6F3D38",
"6  c #703B34",
"7  c #713E39",
"8  c #71423D",
"9  c #5B3E41",
"0  c #3A465D",
"q  c #3D495F",
"w  c #3F4B60",
"e  c #554142",
"r  c #5C4143",
"t  c #4D4D5F",
"y  c #6A4443",
"u  c #6C4A4A",
"i  c #6C4749",
"p  c #754B45",
"a  c #744D4B",
"s  c #794D48",
"d  c #7A514D",
"f  c #6E5052",
"g  c #765050",
"h  c #7B5452",
"j  c #715558",
"k  c #414D64",
"l  c #435066",
"z  c #45526A",
"x  c #4A566E",
"c  c #4D596F",
"v  c #5C5B6A",
"b  c #4A5770",
"n  c #4C5971",
"m  c #525D73",
"M  c #556176",
"N  c #55627A",
"B  c #5A657A",
"V  c #5C687D",
"C  c #63667D",
"Z  c #837876",
"A  c #8E827E",
"S  c #5C6B87",
"D  c #656B84",
"F  c #6B6E87",
"G  c #6D6F88",
"H  c #61718F",
"J  c #6E718A",
"K  c #71768D",
"L  c #7E7A80",
"P  c #657492",
"I  c #6E7D97",
"U  c #657898",
"Y  c #6D7E9E",
"T  c #707E9A",
"R  c #757B93",
"E  c #6E7EA0",
"W  c #77849E",
"Q  c #78869F",
"!  c #6F81A3",
"~  c #7282A3",
"^  c #7C8AA5",
"/  c #7486A8",
"(  c #7788AA",
")  c #7C8BAA",
"_  c #7E90B4",
"`  c #8A8383",
"'  c #938381",
"]  c #9A8A88",
"[  c #868999",
"{  c #8C8A99",
"}  c #8C9294",
"|  c #929797",
" . c #9E9593",
".. c #94999B",
"X. c #A39D9D",
"o. c #838DA1",
"O. c #808FAC",
"+. c #8F91A3",
"@. c #8794AE",
"#. c #8995AA",
"$. c #8E99AE",
"%. c #9298A7",
"&. c #9795A6",
"*. c #8393B3",
"=. c #8996B1",
"-. c #8B98B3",
";. c #8B98B2",
":. c #8C99B3",
">. c #8C9AB3",
",. c #8D9BB5",
"<. c #8C99B4",
"1. c #8F9CB4",
"2. c #8E9CB7",
"3. c #959FB2",
"4. c #949EB2",
"5. c #919EB6",
"6. c #959FB2",
"7. c #909EB8",
"8. c #929FBB",
"9. c #919EBA",
"0. c #9FA5A5",
"q. c #96A0B5",
"w. c #96A1B5",
"e. c #98A2B6",
"r. c #95A1BA",
"t. c #95A1B9",
"y. c #94A2BD",
"u. c #97A5BB",
"i. c #9BA4B8",
"p. c #9BA4B8",
"a. c #9DA8BE",
"s. c #9CA8BD",
"d. c #9EA8BA",
"f. c #AAA6A5",
"g. c #A6AAAA",
"h. c #A0AABF",
"j. c #B1B7B7",
"k. c #B3BBBC",
"l. c #96A3C0",
"z. c #97A5C1",
"x. c #9FAAC0",
"c. c #9CAAC8",
"v. c #A2ADC3",
"b. c #A2ACC2",
"n. c #A4AEC2",
"m. c #A3AEC4",
"M. c #A4AFC5",
"N. c #A3AEC4",
"B. c #A6B0C4",
"V. c #A4B0C7",
"C. c #A3B0C6",
"Z. c #A6B2CA",
"A. c #ABB5C9",
"S. c #A8B4CA",
"D. c #A8B5CD",
"F. c #ADB9D1",
"G. c #B8C0C1",
"H. c None",
/* pixels */
"H.H.H.H.H.H.H.H.H.H.H.H.H.H.H.H.H.H.H.H.H.H.H.H.H.H.H.H.H.H.H.H.H.H.H.H.H.H.H.H.H.H.H.H.H.H.H.H.H.H.H.H.H.H.H.H.H.H.H.H.H.H.H.H.",
"H.H.H.H.H.H.H.H.H.H.H.H.H.H.H.H.H.H.H.H.H.H.H.H.H.H.H.H.H.H.H.H.H.H.H.H.H.H.H.H.H.H.H.H.H.H.H.H.H.H.H.H.H.H.H.H.H.H.H.H.H.H.H.H.",
"H.H.H.H.H.H.H.H.H.H.H.H.H.H.H.H.H.H.H.H.H.H.H.H.H.H.H.H.H.H.H.H.H.H.H.H.H.H.H.H.H.H.H.H.H.H.H.H.H.H.H.H.H.H.H.H.H.H.H.H.H.H.H.H.",
"H.H.H.H.H.H.H.H.H.H.H.H.H.H.H.H.H.H.H.H.H.H.H.H.H.H.H.H.H.H.H.H.H.H.H.H.H.H.H.H.H.H.H.H.H.H.H.H.H.H.H.H.H.H.H.H.H.H.H.H.H.H.H.H.",
"H.H.H.H.H.H.H.H.H.H.H.H.H.H.H.H.H.H.H.H.H.H.H.H.H.H.H.H.H.H.H.H.H.H.H.H.H.H.H.H.H.H.H.H.H.H.H.H.H.H.H.H.H.H.H.H.H.H.H.H.H.H.H.H.",
"H.H.H.H.H.H.H.H.H.H.H.H.H.H.H.H.H.H.H.H.H.H.H.H.H.H.H.H.H.H.H.H.H.H.H.H.H.H.H.H.H.H.H.H.H.H.H.H.H.H.H.H.H.H.H.H.H.H.H.H.H.H.H.H.",
"H.H.H.H.H.H.H.H.H.H.H.H.H.H.H.H.H.H.H.H.H.H.H.H.H.H.H.H.H.H.H.H.H.H.H.H.H.H.H.H.H.H.H.H.H.H.H.H.H.H.H.H.H.H.H.H.H.H.H.H.H.H.H.H.",
"H.H.H.H.H.H.H.H.H.H.H.H.H.H.H.H.H.H.H.H.H.H.H.H.H.H.H.H.H.H.H.H.H.H.H.H.H.H.H.H.H.H.H.H.H.H.H.H.H.H.H.H.H.H.H.H.H.H.H.H.H.H.H.H.",
"H.H.H.H.H.H.H.H.H.H.H.H.H.H.H.H.H.H.H.H.H.H.H.H.H.H.@.8.<.@.@.@.@.@.@.-.8.@.H.H.H.H.H.H.H.H.H.H.H.H.H.H.H.H.H.H.H.H.H.H.H.H.H.H.",
"H.H.H.H.H.H.H.H.H.H.H.H.H.H.H.H.H.H.H.H.H.H.H.H.H.H.@.c.l.8.8.8.r.8.8.l.c.@.H.H.H.H.H.H.H.H.H.H.H.H.H.H.H.H.H.H.H.H.H.H.H.H.H.H.",
"H.H.H.H.H.H.H.H.H.H.H.H.H.H.H.H.H.H.H.H.H.H.H.H.H.H.@.z.<.<.;.;.-.=.-.7.y.;.H.H.H.H.H.H.H.H.H.H.H.H.H.H.H.H.H.H.H.H.H.H.H.H.H.H.",
"H.H.H.H.H.H.H.H.H.H.H.H.H.H.H.H.H.H.H.H.H.H.H.H.H.H.O.2.;.;.=.@.=.=.@.;.2.@.H.H.H.H.H.H.H.H.H.H.H.H.H.H.H.H.H.H.H.H.H.H.H.H.H.H.",
"H.H.H.H.H.H.H.H.H.H.H.H.H.H.@.r.-.=.@.@.@.;.$.W x m ^ ;.=.@.@.@.@.@.@.@.>.Q n n Q >.;.@.@.@.@.-.8.@.H.H.H.H.H.H.H.H.H.H.H.H.H.H.",
"H.H.H.H.H.H.H.H.H.H.H.H.H.H.@.c.l.8.8.8.8.y.l.O.m m o.8.5.5.<.<.<.-.2.5.t.o.m m O.l.y.8.8.8.8.l.c.@.H.H.H.H.H.H.H.H.H.H.H.H.H.H.",
"H.H.H.H.H.H.H.H.H.H.H.H.H.H.=.l.<.-.-.;.;.<.5.^ n M $.A.n.n.n.n.v.n.n.B.A.$.m n ^ 5.>.;.-.>.;.<.l.@.H.H.H.H.H.H.H.H.H.H.H.H.H.H.",
"H.H.H.H.H.H.H.H.H.H.H.H.H.H.@.7.;.@.=.@.@.;.>.Q x n #.v.x.a.a.a.a.a.a.x.m.#.m x W >.;.@.@.@.=.;.8.@.H.H.H.H.H.H.H.H.H.H.H.H.H.H.",
"q m Q >.;.@.@.@.=.;.;.W x m Q >.;.@.@.@.@.@.;.W c x I O.^ ^ ( ^ ) ) ^ O.O.I x c W ;.@.@.@.@.@.;.-.Q c c Q >.;.@.@.@.@.;.;.Q m q ",
"k N O.l.y.8.8.r.8.8.l.O.m m ^ t.5.>.>.5.5.5.8.o.m z H T Y Y Y Y I U Y T T H z m o.t.5.5.<.>.>.8.t.^ m m O.z.y.8.8.8.8.y.l.O.N k ",
"w m ^ 5.<.;.-.-.;.<.5.^ n m $.A.B.n.n.n.b.n.A.$.m z P E E Y T T Y E E E E P z m $.A.n.n.n.n.b.n.A.$.M b ^ <.<.-.>.;.;.<.2.^ m w ",
"q n ^ ;.;.=.@.@.=.=.;.W x m #.n.h.a.a.a.a.b.b.#.m z P ~ E E E E E Y E E E P z m #.m.b.a.a.a.s.x.v.#.m x Q -.;.@.@.@.=.;.;.W m w ",
"q m W -.=.@.@.@.@.@.;.W c x I O.^ ( ^ ^ ^ ( O.T b x P ~ E W E Y T E E E E P x b I ) ^ ( ^ ( ^ ^ O.I x c Q ;.;.@.@.@.@.;.;.~ m q ",
"q m ^ t.2.>.5.<.5.5.8.o.m z H E Y Y Y Y Y Y Y H b n U / ~ ~ ~ ~ E / E / / P n b P E Y Y Y I Y Y E H z m o.t.5.<.>.5.>.8.t.o.m q ",
"0 M $.A.n.n.n.n.b.B.A.$.m z P E E Y T E E T E P n n Y ( ( ( ( ( ( ( ) ( _ Y m n P E T E Y Y Y E ~ H z M $.A.n.n.n.n.n.n.A.$.m q ",
"q m #.v.b.a.a.a.a.b.n.#.m x U ( / E E / E / ( P x x P ~ ! E E E E E T E E H b n P ( ~ ~ ~ ~ / ~ / U z m #.n.b.a.a.a.a.x.m.#.m q ",
"q b I ) ( ^ ( ^ ^ ^ ( Y n n E ( ( ( ( ( ( ( *.E H.H.H.H.H.H.H.H.H.H.H.H.H.H.H.H.Y _ ( ( ( ( ( ( ( Y n n T O.^ ( ^ ^ ( ^ ) I n w ",
"t b H E Y I Y Y Y Y E P b b P ~ E T E E T / ( E H.H.H.H.H.H.H.H.H.H.H.H.H.H.H.H.E ( / Y E T E ~ / P b b P E Y I Y Y Y Y E P x k ",
"k b P ! Y Y Y Y Y E / I H.H.H.H.H.H.H.H.H.H.H.H.H.H.H.H.H.H.H.H.H.H.H.H.H.H.H.H.H.H.H.H.H.H.H.H.H.H.H.H.Y / E Y Y Y Y T ~ P b w ",
"q b U ~ ~ ! E W E / ( ! H.H.H.H.H.H.H.H.H.H.H.H.H.H.H.H.H.H.H.H.H.H.H.H.H.H.H.H.H.H.H.H.H.H.H.H.H.H.H.H.E ( / E Y E E ~ / P b w ",
"q n P ^ ~ ~ ~ ~ / / ) ~ H.H.H.H.H.H.H.H.H.H.H.H.H.H.H.H.H.H.H.H.H.H.H.H.H.H.H.H.H.H.H.H.H.H.H.H.H.H.H.H.! ) ( E ~ ~ ~ ~ / P n t ",
"k x S P P P P H P P I P H.H.H.H.H.H.H.H.H.H.H.H.H.H.H.H.H.H.H.H.H.H.H.H.H.H.H.H.H.H.H.H.H.H.H.H.H.H.H.H.H Y U P P P P P P S z w ",
"l l z z z z z z z z n z H.H.H.H.H.H.H.H.H.H.H.H.H.H.H.H.H.H.H.H.H.H.H.H.H.H.H.H.H.H.H.H.H.H.H.H.H.H.H.H.z x z z z z z z z z l l ",
"k z m M M M M M m B V m H.H.H.H.H.H.H.H.H.H.H.H.H.H.H.H.H.H.H.H.H.H.H.H.H.H.H.H.H.H.H.H.H.H.H.H.H.H.H.H.M V B M M M M M M m z w ",
"w m o.e.q.q.4.4.6.e.b.4.H.H.H.H.H.H.H.H.H.H.H.H.H.H.H.H.H.H.H.H.H.H.H.H.H.H.H.H.H.H.H.H.H.H.H.H.H.H.H.H.4.b.6.4.4.4.6.6.p.o.m q ",
"0 m >.A.n.v.v.v.m.n.F.m.H.H.H.H.H.H.H.H.H.H.H.H.H.H.H.H.H.H.H.H.H.H.H.H.H.H.H.H.H.H.H.H.H.H.H.H.H.H.H.H.b.F.V.m.m.n.N.V.D.;.m 0 ",
"w n T O.) ) ( ^ ( O.*.) H.H.H.H.H.H.H.H.H.H.H.H.H.H.H.H.H.H.H.H.H.H.H.H.H.H.H.H.H.H.H.H.H.H.H.H.H.H.H.H.( =.O.( ^ ( ^ ^ O.T m w ",
"k n H Y Y Y Y Y Y E ~ Y H.H.H.H.H.H.H.H.H.H.H.H.H.H.H.H.H.H.H.H.H.H.H.H.H.H.H.H.H.H.H.H.H.H.H.H.H.H.H.H.Y / E I Y Y Y Y E H x k ",
"q n P E Y Y Y Y Y ~ ( Y H.H.H.H.H.H.H.H.H.H.H.H.H.H.H.H.H.H.H.H.H.H.H.H.H.H.H.H.H.H.H.H.H.H.H.H.H.H.H.H.Y ( ~ Y Y T E T E P n k ",
"w b P ~ ~ E T ~ E ~ ( Y H.H.H.H.H.H.H.H.H.H.H.H.H.H.H.H.H.H.H.H.H.H.H.H.H.H.H.H.H.H.H.H.H.H.H.H.H.H.H.H.Y ( / E E ~ E E ~ P b w ",
"k c P ~ T E E T T ~ ( Y H.H.H.H.H.H.H.H.H.H.H.H.H.H.H.H.H.H.H.H.H.H.H.H.H.H.H.H.H.H.H.H.H.H.H.H.H.H.H.H.E ( ~ E T E E ~ / P b k ",
"t x P / ~ ~ ~ E ~ / ( E H.H.H.H.H.H.H.H.H.H.H.H.H.H.H.H.H.H.H.H.H.H.H.H.H.H.H.H.H.H.H.H.H.H.H.H.H.H.H.H.E ( / T ~ ~ T E ~ P x q ",
"0 b U / ~ ~ ~ ~ ~ / ) ~ H.H.H.H.H.H.H.H.H.H.H.H.H.H.H.H.H.H.H.H.H.H.H.H.H.H.H.H.H.H.H.H.H.H.H.H.H.H.H.H.~ ) / ~ ~ ~ ~ ~ ^ P n k ",
"w z S P P H P P P U Y P H.H.H.H.H.H.H.H.H.H.H.H.H.H.H.H.H.H.H.H.H.H.H.H.H.H.H.H.H.H.H.H.H.H.H.H.H.H.H.H.P I U P P P P P U S z t ",
"l l z z z z z z z z b z H.H.H.H.H.H.H.H.H.H.H.H.X O O X O X O X o O O O O O O O H.H.H.H.H.H.H.H.H.H.H.H.z b z z z z z z z z w l ",
"l z m M M M M M M M V m H.H.H.H.H.H.H.H.H.H.H.H.X @ + + @ O + O O O + O O + + X H.H.H.H.H.H.H.H.H.H.H.H.c S N M m M m M N M z w ",
"w m o.e.q.4.q.3.q.w.a.[ 9   . X O X O X O O X O X O O O O O O O O O O O O O O O O o O O O o O O O .   e [ s.t.4.4.4.6.6.p.o.m 0 ",
"q m >.A.B.n.v.v.v.Z.D.+.e   O + + O + + + O + O O X X O O X O X O O X O O O X O O O O O O O O O O o   r +.D.m.m.m.m.m.V.S.$.N 0 ",
"q n T O.) ( ^ ) ( ) _ J ;   O O O O O O O O O O X X O X X X X X X O o X X X X X O O O O O O O O O o   ; K *.) ( ( ^ ^ ^ O.Y n q ",
"k n H Y Y Y Y I Y ! ! D -   X X X X X O X O X X + O O X + + O O O O + O O O O + O O X O O O O X o o   - D ! Y Y Y Y Y Y Y P x k ",
"q x P ~ E Y Y Y Y ~ / D -   . X X X X X X X X O & & O O $ & & & & * & @ O O & @ O X X X X O X X o o   - D / ! Y Y Y Y Y ~ P c w ",
"q n P ~ ~ T ~ Y Y ~ / D ; X o O + O O O O + O + * & O O & = = = & = = & O O * * @ O + O O X + + O O o ; D / ! ! ! Y Y ~ ~ P b w ",
"t n P ~ Y Y E Y Y ! ~ F r o $ & & $ O O $ & $ * = & O O & = * * = & = $ O O & * & & & & O O @ & * $ # : J ! W ! Y Y Y Y ~ P n q ",
"w x P / ~ ! E W ~ ~ / J y % = = = * O O * : = = = & @ @ * = = = = = : & @ @ * = = = 2 & O O & = = * % r J ! ! ! ! W E ~ / P x k ",
"w b P ^ ~ ~ ~ ~ ! / ( J 9 % % * = @ O + > 3 3 3 8 = = * 2 3 3 1 3 2 3 2 * = 2 3 3 3 3 = + X & = * & % r J / ! ~ ~ ~ ~ ~ / P m t ",
"w z S U P P P P P P U C : * = = = % + @ 1 8 3 7 8 2 = < 3 3 3 8 5 5 7 3 2 = 3 3 5 5 7 2 @ + * = = = % 4 C U U H P P P P P S z w ",
"l l l z z z z z l z z t 2 , > > , = * = 1 3 6 3 3 2 < = 3 3 3 3 3 3 3 3 = > 1 5 3 5 7 3 = * 2 3 1 3 1 4 t z z z z z z z z l w z ",
"k z m N M M m M M N N v f p p a d a 2 = 3 3 3 3 5 1 = = 1 5 3 3 3 3 3 3 > = 1 5 3 3 5 2 = = 3 5 5 3 3 y v N N M M M M M N M z w ",
"w m o.e.6.4.4.4.w.4.w.%.` Z Z ` X.A 8 % 3 3 3 3 3 3 = = 3 3 3 3 3 3 5 3 = = 3 3 3 3 7 3 = = 1 5 3 3 1 g [ u.w.w.w.w.4.w.p.o.m w ",
"q m ;.A.n.m.n.v.m.m.C.d...} | 0.G.X.p % 1 3 3 3 3 3 = = 3 7 3 3 5 3 3 1 = = 3 5 3 3 3 3 = = 3 5 3 3 , h &.Z.C.v.C.a.m.m.S.$.m 0 ",
"w n Y O.O.^ ( ^ ( ^ ( ^ } | g.j.A.X.u % 1 8 3 3 5 3 = = 1 3 3 7 3 3 5 3 = = 2 3 5 3 3 3 = = 1 3 3 1 , a R _ ) ) ^ ( ) ) ) Y n w ",
"k b H E Y E Y Y Y Y Y I C A  .X.X.A y * 1 3 3 3 3 3 = = 3 5 3 3 3 5 5 1 = = 3 7 3 3 3 1 < = 3 3 6 1 , u F ! Y Y I Y I Y E P b w ",
"q x P E T E E Y E E E K Z 8 s Z h p 2 * 1 5 3 3 3 3 = = < 3 3 3 3 3 5 1 = = 3 5 3 3 7 3 % , , , , , , i J ! ! Y Y Y Y Y ~ P n k ",
"k x P / E ~ E W E E E J 7 , % % , < * < 3 7 3 3 3 3 = = 3 5 3 5 5 3 3 3 > = 3 3 3 5 3 3 , % , , d d 6 i J ! ! ~ T ! T ! ~ P x q ",
"k x P E E T ~ E E / E K p , , , 3 < = = 3 3 5 3 3 3 = = 3 3 3 7 3 3 3 3 = = 2 7 3 3 5 1 % % % Z ] ] s y G ! ~ Y E ~ Y ~ ! P n t ",
"t n P ~ ~ E T E T E E G p , 6 6 3 3 = = 3 3 3 3 3 3 = = 1 7 3 3 3 3 3 3 = = 3 3 3 3 3 3 > > % Z f.f.d y J ! ! ! T Y ! ! ~ H b w "
};
