/* XPM */
static char *xpm_[] = {
/* columns rows colors chars-per-pixel */
"64 64 104 2 ",
"   c #3D1C16",
".  c #3E1F1B",
"X  c #3F221F",
"o  c #41221E",
"O  c #432421",
"+  c #4A2724",
"@  c #4B2825",
"#  c #512B26",
"$  c #592B25",
"%  c #552D2A",
"&  c #5A2F2B",
"*  c #5B312D",
"=  c #493539",
"-  c #4E393C",
";  c #593E41",
":  c #3A465D",
">  c #3D495F",
",  c #3F4B60",
"<  c #554142",
"1  c #5C4144",
"2  c #414D64",
"3  c #435066",
"4  c #45526A",
"5  c #4A566E",
"6  c #4D596F",
"7  c #4A5770",
"8  c #4C5971",
"9  c #525D73",
"0  c #556175",
"q  c #56627B",
"w  c #59647A",
"e  c #5C687D",
"r  c #5C6B87",
"t  c #656B84",
"y  c #6A6E87",
"u  c #6B6F88",
"i  c #61718F",
"p  c #71768D",
"a  c #657492",
"s  c #6E7D97",
"d  c #6D7E9E",
"f  c #707E9A",
"g  c #6E7EA0",
"h  c #77849E",
"j  c #78869F",
"k  c #6F80A1",
"l  c #7282A3",
"z  c #7C8AA5",
"x  c #7586A8",
"c  c #7788AA",
"v  c #7C8BAA",
"b  c #7E90B5",
"n  c #868999",
"m  c #838DA1",
"M  c #808FAC",
"N  c #8F91A3",
"B  c #8794AE",
"V  c #8995AA",
"C  c #8E99AE",
"Z  c #8394B4",
"A  c #8996B1",
"S  c #8B98B2",
"D  c #8B98B3",
"F  c #8C99B3",
"G  c #8C9AB3",
"H  c #8C99B4",
"J  c #8D9BB5",
"K  c #8F9CB4",
"L  c #8E9CB7",
"P  c #949EB2",
"I  c #959FB2",
"U  c #919EB6",
"Y  c #909DB9",
"T  c #909EB8",
"R  c #919FBB",
"E  c #929FBB",
"W  c #96A0B4",
"Q  c #97A1B6",
"!  c #98A2B6",
"~  c #95A1B9",
"^  c #95A1BA",
"/  c #94A2BD",
"(  c #9BA4B8",
")  c #9CA8BD",
"_  c #9DA8BE",
"`  c #A0AABF",
"'  c #95A3C0",
"]  c #96A3C0",
"[  c #97A5C1",
"{  c #9FAAC0",
"}  c #9CAAC8",
"|  c #A2ACC2",
" . c #A2ADC3",
".. c #A4AEC2",
"X. c #A3AEC4",
"o. c #A4AFC5",
"O. c #A6B0C4",
"+. c #A4B0C7",
"@. c #A6B1C8",
"#. c #ABB5C9",
"$. c #A8B4CA",
"%. c #A8B6CF",
"&. c #ADB9D1",
"*. c None",
/* pixels */
"*.*.*.*.*.*.*.*.*.*.*.*.*.*.*.*.*.*.*.*.*.*.*.*.*.*.*.*.*.*.*.*.*.*.*.*.*.*.*.*.*.*.*.*.*.*.*.*.*.*.*.*.*.*.*.*.*.*.*.*.*.*.*.*.",
"*.*.*.*.*.*.*.*.*.*.*.*.*.*.*.*.*.*.*.*.*.*.*.*.*.*.*.*.*.*.*.*.*.*.*.*.*.*.*.*.*.*.*.*.*.*.*.*.*.*.*.*.*.*.*.*.*.*.*.*.*.*.*.*.",
"*.*.*.*.*.*.*.*.*.*.*.*.*.*.*.*.*.*.*.*.*.*.*.*.*.*.*.*.*.*.*.*.*.*.*.*.*.*.*.*.*.*.*.*.*.*.*.*.*.*.*.*.*.*.*.*.*.*.*.*.*.*.*.*.",
"*.*.*.*.*.*.*.*.*.*.*.*.*.*.*.*.*.*.*.*.*.*.*.*.*.*.*.*.*.*.*.*.*.*.*.*.*.*.*.*.*.*.*.*.*.*.*.*.*.*.*.*.*.*.*.*.*.*.*.*.*.*.*.*.",
"*.*.*.*.*.*.*.*.*.*.*.*.*.*.*.*.*.*.*.*.*.*.*.*.*.*.*.*.*.*.*.*.*.*.*.*.*.*.*.*.*.*.*.*.*.*.*.*.*.*.*.*.*.*.*.*.*.*.*.*.*.*.*.*.",
"*.*.*.*.*.*.*.*.*.*.*.*.*.*.*.*.*.*.*.*.*.*.*.*.*.*.*.*.*.*.*.*.*.*.*.*.*.*.*.*.*.*.*.*.*.*.*.*.*.*.*.*.*.*.*.*.*.*.*.*.*.*.*.*.",
"*.*.*.*.*.*.*.*.*.*.*.*.*.*.*.*.*.*.*.*.*.*.*.*.*.*.*.*.*.*.*.*.*.*.*.*.*.*.*.*.*.*.*.*.*.*.*.*.*.*.*.*.*.*.*.*.*.*.*.*.*.*.*.*.",
"*.*.*.*.*.*.*.*.*.*.*.*.*.*.*.*.*.*.*.*.*.*.*.*.*.*.*.*.*.*.*.*.*.*.*.*.*.*.*.*.*.*.*.*.*.*.*.*.*.*.*.*.*.*.*.*.*.*.*.*.*.*.*.*.",
"*.*.*.*.*.*.*.*.*.*.*.*.*.*.*.*.*.*.*.*.*.*.*.*.*.*.B Y D B B B B B B J Y B *.*.*.*.*.*.*.*.*.*.*.*.*.*.*.*.*.*.*.*.*.*.*.*.*.*.",
"*.*.*.*.*.*.*.*.*.*.*.*.*.*.*.*.*.*.*.*.*.*.*.*.*.*.B } ] E E E / Y Y ] } B *.*.*.*.*.*.*.*.*.*.*.*.*.*.*.*.*.*.*.*.*.*.*.*.*.*.",
"*.*.*.*.*.*.*.*.*.*.*.*.*.*.*.*.*.*.*.*.*.*.*.*.*.*.B [ Y S S S S S J L ] S *.*.*.*.*.*.*.*.*.*.*.*.*.*.*.*.*.*.*.*.*.*.*.*.*.*.",
"*.*.*.*.*.*.*.*.*.*.*.*.*.*.*.*.*.*.*.*.*.*.*.*.*.*.M Y S B B B Z A B S U B *.*.*.*.*.*.*.*.*.*.*.*.*.*.*.*.*.*.*.*.*.*.*.*.*.*.",
"*.*.*.*.*.*.*.*.*.*.*.*.*.*.B ^ D B B B B S F j 8 8 z F B B B B B B B B S j 8 7 j F S B B B B D E B *.*.*.*.*.*.*.*.*.*.*.*.*.*.",
"*.*.*.*.*.*.*.*.*.*.*.*.*.*.B } ] Y E E ^ / [ z 9 0 z Q U L J U F U U U E m 9 9 M ' / Y / ^ E / } B *.*.*.*.*.*.*.*.*.*.*.*.*.*.",
"*.*.*.*.*.*.*.*.*.*.*.*.*.*.A ' J S D D S J U z 6 9 C #.O.....X.........#.C 9 6 z U F S S S S J / B *.*.*.*.*.*.*.*.*.*.*.*.*.*.",
"*.*.*.*.*.*.*.*.*.*.*.*.*.*.B Y S B Z B B S F j 5 9 V ..{ _ _ [ _ _ _ ` X.V 9 6 h F S B B A Z S Y B *.*.*.*.*.*.*.*.*.*.*.*.*.*.",
"> 9 h S B B B B B S F j 6 6 j D S B B B B B S h 6 5 s v z z z z z z z z v s 4 6 h S B B B B B S J j 9 6 h F B B B B B S F j 9 : ",
"2 q B ' / ^ / ^ E / [ M 9 9 m ^ U J U F F U E m 9 4 i d d d s d d d d d g a 4 9 z ^ U U J F J U ^ z 9 9 M ] / E ^ ^ E / [ M w 2 ",
", 9 z L J S S S S J U z 7 9 C #.X.| ........#.C 9 4 a l g d f d g d g g g a 4 9 C #.O.........O.#.C 9 8 z U J F S S D J U z 9 2 ",
"> 8 z S S B B Z B B S j 6 9 V X.| _ _ _ _ | X.V 9 4 a l g g g l g g f g l a 4 9 V ..` _ _ _ _ { | V 9 5 j S S B A B Z B F j 9 : ",
", 8 j S B B B B B B S j 7 5 d M z z z z z z v f 7 5 a l g h g g d g d l l a 7 7 f M z z c z c z M s 5 8 j S B B B B B S S j 9 > ",
": 9 m E U U J F U U ^ z 9 4 a g g d d d d d g a 7 8 a x l l l l l l l l c a 7 7 i f d g d d s d d i 4 9 m ^ U L F J F U ^ z 9 : ",
": q C #.........| ..#.C 9 4 a g g d f g g g g a 8 8 d c c c c c c x z c v g 8 8 a g g d d d d l l a 4 0 C #.X.| ......O.#.C 0 : ",
": 9 V ..| _ _ _ _ | X.C 9 4 a x l k l l l l x a 7 5 a l k g g g g g g k l a 7 8 a c l g l l l l x a 4 9 V X.| _ _ _ _ { X.V 0 : ",
"2 8 f M c c c c z c M s 8 8 g v c c c c c c Z d *.*.*.*.*.*.*.*.*.*.*.*.*.*.*.*.g b v c c c c c v g 8 8 d v z z z z c z M s 8 2 ",
"> 5 a g d d s s d d g a 7 7 a l k g g g g l c g *.*.*.*.*.*.*.*.*.*.*.*.*.*.*.*.g c l g g g g k l a 7 7 a g g g d d d d d i 5 > ",
"2 8 a g d d d d g g x s *.*.*.*.*.*.*.*.*.*.*.*.*.*.*.*.*.*.*.*.*.*.*.*.*.*.*.*.*.*.*.*.*.*.*.*.*.*.*.*.d l l g d d d d l a 8 2 ",
"> 8 a l h l g h l x c g *.*.*.*.*.*.*.*.*.*.*.*.*.*.*.*.*.*.*.*.*.*.*.*.*.*.*.*.*.*.*.*.*.*.*.*.*.*.*.*.k c l g g l d l l a 6 > ",
"2 5 a c l l l l l x v k *.*.*.*.*.*.*.*.*.*.*.*.*.*.*.*.*.*.*.*.*.*.*.*.*.*.*.*.*.*.*.*.*.*.*.*.*.*.*.*.l v x l l l l l x a 8 2 ",
"2 5 r a a a a i a a s a *.*.*.*.*.*.*.*.*.*.*.*.*.*.*.*.*.*.*.*.*.*.*.*.*.*.*.*.*.*.*.*.*.*.*.*.*.*.*.*.a s a a i a a a a r 5 2 ",
"2 3 3 5 4 4 4 4 4 5 7 4 *.*.*.*.*.*.*.*.*.*.*.*.*.*.*.*.*.*.*.*.*.*.*.*.*.*.*.*.*.*.*.*.*.*.*.*.*.*.*.*.3 8 5 4 5 3 4 4 4 3 3 2 ",
"2 3 9 0 0 0 0 0 9 w e 9 *.*.*.*.*.*.*.*.*.*.*.*.*.*.*.*.*.*.*.*.*.*.*.*.*.*.*.*.*.*.*.*.*.*.*.*.*.*.*.*.0 e 0 0 0 0 0 0 0 9 4 2 ",
", 9 m ( W W W U I ! | U *.*.*.*.*.*.*.*.*.*.*.*.*.*.*.*.*.*.*.*.*.*.*.*.*.*.*.*.*.*.*.*.*.*.*.*.*.*.*.*.U | Q I I I P P ( m 9 , ",
": 9 C %.+.| | X.| @.&.X.*.*.*.*.*.*.*.*.*.*.*.*.*.*.*.*.*.*.*.*.*.*.*.*.*.*.*.*.*.*.*.*.*.*.*.*.*.*.*.*. .&.X.X.| X.X.+.%.C 9 : ",
", 8 s v v z z z z M Z z *.*.*.*.*.*.*.*.*.*.*.*.*.*.*.*.*.*.*.*.*.*.*.*.*.*.*.*.*.*.*.*.*.*.*.*.*.*.*.*.z Z v z z z c z M f 8 2 ",
"2 7 a d d d d d d g l d *.*.*.*.*.*.*.*.*.*.*.*.*.*.*.*.*.*.*.*.*.*.*.*.*.*.*.*.*.*.*.*.*.*.*.*.*.*.*.*.g x g d d d d d g i 7 , ",
"> 6 a g g d d d g l x d *.*.*.*.*.*.*.*.*.*.*.*.*.*.*.*.*.*.*.*.*.*.*.*.*.*.*.*.*.*.*.*.*.*.*.*.*.*.*.*.d x l d d d g f g a 7 2 ",
"2 5 a l g d k d d l x g *.*.*.*.*.*.*.*.*.*.*.*.*.*.*.*.*.*.*.*.*.*.*.*.*.*.*.*.*.*.*.*.*.*.*.*.*.*.*.*.g c l k f l g g l a 5 2 ",
"2 8 a l h d g g g l c g *.*.*.*.*.*.*.*.*.*.*.*.*.*.*.*.*.*.*.*.*.*.*.*.*.*.*.*.*.*.*.*.*.*.*.*.*.*.*.*.g c l g g l f l l a 7 2 ",
"2 8 a l l d l l k l z k *.*.*.*.*.*.*.*.*.*.*.*.*.*.*.*.*.*.*.*.*.*.*.*.*.*.*.*.*.*.*.*.*.*.*.*.*.*.*.*.k z l k l d g l l a 6 > ",
"> 6 a c l l l l l x c l *.*.*.*.*.*.*.*.*.*.*.*.*.*.*.*.*.*.*.*.*.*.*.*.*.*.*.*.*.*.*.*.*.*.*.*.*.*.*.*.l v l l l l l l c a 8 2 ",
"2 5 r a a a a a a a d a *.*.*.*.*.*.*.*.*.*.*.*.*.*.*.*.*.*.*.*.*.*.*.*.*.*.*.*.*.*.*.*.*.*.*.*.*.*.*.*.a d a a a a i a a r 5 2 ",
"2 3 4 4 4 3 4 4 4 5 6 4 *.*.*.*.*.*.*.*.*.*.*.*.*.*.*.*.*.*.*.*.*.*.*.*.*.*.*.*.*.*.*.*.*.*.*.*.*.*.*.*.4 7 5 4 4 4 4 4 3 3 3 3 ",
"2 3 9 0 0 0 0 0 0 0 e 9 *.*.*.*.*.*.*.*.*.*.*.*.*.*.*.*.*.*.*.*.*.*.*.*.*.*.*.*.*.*.*.*.*.*.*.*.*.*.*.*.9 r w 9 9 0 0 0 w 9 4 2 ",
", 9 m ! ! I I I U ! | U *.*.*.*.*.*.*.*.*.*.*.*.*.*.*.*.*.*.*.*.*.*.*.*.*.*.*.*.*.*.*.*.*.*.*.*.*.*.*.*.U | ! I I U P P ( n 9 , ",
": 0 C %.....X.| X.@.&.| *.*.*.*.*.*.*.*.*.*.*.*.*.*.*.*.*.*.*.*.*.*.*.*.*.*.*.*.*.*.*.*.*.*.*.*.*.*.*.*.X.&.X.X.X.X.X.+.#.C 0 : ",
", 8 d v z z z v z v Z z *.*.*.*.*.*.*.*.*.*.*.*.*.*.*.*.*.*.*.*.*.*.*.*.*.*.*.*.*.*.*.*.*.*.*.*.*.*.*.*.c Z v z z z z z b s 8 , ",
"2 7 i g g d d d d g x d *.*.*.*.*.*.*.*.*.*.*.*.*.*.*.*.*.*.*.*.*.*.*.*.*.*.*.*.*.*.*.*.*.*.*.*.*.*.*.*.g l g d d g d d d a 7 , ",
"> 5 a l d d d d d l x g *.*.*.*.*.*.*.*.*.*.*.*.*.*.*.*.*.*.*.*.*.*.*.*.*.*.*.*.*.*.*.*.*.*.*.*.*.*.*.*.d x l d d d d d l a 8 > ",
"2 5 a l l d f l d l x g *.*.*.*.*.*.*.*.*.*.*.*.*.*.*.*.*.*.*.*.*.*.*.*.*.*.*.*.*.*.*.*.*.*.*.*.*.*.*.*.g c l d f k d l l a 5 2 ",
"2 7 a l l d f d g l z g *.*.*.*.*.*.*.*.*.*.*.*.*.*.*.*.*.*.*.*.*.*.*.*.*.*.*.*.*.*.*.*.*.*.*.*.*.*.*.*.d c l d k d l k l a 6 , ",
"2 8 a l l g l h l l c k *.*.*.*.*.*.*.*.*.*.*.*.*.*.*.*.*.*.*.*.*.*.*.*.*.*.*.*.*.*.*.*.*.*.*.*.*.*.*.*.g z x l l g f l l a 8 , ",
"> 6 a c l l l l l x c l *.*.*.*.*.*.*.*.*.*.*.*.*.*.*.*.*.*.*.*.*.*.*.*.*.*.*.*.*.*.*.*.*.*.*.*.*.*.*.*.l v x l l l l l x a 8 2 ",
"2 5 r a a a a i a a d a *.*.*.*.*.*.*.*.*.*.*.*.*.*.*.*.*.*.*.*.*.*.*.*.*.*.*.*.*.*.*.*.*.*.*.*.*.*.*.*.a d a a a i a a a r 5 2 ",
"2 3 4 4 4 4 4 4 4 5 7 4 *.*.*.*.*.*.*.*.*.*.*.*.O + o X O X O X X X O o X O + O *.*.*.*.*.*.*.*.*.*.*.*.4 7 5 4 5 3 4 4 4 3 3 3 ",
"2 3 9 0 0 0 0 0 0 0 e 9 *.*.*.*.*.*.*.*.*.*.*.*.X + + + + O + O + + O + + O + O *.*.*.*.*.*.*.*.*.*.*.*.9 w q 9 0 0 0 0 0 9 4 2 ",
", 9 m ( W I I U I Q ) n <   . X O O O O O O O O O O O O O O O O O O O O O O O X O O X O O O O O o     < n ) Q W W I U Q ( m 9 > ",
": 9 C %.X.| | X.X.+.%.N <   O O O O O O O O O O X X O X X O X X X X O O O X X O O O O O O O O O + o   < N %.+. .| ..X.O.#.B 0 : ",
", 8 s v v v c z z c Z p - . o O O O O O O O O O X X X O X X O X X X X O O O X X O O O O O O O O O X X - p b v c z z z c M f 8 2 ",
"2 7 a g d s d d d g k t =   . O X X O X O O X O O O O O O @ O @ + O O O O O O O O X O O O O O X X o   = t k d d d d d d d i 5 2 ",
", 7 a l d d d d g g l t =   . o O X O X X X X + % % O O @ % % % % & % # O O # % O O X O o X o X X X   = t x k d d d d g l a 7 2 ",
", 7 a l l k h d f g x y - o o + + O O O O + O + * % O O % * * * * * * % O O % & @ O O O O X + + + o o - t x k d h d l f l a 5 > ",
"2 7 a l k d h g l k x y - # # & * # O O @ % % % * % O @ % & * * * * * % O O % * % % & # O O # % $ $ # - u x l k g d g l l a 8 2 ",
"> 6 a l g d g d g l l p 1 $ & * * % O + % * * * * = O O % * * * % * * % O O % * * * * & O O * * * * $ 1 u l k g d g k f l a 6 > "
};
