/* XPM */
static char *result[] = {
/* columns rows colors chars-per-pixel */
"64 64 229 2 ",
"   c #000000",
".  c #0A0200",
"X  c #0C0C0C",
"o  c #2E3210",
"O  c #030E2E",
"+  c #162938",
"@  c #2C362C",
"#  c #453B00",
"$  c #374316",
"%  c #334D2F",
"&  c #544A02",
"*  c #4C500F",
"=  c #535E1B",
"-  c #675B04",
";  c #56621C",
":  c #5F6C1F",
">  c #766701",
",  c #495527",
"<  c #4E5033",
"1  c #42672D",
"2  c #5B6A2E",
"3  c #466F35",
"4  c #4A7334",
"5  c #507C37",
"6  c #527F39",
"7  c #616E22",
"8  c #687624",
"9  c #707F26",
"0  c #726730",
"q  c #697A39",
"w  c #020E4A",
"e  c #002846",
"r  c #0E314D",
"t  c #013356",
"y  c #283D4E",
"u  c #03376C",
"i  c #0E3669",
"p  c #073A74",
"a  c #18455D",
"s  c #324C52",
"d  c #3B6141",
"f  c #0A496B",
"g  c #034676",
"h  c #014C7B",
"j  c #145072",
"k  c #274869",
"l  c #3C5868",
"z  c #2C5472",
"x  c #2B626E",
"c  c #3A646D",
"v  c #474648",
"b  c #4C574E",
"n  c #615F5C",
"m  c #566E51",
"M  c #717150",
"N  c #4B596F",
"B  c #4A6765",
"V  c #50716F",
"C  c #566676",
"Z  c #626B78",
"A  c #6F7475",
"S  c #897801",
"D  c #8F7F1E",
"F  c #8A7B21",
"G  c #748329",
"H  c #7B8B2B",
"J  c #6E803C",
"K  c #778835",
"L  c #758846",
"P  c #7C9149",
"I  c #758C50",
"U  c #748C55",
"Y  c #5A8379",
"T  c #688767",
"R  c #988600",
"E  c #AB9601",
"W  c #B29D01",
"Q  c #AE9B1F",
"!  c #B8A100",
"~  c #B6A21E",
"^  c #9B8B2A",
"/  c #82932E",
"(  c #879933",
")  c #8EA133",
"_  c #8DA13E",
"`  c #92A535",
"'  c #96A936",
"]  c #99AC37",
"[  c #94A73B",
"{  c #9AAE3A",
"}  c #9EB23A",
"|  c #B9A524",
" . c #A1B53B",
".. c #A5BB3D",
"X. c #A9BE3E",
"o. c #C1A90D",
"O. c #CCB405",
"+. c #D5BC01",
"@. c #C1AD32",
"#. c #CAB339",
"$. c #ABC13F",
"%. c #DBC10B",
"&. c #E8CD02",
"*. c #EED208",
"=. c #F2D504",
"-. c #E7CC18",
";. c #DAC121",
":. c #E2C722",
">. c #859A45",
",. c #848B59",
"<. c #958958",
"1. c #A79953",
"2. c #91A643",
"3. c #B9AC5B",
"4. c #91926D",
"5. c #AEB16E",
"6. c #A1A278",
"7. c #AEC440",
"8. c #B9C87F",
"9. c #034C88",
"0. c #075889",
"q. c #185986",
"w. c #035C93",
"e. c #065896",
"r. c #015C9A",
"t. c #255C85",
"y. c #02629C",
"u. c #086599",
"i. c #126C93",
"p. c #12669B",
"a. c #296889",
"s. c #27689A",
"d. c #356B92",
"f. c #367B96",
"g. c #065FA1",
"h. c #0464A2",
"j. c #086AA6",
"k. c #036CAC",
"l. c #146DAA",
"z. c #0678AC",
"x. c #1677A9",
"c. c #056EB1",
"v. c #0572B4",
"b. c #0A72B3",
"n. c #077CB6",
"m. c #0976B9",
"M. c #0C7CBC",
"N. c #117AB4",
"B. c #137CB7",
"V. c #2873A8",
"C. c #45668D",
"Z. c #467A84",
"A. c #6D7B8C",
"S. c #557AA2",
"D. c #097EC0",
"F. c #3B829B",
"G. c #1C82AD",
"H. c #0584B9",
"J. c #1A85B5",
"K. c #1B8ABC",
"L. c #3386A7",
"P. c #258AB5",
"I. c #2C8BB6",
"U. c #4B838E",
"Y. c #798D91",
"T. c #5885A4",
"R. c #598BB1",
"E. c #7695AF",
"W. c #75A5BB",
"Q. c #0986C4",
"!. c #1688C6",
"~. c #1B8CC2",
"^. c #168BC9",
"/. c #1B94C7",
"(. c #1A93CD",
"). c #0C96D2",
"_. c #189BD5",
"`. c #1E9AD4",
"'. c #3F8DC7",
"]. c #2196C9",
"[. c #3699C9",
"{. c #259FD6",
"}. c #319DD1",
"|. c #0EA1DA",
" X c #16A3DB",
".X c #25A5DA",
"XX c #22A4DC",
"oX c #37A4D7",
"OX c #25AAE1",
"+X c #499AC9",
"@X c #6F9CCC",
"#X c #51A6D4",
"$X c #6BA9D3",
"%X c #45AEE2",
"&X c #6AB8E5",
"*X c #77BCE5",
"=X c #868585",
"-X c #909390",
";X c #94A383",
":X c #8895A9",
">X c #96ADAA",
",X c #99A6B4",
"<X c #ABACAC",
"1X c #B9B9B9",
"2X c #C9D98B",
"3X c #D5E692",
"4X c #D7E894",
"5X c #869FC1",
"6X c #8DB3D3",
"7X c #ACB6C6",
"8X c #90BFE2",
"9X c #B0C4D4",
"0X c #8FC5EA",
"qX c #98C5E5",
"wX c #AACEEA",
"eX c #BBD7EB",
"rX c #B8D8F1",
"tX c #C6C8CA",
"yX c #C6CDD5",
"uX c #CFD4D8",
"iX c #D8DDE5",
"pX c #C2DDF3",
"aX c #D7E1EB",
"sX c #D8E7F5",
"dX c #E9E8E8",
"fX c #E4EDF7",
"gX c #EFF1F4",
"hX c #F4F7FB",
"jX c #FCFCFD",
/* pixels */
"7.6 7.7.7.4X7.7.7.6 7.7.7.7.4X7.7.6 7.7.7.3X7.7.7.6 7.7.7.7.4X7.7.6 7.7.7.3X7.7.7.6 7.7.7.7.4X7.7.6 7.7.7.4X7.7.7.6 7.7.7.7.4X7.",
"4X7.7.7.7.7.4X4X4X7.7.7.7.7.7.4X3X7.7.7.7.7.4X4X4X7.7.7.7.7.7.4X4X7.7.7.7.7.4X3X4X7.7.7.7.7.7.4X4X7.7.7.7.7.4X4X4X7.7.7.7.7.7.4X",
"7.7.7.7.7.7.7.7.7.7.7.7.7.7.7.7.7.7.7.7.7.7.7.7.7.7.7.7.7.7.7.7.7.7.7.7.7.7.7.7.7.7.7.7.7.7.7.7.7.7.7.7.7.7.7.7.7.7.7.7.7.7.7.7.",
"7.7.7.7.7.6 7.7.7.7.7.7.4X7.7.7.7.7.7.7.7.6 7.7.7.7.7.7.3X7.7.7.7.7.7.7.7.6 7.7.7.7.7.7.4X7.7.7.7.7.7.7.7.6 7.7.7.7.7.7.4X7.7.7.",
"7.7.7.7.4X7.6 7.7.7.7.7.7.7.7.7.7.7.7.7.3X7.6 7.7.7.7.7.7.7.7. .] ..$.7.4X7.6 7.7.7.7.7.7.7.X...7.7.7.7.4X7.6 7.7.7.7.7.7.7.7.7.",
"6 7.7.7.7.4X7.7.7.7.7.7.7.7.$.J 6 7.7.7.7.3X7.7.7.7.7.7.7.7.X.1 1 H ..$.7.4X7.7.7.7.7.7.7.7.7.J 6 7.7.7.7.4X7.7.7.7.7.7.7.7.7.6 ",
"7.6 7.7.7.7.7.7.7.7.7.7.$.$.J  .$.6 7.7.7.7.7.7.7.7.7.7.$. .3 U c d P $.X.7.7.7.7.7.7.7.7.7.J X.7.6 7.7.7.7.7.7.7.7.7.7.7.7.6 7.",
"7.7.6 7.7.7.7.7.7.7.7.7.7.4X$.X.$.$.J 7.7.7.7.7.7.7.7.7...8.J F.P.L.x H } 7.7.7.7.7.7.7.7.4X7.7.7.7.6 7.7.7.7.7.7.7.7.7.7.4X7.7.",
"7.6 7.7.7.7.7.7.7.4X7.7.7.4X7.7.7.6 7.7.7.7.....X.3X$.X.2.4.c V./.G.x : ' $.X.X.X.3X$.$.7.4X7.7.7.6 7.7.7.7.7.7.7.4X7.7.7.4X7.7.",
"4X7.7.7.7.7.7.7.J 7.3X7.7.7.4X4X3X7.7.7.7.7.] H 1 X.2X) I Z.P.!.K.G.f : ' X.` / 1 $.4X$.7.7.4X4X4X7.7.7.7.7.7.7.6 7.4X7.7.7.4X4X",
"7.7.7.7.7.7.7.7.X.6 7.7.7.7.7.7.7.7.7.X.$...P J J 3 ] J B P.{.(.!.u.f 2 ) 2.L m P 4 $.7.7.7.7.7.7.7.7.7.7.7.7.7.7.6 7.7.7.7.7.7.",
"7.7.7.6 7.7.7.7.7.7.7.7.7.7.7.7.7.7.7.J ] P T F.U.U L B u.~.XX{./.N.i.a I P Y f.Y ( } $.7.7.7.7.7.7.7.6 7.7.7.7.7.7.7.7.7.7.7.7.",
"7.7.7.7.7.7.7.7.7.7.7.7.7.7.7.7.$.$.$.X.( m f.~.L.B l s.D.(..XOX X(.B.s.l B L.I.L.m H } 7.7.7.7.7.7.7.7.7.7.7.7.7.7.7.7.7.7.7.7.",
"7.7.7.7.7.7.7.6 6 7.7.7.7.7.7.7.$...} P T a.V.P.x.i.0.N.(.`.OXOX.XXX(.N.u.0.l.P.x.s.T >.{ ..7.7.7.7.7.7.7.7.7.6 6 7.7.7.7.7.7.7.",
"6 7.7.7.7.7.6 7.7.6 7.7.7.7.7.7.J ] H m F.K.B.p.p.j.N./.{.OXOXOXOXOXXX(.N.j.p.p.G.K.L.V H } $.$.6 7.7.7.7.7.6 7.7.6 7.7.7.7.7.7.",
"7.6 7.7.7.4X7.7.7.7.6 7.7.7.7.4X$.4 G k G.{.~.p.e.N./. XOXOXOXOXOXOXOXXX(.H.e.p.K.`.J.k 7 ' $.4X7.6 7.7.7.4X7.7.7.7.6 7.7.7.7.4X",
"7.6 7.7.7.4X7.7.7.J 7.7.7.7.3X7.7.4 G f G.]./.H.B.(.{.XXOXOXOXOXOXOXOXOX{.(.B.B.K..XJ.f : [ 4X7.7.6 7.7.7.4X7.7.7.6 7.7.7.7.4X7.",
"4X7.7.7.7.7.4X4X4X7.7.7.7.7.7.3X3XP L x G.|./.H.D.{.XXOXOXOXOXOXOXOXOXOXOX{.!.D./. XP.a.m 2...4X4X7.7.7.7.7.4X4X4X7.7.7.7.7.7.4X",
"7.7.7.7.7.7.7.7.7.7.7.7.7.7.$.} H T F.G.~.(.!.M.D.^.{.{.OXOXOXOXOXOXOXXX{.^.D.D.Q.^.~.J.F.T H } $.7.7.7.7.7.7.7.7.7.7.7.7.7.7.7.",
"7.7.7.7.7.6 7.7.7.7.7.7.3X7.$.` G x P. X(.H.m.b.m.D.D.{.OXOXOXOXOXOXXX{.!.D.m.m.m.D./.`.].x 2 ) $.7.7.7.7.6 7.7.7.7.7.7.4X7.7.7.",
"7.7.7.7.4X7.6 7.7.7.7.7.7.7.7.H ; f N.(.!.m.k.g.g.b.D.(.`.XXOXOXOXXX`.^.Q.m.h.g.j.m.^.(.J.j , ) $.7.7.7.3X7.6 7.7.7.7.7.7.7.7.7.",
"6 7.7.7.7.4X7.7.7.7.7.7.7.7.7.1 $ k u.M.m.b.j.9.e.c.m.D.D.`.OXOXXX`.!.D.m.b.e.9.e.b.m.D.l.k ; 1 6 7.7.7.7.4X7.7.7.7.7.7.7.7.7.6 ",
"7.6 7.7.7.7.7.7.7.7.7.7.7.7.6 } H s c p.y.e.p.l.h.e.g.g.b.D.`._._.^.c.g.r.r.y.p.p.y.e.p.a.m 1  .$.6 7.7.7.7.7.7.7.7.7.7.7.7.6 7.",
"7.7.6 7.7.7.7.7.7.7.7.7.7.4X7.$...>.s a t f l.P.B.q.k p e.l.B.~.D.l.e.p a q.G.~.x.j t i m 5.] $.$.7.6 7.7.7.7.7.7.7.7.7.7.4X7.7.",
"7.6 7.7.7.7.7.7.7.4X7.7.7.3X7.7.7.4 G + e g G..X#X:XA N k C.S.T.S.C.l N A :X@X[.H.j t + : 8.$.$.7.6 7.7.7.7.7.7.7.4X7.7.7.4X7.7.",
"4X7.7.7.7.7.7.7.6 7.4X7.7.7.4X4X4X{ G + g p.Q.oX8XyX1X=Xv M 4.4.4.M v A 1XyX8X#XQ.j.h r : ` 4X4X4X7.7.7.7.7.7.7.6 7.4X7.7.7.4X4X",
"7.7.7.7.7.7.7.7.7.6 7.7.7.7.7.7.$.} G b t.x.Q.[.8XiXuX-X0 R ~ ~ @.R F -XyXaX8X+XH.z.a.b G ] $.$.7.7.7.7.7.7.7.7.7.6 7.7.7.7.7.7.",
"7.7.7.6 7.7.7.7.7.7.7.7.7.7.7.7.$...' 1 V x 0.f.W.qX9X<X^ ! %.%.+.o.D -X7XwX@Xf.w.j V P ` ..$.$.7.7.7.6 7.7.7.7.7.7.7.7.7.7.7.7.",
"7.7.7.7.7.7.7.7.7.7.7.7.7.7.7.7.$.X.X.} K % e t s.+XW.;X| %.&.*.*.+.o.6.@X+XF.a e % q { $.7.$.7.7.7.7.7.7.7.7.7.7.7.7.7.7.7.7.7.",
"7.7.7.7.7.7.7.6 6 7.7.7.7.7.7...) ) ....G % t h u.u.Y.3.;.&.*.=.*.*.+.3.Y.G.u.h t % 9 } ..} H $.7.7.7.7.7.7.7.6 6 7.7.7.7.7.7.7.",
"6 7.7.7.7.7.6 7.7.6 7.7.7.7.X.2.% J P ..G % 9.h.y.j M @.-.*.*.=.=.*.&.@.,.z y.y.h + G } ] J L P 5 $.7.7.7.7.6 7.7.6 7.7.7.7.7.7.",
"7.6 7.7.7.4X7.7.7.7.6 7.7. .P 6.U.x U P 2 s 0.c.k.0.A 1.@.:.*.=.*.:.#.1.A q.h.z.w.a % H I Z.U.T P 5 $.7.7.4X7.7.7.7.6 7.7.7.7.4X",
"7.6 7.7.7.4X7.7...J 7.7.$.` U U.I.P.V v v i e.b.v.c.d.C ,.#.-.=.-.#.<.Z d.l.v.v.e.u y b V I.I.Z.q 1 X.$.7.4X7.7.7.J 7.7.7.7.4X7.",
"3X7.7.7.7.7.4X3X3X7.7.7.$.( 1 j K.~.i.t i 9.e.u.c.m.v.k.A.3.;.&.-.3.Y.k.c.v.k.h.e.9.i e q.J.K.i.b / $.$.7.7.4X4X3XX.7.7.7.7.7.4X",
"7.7.7.7.7.7.7.7.7.7.7.7.X.( , h b.B.e.u 9.e.u.h e.k.Q.Q.R.-XX.O.@.6.R.Q.D.b.w.h e.g.9.u 9.N.N.0.% H X.$.X.$.7.$.7.7.7.7.7.7.7.7.",
"7.7.7.7...J 7.7.7.7.7.7.8.P V h u.h.9.9.e.g.h t g j.'.$X*X>X6.1.6.>X6X$X+Xl.g t g g.e.9.9.h.u.0.B U { X...J 7.$.7.7.7.7.4X7.7.7.",
"7.7.7.7.4X7.J 7.7.7..._ K Y L.x.0.0.e.r.9.p t O u l.@XwXeX9XW.E.W.6XeXwX@XV.9.O w g 9.e.w.9.0.x.L.U.I ) 2X7.J $.7.7.7.7.7.7.7.7.",
"6 7.7.7.7.4X$.7.7.7...H b s./.K.j z S.R.S.C v + g x.6XiXfXrX*X&X8XeXfXaX6XV.h r v N S.R.S.z j N./.V.d H  .4X7.7.7.7.7.7.7.7.7.6 ",
"7.6 7.7.7.7.7.7.7.$. .H % u.K.H.j Z ,X7XtX1X-Xb h B.6XsXhXfXpXrXrXsXhXfXqXI.0.v 4.1XyX9X,XA.f z.K.u.a G  .$.7.7.7.7.7.7.7.7.6 7.",
"7.7.6 7.7.7.7.7.7.$. .H b j z.y.i A.yXhXgXdX<XZ u.^.8XsXhXhXhXhXhXjXhXsXqX}.u.C <XdXgXgXuX=Xk g.x.q.+ H  .$.7.7.7.7.7.7.7.4X7.7.",
"7.6 7.7.7.7.7.7.7.3X..` K Y x w.q.:XiXhXdXtX,XT.H..X&XwXsXhXjXjXjXhXsXrX*XoXH.T.,XtXdXhXaX,Xt.9.i.j K P ..7.7.7.7.4X7.7.7.4X7.7.",
"4X7.7.7.7.7.7.7.6 7.3X..} P V h p.5XiXdXtX-XT.'._.XX%X&XqXsXhXjXjXsXwX&X%XOX X[.T.Y.1XdXdX5Xs.p m I } ..X.7.7.7.6 7.4X7.7.7.4X4X",
"7.7.7.7.7.7.7.7.7.6 7.7.$.P H m a.E.7XtX-Xb y./.`.XX X|.&XrXsXfXsXrX&X X|.`.`.(.k.s -XtXtXE.d.B J ` ..7.7.7.7.7.7.6 7.7.7.7.7.7.",
"7.7.7.6 7.7.7.7.7.7.7.7.7...} P B N =X=Xn r 0.H.!.!.).|.oX*X0X0X0X*X%X X).^.^.D.w.r n A A.C B L ' ..7.6 7.7.7.7.7.7.7.7.7.7.7.7.",
"7.7.7.7.7.7.7.7.$.7.7.7.$.$.3.] 9 * @ @ & 0 C V.k.k.m.(.{.{.}.}.oX.X{.(.M.k.k.s.C 0 - # @ < G ' $.$.$.$.7.7.7.7.7.7.7.7.7.7.7.7.",
"7.7.7.7.7.7.7.6 J 7.7.7.$.$.$...[ / = & R | <.N u u w.n.Q.v.k.g.k.n.!.N.y.h u N ,.| R - * G ] $.$.$.$.$.7.7.7.6 6 7.7.7.7.7.7.7.",
"6 7.7.7.7.7.6 7.$.J $.$.$.$.7.7.6 ] 8 - E O.~ 0 < < l s.l.e.p u u 9.j.l.l < , 0 Q O.W - 7 ` 2.7.J $.$.$.7.7.6 7.7.6 7.7.7.7.7.7.",
"7.6 7.7.7.4X7.7.$.$.K $.$.$.7.4X7.3 8 & S E ! ! E S M N j u w w w u j N M S R W W E S * 7 [ $.4X7.J $.$.7.4X7.7.7.7.6 7.7.7.7.4X",
"7.6 7.7.7.4X7.7.7.6 7.7.7.7.4X7.$.4 G $ $ - E %.O.W / < + O O X O O + < / E O.+.E > $ $ G ] 4X7.7.6 7.7.7.4X7.7.7.6 7.7.7.7.4X7.",
"4X7.7.7.7.7.4X4X4X7.7.7.7.7.7.4X3X..H G * $ > E W R S & X   .       . # > R E W G $ * G H } 7.4X3X7.7.7.7.7.4X4X4X7.7.7.7.7.7.4X",
"7.7.7.7.7.7.7.7.7.7.7.7.7.7.7.7.7.$...] G $ $ - - & # o .             o # & - - & $ G H ..7.7.7.7.7.7.7.7.7.7.7.7.7.7.7.7.7.7.7.",
"7.7.7.7.7.6 7.7.7.7.7.7.4X7.7.7.7.7.7.X.H 1 : G = o                       X = : 8 8 H ..4X7.7.7.7.7.7.7.7.6 7.7.7.7.7.7.4X7.7.7.",
"7.7.7.7.4X7.6 7.7.7.7.7.7.7.7.7.7.7.7.7.8.} 5 P H * .                   . * % ' ] ]  .$.7.7.7.7.7.7.7.7.4X7.6 7.7.7.7.7.7.7.7.7.",
"6 7.7.7.7.4X7.7.7.7.7.7.7.7.7.6 6 7.7.7.7.3X7.$.' G ; = ; ; ; o o ; ; ; ; >.` $.$.$.$.$.7.7.7.6 6 7.7.7.7.4X7.7.7.7.7.7.7.7.7.6 ",
"7.6 7.7.7.7.7.7.7.7.7.7.7.7.6 7.7.6 7.7.7.7.7.7...] ) ) ) ) 1 ) ) 1 ) ) ] ] $.$.$.$.$.$.7.7.6 7.7.6 7.7.7.7.7.7.7.7.7.7.7.7.6 7.",
"7.7.6 7.7.7.7.7.7.7.7.7.7.4X7.7.7.7.J 7.7.7.7.7.$.$.$.$.$.3X$.$.2.7.5 7.$.$.$.$.$.$.$.$.7.4X7.7.7.7.6 7.7.7.7.7.7.7.7.7.7.4X7.7.",
"7.6 7.7.7.7.7.7.7.4X7.7.7.4X7.7.7.6 7.7.7.7.7.7.7.4X7.7.7.4X7.7.7.J 7.7.7.7.7.7.7.4X7.7.7.4X7.7.7.6 7.7.7.7.7.7.7.4X7.7.7.4X7.7.",
"4X7.7.7.7.7.7.7.6 7.4X7.7.7.4X4X4X7.7.7.7.7.7.7.6 7.4X7.7.7.4X4X4X$.7.7.7.7.7.7.6 7.4X7.7.7.4X4X4X7.7.7.7.7.7.7.6 7.4X7.7.7.4X4X",
"7.7.7.7.7.7.7.7.7.6 7.7.7.7.7.7.7.7.7.7.7.7.7.7.7.6 7.7.7.7.7.7.$.7.7.7.7.7.7.7.7.6 7.7.7.7.7.7.7.7.7.7.7.7.7.7.7.6 7.7.7.7.7.7.",
"7.7.7.6 7.7.7.7.7.7.7.7.7.7.7.7.7.7.7.6 7.7.7.7.7.7.7.7.7.7.7.7.$.7.7.J 7.7.7.7.7.7.7.7.7.7.7.7.7.7.7.6 7.7.7.7.7.7.7.7.7.7.7.7.",
"7.7.7.7.7.7.7.7.7.7.7.7.7.7.7.7.7.7.7.7.7.7.7.7.7.7.7.7.7.7.7.7.7.7.7.7.7.7.7.7.7.7.7.7.7.7.7.7.7.7.7.7.7.7.7.7.7.7.7.7.7.7.7.7.",
"7.7.7.7.7.7.7.6 6 7.7.7.7.7.7.7.7.7.7.7.7.7.7.6 6 7.7.7.7.7.7.7.7.7.7.7.7.7...J 6 7.7.7.7.7.7.7.7.7.7.7.7.7.7.6 6 7.7.7.7.7.7.7.",
"6 7.7.7.7.7.6 7.7.6 7.7.7.7.7.7.6 7.7.7.7.7.6 7.7.6 7.7.7.7.7.7.6 7.7.7.7.7.6 $.7.6 7.7.7.7.7.7.6 7.7.7.7.7.6 7.7.6 7.7.7.7.7.7.",
"7.6 7.7.7.4X7.7.7.7.6 7.7.7.7.4X7.6 7.7.7.4X7.7.7.7.6 7.7.7.7.4X7.6 7.7.7.3X7.7.7.7.6 7.7.7.7.4X7.6 7.7.7.4X7.7.7.7.6 7.7.7.7.4X"
};
