/* XPM */
static char *result[] = {
/* columns rows colors chars-per-pixel */
"64 64 233 2 ",
"   c #000000",
".  c #070805",
"X  c #101604",
"o  c #191801",
"O  c #000517",
"+  c #221D00",
"@  c #1E2409",
"#  c #272905",
"$  c #272D0F",
"%  c #2D340B",
"&  c #383807",
"*  c #00032A",
"=  c #031526",
"-  c #001932",
";  c #0B293D",
":  c #323437",
">  c #463D00",
",  c #443F30",
"<  c #374515",
"1  c #35522B",
"2  c #3E612A",
"3  c #574C03",
"4  c #55500B",
"5  c #474C16",
"6  c #4C5717",
"7  c #685B02",
"8  c #5A661D",
"9  c #7A6A00",
"0  c #6F6D16",
"q  c #505029",
"w  c #665C2C",
"e  c #4B6B33",
"r  c #4B7534",
"t  c #507A37",
"y  c #527F39",
"u  c #616E20",
"i  c #647121",
"p  c #6D7B25",
"a  c #716D31",
"s  c #667638",
"d  c #000B43",
"f  c #011847",
"g  c #0B2C49",
"h  c #032957",
"j  c #033457",
"k  c #2E3D58",
"l  c #052E66",
"z  c #053A68",
"x  c #153E60",
"c  c #053A76",
"v  c #413B4A",
"b  c #1E4453",
"n  c #295253",
"m  c #07466C",
"M  c #184D6F",
"N  c #084B76",
"B  c #0A587B",
"V  c #2E556A",
"C  c #385764",
"Z  c #285874",
"A  c #356775",
"S  c #4E574E",
"D  c #595C5A",
"F  c #566D4B",
"G  c #5A7257",
"H  c #6A6F45",
"J  c #647C57",
"K  c #4D6D67",
"L  c #587A6B",
"P  c #447178",
"I  c #547073",
"U  c #626264",
"Y  c #6C776D",
"T  c #737674",
"R  c #867501",
"E  c #8C7D0E",
"W  c #768327",
"Q  c #7C8D2C",
"!  c #7F902D",
"~  c #778836",
"^  c #6B814B",
"/  c #788A4A",
"(  c #7D9249",
")  c #738D5C",
"_  c #7E9553",
"`  c #5C8379",
"'  c #698766",
"]  c #748D69",
"[  c #958302",
"{  c #958C16",
"}  c #A18E01",
"|  c #A89404",
" . c #AD9A0C",
".. c #B9A301",
"X. c #83952E",
"o. c #88972E",
"O. c #8A9C31",
"+. c #A08D22",
"@. c #8EA133",
"#. c #92A534",
"$. c #99AC37",
"%. c #95A838",
"&. c #9AAE39",
"*. c #9EB23A",
"=. c #B2AB2B",
"-. c #A1B53B",
";. c #A5BB3C",
":. c #A9BE3E",
">. c #C3AD07",
",. c #CDB503",
"<. c #CDB730",
"1. c #ACC23F",
"2. c #B3C33C",
"3. c #DCC30D",
"4. c #E4CA04",
"5. c #E6CD0C",
"6. c #CAC329",
"7. c #869B48",
"8. c #938952",
"9. c #89945A",
"0. c #90A544",
"q. c #96AA42",
"w. c #B3A659",
"e. c #8C916C",
"r. c #A29E62",
"t. c #98A569",
"y. c #96A879",
"u. c #A4B06F",
"i. c #AAB874",
"p. c #AEC440",
"a. c #B6C57D",
"s. c #084B87",
"d. c #0A5787",
"f. c #095D8E",
"g. c #125A88",
"h. c #065B96",
"j. c #0B638D",
"k. c #13688D",
"l. c #0A659A",
"z. c #146799",
"x. c #126B9B",
"c. c #16739B",
"v. c #2A678C",
"b. c #396884",
"n. c #357089",
"m. c #25799E",
"M. c #3A7B91",
"N. c #096AA7",
"B. c #146AA2",
"V. c #0574AA",
"C. c #1677A5",
"Z. c #197DAB",
"A. c #076DB0",
"S. c #0977B7",
"D. c #177CB5",
"F. c #3776AE",
"G. c #4E7590",
"H. c #72758A",
"J. c #677CA2",
"K. c #097FC1",
"L. c #3B829C",
"P. c #0080AD",
"I. c #1A82AD",
"U. c #0484B7",
"Y. c #1A83B3",
"T. c #1684BC",
"R. c #1C8BBC",
"E. c #3487A8",
"W. c #288CB7",
"Q. c #338CB3",
"!. c #2791BD",
"~. c #4E8188",
"^. c #518387",
"/. c #448397",
"(. c #6C8A8F",
"). c #4C8AB0",
"_. c #6E92B2",
"`. c #78A5B3",
"'. c #058AC9",
"]. c #168AC6",
"[. c #1A8CC3",
"{. c #158ECA",
"}. c #0894CD",
"|. c #1D95C8",
" X c #1C94CB",
".X c #099BD6",
"XX c #1998D3",
"oX c #1E9DD5",
"OX c #2198CA",
"+X c #3591CA",
"@X c #229ED4",
"#X c #00A5DE",
"$X c #1EA4DA",
"%X c #27A4DA",
"&X c #22A4DC",
"*X c #24A8DF",
"=X c #39A6DB",
"-X c #0AA9E2",
";X c #25AAE1",
":X c #38ADE2",
">X c #5098CB",
",X c #50A8D3",
"<X c #4DB0E2",
"1X c #73B7E0",
"2X c #888786",
"3X c #939691",
"4X c #95A28A",
"5X c #A5AA92",
"6X c #8D98A3",
"7X c #9499AA",
"8X c #98A6B6",
"9X c #A8AEB7",
"0X c #B7B8B7",
"qX c #BDCC82",
"wX c #C6D688",
"eX c #D4E592",
"rX c #D7E894",
"tX c #C1C0BF",
"yX c #92B3D6",
"uX c #AABCD0",
"iX c #B8C0CE",
"pX c #95C5E8",
"aX c #A8C9E2",
"sX c #C4C4C5",
"dX c #CACED5",
"fX c #D4D4D5",
"gX c #D3DCE6",
"hX c #D7E3EF",
"jX c #E5E5E7",
"kX c #ECECED",
"lX c #E8ECF1",
"zX c #F6F5F6",
"xX c #FDFDFD",
/* pixels */
"p.y p.p.p.rXp.p.p.y p.p.p.p.rXp.p.y p.p.p.eXp.p.p.y p.p.p.p.rXp.p.y p.p.p.rXp.p.1.^ p.p.p.p.rXp.p.^ ;.1.p.eXp.1.p.W p.p.p.p.eXp.",
"rXp.p.p.p.p.rXrXrXp.p.p.p.p.p.rXeXp.p.p.p.p.rXeXrXp.p.p.p.p.p.rXrXp.p.p.p.p.rXrXrXp.p.p.p.p.p.rXrXp.p.p.p.p.eXeXeX1.p.p.p.p.p.rX",
"p.p.p.p.p.p.p.p.p.p.p.p.p.p.p.p.p.p.p.p.p.p.p.p.p.p.p.p.p.p.p.p.p.p.p.p.p.1.p.p.p.p.p.p.p.p.p.p.p.p.p.p.p.p.p.p.p.p.p.p.p.p.p.p.",
"p.p.p.p.p.y p.p.p.p.p.p.rXp.p.p.p.p.p.p.p.y p.p.p.p.p.p.rXp.p.p.p.p.1.;.;.y 1.p.p.p.p.p.eXp.p.p.p.p.p.p.p.y p.p.p.p.p.p.rXp.p.p.",
"p.p.p.p.rXp.y p.p.p.p.p.p.p.p.p.p.p.p.p.eXp.y p.p.p.p.p.p.p.p.p.p.1.1.&.i.! ^ p.1.1.1.1.1.1.:.;.p.p.p.p.eXp.y p.p.p.p.p.p.p.p.p.",
"y p.p.p.p.rXp.p.p.p.p.p.p.p.p.y y p.p.p.p.eXp.p.p.p.p.p.p.p.p.y ^ 1.*.! ^ _ &.1.1.1.1.1.1.1.1.^ y p.p.p.p.eXp.p.p.p.p.p.p.p.p.y ",
"p.y p.p.p.p.p.p.p.p.p.p.p.p.y p.1.y p.p.p.p.p.p.p.p.p.p.p.p.y p.-.r %.' P ` _ &.;.p.1.2.1.1.^ ;.p.y p.p.p.p.p.p.p.p.p.p.p.1.y p.",
"p.p.y p.p.p.p.p.p.p.p.p.p.rXp.p.1.1.W p.p.p.p.p.p.p.p.p.p.rXp.1.&.Q n L.W.E.P ~ *.1.1.1.1.rXp.p.p.p.y p.p.p.p.p.p.p.p.p.p.rXp.p.",
"p.y p.p.p.p.p.p.p.rXp.p.p.rXp.p.p.y p.p.p.p.p.p.p.rX1.1.1.rX1.*.! n A P.OXE.P s X.wX-.:.p.rXp.p.p.y p.p.p.p.p.p.p.rXp.p.p.rXp.p.",
"rXp.p.p.p.p.p.p.y p.rXp.p.p.rXrXeXp.p.p.p.p.p.p.^ 2.rX1.2.1.a.u.] n.B k.m.~.) Q 2 X.a.;.p.p.rXrXrXp.p.p.p.p.p.p.y p.rXp.p.p.rXrX",
"p.p.p.p.p.p.p.p.p.y p.p.p.p.p.p.p.p.p.p.p.p.p.p.1.^ 1.1.1.;.! F A z.V.j.V J 7.%.~ 1 ~ &.1.p.p.1.p.p.p.p.p.p.p.p.p.y p.p.p.p.p.p.",
"p.p.p.y p.p.p.p.p.p.p.p.p.p.p.p.p.p.p.y p.p.p.p.1.;.1.1.*.7.' A z.V.V.j.Z G 7.9.` G.L _ %.:.1.1.p.p.p.y p.p.p.p.p.p.p.p.p.p.p.p.",
"p.p.p.p.p.p.p.p.p.p.p.p.p.p.p.p.p.p.p.p.p.p.1.1.1.p.1.*.~ ' L.W.R.S.S.A.z.G.G G /.E.E.L ~ #.:.1.p.p.p.p.p.p.p.p.p.p.p.p.p.p.p.p.",
"p.p.p.p.p.p.p.y ^ p.p.p.p.p.p.p.p.p.p.p.p.p.p.y y ;.;.! ^ A I.@XoX XK.K.A.g.Z B C.!.E.P s @.1.1.p.p.p.p.p.p.p.y y p.p.p.p.p.p.p.",
"y p.p.p.p.p.W 1.1.^ p.p.p.p.p.p.y p.p.p.p.p.^ ;.;.r ! ' ~.I.OX%X&XoX{.{.K.A.h.f.x.c.^.) O.&.1.1.y p.p.p.p.p.y p.p.y p.p.p.p.p.p.",
"p.y p.p.p.eX;.1.;.-.y p.p.p.p.rXp.y p.p.p.eXp.1.*.! n L.W.@X*X;X;X&X@X{.K.A.A.N.j.Z n 0.*.1.1.rXp.y p.p.p.rXp.p.p.p.y p.p.p.p.rX",
"p.y p.p.p.rXp.p.p.y p.p.p.p.rXp.p.y p.p.p.rX;.*.7.C M.I.@X;X;X;X;X;X@X[.A.A.S.S.x.k.` ( $.;.eX1.p.y p.p.p.rXp.p.p.y p.p.p.p.rXp.",
"rXp.p.p.p.p.rXrXrXp.p.p.p.p.p.rXrXp.p.p.p.1.wXt.] /.W.OX%X;X;X;X;X;X@XD.h.h.N.S.T.W.L.' Q %.1.eXrXp.p.p.p.p.rXrXrXp.p.p.p.p.p.rX",
"p.p.p.p.p.p.p.p.p.p.p.p.p.p.p.p.p.p.p.1.:.*.( ^ Z C.|.@X@XOX%X;X;X;X@XD.z.h.N.D.{.|.Y.v.K ( q.1.1.p.p.p.p.p.p.p.p.p.p.p.p.p.p.p.",
"p.p.p.p.p.y p.p.p.p.p.p.rXp.p.p.p.p.p.1.&.2 ^ A f.x.C.V.P.P.R.-X;X@X X[.D.B.l.j.B.Z.Z.I.L.` ( #.-.p.p.p.p.y p.p.p.p.p.p.rXp.p.p.",
"p.p.p.p.rXp.y p.p.p.p.p.p.p.p.p.1.2.w.-.y.t V v.B.d.m b V b.+XoX@X{.].{.|.Y.g.j z d.C.[.!.M.F Q *.p.p.p.rXp.y p.p.p.p.p.p.p.p.p.",
"y p.p.p.p.rXp.p.p.p.p.p.p.p.p.y ^ 1.*.O.Q s D b.g.c : D 2X6X_.>XXX{.{.{.R.C.N h l s.B.Y.Q.~.^ 2 r p.p.p.p.rXp.p.p.p.p.p.p.p.p.y ",
"p.y p.p.p.p.p.p.p.p.p.p.p.p.y p.;.r X.0 E E H D x d , 2XuXdXuX>X'..X XD.k.M l c s.h.l.j.A ) r *.:.y p.p.p.p.p.p.p.p.p.p.p.p.y p.",
"p.p.y p.p.p.p.p.p.p.p.p.p.rXp.;.*.O.u 0 E +.E H x f k 3XdXgXaX>X'..XOXZ.B z h c h.N.l.d.K y.q.;.:.p.y p.p.p.p.p.p.p.p.p.p.rXp.p.",
"p.y p.p.p.p.p.p.p.rXp.p.p.rX1.%.o.p  .| .. .8.T f.s.v._.uXuXyX>X}.XX].R.Z.k.m l c h.z.C.M.(.( #.-.y p.p.p.p.p.p.p.rXp.p.p.rXp.p.",
"rXp.p.p.p.p.p.p.y p.rXp.p.p.wXi.~ [ ..3.,.=.e.H.F.A.D.F.>X>X>X%XXX{.]. X XZ.N g h s.B.[.!./.Y t.wXp.p.p.p.p.p.p.y p.rXp.p.p.rXrX",
"p.p.p.p.p.p.p.p.p.y p.p.p.p.-.! 6 [ 3.4.4.<.w.3XJ.>X+XK.'.'.XX&X@XXX{.[.R.c.N j N z.I.Y.Q.^.^ O.*.p.p.p.p.p.p.p.p.y p.p.p.p.p.p.",
"p.p.p.y p.p.p.p.p.p.p.p.p.p.-.! 4 [ 3.4.5.3.<.w.2X_.>X.X.X-X$X&X;X&X XD.k.N l M C.R.Y.c.P ) 0.*.:.p.p.y p.p.p.p.p.p.p.p.p.p.p.p.",
"p.p.p.p.p.p.p.p.p.p.p.p.p.p.;.! i { ..5.5.3.<.w.4X`.,X$X;X;X&X&X%X@XOXC.B m c g.I.R.Q.P ^ ! $.;.1.p.p.p.p.p.p.p.p.p.p.p.p.p.p.p.",
"p.p.p.p.p.p.p.y y p.p.p.p.p.;.&.O.$.6.6.=.=.r.4X`.,X=X*X;X$X&XXX].D.Z.Z.Z.c.B.h.c.m.^.) Q ! ! @.;.p.p.p.p.p.p.y y p.p.p.p.p.p.p.",
"y p.p.p.p.p.y p.p.y p.p.p.p.1.;.t -.2.1.#.a G.).,X=X%X*X;X$XXXT.A.z.z.D.@XOXK.A.f.N ^ %.#.~ W ^ r ;.p.p.p.p.y p.p.y p.p.p.p.p.p.",
"p.y p.p.p.rXp.p.p.p.y p.p.p.p.rX2.^ 1.-.! e B U.|.$X$X$X;X$X[.N.h.z.D. X@X@XOXT.l.k.n ( _ ' M.^._ r ;.1.p.rXp.p.p.p.y p.p.p.p.rX",
"p.y p.p.p.rXp.p.p.y p.p.p.p.rXp.1.y 2.-.X.S N V.'.'.{. X$XoXI.d.z.D.OX@X;X;X@XXXK.B.G.G L G.Q.E.L 1 #.1.1.rX1.1.1.~ p.p.p.p.eXp.",
"rXp.p.p.p.p.rXrXrXp.p.p.p.p.p.eXrX1.;.-.9.T G.F.D.S.]. X|.|.c.B z.|.;X;X;X;X;X&X XK.z.x M m.!.I.n.K ( &.:.1.rXrXeX1.p.p.p.p.p.eX",
"p.p.p.p.p.p.p.p.1.p.p.p.p.p.p.p.1.-.@.9.5X0X9X_.D.'.{.R.Y.c.l.j.Z.OX;X;X;X;X;X;X&XXXD.s.z g.c.I.I.L.` / ! ;.1.1.1.p.p.p.p.p.p.p.",
"p.p.p.p.p.y p.p.p.p.p.p.rXp.p.p.1.%.W Y 0XjXdXyX+X'.$XR.k.N s.V.].@X&X;X;X;X;X;X&X@XW.g.l j m c.R.!.M.F W ^ 1.1.p.p.p.p.rXp.p.p.",
"p.p.p.p.rX1.y p.p.p.p.p.p.p.p.p.1.#.8 T tXlXhXpX+X.X&X].B f c h.S.{.oX;X%X;X;X&X@X+XB.s.l l N j.I.E.^.^ i.*.^ 1.p.p.p.p.p.p.p.p.",
"y p.p.p.p.rXp.p.p.p.p.p.p.p.p.y t #.u T tXlXhXpX=X#X&X].B f h s.N.S.{.oX;X;X;X@X[.B.g.c c s.l.l.j.P ) 0.*.eXp.p.p.p.p.p.p.p.p.y ",
"p.y p.p.p.p.p.p.p.p.p.p.p.p.W p.p.e i Y uXgXhXpX:X-X%X>X(.T H.H.G.F.K.{.@X;X;X@XD.g.s.s.h.h.l.l.B M ( q.1.1.1.p.p.p.p.p.p.p.y p.",
"p.p.y p.p.p.p.p.p.p.p.p.1.eX1.p.;.@.< D 8XpXpX1X:X#X=X1XuXsXsXuX8XJ.h.S.{.@X;X@XK.N.B.D.D.B.j.x.c.L.A ( @.*.1.1.p.p.p.p.p.rXp.p.",
"p.y p.p.p.p.p.p.1.eX1.p.p.eXp.p.p.2 i C /.,X<X<X*X#X<XpXgXzXzXkXdX7XG.B.D.].oXoX].S.T.OXR.c.B k.R.R.I.^ Q *.p.p.p.rXp.p.p.rXp.p.",
"rXp.p.p.p.p.p.p.y ;.eXp.p.p.eXeXeX%.i n l.U.XX&X$X}.>XyXjXxXxXxXjXiX7XJ.F.V.{. XT.N.C.Y.R.c.c.c.I.E.P ^ ! -.p.p.y p.rXp.p.p.rXrX",
"p.p.p.p.p.p.p.p.p.^ p.p.p.p.p.p.:.@.u ; z h.U.oX@XS.G.9XhXxXxXxXzXjXdX7XG.s.S.S.l.N m B k.I.R.I.P.K ) q.;.1.p.p.p.y p.p.p.p.p.p.",
"p.p.p.y p.p.p.p.p.p.p.p.p.p.p.p.p.@.i - d z k.R.].N.C 3XsXkXzXxXzXzXjX0XI z h.l.B g - h B I.!.E.A W ! y p.p.p.p.p.p.p.p.p.p.p.p.",
"p.p.p.p.p.p.p.p.:.1.p.p.p.p.p.p.q.%.u $ * f N z.B.N g U 3XtXjXzXxXxXkX0XU f m N j - h N f.l.c.G._ O.*.1.p.p.p.p.p.p.p.p.p.p.p.p.",
"p.p.p.p.p.p.p.y y ;.p.p.p.p.p.1.p.@.8 @ O = h z c k , , D 2XsXkXxXzXjX9XD O * ; = - m l.z.k.K ^ 0.1.1.1.p.p.p.y y p.p.p.p.p.p.p.",
"y p.p.p.p.p.y p.1.^ p.p.p.p.1.*.e Q 6 @   O * d v a E R 3 D 7XsXfXfXtX2XS         = z d.v.P s O.r 1.1.1.p.p.y p.p.y p.p.p.p.p.p.",
"p.y p.p.p.rXp.p.1.;.^ p.p.p.1.i.p $ & .     O * w +. .| 9 , U 2X2X3X2XU :         O ; j S ^ %.wX;.^ p.p.p.rXp.p.p.p.y p.p.p.p.rX",
"p.y p.p.p.rXp.p.p.y p.p.p.p.wX! 5 .             4 | >...R 7 q q w a w 0 7 3 & .     . O r ! wXp.1.^ ;.1.p.rXp.1.p.y p.p.p.p.rXp.",
"rXp.p.p.p.p.rXrXrXp.p.p.p.p.1._ q               3 9 } | [ R R R E | ......[ 7 +     . . 2 ! 1.rXrX1.p.p.p.p.rXrXrXp.p.p.p.p.p.rX",
"p.p.p.p.p.p.p.p.p.p.p.p.p.p.:.! 6 @ . .         + & 3 9 [ } } } >.,.4.4.3...9 +   . X # 8 ! ;.p.p.p.p.p.p.p.p.p.p.p.p.p.p.p.p.p.",
"p.p.p.p.p.y p.p.p.p.p.p.rX1.p.( W 8 &               . 3 R R [ [ | ..>.,.>.} 7 +   X < 8 t.$.:.p.p.p.p.p.p.y p.p.p.p.p.p.rXp.p.p.",
"p.p.p.p.rXp.y p.p.p.p.p.1.p.1.1.$.X.6 o     . .       & 3 3 7 7 9 R R R 9 7 > X   # 8 o.&.;.1.p.p.p.p.p.eXp.y p.p.p.p.p.p.p.p.p.",
"y p.p.p.p.rXp.p.p.p.p.p.1.p.1.^ t %.W 8 6 t < @       . o o o o + + + + # 5 5 6 6 8 Q *.1.p.p.y W p.p.p.p.rXp.p.p.p.p.p.p.p.p.y ",
"p.y p.p.p.p.p.p.p.p.p.p.p.p.y 1.p.r #.O.o.X.W 2                         X 6 W X.X.o.%.;.p.p.y p.;.y p.p.p.p.p.p.p.p.p.p.p.p.y p.",
"p.p.y p.p.p.p.p.p.p.p.p.p.eXp.1.p.1.t ;.;.-.! W & $ % % % : % % % % o # < p #.;.:.;.:.1.p.rXp.p.1.1.y p.p.p.p.p.p.p.p.p.p.rXp.p.",
"p.y p.p.p.p.p.p.p.eXp.p.p.rXp.p.p.y p.p.p.p.*.! p 9.p W p 9.p p p 1 p p W O.*.p.p.rXp.p.p.rXp.p.p.y p.p.p.p.p.p.p.rXp.p.p.rXp.p.",
"rXp.p.p.p.p.p.p.y p.rXp.p.p.rXrXrXp.p.p.p.p.;.*.r $.qX*.$.$.qXqXqX$.$.$.$.-.:.p.y p.rXp.p.p.rXrXrXp.p.p.p.p.p.p.y p.rXp.p.p.rXrX",
"p.p.p.p.p.p.p.p.p.y p.p.p.p.p.p.p.p.p.p.p.p.1.p.1.t q.2.p.p.1.1.1.1.1.1.p.p.p.p.p.y p.p.p.p.p.p.p.p.p.p.p.p.p.p.p.y p.p.p.p.p.p.",
"p.p.p.y p.p.p.p.p.p.p.p.p.p.p.p.p.p.p.y p.p.p.p.1.1.p.p.p.p.p.p.1.p.p.y p.p.p.p.p.p.p.p.p.p.p.p.p.p.p.y p.p.p.p.p.p.p.p.p.p.p.p.",
"p.p.p.p.p.p.p.p.p.p.p.p.p.p.p.p.p.p.p.p.p.p.p.p.1.1.1.1.p.p.p.p.p.p.p.p.p.p.p.p.p.p.p.p.p.p.p.p.p.p.p.p.p.p.p.p.p.p.p.p.p.p.p.p.",
"p.p.p.p.p.p.p.y y p.p.p.p.p.p.p.p.p.p.p.p.p.p.y ^ 1.1.1.p.p.p.p.p.p.p.p.p.p.p.y y p.p.p.p.p.p.p.p.p.p.p.p.p.p.y y p.p.p.p.p.p.p.",
"y p.p.p.p.p.y p.p.y p.p.p.p.p.p.y p.p.p.p.p.y p.;.W 1.1.p.p.p.p.y p.p.p.p.p.y p.p.y p.p.p.p.p.p.y p.p.p.p.p.y p.p.y p.p.p.p.p.p.",
"p.y p.p.p.rXp.p.p.p.y p.p.p.p.rXp.y p.p.p.rXp.p.:.1.^ 1.p.p.p.rXp.y p.p.p.rXp.p.p.p.y p.p.p.p.rXp.y p.p.p.rXp.p.p.p.y p.p.p.p.rX"
};
