/* XPM */
static char *result[] = {
/* columns rows colors chars-per-pixel */
"64 64 232 2 ",
"   c #010101",
".  c #0C0E01",
"X  c #0B0E09",
"o  c #131502",
"O  c #171904",
"+  c #0F0E18",
"@  c #221D00",
"#  c #1B270A",
"$  c #182A10",
"%  c #262503",
"&  c #342C03",
"*  c #3B3604",
"=  c #2E3113",
"-  c #021030",
";  c #17232E",
":  c #2B2C35",
">  c #463D00",
",  c #3D4611",
"<  c #395B2E",
"1  c #3E6335",
"2  c #4A4304",
"3  c #5B4F01",
"4  c #4E4517",
"5  c #414A13",
"6  c #4B5516",
"7  c #4F5A19",
"8  c #685B01",
"9  c #5B671D",
"0  c #786903",
"q  c #716D16",
"w  c #4F4D2F",
"e  c #535A36",
"r  c #41672F",
"t  c #596535",
"y  c #4C7635",
"u  c #507C37",
"i  c #527F39",
"p  c #697825",
"a  c #6F7A2C",
"s  c #677638",
"d  c #001A4E",
"f  c #062E4A",
"g  c #032B58",
"h  c #2A374E",
"j  c #053164",
"k  c #063E76",
"l  c #324852",
"z  c #3B4959",
"x  c #08456D",
"c  c #074876",
"v  c #145173",
"b  c #314C6C",
"n  c #275369",
"m  c #255B7A",
"M  c #2B666F",
"N  c #39657D",
"B  c #50545A",
"V  c #615E57",
"C  c #5B755A",
"Z  c #65774B",
"A  c #6E6E50",
"S  c #657959",
"D  c #445676",
"F  c #5B7C69",
"G  c #496D74",
"H  c #597D70",
"J  c #787C6D",
"K  c #6B6F72",
"L  c #787772",
"P  c #897903",
"I  c #8A7C0F",
"U  c #867A2F",
"Y  c #748227",
"T  c #7B8B2B",
"R  c #7F902D",
"E  c #76883A",
"W  c #7F9138",
"Q  c #758949",
"!  c #758954",
"~  c #7A9257",
"^  c #5C847A",
"/  c #61836D",
"(  c #6A8869",
")  c #718B66",
"_  c #728C75",
"`  c #958301",
"'  c #9A8805",
"]  c #8F8516",
"[  c #A89402",
"{  c #AF9C07",
"}  c #BAA403",
"|  c #83932E",
" . c #89982E",
".. c #979229",
"X. c #8A9C32",
"o. c #859738",
"O. c #A5953E",
"+. c #9EA028",
"@. c #8EA137",
"#. c #92A435",
"$. c #96A936",
"%. c #95A83A",
"&. c #9AAE39",
"*. c #9DB13B",
"=. c #A1B63B",
"-. c #A6BB3D",
";. c #A9BE3E",
":. c #B6B138",
">. c #CBB404",
",. c #CFB90C",
"<. c #C8BA2F",
"1. c #ACC13F",
"2. c #B4C038",
"3. c #DBC102",
"4. c #E6CC08",
"5. c #D4C224",
"6. c #849845",
"7. c #849A4B",
"8. c #829952",
"9. c #A09F51",
"0. c #93A849",
"q. c #A9B246",
"w. c #8A9A71",
"e. c #98A76D",
"r. c #A6A66E",
"t. c #A7B677",
"y. c #AEC440",
"u. c #B7C57D",
"i. c #0A5685",
"p. c #155D85",
"a. c #085A94",
"s. c #105E91",
"d. c #2E5D90",
"f. c #13678C",
"g. c #0B6293",
"h. c #05629A",
"j. c #0A649C",
"k. c #12659A",
"l. c #156998",
"z. c #02729D",
"x. c #16729B",
"c. c #2B6C89",
"v. c #396785",
"b. c #296A95",
"n. c #25759A",
"m. c #377A98",
"M. c #0A6BA7",
"N. c #146BA3",
"B. c #187BA4",
"V. c #1777A8",
"C. c #1675AB",
"Z. c #197CAC",
"A. c #0B77B7",
"S. c #137BB4",
"D. c #177EB4",
"F. c #2F76B0",
"G. c #477A89",
"H. c #527F80",
"J. c #457D96",
"K. c #59759A",
"L. c #5C7DA5",
"P. c #657DA6",
"I. c #087EC1",
"U. c #3E839C",
"Y. c #1A82AC",
"T. c #0B84BC",
"R. c #1A83B3",
"E. c #1987BA",
"W. c #1E91BF",
"Q. c #2684AB",
"!. c #3886A6",
"~. c #248AB6",
"^. c #2F8BBC",
"/. c #51838B",
"(. c #468399",
"). c #708C8B",
"_. c #6A93B0",
"`. c #6FA6BD",
"'. c #0D8AC9",
"]. c #168AC7",
"[. c #1B8DC3",
"{. c #1893CA",
"}. c #1B93CC",
"|. c #0795D1",
" X c #1B96D1",
".X c #1B9DD4",
"XX c #2594C6",
"oX c #209ACE",
"OX c #3993C6",
"+X c #219ED4",
"@X c #209FD8",
"#X c #339AD2",
"$X c #1BA5DC",
"%X c #23A1D6",
"&X c #22A4DB",
"*X c #24A8DF",
"=X c #38A5DA",
"-X c #1FACE3",
";X c #25AAE1",
":X c #39ADE2",
">X c #4E93C7",
",X c #4EA5CE",
"<X c #63A7D7",
"1X c #6CACD9",
"2X c #58B3E4",
"3X c #888984",
"4X c #8A938B",
"5X c #939394",
"6X c #98A29C",
"7X c #8A97A7",
"8X c #9B9DA5",
"9X c #9DA3B4",
"0X c #A9ABA6",
"qX c #BABBBC",
"wX c #BDCD83",
"eX c #CCDC8D",
"rX c #D1E18F",
"tX c #D5E693",
"yX c #D7E894",
"uX c #91ADCF",
"iX c #ADBAC5",
"pX c #B6C4D7",
"aX c #92C7EB",
"sX c #B5D2EB",
"dX c #C8C9CA",
"fX c #C9CBD4",
"gX c #DAD9DA",
"hX c #DBE3EB",
"jX c #EAE9EA",
"kX c #E9ECF0",
"lX c #F4F4F4",
"zX c #FCFCFC",
/* pixels */
"y.i y.y.y.yXy.y.y.E y.y.y.y.tXy.y.i y.y.y.tXy.y.y.i y.y.y.y.tXy.y.i y.y.y.yXy.y.y.i y.y.y.y.yXy.y.i y.y.y.yXy.y.y.i y.y.y.y.yXy.",
"yXy.y.y.y.y.yXyXtX-.y.y.y.y.y.tXtXy.y.y.y.y.tXtXtXy.y.y.y.y.y.yXyXy.y.y.y.y.yXyXyXy.y.y.y.y.y.yXyXy.y.y.y.y.yXyXyXy.y.y.y.y.y.yX",
"y.y.y.y.y.y.y.y.y.y.y.y.y.y.y.y.y.y.y.y.y.y.y.y.y.y.y.y.y.y.y.y.y.y.y.y.y.y.y.y.y.y.y.y.y.y.y.y.y.y.y.y.y.y.y.y.y.y.y.y.y.y.y.y.",
"y.y.y.y.y.i y.y.y.y.y.y.tXy.y.y.y.y.y.y.y.i y.y.y.y.y.y.tXy.y.1.y.y.y.y.y.i y.y.y.y.y.y.yXy.y.y.y.y.y.y.y.i y.y.y.y.y.y.yXy.y.y.",
"y.y.y.y.yXy.i y.y.y.y.y.y.y.y.y.y.y.y.y.tX1.E y.y.y.y.-.-.-.-.1.y.y.y.y.yXy.i y.y.y.y.y.y.y.y.y.y.y.y.y.yXy.i y.y.y.y.y.y.y.y.y.",
"i y.y.y.y.yXy.y.y.y.y.y.y.y.=.E i y.y.y.y.tX-.y.y.y.-.$.W &.=.E i y.y.y.y.yXy.y.y.y.y.y.y.y.y.i i y.y.y.y.yXy.y.y.y.y.y.y.y.y.i ",
"y.i y.y.y.y.y.y.y.y.y.y.y.y.i 1.y.i y.y.y.y.y.y.y.y.*.W Q ~ u 1.y.i y.y.y.y.y.y.y.y.y.y.y.y.i y.y.i y.y.y.y.y.y.y.y.y.y.y.y.i y.",
"y.y.i y.y.y.y.y.y.y.y.y.y.yX1.1.y.y.i y.y.y.y.1.=.W ) U.U._ W *.1.y.i y.y.y.y.y.y.y.y.y.y.yXy.y.y.y.i y.y.y.y.y.y.y.y.y.y.yXy.y.",
"y.i y.y.y.y.y.y.y.yXy.y.y.yXy.y.y.i y.y.y.y.y.1.$.e.F !.^.(.S Z *.i 1.1.y.y.y.y.y.tX1.1.y.yXy.y.y.i y.y.y.y.y.y.y.yXy.y.y.yXy.y.",
"yXy.y.y.y.y.y.y.Q y.yXy.y.y.yXyXtXy.y.y.y.1.1.W r E _ (.Q.x.D w.t.&.-.y.y.y.y.y.Q -.yX1.y.y.yXyXyXy.y.y.y.y.y.y.i y.yXy.y.y.yXyX",
"y.y.y.y.y.y.y.y.=.i y.y.y.y.y.y.y.y.y.y.y.y.0.E E < 7.F c.s.k.v./ W *.1.y.y.y.y.y.i 1.y.y.y.y.y.y.y.y.y.y.y.y.y.y.i y.y.y.y.y.y.",
"y.y.y.i y.y.y.y.-.y.y.y.y.y.y.y.y.y.y.i -.W ~ ^ F 8.6.S m h.A.N.M / ~ y -.y.y.1.y.y.y.y.y.y.y.y.y.y.y.i y.y.y.y.y.y.y.y.y.y.y.y.",
"y.y.y.y.y.y.y.y.y.y.y.y.y.y.y.y.y.y.y.-.@.Q ^ !.(.H S G b.M.I.D.W.!./ T $.1.1.1.y.y.y.y.y.y.y.y.y.y.y.y.y.y.y.y.y.y.y.y.y.y.y.y.",
"y.y.y.y.y.y.y.i i y.y.y.y.y.y.y.1.-.y.-.o.Q G.Y.Y.c.m k.A.I.I. X.XW.U./ W *.=.E i y.y.y.y.y.y.y.y.y.y.y.y.y.y.i i y.y.y.y.y.y.y.",
"i y.y.y.y.y.i y.y.i y.y.y.y.y.y.E *.1.1.&.6.M G.x.a.a.A.A.].+X@X$X%X~.(.( W 1 y.y.i y.y.y.y.y.y.i y.y.y.y.y.i y.y.i y.y.y.y.y.y.",
"y.i y.y.y.yXy.y.y.y.i y.y.y.y.yX-.E 1.1.-.wX~ G s.M.M.A.I.].@X;X-X*X%XXXU._ W -.1.1.i y.y.y.y.yXy.i y.y.y.yXy.y.y.y.i y.y.y.y.yX",
"y.i y.y.y.yXy.y.y.i y.y.y.y.yXy.y.i y.1.&.t./ U.V.A.A.M.M.].&X;X;X;X;X%XXX(./ 6.W E y.y.y.y.tXy.y.i y.y.y.yXy.y.y.i y.y.y.y.yXy.",
"yXy.y.y.y.y.yXyXyXy.y.y.y.y.y.yXyXy.y.-.W / /.W.[.T.M.a.k.[.@X;X;X*X*X$X X~.J.J t.*.1.y.y.y.y.tXyXy.y.y.y.y.yXyXyXy.y.y.y.y.y.yX",
"y.y.y.y.y.y.y.y.y.y.y.y.y.y.y.y.y.-.*.W / U.Y.Y.R.M.j.j.C.[.}.@X*XoX'.T.E.Y.k.v./ W *.;.y.y.y.y.y.y.y.y.y.y.y.y.y.y.y.y.y.y.y.y.",
"y.y.y.y.y.i y.y.y.y.y.y.yXy.y.y.y.=.W / U.~.R.z.i.c p.Z.[.}.].+X%XXXm.c.m v s.k.M C R *.rXy.y.y.y.y.y.y.y.i y.y.y.y.y.y.yXy.y.y.",
"y.y.y.y.yXy.i y.y.y.y.y.y.y.y.y.1.*.| ! /.Q.Z.g.k j c V.W.].'.{.#X,X7Xw.V h k p.G V q X.&.q.1.-.y.y.y.y.yXy.i y.y.y.y.y.y.y.y.y.",
"i y.y.y.y.yXy.y.y.y.y.y.y.y.y.i E 1.*.7.) G.l.j.a.k j v l.E. X|.OXuXiXqX3Xh g z V | ] q | *.1.E i y.y.y.y.yXy.y.y.y.y.y.y.y.y.i ",
"y.i y.y.y.y.y.y.y.y.y.y.y.y.i y.-.E =.0.) N f.M.a.c j x f.R. X|.>XuXsXfX7Xb g B A ..[ ] ] X.y ;.y.i y.y.y.y.y.y.y.y.y.y.y.y.i y.",
"y.y.i y.y.y.y.y.y.y.y.y.y.yXy.y.-.%.r Q /.!.N.a.c j x l.Y.W.'.{.#X1XuXuX_.d.a.G.J O.{ } { 9. .&.1.y.i y.y.y.y.y.y.y.y.y.y.yXy.y.",
"y.i y.y.y.y.y.y.y.yXy.y.y.yXy.y.;.y W / U.~.Y.g.c j v x.[.}.]. X&X,X>X>XF.F.F.L.5X<.,.3.>.U q #.1.i y.y.y.y.y.y.y.yXy.y.y.yXy.y.",
"yXy.y.y.y.y.y.y.i y.yXy.y.y.yXyXtX-.#.Q ^ U.Y.S.l.c x f.Z.E.}.%X*X$X|.|. X#X_.5Xr.<.3.4.3.P A t.eXy.y.y.y.y.y.y.i y.yXy.y.y.yXyX",
"y.y.y.y.y.y.y.y.y.i y.y.y.y.y.y.1.1.=.%.Q G m.E.D.s.k x f.Z.oX@X&X&X$X$X$X,X_.r.q.5.4.4.,.' q X.-.y.y.y.y.y.y.y.y.i y.y.y.y.y.y.",
"y.y.y.i y.y.y.y.y.y.y.y.y.y.y.y.1.1.&.1 R Q ^ U.V.j.s.f.x.Z.E.]. X@X*X-X;X,X`.7Xr.:.,.5.<.+.X.&.1.y.y.i y.y.y.y.y.y.y.y.y.y.y.y.",
"y.y.y.y.y.y.y.y.y.y.y.y.y.y.y.y.1.=.W E E W ~ G p.M.S.[.W.Z.N.C.I. X@X;X;X=X,X,X).J ..:.1.-.=.-.1.y.y.y.y.y.y.y.y.y.y.y.y.y.y.y.",
"y.y.y.y.y.y.y.i i y.y.y.y.y.y.1.=.~ / ^ ~ ~ Q v g.S.}.@X+X[.C.C.]. X@X;X;X.X@XXXx.B Y *.y.y.y.y.y.y.y.y.y.y.y.i i y.y.y.y.y.y.y.",
"i y.y.y.y.y.i y.y.i y.y.y.y.1.W < / U.!.U.Q v c.S.}.@X*X&X+XoXoX+X@X;X@X X].].A.N.n Y &.y.y.y.y.i y.y.y.y.y.i y.y.i y.y.y.y.y.y.",
"y.i y.y.y.yXy.y.y.y.i y.y.-.*.wX/ f.Y.Y.Y.n m S.{.@X*X*X;X;X&X@XoX+X&X;X X'.I.F.(.)./ 0.=.;.y.tXy.i y.y.y.yXy.y.y.y.i y.y.y.y.yX",
"y.i y.y.y.yXy.y.y.E 1.1.1.&.t.( U.Y.B.f.v k l.[.@X;X;X;X;X;X&X[.Z.Q.oX$X%X{.T.>XuXiX0Xe.X.*.tXy.y.i y.y.y.yXy.y.y.i y.y.y.y.yXy.",
"yXy.y.y.y.y.yXyXyXy.1.1.1.$.E /.!.~.x.c j c N.oX;X;X;X;X;X;X&X~.f.l.W.%X&X$X{.>XpXhXdX4Xs +.y.yXyXy.y.y.y.y.yXyXyXy.y.y.y.y.y.yX",
"y.y.y.y.y.y.y.y.y.y.1.1.1.=.W ) /.n.k.i.k k N.+X;X;X;X;X;X;X;X].M.g.x.E.oX$X$X<XsXkXgX4XZ #.q.y.y.y.y.y.y.y.y.y.y.y.y.y.y.y.y.y.",
"y.y.y.y.y.i y.y.y.y.1.1.tX-.-.~ F p.j.a.a.a.V.oX&X;X;X;X;X;X@X}.S.a.c f.W.&X$X2XsXhXdX).8.#.;.2.y.y.y.y.y.i y.y.y.y.y.y.yXy.y.y.",
"y.y.y.y.yXy.i y.y.y.y.y.1.=.W ~ H.n.g.g.k.C.D.E.XX@X;X;X;X@X XI.M.c f c E.$X-X2XaXsXiXK i #.-.-.y.y.y.y.yXy.i y.y.y.y.y.y.y.y.y.",
"i y.y.y.y.yXy.y.y.y.y.y.1.$.E M Q.R.l.p.B.E.R.N.Z.oX;X;X@X XD.F.d.N z N ^.&X-X:X2X1X_.G s #.1.E i y.y.y.y.yXy.y.y.y.y.y.y.y.y.i ",
"y.i y.y.y.y.y.y.y.y.y.y.1.&.1 ^ U.Y.x.x.Z.R.C.k.C.oX&X@X XI.F.P.7X8X0X6X_.^..X*X%XXXx.n t #.u 1.y.i y.y.y.y.y.y.y.y.y.y.y.y.i y.",
"y.y.i y.y.y.y.y.y.y.y.y.1.eX&.~ ^ c.Y.E.V.f.s.N.I.+X@X XA.N.K.9XfXhXgXpX7XU.T.oXW.z.c h p u.1.1.y.y.i y.y.y.y.y.y.y.y.y.y.yXy.y.",
"y.i y.y.y.y.y.y.y.tXy.y.y.tX1.0.W M !.R.x.i.i.h.S.{.{.E.F.P.9XfXkXzXzXgX8XD k.E.C.p.z e T eX-.1.y.i y.y.y.y.y.y.y.yXy.y.y.yXy.y.",
"yXy.y.y.y.y.y.y.i y.tXy.y.y.tXrXu.~ / n.l.f.i.i.g.T.T.l.K.8XfXjXzXzXzXhX8XB c s.i.h A | $.-.rXtXyXy.y.y.y.y.y.y.i y.yXy.y.y.yXyX",
"y.y.y.y.y.y.y.y.y.i y.y.y.y.y.y.1.*.W C H.(.v.n c h.M.v K qXlXzXzXzXjXfX5Xh d j g ; p X.=.1.1.1.y.y.y.y.y.y.y.y.y.i y.y.y.y.y.y.",
"y.y.y.i y.y.y.y.y.y.y.y.y.y.y.y.1.1.$.1 w._ ( l f j k h L qXlXzXzXjXdX8XK : - - - $ 6 a X.-.1.1.y.y.y.i y.y.y.y.y.y.y.y.y.y.y.y.",
"y.y.y.y.y.y.y.y.y.y.y.y.y.y.y.y.1.1.1.q.q.0.Q r + - - ; K qXjXlXjXdX5XV w 4 & + + X # , p #.-.1.y.y.y.y.y.y.y.y.y.y.y.y.y.y.y.y.",
"y.y.y.y.y.y.y.i i y.y.y.y.y.y.y.1.1.1.;.&. .p # X   X + B 5XqXdXqX0XK 4 P P P >       O 6 p X.*.y.y.y.y.y.y.y.i i y.y.y.y.y.y.y.",
"i y.y.y.y.y.i y.y.i y.y.y.y.1.y.E ;.y.-.X.9 $ %     O & 4 V J L L V B P } } P 2         % 5 p #.u y.y.y.y.y.i y.y.i y.y.y.y.y.y.",
"y.i y.y.y.yXy.y.y.y.i y.y.y.1.rX=.E 1.=.T e .     o 2 P P ' ] I I 8 8 P { } P 2           . 7 t.;.i y.y.y.yXy.y.y.y.i y.y.y.y.yX",
"y.i y.y.y.yXy.y.y.i y.y.y.y.yXy.y.i y.=.R 1 O .   @ 8 [ >.>.>.} [ ' ' P P 0 3 %         . $ Q W ;.E 1.1.y.yXy.y.y.i y.y.y.y.yXy.",
"yXy.y.y.y.y.yXyXyXy.y.y.y.y.y.yXtXy.1.-.W Y y =   # 8 [ >.,.>.} [ ' ` P 8 & .         . # r Y u.rXq.1.1.y.y.yXyXyXy.y.y.y.y.y.yX",
"y.y.y.y.y.y.y.y.y.y.y.y.y.y.y.y.y.y.y.1.-.W T , O % 2 0 ` ` ` P 0 8 8 8 *       . o O # 7 T %.=.1.y.1.1.y.y.y.y.y.y.y.y.y.y.y.y.",
"y.y.y.y.y.i y.y.y.y.y.y.yXy.y.y.y.y.y.y.y.u #.Y 7 7 6 2 * & * * & % % @ o     O = 6 6 9 8.$.-.1.y.y.y.1.y.i y.y.y.y.y.y.yXy.y.y.",
"y.y.y.y.yXy.i y.y.y.y.y.y.y.y.y.y.y.y.y.tX1.E W  . .Y 9 # . . . . . . . . .   = 9 R  . .W y.y.-.y.y.y.y.yXy.i y.y.y.y.y.y.y.y.y.",
"i y.y.y.y.yXy.y.y.y.y.y.y.y.y.i i y.y.y.y.tX-.-.-.-.$.Y 6 , 5 # # 5 5 5 , e , 9 R *.-.1.-.y.y.E E y.y.y.y.yXy.y.y.y.y.y.y.y.y.i ",
"y.i y.y.y.y.y.y.y.y.y.y.y.y.i y.y.i y.y.y.y.y.y.y.y.-.@.| T < T T < T T T T T  .$.1.1.1.y.y.i y.-.E =.1.y.y.y.y.y.y.y.y.y.y.i y.",
"y.y.i y.y.y.y.y.y.y.y.y.y.yXy.y.y.y.i y.y.y.y.y.y.y.y.-.=.eX*.*.=.=.y =.1.*.*.*.1.1.1.1.y.yXy.y.1.1.i 1.y.y.y.y.y.y.y.y.y.yXy.y.",
"y.i y.y.y.y.y.y.y.yXy.y.y.yXy.y.y.i y.y.y.y.y.y.y.yXy.y.y.yXy.y.;.u y.y.y.y.y.y.y.yXy.y.y.yXy.y.y.i y.y.y.y.y.y.y.yXy.y.y.yXy.y.",
"yXy.y.y.y.y.y.y.i y.yXy.y.y.yXyXyXy.y.y.y.y.y.y.i y.yXy.y.y.yXyXyX1.y.y.y.y.y.y.i y.yXy.y.y.yXyXyXy.y.y.y.y.y.y.i y.yXy.y.y.yXyX",
"y.y.y.y.y.y.y.y.y.i y.y.y.y.y.y.y.y.y.y.y.y.y.y.y.i y.y.y.y.y.y.1.y.y.1.y.y.y.y.y.i y.y.y.y.y.y.y.y.y.y.y.y.y.y.y.i y.y.y.y.y.y.",
"y.y.y.i y.y.y.y.y.y.y.y.y.y.y.y.y.y.y.i y.y.y.y.y.y.y.y.y.y.y.y.1.1.y.E y.y.y.y.y.y.y.y.y.y.y.y.y.y.y.i y.y.y.y.y.y.y.y.y.y.y.y.",
"y.y.y.y.y.y.y.y.y.y.y.y.y.y.y.y.y.y.y.y.y.y.y.y.y.y.y.y.y.y.y.y.y.y.y.y.y.y.y.y.y.y.y.y.y.y.y.y.y.y.y.y.y.y.y.y.y.y.y.y.y.y.y.y.",
"y.y.y.y.y.y.y.i i y.y.y.y.y.y.y.y.y.y.y.y.y.y.i i y.y.y.y.y.y.y.y.y.y.y.y.y.=.E i y.y.y.y.y.y.y.y.y.y.y.y.y.y.i i y.y.y.y.y.y.y.",
"i y.y.y.y.y.i y.y.i y.y.y.y.y.y.i y.y.y.y.y.i y.y.i y.y.y.y.y.1.Q =.y.y.y.y.u ;.y.i y.y.y.y.y.y.i y.y.y.y.y.i y.y.i y.y.y.y.y.y.",
"y.i y.y.y.yXy.y.y.y.i y.y.y.y.yXy.i y.y.y.yXy.y.y.y.i y.y.y.y.tX1.u y.y.y.yX1.1.y.y.i y.y.y.y.yXy.i y.y.y.yXy.y.y.y.i y.y.y.y.yX"
};
