/* XPM */
static char *result[] = {
/* columns rows colors chars-per-pixel */
"64 64 223 2 ",
"   c #000000",
".  c #161200",
"X  c #241D00",
"o  c #1D2A0C",
"O  c #393507",
"+  c #2F3111",
"@  c #000428",
"#  c #001033",
"$  c #001831",
"%  c #062134",
"&  c #01243B",
"*  c #1A303B",
"=  c #2B362F",
"-  c #443C06",
";  c #3C410D",
":  c #2D481D",
">  c #3D6230",
",  c #4C4504",
"<  c #584A00",
"1  c #5C5106",
"2  c #464B13",
"3  c #495416",
"4  c #4C5719",
"5  c #525D1A",
"6  c #665901",
"7  c #5C691E",
"8  c #766701",
"9  c #4E542F",
"0  c #605728",
"q  c #4C6833",
"w  c #4A7435",
"e  c #4E7936",
"r  c #507B37",
"t  c #527F39",
"y  c #616E20",
"u  c #766B2C",
"i  c #687626",
"p  c #6E7C25",
"a  c #6B7C37",
"s  c #0A1749",
"d  c #002642",
"f  c #022B45",
"g  c #033349",
"h  c #112C54",
"j  c #043756",
"k  c #053A54",
"l  c #00345C",
"z  c #353D4C",
"x  c #023D64",
"c  c #043B68",
"v  c #043B78",
"b  c #2A3664",
"n  c #0C4058",
"m  c #274348",
"M  c #295556",
"N  c #345253",
"B  c #386551",
"V  c #074665",
"C  c #03436B",
"Z  c #0D516C",
"A  c #024572",
"S  c #034974",
"D  c #034D7C",
"F  c #0A5578",
"G  c #0E5A7A",
"H  c #17567C",
"J  c #31576B",
"K  c #285A7A",
"L  c #366874",
"P  c #4A5150",
"I  c #5C7149",
"U  c #526957",
"Y  c #647947",
"T  c #6C7056",
"R  c #627A5A",
"E  c #445963",
"W  c #597767",
"Q  c #506C71",
"!  c #696C68",
"~  c #636A77",
"^  c #757575",
"/  c #857501",
"(  c #907D00",
")  c #728127",
"_  c #758428",
"`  c #7B8B2B",
"'  c #788832",
"]  c #7E903D",
"[  c #788B45",
"{  c #748A4A",
"}  c #748956",
"|  c #5A857E",
" . c #688766",
".. c #728A62",
"X. c #628570",
"o. c #9A8800",
"O. c #A08D01",
"+. c #A99501",
"@. c #B39E01",
"#. c #B6A001",
"$. c #BEA701",
"%. c #B9A416",
"&. c #84952E",
"*. c #86982F",
"=. c #839535",
"-. c #8A9C31",
";. c #8EA138",
":. c #92A434",
">. c #96A936",
",. c #98AC37",
"<. c #93A73E",
"1. c #9AAD3A",
"2. c #9EB33A",
"3. c #B9A422",
"4. c #A1B53B",
"5. c #A6BB3D",
"6. c #A9BE3E",
"7. c #CDB403",
"8. c #CDB405",
"9. c #ACC23F",
"0. c #859A46",
"q. c #8D9158",
"w. c #A89946",
"e. c #8EA344",
"r. c #91A272",
"t. c #A3B06F",
"y. c #ABB979",
"u. c #AEC440",
"i. c #064B8B",
"p. c #045284",
"a. c #02558B",
"s. c #095C89",
"d. c #045D93",
"f. c #075996",
"g. c #105F98",
"h. c #245C82",
"j. c #0D618B",
"k. c #13688B",
"l. c #0C6494",
"z. c #04629B",
"x. c #0A649C",
"c. c #0A6B9A",
"v. c #136C93",
"b. c #14659B",
"n. c #147196",
"m. c #15749D",
"M. c #286B88",
"N. c #37668B",
"B. c #38758B",
"V. c #296E98",
"C. c #3A7D94",
"Z. c #0366A3",
"A. c #0767A5",
"S. c #0B6CA5",
"D. c #056DAC",
"F. c #0A6DAB",
"G. c #196CA4",
"H. c #0071AD",
"J. c #0D72AC",
"K. c #1578A7",
"L. c #197BA4",
"P. c #197DAB",
"I. c #086DB0",
"U. c #0471B3",
"Y. c #0A74B5",
"T. c #0876B9",
"R. c #0876BA",
"E. c #0C7BBD",
"W. c #117BB3",
"Q. c #127BB8",
"!. c #2470A9",
"~. c #477B87",
"^. c #48728D",
"/. c #74798D",
"(. c #527AA6",
"). c #0D7EC0",
"_. c #3D839D",
"`. c #1982AE",
"'. c #0280BE",
"]. c #1A84B2",
"[. c #1A86B7",
"{. c #1583BB",
"}. c #1C8CBB",
"|. c #2D87AB",
" X c #2A8CB5",
".X c #2A92BD",
"XX c #4E8594",
"oX c #5086BD",
"OX c #0D81C1",
"+X c #1384C3",
"@X c #1689C4",
"#X c #1A8DC4",
"$X c #168BCA",
"%X c #198FCA",
"&X c #1E92C3",
"*X c #1B92CC",
"=X c #1F99CE",
"-X c #1B96D1",
";X c #1E9AD4",
":X c #1F9ED8",
">X c #208FC2",
",X c #2295C5",
"<X c #219ACC",
"1X c #219ED3",
"2X c #209FD8",
"3X c #22A1D6",
"4X c #23A5DC",
"5X c #24A8DF",
"6X c #25AAE1",
"7X c #979796",
"8X c #9BA6BB",
"9X c #A6A9AF",
"0X c #B7B9BC",
"qX c #B6C682",
"wX c #C3D386",
"eX c #CBDB8C",
"rX c #D4E492",
"tX c #D7E894",
"yX c #92A6C3",
"uX c #ABB9D0",
"iX c #BEC1CB",
"pX c #CBCCD1",
"aX c #D8DBE1",
/* pixels */
"u.t u.u.u.tXu.u.u.t u.u.u.u.tXu.u.t u.u.u.tXu.u.u.t u.u.u.u.tXu.u.t u.u.u.tXu.u.u.t u.u.u.u.tXu.u.t u.u.u.tXu.u.u.t u.u.u.u.tXu.",
"tXu.u.u.u.u.tXtXtXu.u.u.u.u.u.tXtXu.u.u.u.u.tXtXtXu.u.u.u.u.u.tXtXu.u.u.u.u.tXtXtXu.u.u.u.u.u.tXtXu.u.u.u.u.tXtXtXu.u.u.u.u.u.tX",
"u.u.u.u.u.u.u.u.u.u.u.u.u.u.u.u.u.u.u.u.u.u.u.u.u.u.u.u.u.u.u.u.u.u.u.u.u.u.u.u.u.u.u.u.u.u.u.u.u.u.u.u.u.u.u.u.u.u.u.u.u.u.u.u.",
"u.u.u.u.u.t u.u.u.u.u.u.tXu.u.u.u.u.u.u.u.t u.u.u.u.u.u.tXu.u.u.u.u.u.u.u.t u.u.u.u.u.u.tXu.u.u.u.u.u.u.u.t u.u.u.u.u.u.tXu.u.u.",
"u.u.u.u.tXu.t u.u.u.u.u.u.u.u.u.u.u.u.u.tXu.t u.u.u.u.u.u.u.u.u.u.u.u.u.tXu.t u.u.u.u.u.u.u.5.4.u.u.u.u.tXu.t u.u.u.u.u.u.u.u.u.",
"t u.u.u.u.tXu.u.u.u.u.u.u.u.6.) t u.u.u.u.tXu.u.u.u.u.u.u.u.u.t t u.u.u.u.tXu.u.u.u.u.u.u.u.9.{ t u.u.u.u.tXu.u.u.u.u.u.u.u.u.t ",
"u.t u.u.u.u.u.u.u.u.u.u.u.9.{ 4.u.t u.u.u.u.u.u.u.u.u.u.u.u.t 9.9.t 9.9.u.u.u.u.u.u.u.u.u.u.) 5.u.t u.u.u.u.u.u.u.u.u.u.u.u.t u.",
"u.u.t u.u.u.u.u.u.u.u.u.u.tX9.5.u.u.t u.u.u.u.u.u.u.u.u.u.tXu.4.,.<.t u.u.u.u.u.u.u.u.u.u.tXu.u.u.u.t u.u.u.u.u.u.u.u.u.u.tXu.u.",
"u.t u.u.u.u.u.u.u.tXu.u.u.tXu.u.u.t u.u.u.u.u.u.u.tXu.u.u.tX6.-.) : 2.9.u.u.u.u.u.tXu.u.u.tXu.u.u.t u.u.u.u.u.u.u.tXu.u.u.tXu.u.",
"tXu.u.u.u.u.u.u.{ u.tXu.u.u.tXtXtXu.u.u.u.u.u.u.t u.tXu.9.5.qXr.| | ] 2.6.u.u.u.t u.tXu.u.u.tXtXtXu.u.u.u.u.u.u.t u.tXu.u.u.tXtX",
"u.u.u.u.u.u.u.u.4.t 9.u.u.u.u.u.u.u.6.4.u.u.u.u.u.t u.u.5.-.{ ~.|._.X.` 1.u.u.u.u.t u.u.u.u.u.u.u.u.u.u.u.u.u.u.u.t u.u.u.u.u.u.",
"u.u.u.t u.u.u.u.6.9.u.u.u.u.u.u.u.9.9.{ u.u.u.9.6.5.6.u.1._ N m.,X`.`.M 0.4.6.u.6.5.5.6.u.u.u.u.u.u.u.t u.u.u.u.u.u.u.u.u.u.u.u.",
"u.u.u.u.u.u.u.u.u.u.u.u.u.u.u.u.u.u.u.u.u.9.9.9.<.*.;.4.4.p m l.}.}.]._.X.` >.5.2.-.-.2.9.9.u.u.u.u.u.u.u.u.u.u.u.u.u.u.u.u.u.u.",
"u.u.u.u.u.u.u.t t u.u.u.u.u.u.u.u.9.u.u.u.9.9.e q I [ <.<.p N a.'.*X;X.XB.U &.w q Y Y ;.9.9.u.u.u.u.u.u.u.u.u.t t u.u.u.u.u.u.u.",
"t u.u.u.u.u.t u.u.t u.u.u.u.u.u.t 9.u.9.u.9.w ;. .M.Q ..[ W h.F.}.:X4X1XK.K M 0. .M.~...:.2.9.9.t u.u.u.u.u.t u.u.t u.u.u.u.u.u.",
"u.t u.u.u.tXu.u.u.u.t u.u.u.u.tX9.) u.9.9.eX` I _..X}.Q U N.K.@X;X4X5X:X{.K.L U ~. X].~.a ;.5.tXu.t u.u.u.tXu.u.u.u.t u.u.u.u.tX",
"u.t u.u.u.tXu.u.u.t u.u.u.u.tXu.u.t u.9.4.y. .L P.>XP.j.p.S.+X-X-X2X2X;X*X).b.p.v.[.}.m.L  .qX2.9.t u.u.u.tXu.u.u.t u.u.u.u.tXu.",
"tXu.u.u.u.u.tXtXtXu.u.u.u.u.u.tXtXu.u.6.`  ._.&XP.G.G.f.J.#X-X-X$X$X$X*X<X1XQ.F.x.b.G.[. X~.{ y.eXu.u.u.u.u.tXtXtXu.u.u.u.u.u.tX",
"u.u.u.u.u.u.u.u.u.u.u.u.u.u.u.u.u.u.u.] ) M `.3X@Xg.g.I.@X;X4X-X$X).).$X2X2X-X).D.f.b.&X<XL.M _ 2.u.u.u.u.u.u.u.u.u.u.u.u.u.u.u.",
"u.u.u.u.u.t u.u.u.u.u.u.tXu.u.u.u.u.u.,.y Z `.3X*XG.F.@X;X4X6X:X-X-X-X-X4X6X4X-X{.F.W.1X<XL.m ) 2.u.u.u.u.t u.u.u.u.u.u.tXu.u.u.",
"u.u.u.u.tXu.t u.u.u.u.u.u.u.u.u.u.u.6.>...Z `.1X*X).+X2X4X6X6X6X6X6X5X5X6X5X5X4X<X).+X1X<XL.J ' e.9.9.9.tX9.' u.u.u.u.u.u.u.u.u.",
"t u.u.u.u.tXu.u.u.u.u.u.u.u.u.t t 2.;...| `.`.].Q.E.$X2X6X6X6X6X6X6X6X6X6X6X6X6X1X).).Q.{.P.V.L B >.9.9.9.tXu.u.u.u.u.u.u.u.u.t ",
"u.t u.u.u.u.u.u.u.u.u.u.u.u.t u.6.q a L  X>XP.l.A.R.$X;X6X6X6X6X6X6X6X6X6X6X6X5X2X$XF.g.b.P.}.|.L : 2.9.9.9.9.u.u.u.u.u.u.u.t u.",
"u.u.t u.u.u.u.u.u.u.u.u.u.tXu.u.5.&.= G [.>XW.f.f.Y.+X-X2X4X6X6X6X6X6X6X6X6X4X2X$X).I.f.g.{.*XP.Z y > 9.9.9.u.u.u.u.u.u.u.tXu.u.",
"u.t u.u.u.u.u.u.u.tXu.u.u.tXu.u.9.> 9 Z G.).Q.D.I.R.E.+X$X2X6X6X6X6X6X6X6X4X-X$XOX).Y.D.I.E.+XG.Z : ] u.u.u.u.u.u.tXu.u.u.tXu.u.",
"tXu.u.u.u.u.u.u.t u.tXu.u.u.tXtXeX:.a B V.F.D.F.I.Y.R.R.+X;X6X6X6X6X6X6X6X4X-X).R.T.R.D.D.D.G.N.X._ 4.9.u.u.u.u.t u.tXu.u.u.tXtX",
"u.u.u.u.u.u.u.u.u.t u.u.u.u.u.u.u.2.-.} Q H D p.Z.U.R.R.OX;X6X6X6X6X6X6X6X4X-X).T.T.F.z.p.D K W ' ] 5.9.u.u.u.u.u.t u.u.u.u.u.u.",
"u.u.u.t u.u.u.u.u.u.u.u.u.u.u.u.u.u.6.> q * d x a.U.R.).+X;X4X6X6X6X6X6X6X6X-X).E.R.D.D j & = Y 2.9.9.t u.u.u.u.u.u.u.u.u.u.u.u.",
"u.u.u.u.u.u.u.u.u.u.u.u.u.u.u.u.u.u.u.<.7 % x p.Z.Y.OX$X-X4X6X6X6X6X6X6X6X6X2X*X$X'.U.z.D k : ) 2.u.u.u.u.u.u.u.u.u.u.9.u.u.u.u.",
"u.u.u.u.u.u.u.t t u.u.u.u.u.u.u.u.u.u.>.i m i.A.I.R.+X-X4X6X6X6X6X6X6X6X6X6X6X2X-X{.Y.U.c.F m ` 2.u.u.u.u.u.u.t t u.u.9.u.u.u.u.",
"t u.u.u.u.u.t u.u.t u.u.u.u.u.u.t u.u.2.&.Y h.b.z.z.W.*X:X6X6X4X;X;X2X2X6X6X2X2X#XJ.z.z.M.Q { ] e 6.u.u.u.u.t u.u.t 9.9.u.u.u.u.",
"u.t u.u.u.tXu.u.u.u.t u.u.u.u.tXu.t u.6.4.y.R M c C s.Q.$X2X4X;X$X+X+X$X2X4X2X@XJ.D c x J } ] eX5.) u.u.u.tXu.u.u.u.) u.u.u.u.tX",
"u.t u.u.u.tXu.u.u.t u.u.u.u.tXu.6.) 2.2.9.wX_ = g Z s.c.W.%X1X$XE.I.I.).*X1X$XF.c.F V & 9 ` eX6.4.w 6.u.u.tXu.u.u.) u.u.u.u.rXu.",
"tXu.u.u.u.u.tXtXtXu.u.u.u.u.u.tXrX2.` -.4.2.r.9 G m.K.j.f.W.+XW.f.i.i.A.Q.@XG.f.k.L.m.Z 3 *.6.wXt.*.4.u.u.9.tXtXrXu.u.u.u.u.u.tX",
"u.u.u.u.u.u.u.u.u.u.u.u.u.u.u.9.e.] I Y <.<.' J m.<X Xs.x d.S.Z.i.v v i.A.S.p.V v.,X}.v.B ' 1.0.I Y e.5.9.9.u.u.u.u.u.u.u.u.u.u.",
"u.u.u.u.u.t u.u.u.u.u.u.tXu.6.1.e.| B.XX..B | |.,X3X,XG & x p.f.i.f.f.i.a.p.l f v.<X3XW.^.R [ X.C.~. .-.4.t u.u.u.u.u.u.tXu.u.u.",
"u.u.u.u.tXu.t u.u.u.u.u.u.9.4.` U _. X X~.L V.<X4X3X}.G & $ l a.F.Y.Y.A.D j @ g k.,X;X+X!.K B B.>X.XB.a y.4.r 9.u.u.u.u.u.u.u.u.",
"t u.u.u.u.tXu.u.u.u.u.u.6.<.0.L `.`.3X<Xm.s.m.}.}.}.P.k.c & g j.{.$X$XW.p.& d Z v.`.].K.f.p.i.P.1X1X`.B...y.4.9.u.u.u.u.u.u.4.{ ",
"u.t u.u.u.u.u.u.u.u.u.u.2.&.M C.}.3X3X1X{.z.s.G G G j.z.d.c k n.*X4X4X}.j.j S z.c.s.F C S p.D.+X1X4X<X.X~.I *.4.u.u.u.u.u.u.e 9.",
"u.u.t u.u.u.u.u.u.u.u.9.1.} M P.3X3X=X}.'.D.d.C & % S Z.Z.S V m.3X6X5X,Xk.j p.D.x.l $ g C z.U.OX&X1X3X*Xn.N _ 2.u.u.u.u.u.tXu.9.",
"u.t u.u.u.u.u.u.u.tXu.9.1.q.k b.}.{.m.z.H.T.D.d.c d A A.A.D n m.3X6X6X=Xk.k p.D.d.j f D z.I.U.D.c.L.[.{.k.M ) 4.u.tXu.u.u.tXu.u.",
"tXu.u.u.u.u.u.u.t u.tX9.>.p U N.K.j.c K (.oX(.G.p.g A S.Y.s.F `.3X6X6X<Xm.F c.Y.z.V l a.!.oXoX(.J S z.G.G > ` 4.{ u.tXu.u.u.tXtX",
"u.u.u.u.u.u.u.u.u.t u.u.4.;.[ Q H c b /.uXuXyXV.j d F ].#X[.].&X5X6X6X3X}.`.}.#XK.V d c ^.yXuX8X~ l C K  .] >.5.4.t 9.u.u.u.u.u.",
"u.u.u.t u.u.u.u.u.u.u.u.9.6.<.[ N s b 7XpXpX9XJ @ & j.}.1X4X3X3X4X4X4X4X3X3X4X3X].F # # ~ 0XaXiX/.s g m ] 2.6.9.6.9.u.u.u.u.u.u.",
"u.u.u.u.u.u.u.u.u.u.u.u.u.u.5.:.a 9 z /.0X0X7Xz s C j.`.&X3X4X1X.X[.}.}.3X6X5X;X{.l.x # P 9XpX9X^.z 0 ' ] u.u.9.u.u.u.u.u.u.u.u.",
"u.u.u.u.u.u.u.t t u.u.u.u.9.9.6.1.=.9 P ^ ^ P = v f.z.p.n.}.3X}.k.Z Z n.}.5X;X@XE.F.d.V = ! ^ ~ P 9 =.4.6.u.u.{ t u.u.u.u.u.u.u.",
"t u.u.u.u.u.t u.u.t u.u.u.u.u.u.r >.p 4 + - 6 u /.V.a.l V m.}.P.k.G G k.].}.}.H.Z.Z.N.! u 1 O - + ` 1.6.u.u.t u.u.t u.u.u.u.u.u.",
"u.t u.u.u.tXu.u.u.u.t u.u.u.9.tX9.e >.' 0 1 ( 3.w.E l # & Z k.K.[.}.}.`.`.G F D v A ! w.@.( - T ` q 6.u.u.tXu.u.u.u.t u.u.u.u.tX",
"u.) u.u.u.tXu.u.u.t u.u.u.u.tXu.u.t 9.] ) 7 @.7.%.u 5 , - + j n.}.=X=X}.j.h + 9 9 0 &.%.8.+.w _ 2.{ 9.9.u.tXu.u.u.t u.u.u.u.tXu.",
"tXu.u.u.u.u.tXtXtXu.u.u.u.u.u.tXtXu.9.>.) ; ) +.#.#.+.o.8 , = S n.`.L.v.V + < / ( @.@.+.+.8 ; ] qXu.9.9.u.u.tXtXtXu.u.u.u.u.u.tX",
"u.u.u.u.u.u.u.u.u.u.u.u.u.u.u.u.u.u.9.,.) ; ; 6 +.8.8.#.o.6 + $ g n k f $ O 8 o.$.7.7.o.1 O 3 _ 4.u.9.9.u.u.u.u.u.u.u.u.u.u.u.u.",
"u.u.u.u.u.t u.u.u.u.u.u.tXu.u.u.u.9.9.4.` : ; ; / @.#.O./ 1 X             O 6 ( +.$.+.8 : 4 _ ] 5.u.u.u.u.t u.u.u.u.u.u.tXu.u.u.",
"u.u.u.u.tXu.t u.u.u.u.u.u.u.u.u.u.u.u.9.rX4.: : , 6 8 1 , O .             . O < 6 8 6 - > _ ,.4.9.9.u.u.tXu.t u.u.u.u.u.u.u.u.u.",
"I u.u.9.u.tXu.u.u.u.u.u.u.u.u.t t u.u.u.9.y.` ) y y 4 +                         O 5 y y _ ] 5.) ) 9.u.u.u.tXu.u.u.u.u.u.u.u.u.t ",
"6.{ 4.9.u.u.u.u.u.u.u.u.u.u.t u.u.t u.u.9.u.4.>.:.:.` 4                       X 7 &.:.:.e.4.) u.9.t u.u.u.u.u.u.u.u.u.u.u.u.t u.",
"9.9.t 9.u.u.u.u.u.u.u.u.u.tXu.u.u.u.) u.9.9.9.9.u.6.>.p 4 q 4 3 4 4 o 3 3 4 2 5 _ 1.9.9.u.rXu.u.9.u.t u.u.u.u.u.u.u.u.u.u.tXu.u.",
"u.t u.u.u.u.u.u.u.tXu.u.u.tXu.u.u.t u.u.u.u.u.u.u.tXu.] ` t.] ] &.> ] ] -.` -.-.] tXu.u.u.tXu.u.u.t u.u.u.u.u.u.u.tXu.u.u.tXu.u.",
"tXu.u.u.u.u.u.u.t u.tXu.u.u.tXtXtXu.u.u.u.u.u.u.) u.rX9.9.9.rXeXeX5.5.5.9.5.5.9.t u.tXu.u.u.tXtXtXu.u.u.u.u.u.u.t u.tXu.u.u.tXtX",
"u.u.u.u.u.u.u.u.u.t u.u.u.u.u.u.u.u.u.u.u.u.u.u.9.t u.u.u.u.u.u.9.u.u.u.9.9.9.9.u.t u.u.u.u.u.u.u.u.u.u.u.u.u.u.u.t u.u.u.u.u.u.",
"u.u.u.t u.u.u.u.u.u.u.u.u.u.u.u.u.u.u.t u.u.u.u.u.9.u.u.u.u.u.u.9.9.u.) 9.9.9.9.u.u.u.u.u.u.u.u.u.u.u.t u.u.u.u.u.u.u.u.u.u.u.u.",
"u.u.u.u.u.u.u.u.u.u.u.u.u.u.u.u.u.u.u.u.u.u.u.u.u.u.u.u.u.u.u.u.u.u.u.u.9.9.9.u.u.u.u.u.u.u.u.u.u.u.u.u.u.u.u.u.u.u.u.u.u.u.u.u.",
"u.u.u.u.u.u.u.t t u.u.u.u.u.u.u.u.u.u.u.u.u.u.t t u.u.u.u.u.u.u.u.u.u.u.9.9.9.[ t u.u.u.u.u.u.u.u.u.u.u.u.u.u.t t u.u.u.u.u.u.u.",
"t u.u.u.u.u.t u.u.t u.u.u.u.u.u.t u.u.u.u.u.t u.u.t u.u.u.u.u.u.t u.u.u.u.u.) 9.u.t u.u.u.u.u.u.t u.u.u.u.u.t u.u.t u.u.u.u.u.u.",
"u.t u.u.u.tXu.u.u.u.t u.u.u.u.tXu.t u.u.9.rXu.u.u.u.t u.u.u.u.tXu.t u.u.u.tXu.9.u.u.t u.u.u.u.tXu.t u.u.u.tXu.u.u.u.t u.u.u.u.tX"
};
