/* XPM */
static char * door_xpm[] = {
"64 64 532 2",
"  	c #6B6B7F",
". 	c #6A697F",
"+ 	c #6C6C80",
"@ 	c #6B6A7F",
"# 	c #6A6A7F",
"$ 	c #6B6A80",
"% 	c #6C6B80",
"& 	c #6D6D7E",
"* 	c #6A6A7E",
"= 	c #6C6B7F",
"- 	c #6B6B80",
"; 	c #6C6C7F",
"> 	c #6A6980",
", 	c #69687E",
"' 	c #8895AF",
") 	c #6B6980",
"! 	c #6F707D",
"~ 	c #70727D",
"{ 	c #7A8177",
"] 	c #6C6B7E",
"^ 	c #6B697F",
"/ 	c #748098",
"( 	c #505B71",
"_ 	c #69758B",
": 	c #8B96AE",
"< 	c #929DB5",
"[ 	c #7C879E",
"} 	c #525E73",
"| 	c #647087",
"1 	c #828EA8",
"2 	c #696A7D",
"3 	c #71737C",
"4 	c #727C90",
"5 	c #99A3B8",
"6 	c #A0ABC0",
"7 	c #8791A5",
"8 	c #566176",
"9 	c #70717D",
"0 	c #6E788D",
"a 	c #919CB2",
"b 	c #99A4BA",
"c 	c #818CA1",
"d 	c #545F75",
"e 	c #6E6E7E",
"f 	c #707080",
"g 	c #6D6C7E",
"h 	c #7F8382",
"i 	c #5E6B83",
"j 	c #7886A1",
"k 	c #7D8BA8",
"l 	c #6C7993",
"m 	c #4E5A70",
"n 	c #777981",
"o 	c #71747C",
"p 	c #AEB98B",
"q 	c #657188",
"r 	c #828FA9",
"s 	c #4F5B71",
"t 	c #6A758B",
"u 	c #8B97AE",
"v 	c #919DB5",
"w 	c #7B879D",
"x 	c #525D73",
"y 	c #57647F",
"z 	c #6B7A99",
"A 	c #6F7F9F",
"B 	c #61708D",
"C 	c #4A576F",
"D 	c #69748A",
"E 	c #8A96AE",
"F 	c #535E74",
"G 	c #636F86",
"H 	c #818EA8",
"I 	c #758199",
"J 	c #515D73",
"K 	c #AEC440",
"L 	c #727C91",
"M 	c #566175",
"N 	c #717C90",
"O 	c #98A3B7",
"P 	c #8791A6",
"Q 	c #576276",
"R 	c #838C72",
"S 	c #6E798E",
"T 	c #929DB3",
"U 	c #818BA1",
"V 	c #545F74",
"W 	c #6D788D",
"X 	c #818CA2",
"Y 	c #556075",
"Z 	c #5F6B84",
"` 	c #7886A2",
" .	c #4D5970",
"..	c #7885A1",
"+.	c #6C7994",
"@.	c #4E5A71",
"#.	c #527F39",
"$.	c #7B869D",
"%.	c #515D72",
"&.	c #57657F",
"*.	c #6B7A9A",
"=.	c #4A576E",
"-.	c #62708D",
";.	c #4B576F",
">.	c #8A96AD",
",.	c #535F74",
"'.	c #737D91",
").	c #8690A5",
"!.	c #717B8F",
"~.	c #98A2B7",
"{.	c #8892A6",
"].	c #576277",
"^.	c #808BA1",
"/.	c #535E73",
"(.	c #636E8A",
"_.	c #505165",
":.	c #55596E",
"<.	c #626A85",
"[.	c #666F8A",
"}.	c #696F8A",
"|.	c #676F8A",
"1.	c #656E89",
"2.	c #5C627A",
"3.	c #4E4E61",
"4.	c #5A6179",
"5.	c #6B7A98",
"6.	c #6D778C",
"7.	c #828CA2",
"8.	c #666B85",
"9.	c #594652",
"0.	c #523D46",
"a.	c #4F4350",
"b.	c #544754",
"c.	c #5C4956",
"d.	c #5E4A56",
"e.	c #584855",
"f.	c #504553",
"g.	c #50404B",
"h.	c #543A41",
"i.	c #605B6F",
"j.	c #6C7997",
"k.	c #5E6A83",
"l.	c #6D7A94",
"m.	c #D7E894",
"n.	c #6B7B9A",
"o.	c #58596F",
"p.	c #666C85",
"q.	c #645D72",
"r.	c #5B3C41",
"s.	c #512C28",
"t.	c #452522",
"u.	c #4B2825",
"v.	c #562F2B",
"w.	c #59302C",
"x.	c #5F4F5D",
"y.	c #676A83",
"z.	c #686F8A",
"A.	c #5F637B",
"B.	c #4F4E61",
"C.	c #6B7998",
"D.	c #666B84",
"E.	c #584551",
"F.	c #594048",
"G.	c #5D4854",
"H.	c #5C424A",
"I.	c #5A3433",
"J.	c #5B3B40",
"K.	c #5E4752",
"L.	c #594855",
"M.	c #5B444E",
"N.	c #563B42",
"O.	c #605A6F",
"P.	c #6C7896",
"Q.	c #676982",
"R.	c #5C4047",
"S.	c #442522",
"T.	c #4E2A26",
"U.	c #5C322E",
"V.	c #5F332F",
"W.	c #582F2B",
"X.	c #4D2926",
"Y.	c #532D29",
"Z.	c #5D322E",
"`.	c #4D2A26",
" +	c #562E2A",
".+	c #462622",
"++	c #62586A",
"@+	c #653732",
"#+	c #693934",
"$+	c #633531",
"%+	c #5A312C",
"&+	c #5E332E",
"*+	c #673833",
"=+	c #482723",
"-+	c #525F79",
";+	c #657491",
">+	c #636178",
",+	c #603F45",
"'+	c #6D3B36",
")+	c #633631",
"!+	c #6B3A35",
"~+	c #623530",
"{+	c #502B27",
"]+	c #615262",
"^+	c #646E89",
"/+	c #5A6883",
"(+	c #49556C",
"_+	c #48546B",
":+	c #4E5B73",
"<+	c #4F5C75",
"[+	c #5A5162",
"}+	c #663E40",
"|+	c #60342F",
"1+	c #663732",
"2+	c #604853",
"3+	c #53586F",
"4+	c #4B586F",
"5+	c #455167",
"6+	c #687285",
"7+	c #6C7589",
"8+	c #706C7A",
"9+	c #765F61",
"0+	c #775C59",
"a+	c #7C6260",
"b+	c #826A69",
"c+	c #765B59",
"d+	c #623D39",
"e+	c #5C322D",
"f+	c #512B27",
"g+	c #5B312D",
"h+	c #6A3934",
"i+	c #6C565F",
"j+	c #6C7082",
"k+	c #5F697D",
"l+	c #4A556B",
"m+	c #6E778B",
"n+	c #919AAE",
"o+	c #97A1B5",
"p+	c #9196A3",
"q+	c #888487",
"r+	c #86807F",
"s+	c #918C8B",
"t+	c #9F9A9A",
"u+	c #8C8181",
"v+	c #684A47",
"w+	c #3B1F1C",
"x+	c #341B19",
"y+	c #311918",
"z+	c #2D1716",
"A+	c #4C2825",
"B+	c #7F6F79",
"C+	c #9398AB",
"D+	c #818A9E",
"E+	c #556074",
"F+	c #949BAB",
"G+	c #8E8F93",
"H+	c #909090",
"I+	c #959595",
"J+	c #9F9F9F",
"K+	c #AAAAAA",
"L+	c #958E8E",
"M+	c #6A4F4D",
"N+	c #532D28",
"O+	c #452D2B",
"P+	c #363131",
"Q+	c #484848",
"R+	c #5D5D5D",
"S+	c #616161",
"T+	c #767676",
"U+	c #8C8C8D",
"V+	c #919191",
"W+	c #817978",
"X+	c #664845",
"Y+	c #7F717D",
"Z+	c #949BB0",
"`+	c #828DA2",
" @	c #556076",
".@	c #7986A2",
"+@	c #7E8CA8",
"@@	c #838C9E",
"#@	c #8A8C90",
"$@	c #979797",
"%@	c #A4A4A4",
"&@	c #A9A9A9",
"*@	c #ACACAC",
"=@	c #391E1B",
"-@	c #3D3636",
";@	c #4E4D4D",
">@	c #747474",
",@	c #949494",
"'@	c #9B9B9B",
")@	c #BBBBBB",
"!@	c #DDDDDD",
"~@	c #E5E5E5",
"{@	c #BCBBBB",
"]@	c #655D5D",
"^@	c #4F2A27",
"/@	c #683833",
"(@	c #736272",
"_@	c #7C849F",
":@	c #787E93",
"<@	c #827C80",
"[@	c #8F8787",
"}@	c #9B9594",
"|@	c #9E9897",
"1@	c #8A7D7C",
"2@	c #674846",
"3@	c #50322F",
"4@	c #393232",
"5@	c #565656",
"6@	c #858585",
"7@	c #929292",
"8@	c #B4B4B4",
"9@	c #D5D5D5",
"0@	c #DEDEDE",
"a@	c #E0E0E0",
"b@	c #C8C8C8",
"c@	c #9E9E9E",
"d@	c #6E5B6C",
"e@	c #6F7996",
"f@	c #717188",
"g@	c #745B60",
"h@	c #795B59",
"i@	c #7D6260",
"j@	c #7F6361",
"k@	c #735452",
"l@	c #613B36",
"m@	c #5D322D",
"n@	c #3F211E",
"o@	c #413737",
"p@	c #4F4D4D",
"q@	c #777777",
"r@	c #999999",
"s@	c #8A8A8A",
"t@	c #636363",
"u@	c #686869",
"v@	c #7C7C7D",
"w@	c #898989",
"x@	c #939393",
"y@	c #B8B8B8",
"z@	c #6E6B83",
"A@	c #6D474D",
"B@	c #572F2B",
"C@	c #271413",
"D@	c #39393A",
"E@	c #828282",
"F@	c #A6A6A6",
"G@	c #8C8C8C",
"H@	c #414142",
"I@	c #060608",
"J@	c #393939",
"K@	c #B1B1B1",
"L@	c #F2F2F2",
"M@	c #D0D0D0",
"N@	c #656565",
"O@	c #442421",
"P@	c #393231",
"Q@	c #A8A8A8",
"R@	c #969696",
"S@	c #6E6E6E",
"T@	c #6B6B6B",
"U@	c #B0B0B0",
"V@	c #E1E1E1",
"W@	c #A0A0A1",
"X@	c #76514E",
"Y@	c #816765",
"Z@	c #7C5D5B",
"`@	c #704440",
" #	c #A5A5A5",
".#	c #ABABAB",
"+#	c #9D9D9D",
"@#	c #AEAEAE",
"##	c #BFBFBF",
"$#	c #462522",
"%#	c #58302B",
"&#	c #846D6B",
"*#	c #9C9494",
"=#	c #918382",
"-#	c #657492",
";#	c #686379",
">#	c #6C4549",
",#	c #572E2B",
"'#	c #565657",
")#	c #ADADAD",
"!#	c #D1D1D1",
"~#	c #F6F6F6",
"{#	c #562F2A",
"]#	c #897675",
"^#	c #A6A4A3",
"/#	c #999090",
"(#	c #785653",
"_#	c #6A5564",
":#	c #666E8A",
"<#	c #5A6884",
"[#	c #5C5163",
"}#	c #6A4041",
"|#	c #634954",
"1#	c #54596F",
"2#	c #677185",
"3#	c #6B7589",
"4#	c #6C6472",
"5#	c #6D4546",
"6#	c #989898",
"7#	c #6B6F81",
"8#	c #6D778B",
"9#	c #909AAE",
"0#	c #97A1B4",
"a#	c #898694",
"b#	c #735053",
"c#	c #666667",
"d#	c #808080",
"e#	c #9298AA",
"f#	c #808A9D",
"g#	c #6F798E",
"h#	c #99A4BB",
"i#	c #8A8899",
"j#	c #735155",
"k#	c #424242",
"l#	c #6E6E6F",
"m#	c #A3A3A3",
"n#	c #C7C7C7",
"o#	c #C0C0C0",
"p#	c #80717D",
"q#	c #5F6C84",
"r#	c #78758B",
"s#	c #6F4B4F",
"t#	c #B6B6B6",
"u#	c #9E9E9F",
"v#	c #4C4C4C",
"w#	c #746372",
"x#	c #434343",
"y#	c #606060",
"z#	c #848484",
"A#	c #826A68",
"B#	c #99908F",
"C#	c #8F807F",
"D#	c #75504C",
"E#	c #9A9A9A",
"F#	c #A2A2A2",
"G#	c #744D4A",
"H#	c #7D605D",
"I#	c #795755",
"J#	c #70423E",
"K#	c #62718E",
"L#	c #5E322E",
"M#	c #432321",
"N#	c #433736",
"O#	c #4D4B4B",
"P#	c #707070",
"Q#	c #8F8F8F",
"R#	c #7D7A7A",
"S#	c #4E403F",
"T#	c #492724",
"U#	c #59302B",
"V#	c #6A5665",
"W#	c #48556C",
"X#	c #4E5B74",
"Y#	c #5C5263",
"Z#	c #693834",
"`#	c #52312F",
" $	c #362D2D",
".$	c #404041",
"+$	c #535353",
"@$	c #575757",
"#$	c #5B4C4B",
"$$	c #603A37",
"%$	c #4B5870",
"&$	c #6B7588",
"*$	c #6F6C79",
"=$	c #755E60",
"-$	c #775B59",
";$	c #7B615F",
">$	c #816967",
",$	c #765A58",
"'$	c #623C38",
")$	c #371D1B",
"!$	c #321A18",
"~$	c #351C1A",
"{$	c #3A1E1C",
"]$	c #522B28",
"^$	c #5E697D",
"/$	c #909AAD",
"($	c #9195A2",
"_$	c #867F7F",
":$	c #918B8B",
"<$	c #9E9999",
"[$	c #8C8180",
"}$	c #542D29",
"|$	c #613430",
"1$	c #6C3A35",
"2$	c #7E6F79",
"3$	c #555F74",
"4$	c #939DB4",
"5$	c #949CAB",
"6$	c #7987A2",
"7$	c #848C9E",
"8$	c #7C859F",
"9$	c #827D81",
"0$	c #8F8887",
"a$	c #9C9595",
"b$	c #9F9898",
"c$	c #8A7E7D",
"d$	c #674946",
"e$	c #717288",
"f$	c #745C61",
"g$	c #795C5A",
"h$	c #7E6361",
"i$	c #7F6462",
"j$	c #735553",
"k$	c #613B37",
"l$	c #746D84",
"m$	c #7A4D51",
"n$	c #7B433D",
"o$	c #713D37",
"p$	c #78413B",
"q$	c #713D38",
"r$	c #61342F",
"s$	c #61352F",
"t$	c #775F6E",
"u$	c #717996",
"v$	c #7E7086",
"w$	c #8E5758",
"x$	c #914F48",
"y$	c #80463F",
"z$	c #643631",
"A$	c #743F39",
"B$	c #8C4C45",
"C$	c #653731",
"D$	c #81463F",
"E$	c #733F39",
"F$	c #866472",
"G$	c #747A97",
"  .       +       .         +   @ . . . . . . . . . # . . . $ # # . # . . . . . . . . . . . . . . . . . . . . . . . . . . . . . ",
"+           + + +         @ # @ # . . . . . . . . . . . . . . . . . . . . . . . . . . . . . . . . . . . . . . . . . . . . . . . ",
"                          . . . . . . . . . . . . . . . . . . . . . . . . . . . . . . . . . . . . . . . . . . . . . . . . . . . ",
"          .             % . . . . . . . . . . . . . . . . . . . . . . . . . . . . . . . . . . . . . . . . . . . . . . . . . . . ",
"&       +   .               @ @ @ # # # @ # . # # # # # # # # # # # # # @ . . . . . . . . . . . . . @   +   .           @ . . . ",
"* =       +                   . .         +                   . .         - @ @ @ @ @ @ # # # . . @       +     = =     @ . . . ",
"; #       ;   ; ;           . @ @ .                         .     .                         .     .                   @ # . . @ ",
";   .           &         + @ @ . @ .                     +         .     @ @ @ @         +         .                 @ . > . . ",
"  .               + @ @ @   @ . . .         @ @ @ $ @ @ @ $ = = = # = = @ . . . . $ @ @ @ $ @ @ @ . @ @ # @ @     + @ # . > . @ ",
"+               #   % , . . . .   @         @ ; . . $ ' ' ' ' ' ' ' ' ' ' @ @ @ . . ) . . . > > > . . . . . . @ # @ $ @ . . $ $ ",
"                  . @ @ . . .   &             @ . .   ' ' ' ' ' ' ' ' ' ' @ @ . . . . . . @ @ @ @ @ @ # . . . @ @ . . @ . . @ @ ",
"      .                 @ @ @ & ! ; = .       @ . . & ' ' ' ' ' ' ' ' ' ' @ . . @ @ @ @ @ @         @ . . . . # @ . @ @ . . @   ",
"                                @ @ @ @       @ . . ~ ' ' ' ' ' ' ' ' ' ' { ] = = =   = = = = = = @ @ . . . . . ^ @ ^ @ @ @ @   ",
";             # #           ; ' ' ' ' ' ' ' ' / ( _ : < < < < < < < < < < [ } | 1 ' ' ' ' ' ' ' ' ; @ @ @ @   * . @ @ @ @       ",
"2           .     .   =     3 ' ' ' ' ' ' ' ' / ( 4 5 6 6 6 6 6 6 6 6 6 6 7 8 | 1 ' ' ' ' ' ' ' '         = * ;   .             ",
"; #       +         # = = = 9 ' ' ' ' ' ' ' ' / ( 0 a b b b b b b b b b b c d | 1 ' ' ' ' ' ' ' ' .       +         #   ; e & f ",
"! # =     +       .       g h ' ' ' ' ' ' ' ' / ( i j k k k k k k k k k k l m | 1 ' ' ' ' ' ' ' ' * ; =   +       .         n o ",
"p q r ' ' ' ' ' ' ' ' / s t u v v v v v v v v w x y z A A A A A A A A A A B C D E v v v v v v v v [ F G H ' ' ' ' ' ' ' ' I J + ",
"K q r ' ' ' ' ' ' ' ' / s L 5 6 6 6 6 6 6 6 6 7 M y z A A A A A A A A A A B C N O 6 6 6 6 6 6 6 6 P Q G H ' ' ' ' ' ' ' ' I J R ",
"K q r ' ' ' ' ' ' ' ' / s S T b b b b b b b b U V y z A A A A A A A A A A B C W a b b b b b b b b X Y G H ' ' ' ' ' ' ' ' I J K ",
"K q r ' ' ' ' ' ' ' ' / s Z ` k k k k k k k k l  .y z A A A A A A A A A A B C i ..k k k k k k k k +.@.G H ' ' ' ' ' ' ' ' I J K ",
"#.t u v v v v v v v v $.%.&.*.A A A A A A A A B =.y z A A A A A A A A A A B C y z A A A A A A A A -.;.D >.v v v v v v v v [ ,.#.",
"K '.5 6 6 6 6 6 6 6 6 ).Y &.*.A A A A A A A A B =.y z A A A A A A A A A A B C y z A A A A A A A A -.;.!.~.6 6 6 6 6 6 6 6 {.].K ",
"K S T b b b b b b b b ^./.&.*.A A A A A A A A (._.:.<.[.}.}.}.}.}.}.}.|.1.2.3.4.5.A A A A A A A A -.;.6.a b b b b b b b b 7.Y K ",
"K Z ` k k k k k k k k l  .&.*.A A A A A A A A 8.9.0.a.b.c.d.d.d.d.d.d.e.f.g.h.i.j.A A A A A A A A -.;.k...k k k k k k k k l.@.K ",
"m.&.n.A A A A A A A A (._.o.p.}.}.|.1.[.}.}.}.q.r.s.t.u.v.w.w.w.w.w.w.s.t.u.v.x.y.}.}.z.1.[.}.}.}.A.B.4.C.A A A A A A A A -.;.m.",
"K &.n.A A A A A A A A D.E.F.G.d.d.e.f.b.c.d.d.H.I.s.t.u.v.w.w.w.w.w.w.s.t.u.v.J.K.d.d.L.f.b.c.d.d.M.N.O.P.A A A A A A A A -.;.K ",
"K &.n.A A A A A A A A Q.R.w.w.w.w.s.S.T.U.V.V.V.V.W.X.Y.Z.V.V.V.V.V.V.W.`.Y.Z.V.V.V.V. +.+u.v.w.w.w.w.++P.A A A A A A A A -.;.K ",
"K &.n.A A A A A A A A Q.R.w.w.w.w.s.S.Y.@+#+#+#+#+$+%+&+*+#+#+#+#+#+#+$+%+&+*+#+#+#+#+Z.=+u.v.w.w.w.w.++P.A A A A A A A A -.;.K ",
"K -+-.;+;+;+;+;+;+;+;+>+,+V.V.V.V.W.X.w.#+'+'+'+'+*+&+)+!+'+'+'+'+'+'+*+&+)+!+'+'+'+'+~+{+Y.Z.V.V.V.V.]+^+;+;+;+;+;+;+;+;+/+(+K ",
"#._+:+<+<+<+<+<+<+<+<+[+}+#+#+#+#+$+w.|+!+'+'+'+'+*+&+)+!+'+'+'+'+'+'+*+&+)+!+'+'+'+'+1+%+&+*+#+#+#+#+2+3+<+<+<+<+<+<+<+<+4+5+K ",
"K Y 6+7+7+7+7+7+7+7+7+8+9+0+0+a+b+c+d+)+!+'+'+'+'+*+&+e+Z.Z.Z.Z.Z.Z.Z.W.f+g+h+'+'+'+'+*+&+)+!+'+'+'+'+i+j+7+7+7+7+7+7+7+7+k+l+m.",
"K m+n+o+o+o+o+o+o+o+o+p+q+r+r+s+t+u+v+)+!+'+'+'+'+*+&+{+w+x+x+x+x+x+x+y+z+A+*+'+'+'+'+*+&+)+!+'+'+'+'+B+C+o+o+o+o+o+o+o+o+D+E+K ",
"m.S T b b b b b b b b F+G+H+I+J+K+L+M+)+!+'+'+'+'+$+N+O+P+Q+R+S+S+T+U+V+V+W+X+)+!+'+'+*+&+)+!+'+'+'+'+Y+Z+b b b b b b b b `+ @m.",
"K Z .@+@+@+@+@+@+@+@+@@@#@$@%@&@*@L+M+)+!+'+'+'+'+g+=@-@;@>@,@'@'@)@!@~@~@{@]@^@/@'+'+*+&+)+!+'+'+'+'+(@_@+@+@+@+@+@+@+@+@l.@.K ",
"K &.n.A A A A A A A A :@<@[@}@|@|@1@2@)+!+'+'+*+V.3@4@5@>@6@7@I+I+8@9@0@a@b@c@W+X+)+!+*+&+)+!+'+'+'+'+d@e@A A A A A A A A -.;.K ",
"K &.n.A A A A A A A A f@g@h@i@j@j@k@l@)+!+'+'+m@n@o@p@q@r@s@t@5@5@u@v@w@x@y@!@{@]@^@/@*+&+)+!+'+'+'+'+d@e@A A A A A A A A -.;.K ",
"#.&.n.A A A A A A A A z@A@'+'+'+'+*+&+)+!+'+'+B@C@D@5@E@F@G@H@I@I@I@I@J@5@K@L@M@N@O@1+*+&+)+!+'+'+'+'+d@e@A A A A A A A A -.;.#.",
"K &.n.A A A A A A A A z@A@'+'+'+'+*+&+)+!+'+'+B@C@D@5@E@F@G@H@I@I@I@I@J@5@K@L@M@N@O@1+*+&+)+!+'+'+'+'+d@e@A A A A A A A A -.;.K ",
"K &.n.A A A A A A A A z@A@'+'+'+'+*+&+)+!+*+V.3@P@5@>@H+Q@R@S@S+S+S+S+T@q@U@V@M@W@W+X+Z.e+)+!+X@Y@Z@`@d@e@A A A A A A A A -.;.K ",
"K &.n.A A A A A A A A z@A@'+'+'+'+*+&+)+!+e+n@o@p@q@r@ #.#F@+#'@'@'@'@+#J+@###M@V@{@]@$#%#)+!+&#*#=#X@d@e@A A A A A A A A -.;.K ",
"m.-+-.-#-#-#-#-#-#-#-#;#>#'+'+'+'+*+&+)+!+,#C@D@'#E@F@)#)#)#)#)#)#)#)#)#)#)#)#!#~#M@N@=@{#)+!+]#^#/#(#_#:#-#-#-#-#-#-#-#-#<#(+m.",
"K _+:+<+<+<+<+<+<+<+<+[#}#'+'+'+'+*+&+)+!+,#C@D@'#E@F@)#)#)#)#)#)#)#)#)#)#)#)#!#~#M@N@=@{#)+!+]#^#/#(#|#1#<+<+<+<+<+<+<+<+4+5+K ",
"K E+2#3#3#3#3#3#3#3#3#4#5#'+'+'+'+*+&+)+!+,#C@D@'#E@F@)#)#)#)# #6#I+I+J+K+)#)#!#~#M@N@=@{#)+!+]#^#/#(#i+7#3#3#3#3#3#3#3#3#k+l+K ",
"K 8#9#0#0#0#0#0#0#0#0#a#b#'+'+'+'+*+&+)+!+,#C@D@'#E@F@)#)#)#)#,@c#5@5@d# #)#)#!#~#M@N@=@{#)+!+]#^#/#(#B+e#0#0#0#0#0#0#0#0#f#E+K ",
"K g#T h#h#h#h#h#h#h#h#i#j#'+'+'+'+*+&+)+!+,#C@D@'#E@F@)#)#)#)#G@k#I@I@l#m#)#)#n#~@o#R+=@{#)+!+]#^#/#(#p#Z+h#h#h#h#h#h#h#h#`+ @K ",
"#.q#.@+@+@+@+@+@+@+@+@r#s#'+'+'+'+*+&+)+!+,#C@D@'#E@F@)#)#)#)#G@k#I@I@l#m#)#)#t#o#u#v#=@{#)+!+]#^#/#(#w#_@+@+@+@+@+@+@+@+@l.@.K ",
"K &.n.A A A A A A A A z@A@'+'+'+'+*+&+)+!+,#C@D@'#E@F@)#)#)#)#G@k#I@I@l#m#)#)#)#)#G@x#=@{#)+!+]#^#/#(#d@e@A A A A A A A A -.;.m.",
"K &.n.A A A A A A A A z@A@'+'+'+'+*+&+)+!+,#C@D@'#E@F@)#)#)#)#G@k#I@I@l#m#)#)#)#)#G@x#=@{#)+!+]#^#/#(#d@e@A A A A A A A A -.;.K ",
"m.&.n.A A A A A A A A z@A@'+'+'+'+*+&+)+!+,#C@D@'#E@F@)#)#)#)#R@S@y#y#z#F@)#)#)#)#G@x#=@{#)+!+A#B#C#D#d@e@A A A A A A A A -.;.m.",
"K &.n.A A A A A A A A z@A@'+'+'+'+*+&+)+!+,#C@D@'#E@F@)#)#)#)#F@+#E#E#F#.#)#)#)#)#G@x#=@{#)+!+G#H#I#J#d@e@A A A A A A A A -.;.K ",
"K &.n.A A A A A A A A z@A@'+'+'+'+*+&+)+!+,#C@D@'#E@F@)#)#)#)#)#)#)#)#)#)#)#)#)#)#G@x#=@{#)+!+'+'+'+'+d@e@A A A A A A A A -.;.K ",
"K &.n.A A A A A A A A z@A@'+'+'+'+*+&+)+!+,#C@D@'#E@F@)#)#)#)#)#)#)#)#)#)#)#)#)#)#G@x#=@{#)+!+'+'+'+'+d@e@A A A A A A A A -.;.K ",
"#.-+K#-#-#-#-#-#-#-#-#;#>#'+'+'+'+*+&+)+!+L#M#N#O#P#Q#R@R@R@R@R@R@R@R@R@R@R@R@R@R@R#S#T#U#)+!+'+'+'+'+V#[.-#-#-#-#-#-#-#-#<#(+#.",
"K W#X#<+<+<+<+<+<+<+<+Y#}#'+'+'+'+*+&+)+!+Z#~+`# $.$+$@$@$@$@$@$@$@$@$@$@$@$@$@$@$#$$$V.m@)+!+'+'+'+'+|#1#<+<+<+<+<+<+<+<+%$5+K ",
"K E+2#&$&$&$&$&$&$&$&$*$=$-$-$;$>$,$'$)+!+'+'+L#M#)$!$~${$w+w+w+w+w+w+)$!$~${$w+w+]$/@*+&+)+!+'+'+'+'+i+7#&$&$&$&$&$&$&$&$^$l+K ",
"K 8#/$0#0#0#0#0#0#0#0#($q+_$_$:$<$[$v+)+!+'+'+Z#~+g+}$W.V.|$|$|$|$|$|$g+}$W.V.|$|$1+1$*+&+)+!+'+'+'+'+2$e#0#0#0#0#0#0#0#0#f#3$K ",
"m.g#4$h#h#h#h#h#h#h#h#5$G+H+I+J+K+L+M+)+!+'+'+'+'+*+&+)+!+'+'+'+'+'+'+*+&+)+!+'+'+'+'+*+&+)+!+'+'+'+'+p#Z+h#h#h#h#h#h#h#h#`+8 m.",
"K q#6$+@+@+@+@+@+@+@+@7$#@$@m#&@*@L+M+)+!+'+'+'+'+*+&+)+!+'+'+'+'+'+'+*+&+)+!+'+'+'+'+*+&+)+!+'+'+'+'+w#8$+@+@+@+@+@+@+@+@l.@.K ",
"K &.n.A A A A A A A A :@9$0$a$b$b$c$d$)+!+'+'+'+'+*+&+)+!+'+'+'+'+'+'+*+&+)+!+'+'+'+'+*+&+)+!+'+'+'+'+d@e@A A A A A A A A -.;.K ",
"K &.n.A A A A A A A A e$f$g$h$i$i$j$k$)+!+'+'+'+'+*+&+)+!+'+'+'+'+'+'+*+&+)+!+'+'+'+'+*+&+)+!+'+'+'+'+d@e@A A A A A A A A -.;.K ",
"K &.n.A A A A A A A A l$m$n$n$n$n$o$|+#+p$n$n$n$n$q$r$#+p$n$n$n$n$n$n$q$r$#+p$n$n$n$n$q$s$#+p$n$n$n$n$t$u$A A A A A A A A -.;.K ",
"#.&.n.A A A A A A A A v$w$x$x$x$x$y$z$A$B$x$x$x$x$y$C$A$B$x$x$x$x$x$x$D$C$A$B$x$x$x$x$D$C$E$B$x$x$x$x$F$G$A A A A A A A A -.;.K ",
"K #.K K K m.K K K K #.K K K K m.K #.K K K m.K K K K #.K K K K m.K #.K K K m.K K K K #.K K K K m.K #.K K K m.K K K K #.K K K K m."};
