/* XPM */
static char *result[] = {
/* columns rows colors chars-per-pixel */
"16 16 3 1 ",
"  c #527F39",
". c #AEC440",
"X c #D7E894",
/* pixels */
". ...X... ....X.",
"X.....XXX......X",
"................",
"..... ......X...",
"....X. .........",
" ....X......... ",
". ............ .",
".. ..........X..",
". .......X...X..",
"X....... .X...XX",
"......... ......",
"... ............",
"................",
".......  .......",
" ..... .. ......",
". ...X.... ....X"
};
