/* XPM */
static char *_35dd78cc4de4d66d8ea65969bb4d892Pjf37nPqBTfuDzsp[] = {
/* columns rows colors chars-per-pixel */
"64 64 3 1 ",
"  c #527F39",
". c #AEC440",
"X c #D7E894",
/* pixels */
". ...X... ....X.. ...X... ....X.. ...X... ....X.. ...X... ....X.",
"X.....XXX......XX.....XXX......XX.....XXX......XX.....XXX......X",
"................................................................",
"..... ......X........ ......X........ ......X........ ......X...",
"....X. .............X. .............X. .............X. .........",
" ....X.........  ....X.........  ....X.........  ....X......... ",
". ............ .. ............ .. ............ .. ............ .",
".. ..........X.... ..........X.... ..........X.... ..........X..",
". .......X...X... .......X...X... .......X...X... .......X...X..",
"X....... .X...XXX....... .X...XXX....... .X...XXX....... .X...XX",
"......... ............... ............... ............... ......",
"... ............... ............... ............... ............",
"................................................................",
".......  ..............  ..............  ..............  .......",
" ..... .. ...... ..... .. ...... ..... .. ...... ..... .. ......",
". ...X.... ....X. ...X.... ....X. ...X.... ....X. ...X.... ....X",
". ...X... ....X.. ...X... ....X.. ...X... ....X.. ...X... ....X.",
"X.....XXX......XX.....XXX......XX.....XXX......XX.....XXX......X",
"................................................................",
"..... ......X........ ......X........ ......X........ ......X...",
"....X. .............X. .............X. .............X. .........",
" ....X.........  ....X.........  ....X.........  ....X......... ",
". ............ .. ............ .. ............ .. ............ .",
".. ..........X.... ..........X.... ..........X.... ..........X..",
". .......X...X... .......X...X... .......X...X... .......X...X..",
"X....... .X...XXX....... .X...XXX....... .X...XXX....... .X...XX",
"......... ............... ............... ............... ......",
"... ............... ............... ............... ............",
"................................................................",
".......  ..............  ..............  ..............  .......",
" ..... .. ...... ..... .. ...... ..... .. ...... ..... .. ......",
". ...X.... ....X. ...X.... ....X. ...X.... ....X. ...X.... ....X",
". ...X... ....X.. ...X... ....X.. ...X... ....X.. ...X... ....X.",
"X.....XXX......XX.....XXX......XX.....XXX......XX.....XXX......X",
"................................................................",
"..... ......X........ ......X........ ......X........ ......X...",
"....X. .............X. .............X. .............X. .........",
" ....X.........  ....X.........  ....X.........  ....X......... ",
". ............ .. ............ .. ............ .. ............ .",
".. ..........X.... ..........X.... ..........X.... ..........X..",
". .......X...X... .......X...X... .......X...X... .......X...X..",
"X....... .X...XXX....... .X...XXX....... .X...XXX....... .X...XX",
"......... ............... ............... ............... ......",
"... ............... ............... ............... ............",
"................................................................",
".......  ..............  ..............  ..............  .......",
" ..... .. ...... ..... .. ...... ..... .. ...... ..... .. ......",
". ...X.... ....X. ...X.... ....X. ...X.... ....X. ...X.... ....X",
". ...X... ....X.. ...X... ....X.. ...X... ....X.. ...X... ....X.",
"X.....XXX......XX.....XXX......XX.....XXX......XX.....XXX......X",
"................................................................",
"..... ......X........ ......X........ ......X........ ......X...",
"....X. .............X. .............X. .............X. .........",
" ....X.........  ....X.........  ....X.........  ....X......... ",
". ............ .. ............ .. ............ .. ............ .",
".. ..........X.... ..........X.... ..........X.... ..........X..",
". .......X...X... .......X...X... .......X...X... .......X...X..",
"X....... .X...XXX....... .X...XXX....... .X...XXX....... .X...XX",
"......... ............... ............... ............... ......",
"... ............... ............... ............... ............",
"................................................................",
".......  ..............  ..............  ..............  .......",
" ..... .. ...... ..... .. ...... ..... .. ...... ..... .. ......",
". ...X.... ....X. ...X.... ....X. ...X.... ....X. ...X.... ....X"
};
