/* XPM */
static char *a86eef3acff44f978bcbde8217c297bfvGFztkVfO9n0Dijx[] = {
/* columns rows colors chars-per-pixel */
"64 64 216 2 ",
"   c #350316",
".  c #3A0216",
"X  c #36031A",
"o  c #3A021B",
"O  c #470D25",
"+  c #4C112D",
"@  c #5A152D",
"#  c #4B1131",
"$  c #531636",
"%  c #5B1334",
"&  c #551538",
"*  c #641539",
"=  c #6F223B",
"-  c #75283D",
";  c #3E4C27",
":  c #3D4C28",
">  c #3E5228",
",  c #4D4E2B",
"<  c #45622F",
"1  c #476A31",
"2  c #4C7435",
"3  c #527F39",
"4  c #68672C",
"5  c #6F762A",
"6  c #6F782A",
"7  c #70772A",
"8  c #737C2C",
"9  c #772246",
"0  c #647259",
"q  c #7F6070",
"w  c #8A393D",
"e  c #91493F",
"r  c #93523B",
"t  c #9C5C3D",
"y  c #A35C3F",
"u  c #A6633E",
"i  c #AC6A3D",
"p  c #B1683D",
"a  c #D37E3D",
"s  c #87244C",
"d  c #8A3C44",
"f  c #923B49",
"g  c #812652",
"h  c #9C2A55",
"j  c #9D2B5B",
"k  c #A32955",
"l  c #A42758",
"z  c #A2295B",
"x  c #A53450",
"c  c #B83D5A",
"v  c #A42760",
"b  c #954E40",
"n  c #9F404C",
"m  c #9A5A42",
"M  c #B44D4E",
"N  c #A45B46",
"B  c #B1524B",
"V  c #AD4B52",
"C  c #AC4659",
"Z  c #B44C55",
"A  c #99624B",
"S  c #9C7E43",
"D  c #8D7352",
"F  c #A76841",
"G  c #AD6843",
"H  c #B66745",
"J  c #C65E4C",
"K  c #CC4E57",
"L  c #C54A5C",
"P  c #C95955",
"I  c #D75E56",
"U  c #DA5C55",
"Y  c #D45D5B",
"T  c #DB5B5B",
"R  c #E0595E",
"E  c #C5684B",
"W  c #CD694E",
"Q  c #D76C4C",
"!  c #CB7946",
"~  c #C67748",
"^  c #D27E45",
"/  c #D37D4A",
"(  c #DD7C49",
")  c #CC6552",
"_  c #D36853",
"`  c #C27751",
"'  c #DA7852",
"]  c #E9764D",
"[  c #E47C4D",
"{  c #E8794A",
"}  c #E26958",
"|  c #E57252",
" . c #E97655",
".. c #EC7E53",
"X. c #C94B61",
"o. c #D85B60",
"O. c #7A852E",
"+. c #7D8547",
"@. c #8E8D3D",
"#. c #938C3D",
"$. c #899733",
"%. c #8B9B34",
"&. c #899837",
"*. c #93A436",
"=. c #96A838",
"-. c #97A938",
";. c #9EB23B",
":. c #A4B83D",
">. c #D0803F",
",. c #EC8D3F",
"<. c #FE973E",
"1. c #F79C3D",
"2. c #FD983D",
"3. c #888D5B",
"4. c #909050",
"5. c #AC885B",
"6. c #97966B",
"7. c #B08E73",
"8. c #A19572",
"9. c #ABAE70",
"0. c #B2A67F",
"q. c #B3AB7A",
"w. c #CC814A",
"e. c #D88347",
"r. c #E98945",
"t. c #EF844B",
"y. c #F48A43",
"u. c #F1844C",
"i. c #F28A4B",
"p. c #F79546",
"a. c #FD9642",
"s. c #F69944",
"d. c #FB9841",
"f. c #FA9649",
"g. c #F08351",
"h. c #CA936E",
"j. c #E2A967",
"k. c #EEAB6D",
"l. c #F5BE65",
"z. c #AEC440",
"x. c #B5C27C",
"c. c #F4C166",
"v. c #F5D77B",
"b. c #F4D97C",
"n. c #F6E17F",
"m. c #8A7682",
"M. c #A77E86",
"N. c #988990",
"B. c #9F959A",
"V. c #A4959D",
"C. c #A29A9B",
"Z. c #A6A68F",
"A. c #A696A0",
"S. c #AC9DA6",
"D. c #B795A5",
"F. c #ABA5A2",
"G. c #ADA3A9",
"H. c #B0ADA1",
"J. c #B2A4AD",
"K. c #BAB3B1",
"L. c #D09593",
"P. c #D5AE93",
"I. c #DCA29F",
"U. c #E8B78F",
"Y. c #F3B887",
"T. c #F3BD8E",
"R. c #F3BE92",
"E. c #C093A6",
"W. c #D49BA4",
"Q. c #C1A7AA",
"!. c #DDA2A1",
"~. c #C5A2B1",
"^. c #CDB3B1",
"/. c #BEC896",
"(. c #CAD98B",
"). c #D6D18E",
"_. c #D8CD94",
"`. c #D6D190",
"'. c #F7D782",
"]. c #EFC193",
"[. c #F2C89E",
"{. c #D7E894",
"}. c #F6E082",
"|. c #FDFE9C",
" X c #D3DEB4",
".X c #F3C6A3",
"XX c #F5C8A3",
"oX c #E8C5B2",
"OX c #F6DBBD",
"+X c #FDFDA2",
"@X c #FAFEA9",
"#X c #C4B9C1",
"$X c #CCC5C9",
"%X c #CDC4CA",
"&X c #D6C6CD",
"*X c #DCC6D1",
"=X c #D5CDD4",
"-X c #DACAD2",
";X c #D6D2D5",
":X c #DAD2D6",
">X c #DDD6DB",
",X c #E7CCC8",
"<X c #E9D8CD",
"1X c #F6DDC9",
"2X c #E2CDD7",
"3X c #EBD3D2",
"4X c #E8D8DB",
"5X c #F5E0C5",
"6X c #F5E1CB",
"7X c #F7E6D8",
"8X c #E6DCE3",
"9X c #EAE7E9",
"0X c #F3EAEB",
"qX c #FCFDF6",
"wX c #F7FEFA",
"eX c #FDFEFD",
/* pixels */
"z.3 z.z.z.{.z.z.z.3 z.z.z.z.{.z.z.3 z.z.z.{.z.z.z.3 z.z.z.z.{.z.z.3 z.z.z.{.z.z.z.3 z.z.z.z.{.z.z.3 z.z.z.{.z.z.z.3 z.z.z.z.{.z.",
"{.z.z.z.z.z.{.{.{.z.z.z.z.z.z.{.{.z.z.z.z.z.{.{.{.z.z.z.z.z.z.{.{.z.z.z.z.z.{.{.{.z.z.z.z.z.z.{.{.z.z.z.z.z.{.{.{.z.z.z.z.z.z.{.",
"z.z.z.z.z.z.z.z.z.z.z.z.z.z.z.z.z.z.z.z.z.z.z.z.z.z.z.z.z.z.z.z.z.z.z.z.z.z.z.z.z.z.z.z.z.z.z.z.z.z.z.z.z.z.z.z.z.z.z.z.z.z.z.z.",
"z.z.z.z.z.3 z.z.z.z.z.z.{.z.z.z.z.z.z.z.z.3 z.z.z.z.z.z.{.z.z.z.z.z.z.z.z.3 z.z.z.z.z.z.{.z.z.z.z.z.z.z.z.3 z.z.z.z.z.z.{.z.z.z.",
"z.z.z.z.{.z.3 z.z.z.z.z.z.z.z.z.z.z.z.z.{.z.3 z.z.z.z.z.z.z.z.z.z.z.z.z.{.z.3 z.z.z.z.z.z.z.z.z.z.z.z.z.{.z.3 z.z.z.z.z.z.z.z.z.",
"3 z.z.z.z.{.z.z.z.z.z.z.z.z.z.2 < $.$.=.z.{.z.z.z.z.z.z.z.z.z.3 3 z.z.z.z.{.z.z.z.:.$.$.$.=.z.3 3 z.z.z.z.{.z.z.z.z.z.z.z.z.z.3 ",
"z.3 z.z.z.z.z.z.z.z.z.z.z.z.3 *.  . o 7 z.z.z.z.z.z.z.z.z.z.3 z.z.3 z.z.z.z.z.z.z.*.  o   7 3 z.z.3 z.z.z.z.z.z.z.z.z.z.z.z.3 z.",
"z.z.3 z.z.z.z.z.z.z.z.z.z.(.$.#.G i i S $.=.z.z.z.z.z.z.z.{.z.z.z.z.3 z.z.z.z.:.$.#.i p G 5.$.=.z.z.3 z.z.z.z.z.z.z.z.z.z.{.z.z.",
"z.3 z.z.z.z.z.z.z.{.z.z.z.x.X t f.d.a./ o 7 z.z.z.{.z.z.z.{.z.z.z.3 z.z.z.z.z.*.o m f.a.d.^ . 5 z.3 z.z.z.z.z.z.z.{.z.z.z.{.z.z.",
"{.z.z.z.z.z.z.z.3 z.{.z.z.*.X t a.p.t.' G S $.=.3 z.{.z.z.z.{.{.{.z.z.z.z.:.$.@.G ~ ..i.2.^ o 3.{.z.z.z.z.z.z.z.3 z.{.z.z.z.{.{.",
"z.z.z.z.z.z.z.z.z.3 z.z.z.*.o t a.t.U | a./ o 7 z.3 z.z.z.z.z.z.z.z.z.z.z.*.o m f.u.U | a.^ o 7 z.z.z.z.z.z.z.z.z.3 z.z.z.z.z.z.",
"z.z.z.3 z.z.z.z.z.z.z.z.z.*.  t d.r.V P ..' i S &.$.$.$.$.$.$.$.$.$.$.< $.#.i ` .._ V W d.^ . 7 z.z.z.3 z.z.z.z.z.z.z.z.z.z.z.z.",
"z.z.z.z.z.z.z.z.z.z.z.z.z.*.  t a.^ % f T | f.w..     o           o o     t f.t.U Z % N d.^ . 7 z.z.z.z.z.z.z.z.z.z.z.z.z.z.z.z.",
"z.z.z.z.z.z.z.3 3 z.z.z.z.*.  t a./ % - V J ..) = D q.q.q.q.q.q.q.q.q.8.= V ..Q V f % N a.^ . 7 z.z.z.z.z.z.z.3 3 z.z.z.z.z.z.z.",
"3 z.z.z.z.z.3 z.z.3 z.z.z.*.  t f./ @ $ & f U K v h.@X+X|.+X+X+X|.+X+X_.v c T M % & & N f./ . 7 3 z.z.z.z.z.3 z.z.3 z.z.z.z.z.z.",
"z.3 z.z.z.{.z.z.z.z.3 z.z.*.  t a.e.n n f C L P _ h.b.'.v.v.v.v.v.'.b.k.W P L Z n n n E a.^ . 3.z.3 z.z.z.{.z.z.z.z.3 z.z.z.z.{.",
"z.3 z.z.z.{.z.z.z.O.z.z.z.*.X t f.u.T T T X.l J f.2.d.f.2.d.2.d.d.a.a.1.a.[ k c T T T | a.^ o 7 z.3 z.z.z.{.z.z.z.3 z.z.z.z.{.z.",
"{.z.z.z.z.z.{.{.{.z.z.z.z.*.  b ..| L L L P W ( d.a.<.2.<.<.<.<.<.2.<.a.<.i.W ) L L L Y ..E o 3.{.z.z.z.z.z.{.{.{.z.z.z.z.z.z.{.",
"z.z.z.z.z.z.z.z.z.z.z.z.z.*.  w I K k l l P f.a.2.2.<.2.a.<.<.<.<.<.2.<.2.d.f.[ l l l c U M . 6 z.z.z.z.z.z.z.z.z.z.z.z.z.z.z.z.",
"z.z.z.z.z.3 z.z.z.z.z.:.9.4.Z.h.[ | W W W { <.a.<.<.<.<.<.<.<.<.<.<.<.<.<.a.<.,.W W _ Q [ h.0.6.$.=.z.z.z.3 z.z.z.z.z.z.{.z.z.z.",
"z.z.z.z.{.z.3 z.z.z.z.*.  8.+X}.d.a.<.d.f.<.<.a.<.<.<.<.<.<.<.<.<.<.<.<.<.a.<.<.f.d.<.<.f.l.+X_.  6 z.z.{.z.3 z.z.z.z.z.z.z.z.z.",
"3 z.z.z.z.{.z.z.z.z.z.*.o 8.+Xn.d.d.<.2.<.a.a.<.<.<.<.<.<.<.<.<.<.<.<.<.<.<.<.a.a.<.2.<.d.c.|._.o 7 z.z.z.{.z.z.z.z.z.z.z.z.z.3 ",
"z.3 z.z.z.z.z.z.z.z.z.*.X 8.+X'.d.<.a.a.2.2.2.2.f.<.<.<.<.<.<.<.<.<.<.<.a.a.2.2.2.2.a.<.<.l.+X_.  : z.z.z.z.z.z.z.z.z.z.z.z.3 z.",
"z.z.3 z.z.z.z.z.z.z.z.*.  8.+X}.2.<.<.a.a.a.a.<.<.<.<.<.<.<.<.<.<.<.<.<.<.<.<.a.<.<.<.2.<.l.|.`.  7 3 z.z.z.z.z.z.z.z.z.z.{.z.z.",
"z.3 z.z.z.z.z.z.z.{.z.*.  8.+X}.2.a.a.<.f.<.<.d.<.<.<.<.<.<.<.<.<.<.<.<.<.d.<.2.a.<.a.f.2.l.|.`.  ; z.z.z.z.z.z.z.{.z.z.z.{.z.z.",
"{.z.z.z.z.z.z.z.3 z.{.*.  8.+X}.2.i.' / ~ e.2.a.d.<.<.<.<.<.<.<.<.<.<.<.<.a.<.,.~ ! ' ..a.l.|.).. 7 z.z.z.z.z.z.3 z.{.z.z.z.{.{.",
"z.z.z.z.z.z.z.z.z.3 z.*.  8.+X}.2.[ k s * N a.a.<.<.<.<.<.<.<.<.<.2.a.<.<.<.<./ % 9 h P a.l.|.).o 7 z.z.z.z.z.z.z.3 z.z.z.z.z.z.",
"z.z.z.3 z.z.z.z.z.z.z.*.  8.+X}.2.g.) E G H ~ e.a.<.<.d.a.p.t.y.a.a.<.<.a.r.~ ~ G H W ' a.c.|.).  7 z.3 z.z.z.z.z.z.z.z.z.z.z.z.",
"z.z.z.z.z.z.z.z.z.z.z.*.  8.@X}.2.f.f.d.d.^ @ y d.a.<.a.a.t.U | a.a.<.<.2.^ % y d.2.d.f.<.c.+X`.  7 z.z.z.z.z.z.z.z.z.z.z.z.z.z.",
"z.z.z.z.z.z.z.3 3 z.z.*.X D b.c.2.2.<.a.a.r.p H ~ e.a.y.t. .T } u.y.a.r.~ ~ p ! a.a.<.<.a.l.b.j.o 7 z.z.z.z.z.3 3 z.z.z.z.z.z.z.",
"3 z.z.z.z.z.3 z.z.O.z.*.X m d.d.f.a.a.a.<.d.s./ @ N s.y.U T T U T | <.w.% N d.<.2.<.a.<.a.d.2.^ o 7 z.z.z.z.3 z.z.3 z.z.z.z.z.z.",
"z.3 z.z.z.{.z.z.z.z.3 *.o t 2.k..X.X.X.X.X.X.XP.G ! a.y.{ ] ] ] ] t.a.r.p h..XXX.XXXXXXXXXY.2.>.o : z.z.z.(.&.&.&.=.3 z.z.z.z.{.",
"z.3 z.z.z.{.z.z.z.3 z.*.X t a.R.qXqXqXqXwXqXqX6Xs.a.d.d.a.a.a.a.a.2.d.a.d.R.eXqXeXeXeXeXeX1Xs.a o : z.z.z.x.o o o ; z.z.z.z.{.z.",
"{.z.z.z.z.z.{.{.{.z.z.;.O.4.~ P.qXeXeXeXqXqXqX7X.X[..XU.~ ~ ~ ~ ! h..X[..X1XeXqXqXqXeXeXqX<X~ 7.G.K. X/.&.$.C.N.o 6 z.z.z.z.z.{.",
"z.z.z.z.z.z.z.z.z.z.z.z.z.*.  B.eXwXeXeXeXeXwXqXqXqXeX-X$ % % % % V.eXeXqXqXqXeXeXeXwXwXeX=Xo C.qXwXwX=X  N.eX;X  6 z.z.z.z.z.z.",
"z.z.z.z.z.3 z.z.z.z.z.z.{.;.O.4.%X>XwXeXeXeXeXeXeXeXeX9XJ.N.& q J.%XeXeXeXeXeXeXeXeXeX9X%XZ.O.6.%X%X%X#XG.%XqX;X  6 z.z.{.z.z.z.",
"z.z.z.z.{.z.3 z.z.z.z.z.z.z.z.*.  B.wXeXeXeXeXeXeXeXqXwXqX;X& A.qXqXqXeXeXeXeXeXeXeXwX=X  7 z.*.X X o B.wXeXqX;X  6 z.z.z.z.z.z.",
"3 z.z.z.z.{.z.z.z.z.z.z.z.z.z.2 > 6.%X>XwXeXeXeXeXeXeX9X%X#XG.K.%X>XeXeXeXeXeXeXeX9X%XH.+.O.&.0 G.G.G.%XwXwXeX:X  6 z.z.z.z.z.3 ",
"z.3 z.z.z.z.z.z.z.z.z.z.z.z.3 z.z.1 X V.wXeXeXeXeXeXwX-X$ A.eX:X& A.eXwXeXeXeXeXwX=Xo 7 /.*.o C.eXeXqXqXeXeXeX;Xo 6 z.z.z.z.3 z.",
"z.z.3 z.z.z.z.z.z.z.z.z.z.{.z.z.z.;.> 6.%X%X*X4XqXwXwX8XS.%XqX9XS.%XeXeXeX0X*X&X%X^.F.Z.&.9.u h.OX7XqXeXeXqXeX;XX 6 z.z.z.{.z.z.",
"z.3 z.z.z.z.z.z.z.{.z.z.z.{.z.z.z.3 z.*.o * j D.qXeXeXeXeXeXqXeXeXeXeXeXwX:Xj s o C.wX;X  t a.a.<.T.qXwXeXeXwX;XX 3.z.z.z.{.z.z.",
"{.z.z.z.z.z.z.z.3 z.{.z.z.z.{.{.{.:.&.@.d B ) L.*X*X*X*X*X*X*X*X*X*X*X*X*X^.) B w M.%XQ.u ~ t.g.u.k.OXOXOX1XOX^.o 6 {.z.z.z.{.{.",
"z.z.z.z.z.z.z.z.z.3 z.z.z.z.z.z.z.*.  d Y | a.[ j j j l l j j l z z z z z P f.u.T M o t f.i.U U T | f.2.d.<.2.w.o ; z.z.z.z.z.z.",
"z.z.z.3 z.z.z.z.z.z.z.z.z.z.z.z.z.*.  e | { 2.j.Q.~.~.~.~.~.~.~.~.~.~.~.~.L.2.y.] E O b u. .o.T T } u.i.a.d.d.^ o 6 z.z.z.z.z.z.",
"z.z.z.z.z.z.z.z.z.z.z.z.z.z.z.z.z.*.  t a.<.2.].qXeXeXeXeXeXeXeXeXeXeXeXeX6Xd.<.<.^ @ f T T o.T T T T | <.d.2.^ o 6 z.z.z.z.z.z.",
"z.z.z.z.z.z.z.3 3 z.z.z.z.z.z.:.&.#.u ~ d.2.<.R.qXeXeXeXeXeXeXeXeXeXeXeXeX1Xf.<.2.r.G B L K T T T T T | <.r.! F , $.z.z.z.z.z.z.",
"3 z.z.z.z.z.3 z.z.3 z.z.z.z.z.*.  t a.2.a.<.d.R.wXwXwXeXeXeXeXeXeXeXeXwXwX6X2.<.a.<.a.[ z c T T U T T | d.^ o 6 z.3 z.z.z.z.z.z.",
"z.3 z.z.z.{.z.z.z.z.3 z.z.z.z.x.  t a.<.a.k.[.oX,X4XeXeXeXeXeXeXeXeXeX0X,XoX.XY.d.<.<.[ l c T T U T T _ ~ 5.8 $.z.z.3 z.z.z.z.{.",
"z.3 z.z.z.{.z.z.z.3 z.z.z.z.{.*.  t a.<.a.R.qX3Xo.!.eXqXeXeXeXeXeXeXeX3XY !.qX6X<.<.<.[ l c o.T U T R M o 3.z.z.z.3 z.z.z.z.{.z.",
"{.z.z.z.z.z.{.{.{.z.z.z.z.z.z.x.  t a.<.d.T.eX3XY !.qXqXeXeXeXeXeXeXwX3XT !.qX1Xd.<.<.( s x T P V M M A 8 &.{.{.{.z.z.z.z.z.z.{.",
"z.z.z.z.z.z.z.z.z.z.z.z.z.z.z.*.X t d.a.d.T.qX3XT I.eXeXeXeXeXeXeXeXeX3XT !.wX6X1.<.<.^ % f I M o o o 5 z.z.z.z.z.z.z.z.z.z.z.z.",
"z.z.z.z.z.3 z.z.z.z.z.z.{.z.z.*.o r t.i.d.T.qX2XL W.qXeXeX0X,X4XeXeXwX3XL W.wX6X2.p.u.~ + - V A 8 8 8 $.z.3 z.z.z.z.z.z.{.z.z.z.",
"z.z.z.z.{.z.3 z.z.z.z.z.z.z.z.*.o w T ] a.T.qX2Xh E.eXeXeX3XY I.qXeXeX2Xj E.eX5Xs.t.U M   o o 7 z.z.z.z.{.z.3 z.z.z.z.z.z.z.z.z.",
"3 z.z.z.z.{.z.z.z.z.z.z.z.z.z.2 > D V H ~ P.eX:Xg D.eXeXeX3XL W.eXeXeX:Xg D.eX<X` E V A 8 8 8 < 3 z.z.z.z.{.z.z.z.z.z.z.z.z.z.3 ",
"z.3 z.z.z.z.z.z.z.z.z.z.z.z.3 z.z.1 . o o B.eX=X& A.wXeXwX2Xj E.wXwXeX;X% V.eX=X. o . 7 z.z.3 z.z.3 z.z.z.z.z.z.z.z.z.z.z.z.3 z.",
"z.z.3 z.z.z.z.z.z.z.z.z.z.{.z.z.z.;.> 8 8 4.%XJ.# m.&X4XeX:Xg D.eX9X&XJ.+ m.&XH.8 8 8 &.z.{.z.z.z.z.3 z.z.z.z.z.z.z.z.z.z.{.z.z.",
"z.3 z.z.z.z.z.z.z.{.z.z.z.{.z.z.z.3 z.z.z.*.  o o O $ V.eX;X$ A.wX=X$ # o o o 6 z.{.z.z.z.{.z.z.z.3 z.z.z.z.z.z.z.{.z.z.z.{.z.z.",
"{.z.z.z.z.z.z.z.3 z.{.z.z.z.{.{.{.z.z.z.z.;.8 8 : 4 # m.=XJ.# m.&XJ.# , 8 8 8 $.3 z.{.z.z.z.{.{.{.z.z.z.z.z.z.z.3 z.{.z.z.z.{.{.",
"z.z.z.z.z.z.z.z.z.3 z.z.z.z.z.z.z.z.z.z.z.z.z.z.z.1 X o o o X X o o o 7 z.z.z.z.z.3 z.z.z.z.z.z.z.z.z.z.z.z.z.z.z.3 z.z.z.z.z.z.",
"z.z.z.3 z.z.z.z.z.z.z.z.z.z.z.z.z.z.z.3 z.z.z.z.z.;.8 7 7 7 7 7 7 7 8 < z.z.z.z.z.z.z.z.z.z.z.z.z.z.z.3 z.z.z.z.z.z.z.z.z.z.z.z.",
"z.z.z.z.z.z.z.z.z.z.z.z.z.z.z.z.z.z.z.z.z.z.z.z.z.z.z.z.z.z.z.z.z.z.z.z.z.z.z.z.z.z.z.z.z.z.z.z.z.z.z.z.z.z.z.z.z.z.z.z.z.z.z.z.",
"z.z.z.z.z.z.z.3 3 z.z.z.z.z.z.z.z.z.z.z.z.z.z.3 3 z.z.z.z.z.z.z.z.z.z.z.z.z.z.3 3 z.z.z.z.z.z.z.z.z.z.z.z.z.z.3 3 z.z.z.z.z.z.z.",
"3 z.z.z.z.z.3 z.z.3 z.z.z.z.z.z.3 z.z.z.z.z.3 z.z.3 z.z.z.z.z.z.3 z.z.z.z.z.3 z.z.3 z.z.z.z.z.z.3 z.z.z.z.z.3 z.z.3 z.z.z.z.z.z.",
"z.3 z.z.z.{.z.z.z.z.3 z.z.z.z.{.z.3 z.z.z.{.z.z.z.z.3 z.z.z.z.{.z.3 z.z.z.{.z.z.z.z.3 z.z.z.z.{.z.3 z.z.z.{.z.z.z.z.3 z.z.z.z.{."
};
