/* XPM */
static char * key_xpm[] = {
"64 64 607 2",
"  	c #AEC440",
". 	c #527F39",
"+ 	c #D7E894",
"@ 	c #889930",
"# 	c #3F622B",
"$ 	c #E1D4C5",
"% 	c #9A937F",
"& 	c #030802",
"* 	c #55611B",
"= 	c #80902D",
"- 	c #466D30",
"; 	c #9AAE38",
"> 	c #A99384",
", 	c #6C573E",
"' 	c #0F0A04",
") 	c #3C311C",
"! 	c #0D0903",
"~ 	c #332B16",
"{ 	c #928058",
"] 	c #3E622A",
"^ 	c #C6D688",
"/ 	c #738328",
"( 	c #3B2E23",
"_ 	c #050301",
": 	c #2E2009",
"< 	c #8A7035",
"[ 	c #775E26",
"} 	c #2B2008",
"| 	c #030201",
"1 	c #515C1A",
"2 	c #83942E",
"3 	c #AAC03E",
"4 	c #487032",
"5 	c #9E8777",
"6 	c #392B1C",
"7 	c #201609",
"8 	c #201606",
"9 	c #654919",
"0 	c #CD9029",
"a 	c #CE9125",
"b 	c #845F18",
"c 	c #1F1503",
"d 	c #080501",
"e 	c #67563B",
"f 	c #7C8C2B",
"g 	c #99AD37",
"h 	c #92A535",
"i 	c #637021",
"j 	c #2F251B",
"k 	c #180E03",
"l 	c #0B0501",
"m 	c #927331",
"n 	c #C69834",
"o 	c #EA9F2A",
"p 	c #FFB22E",
"q 	c #D69525",
"r 	c #90651A",
"s 	c #392809",
"t 	c #1D1407",
"u 	c #0B0E01",
"v 	c #7F8F2C",
"w 	c #8D9F32",
"x 	c #A0B53A",
"y 	c #90A234",
"z 	c #647121",
"A 	c #090603",
"B 	c #020101",
"C 	c #35250F",
"D 	c #AC7C2C",
"E 	c #E1A233",
"F 	c #FCB235",
"G 	c #FEAD2E",
"H 	c #E4A02F",
"I 	c #A1741F",
"J 	c #3A2A0B",
"K 	c #78613C",
"L 	c #515C19",
"M 	c #7A8A2A",
"N 	c #626F21",
"O 	c #22180E",
"P 	c #251807",
"Q 	c #7F5A2B",
"R 	c #B5903E",
"S 	c #E6B13F",
"T 	c #F5B334",
"U 	c #FCB33C",
"V 	c #FCAD3B",
"W 	c #D99E2D",
"X 	c #B07D27",
"Y 	c #422F11",
"Z 	c #5A4526",
"` 	c #414A13",
" .	c #333B0D",
"..	c #879830",
"+.	c #879930",
"@.	c #232807",
"#.	c #171B03",
"$.	c #584325",
"%.	c #AB7B3B",
"&.	c #E3A345",
"*.	c #FFBC45",
"=.	c #FFB83B",
"-.	c #F5AD34",
";.	c #F3AD39",
">.	c #FBB344",
",.	c #F3AB44",
"'.	c #F5A742",
").	c #F0A933",
"!.	c #DE9D34",
"~.	c #B3812F",
"{.	c #543C15",
"].	c #7C603A",
"^.	c #345323",
"/.	c #ACC23F",
"(.	c #97AA36",
"_.	c #57631C",
":.	c #040201",
"<.	c #2D1E0A",
"[.	c #A87A3D",
"}.	c #F0BB56",
"|.	c #D79C3A",
"1.	c #BD8A39",
"2.	c #A27935",
"3.	c #A17531",
"4.	c #BE8A3E",
"5.	c #DD9E43",
"6.	c #E19A2E",
"7.	c #D38F2A",
"8.	c #CB9336",
"9.	c #AF8948",
"0.	c #12210A",
"a.	c #6F7E26",
"b.	c #D5E692",
"c.	c #A6BC3D",
"d.	c #42682D",
"e.	c #728127",
"f.	c #2A3109",
"g.	c #271E15",
"h.	c #694E30",
"i.	c #AC7B3D",
"j.	c #D89F43",
"k.	c #EEA831",
"l.	c #E1AD48",
"m.	c #B49356",
"n.	c #191308",
"o.	c #181209",
"p.	c #191309",
"q.	c #C69C61",
"r.	c #CE863D",
"s.	c #EB9430",
"t.	c #FCA62D",
"u.	c #E5A947",
"v.	c #B7945F",
"w.	c #2F360B",
"x.	c #707F26",
"y.	c #253E18",
"z.	c #050701",
"A.	c #573E2B",
"B.	c #8A5F33",
"C.	c #D49E59",
"D.	c #FFCB69",
"E.	c #FDAD35",
"F.	c #D39E3A",
"G.	c #927C48",
"H.	c #465015",
"I.	c #677045",
"J.	c #718027",
"K.	c #6B7924",
"L.	c #554E42",
"M.	c #8C5227",
"N.	c #D77B2C",
"O.	c #FAA335",
"P.	c #D69A44",
"Q.	c #90703B",
"R.	c #2E281B",
"S.	c #3F4812",
"T.	c #8A9B31",
"U.	c #A7BC3D",
"V.	c #B4C37B",
"W.	c #494F30",
"X.	c #221D19",
"Y.	c #9C806D",
"Z.	c #B0784D",
"`.	c #CD903D",
" +	c #FAB44D",
".+	c #FFC453",
"++	c #C6963D",
"@+	c #816D47",
"#+	c #2D340B",
"$+	c #C9D98A",
"%+	c #9BA86A",
"&+	c #191715",
"*+	c #855430",
"=+	c #D3782B",
"-+	c #D09239",
";+	c #A98B53",
">+	c #282F09",
",+	c #5A661D",
"'+	c #5C5248",
")+	c #402D1E",
"!+	c #825C33",
"~+	c #F8C26C",
"{+	c #FFD463",
"]+	c #F4B33B",
"^+	c #EFAC37",
"/+	c #CC963E",
"(+	c #816B47",
"_+	c #A3B73B",
":+	c #7D8D2C",
"<+	c #554F4A",
"[+	c #7A4C30",
"}+	c #D17B31",
"|+	c #CF9745",
"1+	c #6F562C",
"2+	c #060402",
"3+	c #6E7D25",
"4+	c #899B31",
"5+	c #544A42",
"6+	c #3B2917",
"7+	c #966931",
"8+	c #FDC564",
"9+	c #FECA4B",
"0+	c #F4BA32",
"a+	c #FDAB43",
"b+	c #D29743",
"c+	c #505734",
"d+	c #2C320A",
"e+	c #80912D",
"f+	c #744F2D",
"g+	c #CC7830",
"h+	c #F4A434",
"i+	c #D29430",
"j+	c #5F4619",
"k+	c #171107",
"l+	c #687623",
"m+	c #6B6259",
"n+	c #4B3524",
"o+	c #855C2B",
"p+	c #EFBA5E",
"q+	c #F0BE46",
"r+	c #F0B529",
"s+	c #DBA144",
"t+	c #9F8559",
"u+	c #55504A",
"v+	c #C67B2B",
"w+	c #DC9632",
"x+	c #8E631D",
"y+	c #281B07",
"z+	c #372C1B",
"A+	c #766A63",
"B+	c #392B1F",
"C+	c #795032",
"D+	c #8F6B3B",
"E+	c #D5AB45",
"F+	c #ECB430",
"G+	c #DEA64C",
"H+	c #9F8659",
"I+	c #477031",
"J+	c #395A26",
"K+	c #81512E",
"L+	c #EFA337",
"M+	c #BE8030",
"N+	c #35260B",
"O+	c #110C03",
"P+	c #867159",
"Q+	c #9DB139",
"R+	c #A4B93C",
"S+	c #0C1806",
"T+	c #453D36",
"U+	c #3E2816",
"V+	c #654218",
"W+	c #BA8935",
"X+	c #FACB50",
"Y+	c #9E865D",
"Z+	c #2B461C",
"`+	c #778729",
" @	c #4E5918",
".@	c #7D746D",
"+@	c #A36843",
"@@	c #CF7E3A",
"#@	c #E9A345",
"$@	c #F4B143",
"%@	c #E4A12F",
"&@	c #A27429",
"*@	c #0D0A03",
"=@	c #272D08",
"-@	c #7B8B2B",
";@	c #86982F",
">@	c #394210",
",@	c #091304",
"'@	c #382519",
")@	c #7C5D2E",
"!@	c #C89E45",
"~@	c #F1AD37",
"{@	c #E2AB47",
"]@	c #B49760",
"^@	c #30380C",
"/@	c #383E24",
"(@	c #59651D",
"_@	c #B4A68E",
":@	c #BB7641",
"<@	c #DA8134",
"[@	c #F4A23C",
"}@	c #EFA331",
"|@	c #BE8F30",
"1@	c #4A3917",
"2@	c #8C7E5D",
"3@	c #84952E",
"4@	c #9CB039",
"5@	c #3A5B27",
"6@	c #6D7B25",
"7@	c #918073",
"8@	c #625241",
"9@	c #190F06",
"0@	c #4F3310",
"a@	c #AD7E37",
"b@	c #FFC44A",
"c@	c #EFAF3A",
"d@	c #DEA542",
"e@	c #B08544",
"f@	c #70552A",
"g@	c #48361A",
"h@	c #6B5027",
"i@	c #7D6033",
"j@	c #C8974E",
"k@	c #B28235",
"l@	c #75623C",
"m@	c #6D7649",
"n@	c #A1B53B",
"o@	c #82932E",
"p@	c #423124",
"q@	c #0B0502",
"r@	c #6D5129",
"s@	c #A48240",
"t@	c #C28E32",
"u@	c #DA9A2D",
"v@	c #90651E",
"w@	c #A3721F",
"x@	c #C08C27",
"y@	c #DA9F2D",
"z@	c #E7A330",
"A@	c #D2973F",
"B@	c #4E3A1C",
"C@	c #534A39",
"D@	c #CBDB8B",
"E@	c #6F7D26",
"F@	c #5B4D40",
"G@	c #1B120A",
"H@	c #1F1305",
"I@	c #402C0E",
"J@	c #AF8536",
"K@	c #E9A430",
"L@	c #E29F2F",
"M@	c #F7AE34",
"N@	c #D2993C",
"O@	c #B29764",
"P@	c #436A2E",
"Q@	c #84962F",
"R@	c #64503F",
"S@	c #211608",
"T@	c #6A5325",
"U@	c #E3A73C",
"V@	c #F6AE2E",
"W@	c #D29F42",
"X@	c #987D46",
"Y@	c #554B3C",
"Z@	c #8A9C31",
"`@	c #675344",
" #	c #302213",
".#	c #4F3616",
"+#	c #AC8235",
"@#	c #FBCC49",
"##	c #FEC446",
"$#	c #F9C044",
"%#	c #C39844",
"&#	c #97855B",
"*#	c #3E392E",
"=#	c #4D7735",
"-#	c #41662C",
";#	c #735B47",
">#	c #100A03",
",#	c #866536",
"'#	c #EABA5B",
")#	c #FFCB5B",
"!#	c #FFD05E",
"~#	c #FFCB64",
"{#	c #E0AE50",
"]#	c #C29D4E",
"^#	c #6F5E38",
"/#	c #060604",
"(#	c #778629",
"_#	c #365624",
":#	c #4A3D30",
"<#	c #55412F",
"[#	c #BA844F",
"}#	c #E59A51",
"|#	c #E8A855",
"1#	c #E59945",
"2#	c #D79945",
"3#	c #A27A41",
"4#	c #131009",
"5#	c #29251E",
"6#	c #97AB37",
"7#	c #263F19",
"8#	c #59463A",
"9#	c #875536",
"0#	c #C7773C",
"a#	c #CF7F36",
"b#	c #CB7E2E",
"c#	c #B1722C",
"d#	c #553C22",
"e#	c #212606",
"f#	c #758529",
"g#	c #B8C67E",
"h#	c #4E7936",
"i#	c #0F1302",
"j#	c #825031",
"k#	c #D4813C",
"l#	c #E4A24A",
"m#	c #D59834",
"n#	c #B27F2A",
"o#	c #5C4522",
"p#	c #657222",
"q#	c #343C0E",
"r#	c #825133",
"s#	c #C69038",
"t#	c #6C532F",
"u#	c #899A31",
"v#	c #79892A",
"w#	c #895631",
"x#	c #DF9349",
"y#	c #775C31",
"z#	c #56621B",
"A#	c #92A434",
"B#	c #373F0F",
"C#	c #784B2B",
"D#	c #DA8F47",
"E#	c #FEC65C",
"F#	c #CD9437",
"G#	c #78582B",
"H#	c #D78F46",
"I#	c #FDCB54",
"J#	c #D4952B",
"K#	c #7A582A",
"L#	c #D58C46",
"M#	c #CE962A",
"N#	c #795B2A",
"O#	c #7A4D2B",
"P#	c #DA9247",
"Q#	c #765C29",
"R#	c #8C9E32",
"S#	c #C19325",
"T#	c #665023",
"U#	c #1F3413",
"V#	c #252B07",
"W#	c #B68A24",
"X#	c #4C3A18",
"Y#	c #6D7C25",
"Z#	c #3E4712",
"`#	c #738227",
" $	c #9FAC6D",
".$	c #D68F40",
"+$	c #AA8020",
"@$	c #423213",
"#$	c #667422",
"$$	c #534435",
"%$	c #A5815F",
"&$	c #B68A63",
"*$	c #6A5441",
"=$	c #223916",
"-$	c #8EA033",
";$	c #7E5B1A",
">$	c #634A1D",
",$	c #B08553",
"'$	c #D4984D",
")$	c #C8924A",
"!$	c #684F2E",
"~$	c #3B4310",
"{$	c #BD862A",
"]$	c #4D3510",
"^$	c #15260C",
"/$	c #AB7C34",
"($	c #C58432",
"_$	c #8E6324",
":$	c #634D27",
"<$	c #E4A235",
"[$	c #C08231",
"}$	c #805521",
"|$	c #976124",
"1$	c #B17429",
"2$	c #54370D",
"3$	c #412D0E",
"4$	c #7B6034",
"5$	c #F5A03B",
"6$	c #CF8032",
"7$	c #CB7D30",
"8$	c #A16924",
"9$	c #462F0C",
"0$	c #58641C",
"a$	c #375725",
"b$	c #FAA43D",
"c$	c #DC7E2D",
"d$	c #D67932",
"e$	c #C17934",
"f$	c #473215",
"g$	c #13220A",
"h$	c #4D5818",
"i$	c #476F31",
"j$	c #3B5D28",
"k$	c #7A4B28",
"l$	c #DB8F41",
"m$	c #DB7C33",
"n$	c #DB9042",
"o$	c #936932",
"p$	c #363E0E",
"q$	c #454F14",
"r$	c #4B7534",
"s$	c #81492B",
"t$	c #E48C41",
"u$	c #CF7527",
"v$	c #E59745",
"w$	c #BE8536",
"x$	c #96712C",
"y$	c #68552E",
"z$	c #404912",
"A$	c #253D18",
"B$	c #8E5130",
"C$	c #E99042",
"D$	c #FCA443",
"E$	c #D6782E",
"F$	c #D99034",
"G$	c #8B6023",
"H$	c #80622F",
"I$	c #4C3E25",
"J$	c #464C2D",
"K$	c #768529",
"L$	c #895335",
"M$	c #E39650",
"N$	c #E17B33",
"O$	c #D59130",
"P$	c #7A5B22",
"Q$	c #485216",
"R$	c #865435",
"S$	c #EC9A39",
"T$	c #C28B3A",
"U$	c #865630",
"V$	c #EEB43E",
"W$	c #ECAC45",
"X$	c #BD7235",
"Y$	c #C77437",
"Z$	c #EA9441",
"`$	c #DF963A",
" %	c #AC7D37",
".%	c #8E6E40",
"+%	c #9A897B",
"@%	c #87562C",
"#%	c #E9B03C",
"$%	c #D09D41",
"%%	c #A57548",
"&%	c #855939",
"*%	c #DB8A3D",
"=%	c #F8A741",
"-%	c #F1A538",
";%	c #A79579",
">%	c #768629",
",%	c #160F0A",
"'%	c #AE8545",
")%	c #4C4035",
"!%	c #675849",
"~%	c #AB7E43",
"{%	c #E09A33",
"]%	c #D5A143",
"^%	c #887A60",
"/%	c #E9A537",
"(%	c #A17B41",
"_%	c #4A3A21",
":%	c #A27632",
"<%	c #B68A3D",
"[%	c #93763D",
"}%	c #595545",
"|%	c #15100B",
"1%	c #614020",
"2%	c #916730",
"3%	c #B48E44",
"4%	c #C7993F",
"5%	c #B68429",
"6%	c #654E22",
"7%	c #4B5517",
"8%	c #514C3E",
"9%	c #555145",
"0%	c #514D47",
"a%	c #32390C",
"b%	c #97A367",
"c%	c #94A735",
"d%	c #A7B472",
"e%	c #14100C",
"f%	c #100803",
"g%	c #120B04",
"h%	c #181207",
"i%	c #4A381D",
"j%	c #6B5325",
"k%	c #3F321C",
"l%	c #40642C",
"m%	c #A59D88",
"n%	c #675F4D",
"o%	c #332F25",
"p%	c #191712",
"  .       +       .         +     .       +       .         +     .       +       .         +     .       +       .         +   ",
"+           + + +             + +           + + +             + +           + + +             + +           + + +             + ",
"                                                                                                                                ",
"          .             +                 .             +                 .             +                 .             +       ",
"        +   .                           +   .                           +   .                           +   .                   ",
".         +                   . .         +               @ @ # .         +                   . .         +                   . ",
"  .                         .     .                     $ % & * = -                         .     .                         .   ",
"    .                     +         .               ; > , ' ) ! ~ { ]                     +         .                     +     ",
"  .               +       +       .               ^ / ( _ : < [ } | 1 2 3         +       +       .               +       +     ",
"+               .   +       + + +               4 5 6 7 8 9 0 a b c d e f g     .   +       + + +               .   +       + + ",
"                  .                         3 h i j k l m n o p q r s t u v w x 3 .                               .             ",
"      .                               .     y z A B C D E F G G G H I J K u L M g                     .                         ",
"                                        ; = N O P Q R S T F U V U U W X Y Z `  ...g                                             ",
"              . .                   3 +.N @.#.$.%.&.*.=.-.;.>.,.'.V ).!.~.{.].^.& v ;                         . .               ",
".           .     .             . /.(._.u :.<.[.}.*.F F |.1.2.3.4.5.'.V 6.7.8.9.L 0.a.y         .           .     .             ",
"  .       +         .         b.c.d.e.f.g.h.i.j.*.=.k.l.m.n.o.p.p.q.r.s.t.F -.u.v.w.& a.x     +   .       +         .         + ",
"  .       +       .         + ; x.y.z.A.B.C.D.>.E.E.F.G.H.f.I.J.K.L.M.N.O.E.V V P.Q.R.S.T.U.+     .       +       .         +   ",
"+           + + +             V.W.X.Y.Z.`. +.+*.E.E.++@+S.#+K.$+%+&+*+=+O.E.E.E.U -+;+>+,++.  + +           + + +             + ",
"                              2 '+)+!+~+{+]+^+U E.V /+(+S.#+K._+:+<+[+}+O.E.E.E.E.V |+1+2+3+                                    ",
"          .             +     4+5+6+7+8+9+0+]+-.V a+b+(+c+d+K._+e+<+f+g+h+E.E.E.F E.i+j+k+l+              .             +       ",
"        +   .                 4+m+n+o+p+q+r+T U E.a+s+t+>+f.K._+e+u+f+v+h+F V V V w+x+y+z+e+            +   .                   ",
".         +                   4 A+B+C+D+E+F+T F E.V G+H+>+>+K.I+J+<+K+}+L+]+V V V M+N+O+P+Q+  . .         +                   . ",
"  .                         . R+3+S+T+U+V+W+X+F G V G+Y+>+>+Z+`+ @.@+@@@#@$@V E.%@&@*@=@-@  .     .                         .   ",
"    .                     +     ;@>@,@'@l )@!@~@F F {@]@^@/@(@S.@._@:@<@[@V V }@|@1@2@3@Q++         .                     +     ",
"  .               +       +     4@5@6@7@8@9@0@a@b@*.c@d@e@f@g@h@i@j@'.O.O.E.6.k@l@m@y 3   +       .               +       +     ",
"+               .   +       + + + 3 3 n@o@p@q@r@s@t@u@-.!.v@w@x@y@z@E.E.U V A@B@C@= D@      + + +               .   +       + + ",
"                  .                     R+E@F@G@H@I@J@~@}@K@L@M@F F =.-.-.N@O@H.L P@                              .             ",
"      .                               .   x Q@R@| S@T@U@T F T F V@V@U ;.W@X@Y@L y R+                  .                         ",
"                                            3 Z@`@ #.#+#9+@#####b@##$#%#&#*# .v R+                                              ",
"              . .                             =#-#;#>#,#'#)#!#)#~#{#]#^#/#=@(#4 .                             . .               ",
".           .     .             .           .   3 _#:#<#[#}#|#1#2#3#4#5##.z 4     .             .           .     .             ",
"  .       +         .         +   .       +       6#7#8#9#0#a#b#c#d#@.e#f#g#        .         +   .       +         .         + ",
"  .       +       .         +     .       +       h#a.i#j#k#l#m#n#o##+x.Q++       .         +     .       +       .         +   ",
"+           + + +             + +           + + + 3 p#q#r#}#~#)#s#t#L u#    + + +             + +           + + +             + ",
"                                                  3 v#i#w#x#8+)#A@y#z#A#                                                        ",
"          .             +                 .         :+B#C#D#E#.+F#G#z#A#  .             +                 .             +       ",
"        +   .                           +   .       e+B#C#H#~#I#J#K#z#A#+   .                           +   .                   ",
".         +                   . .         +         e+B#C#L#E###M#N#z#A#  +                   . .         +                   . ",
"  .                         .     .                 e+B#O#P#)#9+M#Q#z#A#R+R#o@Z@R+          .     .                         .   ",
"    .                     +         .               e+B#C#H#)#9+S#T#U#v#@ 1 V#z#y 3       +         .                     +     ",
"  .               +       +       .               + e+B#C#H#)#9+W#X#B#Y#Z#H.,+^@`#^       +       .               +       +     ",
"+               .   +       + + +               .    $B#C#.$)#q++$@$z##$$$%$&$*$=$-$+       + + +               .   +       + + ",
"                  .                               . e+B#C#.$)#q+;$>$_.i#,$'$)$!$~$#                               .             ",
"      .                               .             e+B#C#.$)#q+{$]$f.^$/$($_$:$z#y                   .                         ",
"                                                    e+B#C#.$)#9+<$[$}$|$1$2$3$4$y R+                                            ",
"              . .                             . .   e+B#C#.$)#9+V 5$6$7$8$9$0$a$4                             . .               ",
".           .     .             .           .     . e+B#C#.$)#9+U b$c$d$e$f$g$h$..i$3           .           .     .             ",
"  .       +         .         +   .       +         j$B#k$l$)#9+V b$c$m$n$o$p$q$q#(#r$        +   .       +         .         + ",
"  .       +       .         +     .       +       . :+B#s$t$I#9+U a+u$<@v$w$x$y$z$A$x       +     .       +       .         +   ",
"+           + + +             + +           + + +   v#i#B$C$)#9+V D$E$<@F$G$H$I$J$..R+        + +           + + +             + ",
"                                                    K$i#L$M$~#I#;.D$N$m$O$P$Q$,+J.Z@                                            ",
"          .             +                 .         K$i#R$M$~#I#]+a+m$m$S$T$B#q#i#..g   +                 .             +       ",
"        +   .                           +   .       K$i#U$1#!#@#V$W$X$Y$Z$`$ %.%+%i#..                  +   .                   ",
".         +                   . .         +         K$i#@%1#I#@##%$%%%&%*%=%-%G+;%i#>%        . .         +                   . ",
"  .                         .     .                 K$,%@%1#I#9+c@'%)%!%~%{%F ]%^%f.e.      .     .                         .   ",
"    .                     +         .               K$,%@%1#)###/%(%& d+_%:%<%[%}%@.o@    +         .                     +     ",
"  .               +       +       .               + K$|%1%2%3%4%5%6%Z#Z#7%8%9%0%a%b%c%    +       .               +       +     ",
"+               .   +       + + +               .   d%e%f%g%h%i%j%k% .= ..`#K.3+l%Q++       + + +               .   +       + + ",
"                  .                               . g ..K$K$m%n%o%p%K$; 3 c._+c.3 .                               .             ",
"      .                               .                     x ..>%o@g .                               .                         ",
"                                                                                                                                ",
"              . .                             . .                             . .                             . .               ",
".           .     .             .           .     .             .           .     .             .           .     .             ",
"  .       +         .         +   .       +         .         +   .       +         .         +   .       +         .         + "};
