/* XPM */
static char *result[] = {
/* columns rows colors chars-per-pixel */
"16 16 144 2 ",
"   c #010201",
".  c #040200",
"X  c #040201",
"o  c #070301",
"O  c #010503",
"+  c #020402",
"@  c #020703",
"#  c #020704",
"$  c #0A0501",
"%  c #0B0601",
"&  c #0C0601",
"*  c #0E0701",
"=  c #040A02",
"-  c #040B02",
";  c #020804",
":  c #020905",
">  c #020A05",
",  c #030C06",
"<  c #0F0900",
"1  c #0E0901",
"2  c #0E0C01",
"3  c #140D02",
"4  c #190E02",
"5  c #0E1B07",
"6  c #04110A",
"7  c #05130B",
"8  c #06160D",
"9  c #07170E",
"0  c #07180E",
"q  c #131703",
"w  c #121705",
"e  c #1C1002",
"r  c #1F1807",
"t  c #081A10",
"y  c #091D12",
"u  c #0B1F14",
"i  c #241603",
"p  c #271803",
"a  c #231906",
"s  c #281B05",
"d  c #291F0C",
"f  c #0D2317",
"g  c #0F281A",
"h  c #112A1B",
"j  c #132E1F",
"k  c #262D06",
"l  c #373F0F",
"z  c #2E2C16",
"x  c #243B17",
"c  c #153222",
"v  c #46370B",
"b  c #4C320A",
"n  c #274119",
"m  c #2A441C",
"M  c #2B461C",
"N  c #375825",
"B  c #59450F",
"V  c #4B4112",
"C  c #444E14",
"Z  c #58641C",
"A  c #5E6B1F",
"S  c #515835",
"D  c #645126",
"F  c #7C5F29",
"G  c #476E31",
"H  c #4A7433",
"J  c #4E7936",
"K  c #527F39",
"L  c #6A7824",
"P  c #6B7924",
"I  c #707E26",
"U  c #835A1A",
"Y  c #AA7E00",
"T  c #B17F09",
"R  c #B57D0E",
"E  c #8C7439",
"W  c #768529",
"Q  c #79892A",
"!  c #7A8A2B",
"~  c #A1851D",
"^  c #80912D",
"/  c #84952F",
"(  c #84962F",
")  c #8A9C31",
"_  c #8C9E32",
"`  c #B8822B",
"'  c #92A534",
"]  c #94A735",
"[  c #98AB37",
"{  c #99AD37",
"}  c #9FB33A",
"|  c #A0B43A",
" . c #A6BB3D",
".. c #A7BC3D",
"X. c #DD9908",
"o. c #CF8E10",
"O. c #C69219",
"+. c #CD9A1E",
"@. c #DD9C16",
"#. c #DD9C17",
"$. c #EF9F0C",
"%. c #EDA00F",
"&. c #EEA20F",
"*. c #EDAD0F",
"=. c #F2A102",
"-. c #F2A705",
";. c #FCA606",
":. c #FBA60B",
">. c #FAA60D",
",. c #FAA70D",
"<. c #F3AA09",
"1. c #FCAB09",
"2. c #E6A11B",
"3. c #F7A813",
"4. c #F5A915",
"5. c #F6A914",
"6. c #F4AA17",
"7. c #F8A811",
"8. c #F0AE1C",
"9. c #DD992E",
"0. c #DD9A2F",
"q. c #C78A30",
"w. c #D09033",
"e. c #D99939",
"r. c #E49E39",
"t. c #C9BC36",
"y. c #E2B228",
"u. c #FBAD34",
"i. c #FAAF3A",
"p. c #F9B03A",
"a. c #F9B13C",
"s. c #AAC03E",
"d. c #DDC221",
"f. c #89874F",
"g. c #848F59",
"h. c #C39642",
"j. c #DEAC4E",
"k. c #DAAC50",
"l. c #F6B64A",
"z. c #F5B94F",
"x. c #ADC340",
"c. c #AEC440",
"v. c #CDDE8D",
"b. c #D7E894",
/* pixels */
"c.K c.c.c.b. .c.c.K c.c.c.c.b.c.",
"b.c.] 2 < 1 o . % $ 4 d ; A c.b.",
"x...& T =.<.2.r.q.w.e.i.k.w Z c.",
"..X z.1.d.k + O @ : m t.4.l.0 | ",
" .i -.X.7 P J [ _ _ ^ D 6.6.r ( ",
"H e *.&.j g.c.c.c.c.Q F 7.+.t G ",
" .N a @.z.c f { W y U ` R g M c.",
"c.c.M - O.p.j.z b 0.9.~ x v.c.c.",
"c.K c.^ > V o.a.u.y.n , c.b.c.c.",
"b.c.c.c. .C v ,.#.5 S s.c.c.b.b.",
"c.c.c.c.c.c.8 ;.$.  Q c.c.c.c.c.",
"c.c.c.H ! ) 9 >.$.# / c.c.c.c.c.",
"c.c.[ q 3 s E 3.5.u [ c.c.c.c.c.",
"c.c.L = f.h.%.:.8.h ' c.c.c.c.c.",
"K c.^ l > p * Y Y   I c.c.c.c.c.",
"c.K c.c.c.b.[ B 6 } K c.c.c.c.b."
};
