/* XPM */
static char *result[] = {
/* columns rows colors chars-per-pixel */
"16 16 4 1 ",
"  c #204631",
". c #527F39",
"X c #AEC440",
"o c #D7E894",
/* pixels */
".              .",
" .XXXXXXXXXXXX. ",
"  .XXXXXXXXooXX ",
"   .....XX...oX ",
"    .........oX ",
"    .........XX ",
"    .........oX ",
"   ..........XX ",
"   ..........XX ",
"   .........XXX ",
"   .........XXX ",
"   ..........XX ",
"   ..   .....XX ",
"  .          .X ",
" .            . ",
".              ."
};
