/* XPM */
static char *_37094a8bdf548c4d65ec6c500458fcfWkP6cu5PG98UNtKy[] = {
/* columns rows colors chars-per-pixel */
"64 64 4 1 ",
"  c #204631",
". c #527F39",
"X c #AEC440",
"o c #D7E894",
/* pixels */
".              ..              ..              ..              .",
" .XXXXXXXXXXXX.  .XXXXXXXXXXXX.  .XXXXXXXXXXXX.  .XXXXXXXXXXXX. ",
"  .XXXXXXXXooXX   .XXXXXXXXooXX   .XXXXXXXXooXX   .XXXXXXXXooXX ",
"   .....XX...oX    .....XX...oX    .....XX...oX    .....XX...oX ",
"    .........oX     .........oX     .........oX     .........oX ",
"    .........XX     .........XX     .........XX     .........XX ",
"    .........oX     .........oX     .........oX     .........oX ",
"   ..........XX    ..........XX    ..........XX    ..........XX ",
"   ..........XX    ..........XX    ..........XX    ..........XX ",
"   .........XXX    .........XXX    .........XXX    .........XXX ",
"   .........XXX    .........XXX    .........XXX    .........XXX ",
"   ..........XX    ..........XX    ..........XX    ..........XX ",
"   ..   .....XX    ..   .....XX    ..   .....XX    ..   .....XX ",
"  .          .X   .          .X   .          .X   .          .X ",
" .            .  .            .  .            .  .            . ",
".              ..              ..              ..              .",
".              ..              ..              ..              .",
" .XXXXXXXXXXXX.  .XXXXXXXXXXXX.  .XXXXXXXXXXXX.  .XXXXXXXXXXXX. ",
"  .XXXXXXXXooXX   .XXXXXXXXooXX   .XXXXXXXXooXX   .XXXXXXXXooXX ",
"   .....XX...oX    .....XX...oX    .....XX...oX    .....XX...oX ",
"    .........oX     .........oX     .........oX     .........oX ",
"    .........XX     .........XX     .........XX     .........XX ",
"    .........oX     .........oX     .........oX     .........oX ",
"   ..........XX    ..........XX    ..........XX    ..........XX ",
"   ..........XX    ..........XX    ..........XX    ..........XX ",
"   .........XXX    .........XXX    .........XXX    .........XXX ",
"   .........XXX    .........XXX    .........XXX    .........XXX ",
"   ..........XX    ..........XX    ..........XX    ..........XX ",
"   ..   .....XX    ..   .....XX    ..   .....XX    ..   .....XX ",
"  .          .X   .          .X   .          .X   .          .X ",
" .            .  .            .  .            .  .            . ",
".              ..              ..              ..              .",
".              ..              ..              ..              .",
" .XXXXXXXXXXXX.  .XXXXXXXXXXXX.  .XXXXXXXXXXXX.  .XXXXXXXXXXXX. ",
"  .XXXXXXXXooXX   .XXXXXXXXooXX   .XXXXXXXXooXX   .XXXXXXXXooXX ",
"   .....XX...oX    .....XX...oX    .....XX...oX    .....XX...oX ",
"    .........oX     .........oX     .........oX     .........oX ",
"    .........XX     .........XX     .........XX     .........XX ",
"    .........oX     .........oX     .........oX     .........oX ",
"   ..........XX    ..........XX    ..........XX    ..........XX ",
"   ..........XX    ..........XX    ..........XX    ..........XX ",
"   .........XXX    .........XXX    .........XXX    .........XXX ",
"   .........XXX    .........XXX    .........XXX    .........XXX ",
"   ..........XX    ..........XX    ..........XX    ..........XX ",
"   ..   .....XX    ..   .....XX    ..   .....XX    ..   .....XX ",
"  .          .X   .          .X   .          .X   .          .X ",
" .            .  .            .  .            .  .            . ",
".              ..              ..              ..              .",
".              ..              ..              ..              .",
" .XXXXXXXXXXXX.  .XXXXXXXXXXXX.  .XXXXXXXXXXXX.  .XXXXXXXXXXXX. ",
"  .XXXXXXXXooXX   .XXXXXXXXooXX   .XXXXXXXXooXX   .XXXXXXXXooXX ",
"   .....XX...oX    .....XX...oX    .....XX...oX    .....XX...oX ",
"    .........oX     .........oX     .........oX     .........oX ",
"    .........XX     .........XX     .........XX     .........XX ",
"    .........oX     .........oX     .........oX     .........oX ",
"   ..........XX    ..........XX    ..........XX    ..........XX ",
"   ..........XX    ..........XX    ..........XX    ..........XX ",
"   .........XXX    .........XXX    .........XXX    .........XXX ",
"   .........XXX    .........XXX    .........XXX    .........XXX ",
"   ..........XX    ..........XX    ..........XX    ..........XX ",
"   ..   .....XX    ..   .....XX    ..   .....XX    ..   .....XX ",
"  .          .X   .          .X   .          .X   .          .X ",
" .            .  .            .  .            .  .            . ",
".              ..              ..              ..              ."
};
